<svg width="24" height="24" viewBox="0 0 24 24" fill="none" xmlns="http://www.w3.org/2000/svg">
<path fill-rule="evenodd" clip-rule="evenodd" d="M12 6C11.4477 6 11 6.44772 11 7V8.84615H9V8C9 7.44772 8.55228 7 8 7C7.44772 7 7 7.44772 7 8V8.84615H6.66667C4.60639 8.84615 3 10.5696 3 12.6154C3 13.9698 3.70406 15.1829 4.77778 15.8481V18.1538C4.77778 19.6898 5.9862 21 7.55556 21H16.4444C18.0138 21 19.2222 19.6898 19.2222 18.1538V15.8481C20.2959 15.1829 21 13.9698 21 12.6154C21 10.5696 19.3936 8.84615 17.3333 8.84615H17V8C17 7.44772 16.5523 7 16 7C15.4477 7 15 7.44772 15 8V8.84615H13V7C13 6.44772 12.5523 6 12 6ZM6.77778 18.1538V16.3829C7.79442 16.3522 8.69358 15.9012 9.33333 15.2024C9.9963 15.9265 10.9378 16.3846 12 16.3846C13.0622 16.3846 14.0037 15.9265 14.6667 15.2024C15.3064 15.9012 16.2056 16.3522 17.2222 16.3829V18.1538C17.2222 18.6571 16.8388 19 16.4444 19H7.55556C7.16124 19 6.77778 18.6571 6.77778 18.1538ZM12 14.3846C11.1148 14.3846 10.3333 13.6284 10.3333 12.6154C10.3333 12.0631 9.88562 11.6154 9.33333 11.6154C8.78105 11.6154 8.33333 12.0631 8.33333 12.6154C8.33333 13.6284 7.55191 14.3846 6.66667 14.3846C5.78143 14.3846 5 13.6284 5 12.6154C5 11.6024 5.78143 10.8462 6.66667 10.8462H8H12H16H17.3333C18.2186 10.8462 19 11.6024 19 12.6154C19 13.6284 18.2186 14.3846 17.3333 14.3846C16.4481 14.3846 15.6667 13.6284 15.6667 12.6154C15.6667 12.0631 15.219 11.6154 14.6667 11.6154C14.1144 11.6154 13.6667 12.0631 13.6667 12.6154C13.6667 13.6284 12.8852 14.3846 12 14.3846Z" fill="black"/>
<circle cx="12" cy="4" r="1" fill="black"/>
<circle cx="8" cy="5" r="1" fill="black"/>
<circle cx="16" cy="5" r="1" fill="black"/>
</svg>
