<svg width="24" height="24" viewBox="0 0 24 24" fill="none" xmlns="http://www.w3.org/2000/svg">
<path d="M15.4142 5.41421L14.7071 6.12132V6.12132L15.4142 5.41421ZM14.5858 4.58579L13.8787 5.29289V5.29289L14.5858 4.58579ZM10 3C9.44772 3 9 3.44772 9 4C9 4.55228 9.44772 5 10 5V3ZM5 3C5 2.44772 4.55228 2 4 2C3.44772 2 3 2.44772 3 3H5ZM3 7C3 7.55228 3.44772 8 4 8C4.55228 8 5 7.55228 5 7H3ZM6 6C6.55228 6 7 5.55228 7 5C7 4.44772 6.55228 4 6 4V6ZM2 4C1.44772 4 1 4.44772 1 5C1 5.55228 1.44772 6 2 6V4ZM5 10C5 9.44772 4.55228 9 4 9C3.44772 9 3 9.44772 3 10H5ZM21 17V8H19V17H21ZM18 5H16.8284V7H18V5ZM16.1213 4.70711L15.2929 3.87868L13.8787 5.29289L14.7071 6.12132L16.1213 4.70711ZM13.1716 3H10V5H13.1716V3ZM15.2929 3.87868C14.7303 3.31607 13.9672 3 13.1716 3V5C13.4368 5 13.6911 5.10536 13.8787 5.29289L15.2929 3.87868ZM16.8284 5C16.5632 5 16.3089 4.89464 16.1213 4.70711L14.7071 6.12132C15.2697 6.68393 16.0328 7 16.8284 7V5ZM21 8C21 6.34315 19.6569 5 18 5V7C18.5523 7 19 7.44772 19 8H21ZM19 17C19 17.5523 18.5523 18 18 18V20C19.6569 20 21 18.6569 21 17H19ZM5 5V3H3V5H5ZM5 7V5H3V7H5ZM4 6H6V4H4V6ZM4 4H2V6H4V4ZM14 12C14 13.1046 13.1046 14 12 14V16C14.2091 16 16 14.2091 16 12H14ZM12 10C13.1046 10 14 10.8954 14 12H16C16 9.79086 14.2091 8 12 8V10ZM12 20H18V18H12V20ZM5 17V10H3V17H5ZM3 17C3 18.6569 4.34315 20 6 20V18C5.44772 18 5 17.5523 5 17H3ZM8 12C8 14.2091 9.79086 16 12 16V14C10.8954 14 10 13.1046 10 12H8ZM12 8C9.79086 8 8 9.79086 8 12H10C10 10.8954 10.8954 10 12 10V8ZM12 18H6V20H12V18Z" fill="black"/>
</svg>
