<svg width="24" height="24" viewBox="0 0 24 24" fill="none" xmlns="http://www.w3.org/2000/svg">
<path d="M6 5H5C3.89543 5 3 5.89543 3 7V17C3 18.1046 3.89543 19 5 19H19C20.1046 19 21 18.1046 21 17V7C21 5.89543 20.1046 5 19 5H18" stroke="black" stroke-width="2" stroke-linecap="round"/>
<path d="M15 8C15 6.34667 13.6533 5 12 5C10.3467 5 9 6.34667 9 8C9 9.65333 10.3467 11 12 11C13.6533 11 15 9.65333 15 8Z" stroke="black" stroke-width="2"/>
<path d="M7 19H17V18C17 15.9125 16 14 12 14C8 14 7 15.9125 7 18V19Z" stroke="black" stroke-width="2"/>
</svg>
