<svg width="24" height="24" viewBox="0 0 24 24" fill="none" xmlns="http://www.w3.org/2000/svg">
<path d="M16.0001 20V15C17.6001 14.2 18.0001 12.6667 18.0001 12V11C19.6001 11 21.0001 9.5 21.0001 8L18.0001 7C18.0001 5 17 4 15 4C14.3334 4 13 4.4 13 6L13 7.49996C13 8.69994 14 8.99997 14.5 8.99999M4.00006 20L4 17C4 13 5.99994 10 9.99997 10M7.00006 20L7.00006 18C8.00003 17 8.00003 16 8.00003 15C10 16 9.99997 16 13.0001 16L13 20M5.00004 12C3.5 11.5 3 10 3 9" stroke="black" stroke-width="2" stroke-linecap="round" stroke-linejoin="round"/>
</svg>
