<svg width="24" height="24" viewBox="0 0 24 24" fill="none" xmlns="http://www.w3.org/2000/svg">
<path d="M17.8838 15C20.3004 15 21 14.5 21 13C20.1236 3.16408 15.9363 4.40257 14 6.39876" stroke="black" stroke-width="2"/>
<path d="M6.1162 15C3.6996 15 3 14.5 3 13C3.87638 3.16408 8.06366 4.40257 10 6.39876" stroke="black" stroke-width="2"/>
<path d="M12 20C16.1666 20 18 17.5 18 16C18 7.99999 15.3333 6 12 6C8.66667 6 6 8.00002 6 16C6 17.5 7.83333 20 12 20ZM12 20L12 16.5M12 16.5C12.2778 16.5 12.8333 16.3 12.8333 15.5C12.8333 15 12.4167 15 12 15C11.5833 15 11.1667 15 11.1667 15.5C11.1667 16.2999 11.7222 16.5 12 16.5Z" stroke="black" stroke-width="2"/>
<circle cx="10" cy="12" r="1" fill="black"/>
<circle cx="14" cy="12" r="1" fill="black"/>
</svg>
