<svg width="24" height="24" viewBox="0 0 24 24" fill="none" xmlns="http://www.w3.org/2000/svg">
<path d="M18.7725 8.14373C19.0758 7.84044 19.0758 7.33495 18.7725 7.04722L16.9528 5.22747C16.665 4.92418 16.1596 4.92418 15.8563 5.22747L15.1363 5.9435C14.744 6.33371 14.7431 6.96836 15.1344 7.35964L16.6364 8.86168C17.0262 9.25145 17.6579 9.25232 18.0487 8.86361L18.7725 8.14373ZM5.29257 15.7909C5.10523 15.9784 5 16.2326 5 16.4977V18C5 18.5523 5.44772 19 6 19H7.50178C7.76716 19 8.02165 18.8945 8.20921 18.7068L15.8108 11.0983C16.201 10.7077 16.2009 10.0748 15.8105 9.68441L14.3085 8.18236C13.9178 7.79171 13.2844 7.79185 12.8939 8.18268L5.29257 15.7909Z" fill="black"/>
</svg>
