<svg width="24" height="24" viewBox="0 0 24 24" fill="none" xmlns="http://www.w3.org/2000/svg">
<path d="M20 12L12.9878 5.86429C12.4222 5.36944 11.5778 5.36944 11.0122 5.86429L4 12M18 10.25V17.5C18 18.3284 17.3284 19 16.5 19H7.5C6.67157 19 6 18.3284 6 17.5V10.25" stroke="black" stroke-width="2" stroke-linecap="round" stroke-linejoin="round"/>
<path d="M12.864 18.281L12 19L11.136 18.281L11.1269 18.2735C8.03599 15.7287 6 14.0524 6 11.9956C6 10.3181 7.452 9 9.3 9C10.344 9 11.34 9.44662 12 10.1438C12.66 9.44662 13.656 9 14.7 9C16.548 9 18 10.3181 18 11.9956C18 14.0524 15.964 15.7287 12.8731 18.2735L12.864 18.281Z" stroke="black" stroke-width="2" stroke-linecap="round" stroke-linejoin="round"/>
</svg>
