<svg width="24" height="24" viewBox="0 0 24 24" fill="none" xmlns="http://www.w3.org/2000/svg">
<path fill-rule="evenodd" clip-rule="evenodd" d="M12 4C7.58172 4 4 7.58172 4 12C4 16.4183 7.58172 20 12 20C16.4183 20 20 16.4183 20 12C20 7.58172 16.4183 4 12 4ZM6 12C6 8.68629 8.68629 6 12 6C15.3137 6 18 8.68629 18 12C18 15.3137 15.3137 18 12 18C8.68629 18 6 15.3137 6 12Z" fill="black"/>
<path d="M12 8C12.5523 8 13 8.44772 13 9V9.58579L13.4142 9.17157C13.8047 8.78105 14.4379 8.78105 14.8284 9.17157C15.219 9.5621 15.219 10.1953 14.8284 10.5858L14.4142 11H15C15.5523 11 16 11.4477 16 12C16 12.5523 15.5523 13 15 13H14.4142L14.8284 13.4142C15.219 13.8047 15.219 14.4379 14.8284 14.8284C14.4379 15.219 13.8047 15.219 13.4142 14.8284L13 14.4142V15C13 15.5523 12.5523 16 12 16C11.4477 16 11 15.5523 11 15V14.4142L10.5858 14.8284C10.1953 15.219 9.5621 15.219 9.17157 14.8284C8.78105 14.4379 8.78105 13.8047 9.17157 13.4142L9.58579 13H9C8.44772 13 8 12.5523 8 12C8 11.4477 8.44772 11 9 11H9.58579L9.17157 10.5858C8.78105 10.1953 8.78105 9.5621 9.17157 9.17157C9.5621 8.78105 10.1953 8.78105 10.5858 9.17157L11 9.58579V9C11 8.44772 11.4477 8 12 8Z" fill="black"/>
</svg>
