<svg width="24" height="24" viewBox="0 0 24 24" fill="none" xmlns="http://www.w3.org/2000/svg">
<path fill-rule="evenodd" clip-rule="evenodd" d="M9.01333 4C7.68371 4 6.40855 4.52819 5.46837 5.46837C4.52819 6.40855 4 7.68372 4 9.01333V14.9867C4 17.7531 6.24686 20 9.01333 20H14.9867C16.3163 20 17.5914 19.4718 18.5316 18.5316C19.4718 17.5914 20 16.3163 20 14.9867V9.01333C20 6.24686 17.7531 4 14.9867 4H9.01333ZM6.72545 6.72545C7.33223 6.11867 8.15521 5.77778 9.01333 5.77778H14.9867C16.7713 5.77778 18.2222 7.2287 18.2222 9.01333V14.9867C18.2222 15.8448 17.8813 16.6678 17.2746 17.2746C16.6678 17.8813 15.8448 18.2222 14.9867 18.2222H9.01333C7.2287 18.2222 5.77778 16.7713 5.77778 14.9867V9.01333C5.77778 8.15521 6.11867 7.33223 6.72545 6.72545Z" fill="black"/>
<path fill-rule="evenodd" clip-rule="evenodd" d="M16 12C16 10.9391 15.5786 9.92172 14.8284 9.17157C14.0783 8.42143 13.0609 8 12 8C10.9391 8 9.92172 8.42143 9.17157 9.17157C8.42143 9.92172 8 10.9391 8 12C8 13.0609 8.42143 14.0783 9.17157 14.8284C9.92172 15.5786 10.9391 16 12 16C13.0609 16 14.0783 15.5786 14.8284 14.8284C15.5786 14.0783 16 13.0609 16 12ZM10.5858 10.5858C10.9609 10.2107 11.4696 10 12 10C12.5304 10 13.0391 10.2107 13.4142 10.5858C13.7893 10.9609 14 11.4696 14 12C14 12.5304 13.7893 13.0391 13.4142 13.4142C13.0391 13.7893 12.5304 14 12 14C11.4696 14 10.9609 13.7893 10.5858 13.4142C10.2107 13.0391 10 12.5304 10 12C10 11.4696 10.2107 10.9609 10.5858 10.5858Z" fill="black"/>
<path d="M16.7071 7.29289C16.5196 7.10536 16.2652 7 16 7C15.7348 7 15.4804 7.10536 15.2929 7.29289C15.1054 7.48043 15 7.73478 15 8C15 8.26522 15.1054 8.51957 15.2929 8.70711C15.4804 8.89464 15.7348 9 16 9C16.2652 9 16.5196 8.89464 16.7071 8.70711C16.8946 8.51957 17 8.26522 17 8C17 7.73478 16.8946 7.48043 16.7071 7.29289Z" fill="black"/>
</svg>
