<svg width="24" height="24" viewBox="0 0 24 24" fill="none" xmlns="http://www.w3.org/2000/svg">
<path d="M12 11V10V11ZM12 7V6V7ZM6 9.3H5H6ZM12 21L11.2419 21.6521C11.4319 21.873 11.7087 22 12 22C12.2913 22 12.5681 21.873 12.7581 21.6521L12 21ZM12 10C11.7348 10 11.4804 9.89464 11.2929 9.70711L9.87868 11.1213C10.4413 11.6839 11.2044 12 12 12V10ZM11.2929 9.70711C11.1054 9.51957 11 9.26522 11 9H9C9 9.79565 9.31607 10.5587 9.87868 11.1213L11.2929 9.70711ZM11 9C11 8.73478 11.1054 8.48043 11.2929 8.29289L9.87868 6.87868C9.31607 7.44129 9 8.20435 9 9H11ZM11.2929 8.29289C11.4804 8.10536 11.7348 8 12 8V6C11.2044 6 10.4413 6.31607 9.87868 6.87868L11.2929 8.29289ZM12 8C12.2652 8 12.5196 8.10536 12.7071 8.29289L14.1213 6.87868C13.5587 6.31607 12.7956 6 12 6V8ZM12.7071 8.29289C12.8946 8.48043 13 8.73478 13 9H15C15 8.20435 14.6839 7.44129 14.1213 6.87868L12.7071 8.29289ZM13 9C13 9.13132 12.9741 9.26136 12.9239 9.38268L14.7716 10.1481C14.9224 9.78407 15 9.39397 15 9H13ZM12.9239 9.38268C12.8736 9.50401 12.8 9.61425 12.7071 9.70711L14.1213 11.1213C14.3999 10.8427 14.6209 10.512 14.7716 10.1481L12.9239 9.38268ZM12.7071 9.70711C12.6142 9.79997 12.504 9.87363 12.3827 9.92388L13.1481 11.7716C13.512 11.6209 13.8427 11.3999 14.1213 11.1213L12.7071 9.70711ZM12.3827 9.92388C12.2614 9.97413 12.1313 10 12 10V12C12.394 12 12.7841 11.9224 13.1481 11.7716L12.3827 9.92388ZM12 2C10.1273 2 8.34179 2.78157 7.03322 4.15557L8.4815 5.53488C9.42336 4.54592 10.6901 4 12 4V2ZM7.03322 4.15557C5.72623 5.52791 5 7.37924 5 9.3H7C7 7.87904 7.53805 6.5255 8.4815 5.53488L7.03322 4.15557ZM5 9.3C5 10.674 5.43106 12.1389 6.01772 13.5139C6.60958 14.9011 7.39069 16.2672 8.15871 17.4625C8.92846 18.6604 9.6964 19.7041 10.2713 20.4479C10.5592 20.8203 10.7996 21.1188 10.9691 21.3254C11.0539 21.4287 11.1209 21.5091 11.1674 21.5643C11.1906 21.5919 11.2087 21.6132 11.2212 21.6279C11.2275 21.6353 11.2324 21.641 11.2358 21.645C11.2376 21.6471 11.2389 21.6487 11.2399 21.6499C11.2405 21.6505 11.2409 21.6509 11.2412 21.6513C11.2414 21.6515 11.2415 21.6517 11.2416 21.6518C11.2418 21.652 11.2419 21.6521 12 21C12.7581 20.3479 12.7582 20.348 12.7582 20.348C12.7582 20.348 12.7583 20.3481 12.7583 20.348C12.7582 20.348 12.7581 20.3478 12.7579 20.3476C12.7574 20.3471 12.7566 20.3461 12.7555 20.3448C12.7532 20.3421 12.7495 20.3378 12.7444 20.3318C12.7342 20.3198 12.7186 20.3014 12.6979 20.2768C12.6564 20.2275 12.5946 20.1534 12.5153 20.0567C12.3566 19.8634 12.1283 19.5801 11.8537 19.2248C11.3036 18.5131 10.5715 17.5177 9.84129 16.3813C9.10931 15.2421 8.39042 13.9786 7.85728 12.729C7.31894 11.4673 7 10.2885 7 9.3H5ZM12 21C12.7581 21.6521 12.7582 21.652 12.7584 21.6518C12.7585 21.6517 12.7586 21.6515 12.7588 21.6513C12.7591 21.6509 12.7595 21.6505 12.7601 21.6499C12.7611 21.6487 12.7624 21.6471 12.7642 21.645C12.7676 21.641 12.7725 21.6353 12.7788 21.6279C12.7913 21.6132 12.8094 21.5919 12.8326 21.5643C12.8791 21.5091 12.9461 21.4287 13.0309 21.3254C13.2004 21.1188 13.4408 20.8203 13.7287 20.4479C14.3036 19.7041 15.0715 18.6604 15.8413 17.4625C16.6093 16.2672 17.3904 14.9011 17.9823 13.5139C18.5689 12.1389 19 10.674 19 9.3H17C17 10.2885 16.6811 11.4673 16.1427 12.729C15.6096 13.9786 14.8907 15.2421 14.1587 16.3813C13.4285 17.5177 12.6964 18.5131 12.1463 19.2248C11.8717 19.5801 11.6434 19.8634 11.4847 20.0567C11.4054 20.1534 11.3436 20.2275 11.3021 20.2768C11.2814 20.3014 11.2658 20.3198 11.2556 20.3318C11.2505 20.3378 11.2468 20.3421 11.2445 20.3448C11.2434 20.3461 11.2426 20.3471 11.2421 20.3476C11.2419 20.3478 11.2418 20.348 11.2417 20.348C11.2417 20.3481 11.2418 20.348 11.2418 20.348C11.2418 20.348 11.2419 20.3479 12 21ZM19 9.3C19 7.37924 18.2738 5.52791 16.9668 4.15557L15.5185 5.53488C16.4619 6.5255 17 7.87904 17 9.3H19ZM16.9668 4.15557C15.6582 2.78157 13.8727 2 12 2V4C13.3099 4 14.5766 4.54592 15.5185 5.53488L16.9668 4.15557Z" fill="black"/>
</svg>
