<svg width="24" height="24" viewBox="0 0 24 24" fill="none" xmlns="http://www.w3.org/2000/svg">
<path fill-rule="evenodd" clip-rule="evenodd" d="M7.2383 7.4453C7.42377 7.1671 7.736 7 8.07035 7H19C19.5523 7 20 7.44772 20 8V16C20 16.5523 19.5523 17 19 17H8.07035C7.736 17 7.42377 16.8329 7.2383 16.5547L4.57164 12.5547C4.3477 12.2188 4.3477 11.7812 4.57164 11.4453L7.2383 7.4453ZM8.07035 5C7.06729 5 6.1306 5.5013 5.5742 6.3359L2.90754 10.3359C2.23574 11.3436 2.23574 12.6564 2.90754 13.6641L5.5742 17.6641C6.1306 18.4987 7.06729 19 8.07035 19H19C20.6568 19 22 17.6569 22 16V8C22 6.34315 20.6568 5 19 5H8.07035Z" fill="black"/>
<rect x="8" y="9" width="10" height="2" rx="1" fill="black"/>
<rect x="8" y="13" width="6" height="2" rx="1" fill="black"/>
</svg>
