<svg width="24" height="24" viewBox="0 0 24 24" fill="none" xmlns="http://www.w3.org/2000/svg">
<path d="M11.8213 16.572C13.4528 17.4817 15.142 18 17.1429 18V18C17.6162 18 18 17.6162 18 17.1429V15.4286C18 14.9552 17.6162 14.5714 17.1429 14.5714V14.5714C16.4938 14.5714 15.8776 14.5169 15.2855 14.4122C14.5179 14.2764 13.7094 14.4808 13.187 15.0595L11.8213 16.572ZM11.8213 16.572C10.9007 16.0587 10.059 15.4207 9.31918 14.6808C8.57935 13.941 7.94135 13.0993 7.42799 12.1787M12.4286 15.9648C11.5079 15.4514 10.6662 14.8134 9.92642 14.0736C9.1971 13.3443 8.56672 12.516 8.05717 11.6106M7.42799 12.1787C6.5183 10.5472 6 8.85801 6 6.85714V6.85714C6 6.38376 6.38376 6 6.85714 6H8.57143C9.04481 6 9.42857 6.38376 9.42857 6.85714V6.85714C9.42857 7.50616 9.4831 8.12238 9.58783 8.71447C9.72362 9.48213 9.51916 10.2906 8.94054 10.813L8.05717 11.6106M7.42799 12.1787L8.05717 11.6106" stroke="black" stroke-width="2"/>
</svg>
