<svg width="24" height="24" viewBox="0 0 24 24" fill="none" xmlns="http://www.w3.org/2000/svg">
<path d="M19 17.25V7C19 5.89543 18.1046 5 17 5H7C5.89543 5 5 5.89543 5 7V17C5 18.1046 5.89543 19 7 19H12.2734M19 17.25L15.7281 12.4909C14.9639 11.3793 13.3408 11.3276 12.5074 12.3883L9.95833 15.6326M19 17.25V17.25C19 18.2165 18.2165 19 17.25 19H12.2734M9.95833 15.6326L9.69578 15.2507C8.90515 14.1007 7.20954 14.0935 6.40923 15.2368L5 17.25M9.95833 15.6326L12.2734 19" stroke="black" stroke-width="2" stroke-linejoin="round"/>
</svg>
