<svg width="24" height="24" viewBox="0 0 24 24" fill="none" xmlns="http://www.w3.org/2000/svg">
<path d="M12 19C6.38907 19 5 15.9375 5 14.625C5 13.3139 5.77933 12.4574 6.94875 11.9228C6.4284 10.3602 7.75409 8.9375 8.9375 8.9375C8.79167 7.625 9.1125 5 11.5625 5C11.5625 5.72917 12 7.1875 13.75 7.1875C15.5 7.1875 15.5 8.9375 15.5 9.8125C16.1098 10.2481 17.25 10.25 17.1591 11.9576C17.1916 11.9718 17.2219 11.986 17.25 12C18.65 12.7 19 14.0417 19 14.625C19 16.2292 18.125 19 12 19Z" stroke="black" stroke-width="2" stroke-linejoin="round"/>
</svg>
