<svg width="24" height="24" viewBox="0 0 24 24" fill="none" xmlns="http://www.w3.org/2000/svg">
<path d="M16.6061 7.0493L18.2758 5.32352C18.5452 5.04517 19 5.24311 18.994 5.6328L19 10.3277C19 10.5751 18.8145 10.7668 18.5751 10.7668H14.0387C13.6616 10.7606 13.4701 10.2905 13.7394 10.0122L15.4092 8.28641C13.1769 5.97919 9.36458 6.26991 7.53924 9.17095C6.46797 10.8596 6.43206 12.9627 7.45545 14.6885C9.10724 17.4844 12.5604 17.9854 14.8645 16.2101C15.1937 15.9442 15.6665 15.9751 15.9598 16.2782C16.3188 16.6493 16.2889 17.2741 15.882 17.5957C12.8297 19.971 8.28733 19.3339 6.04305 15.6782C4.60672 13.34 4.66058 10.439 6.16275 8.14414C8.63444 4.35238 13.6496 3.99362 16.6061 7.0493Z" fill="black"/>
</svg>
