<svg width="24" height="24" viewBox="0 0 24 24" fill="none" xmlns="http://www.w3.org/2000/svg">
<path fill-rule="evenodd" clip-rule="evenodd" d="M6 7C6 6.44772 6.44772 6 7 6C7.55228 6 8 6.44772 8 7C8 7.27642 7.88917 7.52505 7.70711 7.70711C7.52505 7.88917 7.27642 8 7 8C6.44772 8 6 7.55228 6 7ZM7 4C5.34315 4 4 5.34315 4 7C4 8.65685 5.34315 10 7 10C7.46277 10 7.90157 9.8948 8.29323 9.70744L10.5858 12L8.29323 14.2926C7.90157 14.1052 7.46278 14 7 14C5.34315 14 4 15.3431 4 17C4 18.6569 5.34315 20 7 20C8.65685 20 10 18.6569 10 17C10 16.5372 9.8948 16.0984 9.70744 15.7068L12 13.4142L18.2929 19.7071C18.6834 20.0976 19.3166 20.0976 19.7071 19.7071C20.0976 19.3166 20.0976 18.6834 19.7071 18.2929L12.7071 11.2929L9.70744 8.29323C9.8948 7.90157 10 7.46277 10 7C10 5.34315 8.65685 4 7 4ZM19.7071 5.70711C20.0976 5.31658 20.0976 4.68342 19.7071 4.29289C19.3166 3.90237 18.6834 3.90237 18.2929 4.29289L13.2929 9.29289C13.2785 9.30729 13.2646 9.32202 13.2513 9.33706L14.6629 10.7487C14.678 10.7354 14.6927 10.7215 14.7071 10.7071L19.7071 5.70711ZM6 17C6 16.4477 6.44772 16 7 16C7.27642 16 7.52505 16.1108 7.70711 16.2929C7.88917 16.475 8 16.7236 8 17C8 17.5523 7.55228 18 7 18C6.44772 18 6 17.5523 6 17ZM12.0008 12.3999C11.7769 12.3999 11.6009 12.224 11.6009 12.0001C11.6009 11.7763 11.7769 11.6004 12.0008 11.6004C12.2248 11.6004 12.4008 11.7763 12.4008 12.0001C12.4008 12.224 12.2248 12.3999 12.0008 12.3999Z" fill="black"/>
</svg>
