<svg width="24" height="24" viewBox="0 0 24 24" fill="none" xmlns="http://www.w3.org/2000/svg">
<path d="M12.4638 5.15194C12.2956 4.73427 11.7044 4.73427 11.5362 5.15194L10.1474 8.60123C10.0772 8.77554 9.91519 8.89578 9.72802 8.9125L6.13278 9.23357C5.69935 9.27228 5.51881 9.80784 5.84035 10.101L8.60812 12.625C8.74042 12.7456 8.79811 12.9278 8.75937 13.1026L7.9347 16.8237C7.83839 17.2583 8.31526 17.5926 8.69098 17.3539L11.7319 15.4219C11.8955 15.318 12.1045 15.318 12.2681 15.4219L15.309 17.3539C15.6847 17.5926 16.1616 17.2583 16.0653 16.8237L15.2406 13.1026C15.2019 12.9278 15.2596 12.7456 15.3919 12.625L18.1597 10.101C18.4812 9.80783 18.3007 9.27228 17.8672 9.23357L14.272 8.9125C14.0848 8.89578 13.9228 8.77554 13.8526 8.60123L12.4638 5.15194Z" stroke="black" stroke-width="2"/>
</svg>
