<svg width="24" height="24" viewBox="0 0 24 24" fill="none" xmlns="http://www.w3.org/2000/svg">
<mask id="path-1-inside-1" fill="white">
<path d="M4 9C4 5.97777 5.6 4 8 4C10 4 10 5 12 5C14 5 14 4 16 4C18.4 4 20 5.97777 20 8.99999C20 12.2 20 20 16 20C12 20 13.0666 14 12 14C10.9334 14 12 20 8 20C4 20 4 12.2 4 9V9Z"/>
</mask>
<path d="M8 4V6V4ZM8 20L8 22L8 20ZM12 5L12 3H12L12 5ZM16 4L16 6H16V4ZM8 2C6.19946 2 4.6235 2.76503 3.5402 4.11485C2.48836 5.42548 2 7.15355 2 9H6C6 7.82422 6.31164 7.05229 6.6598 6.61848C6.9765 6.22386 7.40054 6 8 6V2ZM8 22C9.58456 22 10.8249 21.3691 11.685 20.3594C12.4669 19.4416 12.834 18.3292 13.0428 17.4749C13.2273 16.7202 13.3873 15.6365 13.4487 15.3297C13.5026 15.0604 13.5246 15.0512 13.4805 15.1408C13.4523 15.1982 13.035 16 12 16V12C10.6984 12 10.0811 12.9893 9.89142 13.3748C9.6859 13.7926 9.58501 14.2521 9.52637 14.5453C9.36274 15.3635 9.33942 15.7798 9.15724 16.5251C8.9994 17.1708 8.8165 17.5584 8.64004 17.7656C8.54178 17.8809 8.41544 18 8 18L8 22ZM12 3C11.4532 3 11.2812 2.90455 10.8944 2.71115C10.2812 2.40455 9.45316 2 8 2V6C8.54684 6 8.71877 6.09545 9.10557 6.28886C9.71877 6.59546 10.5468 7 12 7L12 3ZM2 9V9H6V9H2ZM2 9C2 10.5662 1.99285 13.5268 2.54379 16.1162C2.81749 17.4026 3.26595 18.7908 4.06443 19.8999C4.91619 21.0828 6.22165 22 8 22L8 18C7.77835 18 7.58381 17.9421 7.31057 17.5626C6.98405 17.1091 6.68251 16.3474 6.45621 15.2838C6.00715 13.1732 6 10.6338 6 9H2ZM16 6C16.5995 6 17.0235 6.22386 17.3402 6.61848C17.6884 7.05229 18 7.82422 18 8.99999H22C22 7.15355 21.5116 5.42548 20.4598 4.11485C19.3765 2.76503 17.8005 2 16 2V6ZM16 18C15.5846 18 15.4582 17.8809 15.36 17.7656C15.1835 17.5584 15.0006 17.1708 14.8428 16.5251C14.6606 15.7798 14.6373 15.3635 14.4736 14.5453C14.415 14.2521 14.3141 13.7926 14.1086 13.3748C13.9189 12.9893 13.3016 12 12 12V16C10.965 16 10.5477 15.1982 10.5195 15.1408C10.4754 15.0512 10.4974 15.0604 10.5513 15.3297C10.6127 15.6365 10.7727 16.7202 10.9572 17.4749C11.166 18.3292 11.5331 19.4416 12.315 20.3594C13.1751 21.3691 14.4154 22 16 22L16 18ZM12 7C13.4532 7 14.2812 6.59546 14.8944 6.28886C15.2812 6.09545 15.4532 6 16 6L16 2C14.5468 2 13.7188 2.40455 13.1056 2.71115C12.7188 2.90455 12.5468 3 12 3L12 7ZM18 8.99999C18 10.6338 17.9929 13.1732 17.5438 15.2838C17.3175 16.3474 17.016 17.1091 16.6894 17.5626C16.4162 17.9421 16.2216 18 16 18L16 22C17.7784 22 19.0838 21.0828 19.9356 19.8999C20.7341 18.7908 21.1825 17.4026 21.4562 16.1162C22.0072 13.5268 22 10.5662 22 8.99999H18Z" fill="black" mask="url(#path-1-inside-1)"/>
</svg>
