<svg width="24" height="24" viewBox="0 0 24 24" fill="none" xmlns="http://www.w3.org/2000/svg">
<path d="M12 8C12 8.55 11.55 9 11 9H4C3.45 9 3 8.55 3 8C3 7.45 3.45 7 4 7H11C11.55 7 12 7.45 12 8ZM3 4C3 4.55 3.45 5 4 5H15C15.55 5 16 4.55 16 4C16 3.45 15.55 3 15 3H4C3.45 3 3 3.45 3 4ZM8 12C8 11.45 7.55 11 7 11H4C3.45 11 3 11.45 3 12C3 12.55 3.45 13 4 13H7C7.55 13 8 12.55 8 12Z" fill="black"/>
<path d="M15 10C12.2386 10 10 12.2386 10 15C10 17.7614 12.2386 20 15 20C17.7614 20 20 17.7614 20 15C20 13.6193 19.4404 12.3693 18.5355 11.4645M15 10V8M15 10C16.3807 10 17.6307 10.5596 18.5355 11.4645M18.5355 11.4645L19.5 10.5M15 13V15" stroke="black" stroke-width="2" stroke-linecap="round"/>
</svg>
