<svg width="24" height="24" viewBox="0 0 24 24" fill="none" xmlns="http://www.w3.org/2000/svg">
<path fill-rule="evenodd" clip-rule="evenodd" d="M16.7071 3.29289C16.3166 2.90237 15.6834 2.90237 15.2929 3.29289C14.9024 3.68342 14.9024 4.31658 15.2929 4.70711L16.5858 6L15 7.58579L13.7071 6.29289L11.7071 4.29289C11.3166 3.90237 10.6834 3.90237 10.2929 4.29289C9.90237 4.68342 9.90237 5.31658 10.2929 5.70711L11.5858 7L5.87868 12.7071C5.31607 13.2697 5 14.0328 5 14.8284V17.5858L3.29289 19.2929C2.90237 19.6834 2.90237 20.3166 3.29289 20.7071C3.68342 21.0976 4.31658 21.0976 4.70711 20.7071L6.41421 19H9.17157C9.96722 19 10.7303 18.6839 11.2929 18.1213L17 12.4142L18.2929 13.7071C18.6834 14.0976 19.3166 14.0976 19.7071 13.7071C20.0976 13.3166 20.0976 12.6834 19.7071 12.2929L17.7071 10.2929L16.4142 9L18 7.41421L19.2929 8.70711C19.6834 9.09763 20.3166 9.09763 20.7071 8.70711C21.0976 8.31658 21.0976 7.68342 20.7071 7.29289L18.7071 5.29289L16.7071 3.29289ZM7.29289 14.1213L13 8.41421L14.2929 9.70711L15.5858 11L9.87868 16.7071C9.69114 16.8946 9.43679 17 9.17157 17H7V14.8284C7 14.5632 7.10536 14.3089 7.29289 14.1213Z" fill="black"/>
</svg>
