<?xml version="1.0" encoding="utf-8"?>
<!-- Generator: Adobe Illustrator 16.0.0, SVG Export Plug-In . SVG Version: 6.00 Build 0)  -->
<!DOCTYPE svg PUBLIC "-//W3C//DTD SVG 1.1 Tiny//EN" "http://www.w3.org/Graphics/SVG/1.1/DTD/svg11-tiny.dtd">
<svg version="1.1" baseProfile="tiny" id="Layer_1" xmlns="http://www.w3.org/2000/svg" xmlns:xlink="http://www.w3.org/1999/xlink"
	 x="0px" y="0px" width="1000px" height="1000px" viewBox="0 0 1000 1000" xml:space="preserve">
<g>
	<path d="M865.121,315.812l100.718-47.307c0,0-83.932,3.052-190.753,6.104c-106.822,3.052-166.337,4.578-178.546,4.578
		c0,0-102.244,129.712-138.868,166.337l15.26,16.786c0,0,88.51-19.838,164.811-9.156c76.303,10.682,106.822,38.15,112.927,77.827
		s0,85.457-122.082,91.562c-122.083,6.104-269.089-9.156-480.699,38.15c0,0-82.405,47.308-122.082,85.458
		c0,0,10.682-1.526,44.255-10.682c33.573-9.157,109.874-38.15,244.165-50.359c134.29-12.208,211.149-1.743,350.986-10.682
		c111.4-7.121,149.778-53.394,172.441-80.881c23.908-28.993,44.255-79.353-13.733-132.764
		c-57.99-53.411-152.604-83.932-274.687-51.885l64.095-86.984L865.121,315.812z"/>
	<path d="M274.548,611.861c40.439-1.526,49.196-5.25,64.602-18.82c10.682-9.41,20.135-29.233,28.485-55.955
		c5.087-16.277-14.497-21.365-27.469-21.365c-12.971,0-35.438-1.812-53.41,4.579c-22.891,8.14-33.573,22.891-33.573,22.891
		l36.625-0.764c4.578-3.815,7.121-7.376,27.469-8.394c13.737-0.687,17.549,2.29,16.023,7.631
		c-1.526,5.341-7.713,8.232-29.757,10.682c-27.469,3.052-62.567,9.156-71.723,32.047
		C221.962,609.035,234.108,613.387,274.548,611.861z M266.409,583.376c1.526-6.104,14.752-12.208,31.029-13.733
		c16.277-1.526,25.434-4.579,25.434-4.579s0,4.069-6.612,13.734c-6.612,9.666-23.908,13.734-37.643,13.734
		S264.883,589.48,266.409,583.376z"/>
	<path d="M380.862,605.249l29.503-69.18h12.208c0,0,11.191-2.036,16.278-16.278h-22.382c0,0,3.048-14.301,14.244-15.26
		c12.917-1.108,17.024,2.798,21.872-17.805c0,0-16.756,0.104-30.521,0.51c-17.294,0.507-28.995,6.611-36.625,23.906
		c-7.63,17.297-36.625,87.493-40.694,95.124L380.862,605.249z"/>
	<path d="M420.03,578.798c-6.613,14.75-7.629,24.416,9.665,24.416s38.659,0,38.659,0l7.122-18.821h-14.752
		c0,0-8.648,1.017-5.596-6.104c3.052-7.12,18.822-43.237,18.822-43.237s3.561-6.613,3.561-8.646h13.734
		c0,0,12.718-2.037,14.753-15.262h-21.875c0,0,4.578-9.155,6.104-15.26c1.526-6.104-2.542-10.683-6.612-10.683
		c-4.07,0-24.924,1.526-24.924,1.526s2.036,1.526-3.052,14.752C450.55,514.704,426.643,564.047,420.03,578.798z"/>
	<path d="M585.858,504.529c-27.469-2.032-64.094,5.852-85.458,31.54c-25.999,31.26-23.907,65.618,24.926,65.618
		c48.834,0,73.248-23.397,78.844-31.537h-32.554c0,0-12.719,10.682-30.013,11.19c-23.903,0.701-24.417-16.786-19.839-22.383
		l91.563-1.525l1.524-3.051c0,0,3.561-7.124,6.104-18.822S613.327,506.565,585.858,504.529z M583.314,541.664l-52.901,1.526
		c0,0,8.139-16.786,33.572-17.804C589.418,524.369,583.314,541.664,583.314,541.664z"/>
	<path d="M640.795,594.312c0,0,14.497-35.098,19.838-47.307c5.342-12.208,14.498-22.891,50.359-21.364l9.155-25.179
		c0,0-16.779,0.807-32.046,3.052c-25.942,3.814-49.596,12.971-65.619,51.121l-17.55,39.677H640.795z"/>
</g>
</svg>
