<?xml version="1.0" standalone="no"?>
<!DOCTYPE svg PUBLIC "-//W3C//DTD SVG 20010904//EN"
 "http://www.w3.org/TR/2001/REC-SVG-20010904/DTD/svg10.dtd">
<svg version="1.0" xmlns="http://www.w3.org/2000/svg"
 width="369.000000pt" height="104.000000pt" viewBox="0 0 369.000000 104.000000"
 preserveAspectRatio="xMidYMid meet">

<g transform="translate(0.000000,104.000000) scale(0.100000,-0.100000)"
fill="#000000" stroke="none">
<path d="M964 699 l-208 -151 -178 -7 c-97 -4 -181 -11 -185 -15 -5 -5 67 -5
160 -1 92 4 167 5 167 2 0 -3 -133 -101 -295 -218 -162 -117 -295 -217 -295
-222 0 -12 -9 -18 327 226 l303 218 90 6 c50 3 90 2 90 -3 0 -5 -16 -33 -36
-62 -20 -29 -34 -55 -32 -58 3 -3 26 24 51 59 l46 64 82 7 c45 4 84 4 87 1 5
-5 -3 -18 -123 -208 -37 -59 -65 -110 -62 -113 2 -3 33 34 68 83 127 175 177
233 204 233 42 0 30 -30 -37 -92 -33 -32 -58 -58 -55 -58 4 0 73 31 153 70 81
38 151 70 156 70 5 0 -5 -20 -22 -44 -48 -71 -38 -98 19 -50 24 20 31 22 31
10 0 -9 5 -16 10 -16 6 0 60 25 120 55 60 30 114 55 119 55 6 0 1 -25 -10 -57
-34 -100 -22 -99 56 7 36 49 62 76 66 68 12 -18 93 -2 176 37 42 19 77 35 79
35 2 0 -4 -16 -13 -35 -12 -26 -23 -35 -42 -36 -25 0 -26 0 -4 -9 22 -9 21
-12 -52 -166 -42 -86 -73 -159 -70 -162 8 -8 9 -6 88 163 l74 160 101 3 c118
3 117 4 77 -88 -13 -30 -21 -57 -18 -60 3 -3 28 21 56 53 29 31 55 57 59 57 4
0 3 -13 -2 -30 -12 -41 0 -38 54 17 25 25 48 44 51 41 3 -3 1 -25 -4 -49 -6
-24 -11 -57 -11 -73 l0 -28 28 18 c87 57 204 126 208 122 2 -3 0 -18 -6 -34
-6 -15 -9 -39 -5 -51 9 -37 47 -29 172 37 63 33 118 60 123 60 4 0 2 -21 -6
-47 -26 -87 -19 -92 37 -30 28 32 53 56 55 54 2 -2 -5 -29 -17 -61 -11 -32
-19 -62 -17 -67 2 -6 73 44 158 110 85 66 156 118 158 117 9 -10 -24 -56 -40
-56 -10 0 -18 -4 -18 -10 0 -5 5 -10 10 -10 17 0 12 -16 -60 -172 -39 -84 -69
-159 -68 -167 2 -8 39 65 83 162 l80 177 55 1 c30 1 82 5 115 9 54 6 50 7 -49
9 -82 1 -107 4 -103 14 3 6 12 29 21 50 9 20 12 37 7 37 -5 0 -78 -53 -163
-119 -84 -65 -154 -115 -156 -112 -1 4 7 33 18 66 31 91 25 96 -37 30 -58 -63
-61 -62 -37 23 4 13 2 22 -4 22 -6 0 -64 -29 -129 -64 -141 -76 -167 -83 -171
-43 -4 30 0 32 28 15 16 -10 23 -9 40 7 28 26 25 89 -5 93 -11 1 -80 -33 -154
-77 l-134 -80 6 42 c4 23 9 57 13 75 9 45 -10 42 -64 -10 l-44 -43 8 40 c7 38
6 39 -11 25 -10 -8 -34 -31 -53 -50 -30 -32 -33 -33 -26 -10 4 14 8 36 8 50 1
25 1 25 -99 26 -56 0 -99 4 -98 10 1 5 9 26 17 47 9 20 12 37 7 37 -5 0 -51
-20 -102 -45 -52 -25 -107 -45 -125 -45 -28 0 -33 4 -36 27 -3 26 -7 22 -57
-45 -29 -40 -56 -71 -58 -68 -3 3 0 21 7 41 7 20 10 38 7 41 -2 2 -60 -23
-128 -55 -67 -33 -125 -58 -127 -56 -2 2 0 17 6 34 15 44 5 43 -40 -3 -45 -46
-42 -34 9 37 19 26 30 47 24 47 -6 0 -67 -27 -136 -59 -69 -33 -125 -57 -125
-55 0 3 10 18 22 35 17 23 20 34 12 47 -18 28 -53 26 -85 -4 -16 -15 -29 -23
-29 -16 0 6 5 14 10 17 26 16 2 24 -81 27 l-90 3 95 134 c86 120 105 151 92
151 -2 0 -97 -68 -212 -151z m81 -27 c-84 -120 -86 -122 -193 -122 -49 0 -54
2 -42 14 25 25 305 225 308 221 2 -2 -30 -53 -73 -113z m1699 -149 c-13 -37
-44 -44 -44 -9 0 31 28 62 43 47 7 -7 8 -20 1 -38z"/>
</g>
</svg>
