<?xml version="1.0" encoding="utf-8"?>
<!-- Generator: Adobe Illustrator 16.0.0, SVG Export Plug-In . SVG Version: 6.00 Build 0)  -->
<!DOCTYPE svg PUBLIC "-//W3C//DTD SVG 1.1 Tiny//EN" "http://www.w3.org/Graphics/SVG/1.1/DTD/svg11-tiny.dtd">
<svg version="1.1" baseProfile="tiny" id="Layer_1" xmlns="http://www.w3.org/2000/svg" xmlns:xlink="http://www.w3.org/1999/xlink"
	 x="0px" y="0px" width="1000px" height="1000px" viewBox="0 0 1000 1000" xml:space="preserve">
<g>
	<path fill="none" stroke="#231F20" stroke-miterlimit="10" d="M576.109,572.555"/>
	<g>
		<g>
			<path d="M155.642,585.794h-49.12c0,0-6.523,0.575-6.282-6.141l29.165-177.285c3.213-16.117,10.745-15.35,10.745-15.35v-4.604
				H73.521v4.604c0,0,9.21,0.769,6.141,15.35L51.264,579.653c0,0-1.536,10.743-12.279,13.814v5.374h137.378c0,0,0-0.77,4.605-7.676
				c4.604-6.908,6.138-14.582,6.138-14.582h-4.605C182.502,576.584,175.597,585.794,155.642,585.794z"/>
			<path d="M370.394,387.019v-4.604h-29.792v4.604c0,0,9.212,0.769,6.141,15.35c-2.582,15.714-5.111,31.44-7.724,47.149
				c-4.438,26.684-8.866,53.369-13.104,80.085l-4.117,23.19c-4.029,16.117-16.499,31.85-37.987,32.426
				c-12.614,0.337-24.652-4.646-32.762-14.408c-7.389-8.896-8.106-20.029-7.658-31.133c0.122-2.999,0.297-6.01,0.747-8.979
				l21.11-128.33c3.213-16.117,10.746-15.35,10.746-15.35v-4.604h-66.628v4.604c0,0,9.209,0.769,6.141,15.35
				c0,0-17.997,112.952-18.037,113.202c-2.595,16.268-2.069,34.289,5.446,49.243c11.499,22.878,40.294,33.41,64.16,34.538
				c54.149,2.56,66.237-37.157,66.237-37.157l26.338-159.826C362.862,386.251,370.394,387.019,370.394,387.019z"/>
			<path d="M755.918,402.369c3.137-16.117,10.491-15.35,10.491-15.35v-4.604h-29.083v4.604c0,0,8.993,0.769,5.994,15.35
				c-2.521,15.714-4.992,31.44-7.541,47.149c-4.333,26.684-8.654,53.369-12.792,80.085l-4.021,23.19l-57.893-170.378h-54.41v4.604
				c0,0,8.119,1.343,8.694,24.367l-24.175,162.896c0,0-4.029,13.238-10.361,16.116v5.181h25.902v-4.029
				c0,0-4.605-3.453-4.029-12.663l22.448-149.082l53.531,165.774h56.985v-4.029c-9.786-2.878-7.14-18.995-7.14-18.995
				L755.918,402.369z"/>
			<path d="M466.853,382.415c-60.4,0-109.365,40.676-109.365,107.447c0,66.001,48.964,107.444,109.365,107.444
				c60.402,0,109.365-48.105,109.365-107.444C576.218,430.521,527.255,382.415,466.853,382.415z M521.065,511.935
				c-21.122,49.462-52.891,81.531-92.969,67.721c-36.529-12.589-39.757-65.922-18.635-115.384
				c21.122-49.461,58.543-79.555,94.049-65.726C538.264,412.083,542.189,462.472,521.065,511.935z"/>
			<path d="M905.463,499.453c0,0,4.604,2.303,2.303,14.966l-5.756,46.049c0,0-3.454,26.478-32.234,26.478
				s-61.014-28.74-61.014-94.399c0-69.072,37.989-99.004,75.979-99.004s59.862,26.478,64.468,35.688h0.767l-0.767-33
				c-12.279,0.768-36.839-19.955-89.795-15.35C806.459,385.484,757.357,429.207,758.875,496
				c1.535,67.537,53.725,102.842,102.075,102.076s57.561-22.258,57.561-22.258h6.907c9.979,19.187,30.698,13.814,30.698,13.814
				v-6.141c-7.674-3.071-5.372-16.116-5.372-16.116l4.605-45.282c2.302-16.116,6.522-19.952,6.522-19.952v-2.688H905.463z"/>
		</g>
		<g>
			<path d="M328.056,198.988c-9.21-35.687,8.059-65.619,8.059-65.619l-9.21-2.302l16.117-10.361l-32.234-37.99
				c-11.512,23.024-43.746,21.873-43.746,21.873c-1.151-9.209-11.512-20.722-11.512-20.722l-10.361,8.059
				c5.756,2.302,9.21,12.663,9.21,12.663c-9.21,1.151-26.478-6.907-26.478-6.907l-3.454,5.756
				c11.512,14.966,37.99,29.932,37.99,29.932c4.605,16.117,2.303,51.804,2.303,51.804l-24.176-20.722l-10.36,13.814l31.083,28.78
				c-3.454,26.478-18.419,49.502-18.419,49.502s-11.127-9.976-24.175-11.512c-39.672-4.669-39.829,54.311-2.754,57.954
				c15.422,1.516,30.918-6.898,39.595-19.582c14.963-21.873,24.173-63.698,24.173-63.698l31.083,27.629
				c6.907,25.326,28.78,63.316,28.78,63.316l32.234-47.2C371.801,263.456,337.265,234.675,328.056,198.988z M302.347,214.338
				c-8.443-6.14-19.955-15.351-19.955-15.351c1.534-29.165-3.069-61.397-3.069-61.397c24.56,1.534,37.605-3.837,37.605-3.837
				l3.069,2.303C296.973,169.058,302.347,214.338,302.347,214.338z"/>
			<path d="M768.586,198.988c-9.21-35.687,8.059-65.619,8.059-65.619l-9.21-2.302l16.117-10.361l-32.233-37.99
				c-11.513,23.024-43.746,21.873-43.746,21.873c-1.151-9.209-11.513-20.722-11.513-20.722l-10.36,8.059
				c5.756,2.302,9.209,12.663,9.209,12.663c-9.209,1.151-26.478-6.907-26.478-6.907l-3.453,5.756
				c11.512,14.966,37.989,29.932,37.989,29.932c4.605,16.117,2.303,51.804,2.303,51.804l-24.176-20.722l-10.36,13.814l31.083,28.78
				c-3.454,26.478-18.42,49.502-18.42,49.502s-11.13-9.976-24.175-11.512c-39.672-4.669-39.829,54.311-2.757,57.954
				c15.424,1.516,30.918-6.898,39.595-19.582c14.966-21.873,24.176-63.698,24.176-63.698l31.083,27.629
				c6.907,25.326,28.779,63.316,28.779,63.316l32.234-47.2C812.332,263.456,777.796,234.675,768.586,198.988z M742.875,214.338
				c-8.443-6.14-19.955-15.351-19.955-15.351c1.533-29.165-3.069-61.397-3.069-61.397c24.56,1.534,37.605-3.837,37.605-3.837
				l3.071,2.303C737.504,169.058,742.875,214.338,742.875,214.338z"/>
			<path d="M572.496,83.867l6.907-2.302c0,0,38.372,56.792,44.513,122.028s-11.512,95.167-11.512,95.167l-42.211-39.909
				C570.193,258.851,611.637,157.544,572.496,83.867z"/>
			<path d="M547.17,114.566c0,0-50.656-52.956-106.681-42.211c-56.024,10.744-71.373,61.398-54.489,95.167
				s68.303,46.815,111.283,44.513l23.791-31.466c0,0,17.652,29.162,3.071,57.56c-9.992,19.458-35.73,27.916-55.728,25.39
				c-22.037-2.785-36.472-16.476-41.743-38.436l-49.117-20.722c0,0,0.002,46.815,36.072,79.049s102.257,25.94,128.167-15.349
				c24.56-39.141,5.374-85.956-9.977-100.539l19.187-23.024h-6.907c0,0-7.672,6.907-17.65,15.349c0,0-29.932-19.187-57.561-23.792
				l0.767,12.28c0,0,24.56,2.303,38.374,16.885c0,0-47.584,13.814-78.282-6.907c-28.767-19.419-16.886-56.794,11.512-63.701
				c22.433-5.456,58.326-9.209,100.538,28.397L547.17,114.566z"/>
		</g>
	</g>
	<g>
		<g>
			<circle cx="502.538" cy="681.919" r="4.605"/>
			<path d="M834.086,745.236c-23.6-2.878-40.293-15.541-40.293-15.541c-55.833,36.263-182.466,31.658-182.466,31.658h-29.932
				c0,0-126.633,4.604-182.466-31.658c0,0-16.693,12.663-40.292,15.541s-40.292,4.029-54.682-5.756v10.937
				c0,0,98.237,38.759,278.592,38.759h27.629c180.355,0,278.593-38.759,278.593-38.759V739.48
				C874.378,749.266,857.686,748.114,834.086,745.236z"/>
			<path d="M395.763,778.909h-4.605v-2.472c-2.194-0.37-4.515-0.779-6.907-1.229v3.701h-2.878c0,0-2.183-2.729-4.953-5.274
				c-4.063-0.875-8.153-1.852-12.027-2.928l0.191,1.583c0,0,14.581,10.745,16.117,19.954h15.35l11.944-13.335
				c0,0-4.266-0.504-10.615-1.473C396.48,778.262,395.763,778.909,395.763,778.909z"/>
			<path d="M390.871,798.768c0.954,0,1.727-0.773,1.727-1.727c0-0.954-0.773-1.728-1.727-1.728h-5.756
				c-0.954,0-1.727,0.773-1.727,1.728c0,0.953,0.773,1.727,1.727,1.727H390.871z"/>
			<path d="M380.462,809.176v87.204h14.678v-87.204c0-4.055-3.285-7.339-7.339-7.339
				C383.748,801.837,380.462,805.121,380.462,809.176z"/>
			<path d="M391.783,902.379h-9.115c0,0-2.015,4.604-4.7,5.756v4.22h18.514v-4.22C393.798,906.983,391.783,902.379,391.783,902.379z
				"/>
			<path d="M452.172,787.256h-4.605v-1.608c-2.194-0.371-4.515-0.78-6.907-1.229v3.701h-2.878c0,0-2.698-2.348-5.468-4.893
				c-2.734-0.72-7.051-1.151-11.368-2.015l0.047,1.15c0,0,14.581,9.882,16.117,19.092h15.35l11.944-14.198
				c0,0-4.266-0.504-10.615-1.474C452.89,786.607,452.172,787.256,452.172,787.256z"/>
			<path d="M447.28,807.977c0.954,0,1.727-0.773,1.727-1.727s-0.773-1.727-1.727-1.727h-5.756c-0.954,0-1.727,0.773-1.727,1.727
				s0.773,1.727,1.727,1.727H447.28z"/>
			<path d="M436.872,818.385v77.995h14.678v-77.995c0-4.054-3.285-7.339-7.339-7.339
				C440.157,811.046,436.872,814.331,436.872,818.385z"/>
			<path d="M448.192,902.379h-9.115c0,0-2.015,4.604-4.7,5.756v4.22h18.514v-4.22C450.207,906.983,448.192,902.379,448.192,902.379z
				"/>
			<path d="M582.547,753.87h27.629c166.925,2.303,200.311-47.199,200.311-47.199v-3.454c0,0-16.117,10.361-56.409,8.059
				c-40.293-2.303-58.712-16.117-63.316-19.57c0,0-23.024,20.722-82.888,20.722H584.85c-59.863,0-82.888-20.722-82.888-20.722
				c-4.604,3.453-23.024,17.268-63.316,19.57c-40.292,2.303-56.409-8.059-56.409-8.059v3.454
				C382.236,706.671,415.622,756.173,582.547,753.87z"/>
			<circle cx="690.185" cy="681.919" r="4.605"/>
			<path d="M811.35,778.909h-2.878v-3.701c-2.393,0.45-4.713,0.859-6.907,1.229v2.472h-4.605c0,0-0.717-0.647-1.616-1.473
				c-6.35,0.969-10.615,1.473-10.615,1.473l11.944,13.335h15.35c1.536-9.209,16.117-19.954,16.117-19.954l0.191-1.583
				c-3.874,1.076-7.965,2.053-12.027,2.928C813.532,776.18,811.35,778.909,811.35,778.909z"/>
			<path d="M807.607,798.768c0.954,0,1.728-0.773,1.728-1.727c0-0.954-0.773-1.728-1.728-1.728h-5.756
				c-0.953,0-1.727,0.773-1.727,1.728c0,0.953,0.773,1.727,1.727,1.727H807.607z"/>
			<path d="M797.582,809.176v87.204h14.678v-87.204c0-4.055-3.285-7.339-7.339-7.339S797.582,805.121,797.582,809.176z"/>
			<path d="M810.055,902.379h-9.115c0,0-2.015,4.604-4.699,5.756v4.22h18.514v-4.22
				C812.068,906.983,810.055,902.379,810.055,902.379z"/>
			<path d="M754.94,788.119h-2.878v-3.701c-2.393,0.449-4.713,0.858-6.907,1.229v1.608h-4.605c0,0-0.717-0.648-1.616-1.474
				c-6.35,0.97-10.615,1.474-10.615,1.474l11.944,14.198h15.35c1.536-9.21,16.117-19.092,16.117-19.092l0.047-1.15
				c-4.316,0.863-8.634,1.295-11.368,2.015C757.639,785.771,754.94,788.119,754.94,788.119z"/>
			<path d="M751.199,807.977c0.953,0,1.727-0.773,1.727-1.727s-0.773-1.727-1.727-1.727h-5.757c-0.953,0-1.727,0.773-1.727,1.727
				s0.773,1.727,1.727,1.727H751.199z"/>
			<path d="M741.173,818.385v77.995h14.678v-77.995c0-4.054-3.285-7.339-7.339-7.339S741.173,814.331,741.173,818.385z"/>
			<path d="M753.646,902.379h-9.115c0,0-2.015,4.604-4.7,5.756v4.22h18.515v-4.22C755.66,906.983,753.646,902.379,753.646,902.379z"
				/>
		</g>
		<g>
			<path d="M155.066,690.938c0-11.513-6.907-19.955-6.907-19.955c4.604,11.512,1.533,17.652,1.533,17.652
				c-19.186-6.138-29.162,10.743-29.162,10.743C134.345,688.634,155.066,690.938,155.066,690.938z"/>
			<path d="M145.088,694.774c0,0-9.977-4.603-27.629,28.397C117.458,723.172,135.878,701.682,145.088,694.774z"/>
			<path d="M237.185,677.314c-11.061-8.109-20.146-15.541-43.537-10.736c0,0-3.496-5.908,0.288-17.717c0,0-6.296,8.91-5.486,20.393
				C188.449,669.254,222.648,667.568,237.185,677.314z"/>
			<path d="M149.695,746.196c0-11.512-6.907-19.955-6.907-19.955c4.605,11.513,1.533,17.652,1.533,17.652
				c-19.186-6.138-29.162,10.743-29.162,10.743C128.973,743.892,149.695,746.196,149.695,746.196z"/>
			<path d="M139.716,750.032c0,0-9.977-4.603-27.629,28.397C112.087,778.43,130.506,756.939,139.716,750.032z"/>
			<path d="M141.236,826.882c6.203,10.734,4.042,17.25,4.042,17.25c-19.867-3.329-27.328,14.804-27.328,14.804
				c12.135-12.608,32.974-13.292,32.974-13.292C149.279,834.25,141.236,826.882,141.236,826.882z"/>
			<path d="M118.315,882.923c0,0,15.157-23.903,23.283-32.057C141.598,850.866,131.066,847.738,118.315,882.923z"/>
			<path d="M136.402,814.21c6.442-7.168,17.898-7.935,17.898-7.935c-1.12-6.237-5.682-10.141-5.682-10.141
				c3.613,5.789,2.545,9.416,2.545,9.416C140.168,804.092,136.402,814.21,136.402,814.21z"/>
			<path d="M137.052,827.399c0,0,7.895-13.437,12.213-18.073C149.265,809.326,143.41,807.802,137.052,827.399z"/>
			<path d="M151.995,821.407c0,0,0.769-7.706,4.611-11.182l-2.309-0.331C154.297,809.895,150.077,813.733,151.995,821.407z"/>
			<path d="M278.439,782.248c0,0-7.935,3.033-11.654,9.398c0,0,16.371,3.636,23.319,12.856c0,0-2.071-11.7-18.523-12.856
				C271.581,791.646,271.249,787.523,278.439,782.248z"/>
			<path d="M270.857,796.465c7.195,7.195,19.282,25.711,19.282,25.711C281.699,796.85,270.857,796.465,270.857,796.465z"/>
			<path d="M265.571,795.5l-3.465-0.218c4.414,4.649,2.941,13.041,2.941,13.041C270.412,800.625,265.571,795.5,265.571,795.5z"/>
			<path d="M250.39,847.134c0,0,23.436-1.486,36.366,8.207c0,0-7.339-14.93-29.918-10.077c0,0-2.053-5.417,5.565-15.311
				C262.403,829.953,252.91,837.124,250.39,847.134z"/>
			<path d="M260.588,850.716c8.677,6.237,31.087,31.323,31.087,31.323C279.372,852.901,260.588,850.716,260.588,850.716z"/>
			<path d="M250.257,852.789l-2.75,0.611c0.142-0.432,0.292-0.87,0.423-1.293c0,0-0.272,0.508-0.747,1.365l-1.67,0.371
				c0.373,0.218,0.719,0.467,1.063,0.717c-2.179,3.872-6.732,11.654-11.694,18.269c0,0,2.303-9.21,3.071-18.419
				c0.767-9.21,0.767-21.491,6.139-39.91c0,0,8.443-4.605,9.979-19.187c0,0-3.838,9.977-8.443,13.814c0,0,4.175-14.612,8.778-30.25
				c2.487,2.322,4.288,4.092,4.288,4.092c-1.383-2.127-2.673-3.941-3.874-5.497c2.104-7.144,4.277-14.415,6.159-20.533
				c5.052-16.418,13.736-34.905,16.656-40.942c0.832,2.292,1.143,4.027,1.143,4.027c0.346-1.288,0.535-2.467,0.627-3.57
				c0.241,0.368,0.376,0.577,0.376,0.577c-0.097-0.432-0.225-0.818-0.331-1.236c0.216-4.85-1.771-7.858-3.424-9.497
				c-7.031-14.318-18.693-18.622-18.693-18.622c3.139,1.961,9.407,10.325,14.525,17.626l-2.084,0.604
				c1.113,0.558,2.084,1.295,2.953,2.12c-2.04,5.673-6.406,17.538-12.515,32.605c-0.697,1.72-1.363,3.41-2.015,5.09
				c-6.516-17.354-12.884-25.873-17.542-30.041c6.163,3.332,13.322,8.387,19.557,15.935c0,0-6.505-14.48-18.806-20.616
				c2.253-12.805,4.106-24.598,4.992-30.806l-3.836-2.303l-4.798,29.355c0,0-0.213,0.754-0.578,2.111
				c-1.774-0.53-3.625-0.919-5.594-1.027c0,0-2.183-6.507,3.982-17.264c0,0-8.016,7.397-9.624,18.795c0,0,3.382,0.722,8.344,2.783
				c0.501,0.54,1.025,1.129,1.574,1.774c-4.56,18.008-15.876,67.624-17.099,120.805c-1.534,66.771-3.069,94.399-3.069,94.399h5.947
				c0,0,2.111-48.354,2.878-92.865c0.769-44.514,4.223-46.047,11.13-61.396c0,0-7.674,7.674-9.209,16.883
				c0,0,6.226-37.672,9.592-53.34c1.306-6.079,2.613-12.767,3.845-19.444c7.231,9.538,15.85,22.923,18.188,26.593
				c-2.743,7.082-5.095,13.78-7.072,19.885c-2.819-1.513-6.756-2.424-11.597-0.409c0,0-1.97-3.227,0.018-9.756
				c0,0-3.396,4.953-2.858,11.267c0,0,6.979-1.364,13.891,0.609c-0.414,1.303-0.809,2.572-1.189,3.813
				c-4.756-4.04-7.049-2.781-7.049-2.781c1.725,1.077,4.041,2.938,6.39,4.965c-2.042,6.86-3.535,12.688-4.508,17.063
				c0,0-0.479-6.184-1.864-10.768c0.313,0.684,0.477,1.117,0.477,1.117c-0.135-7.91-5.207-10.522-5.207-10.522l-2.146,0.917
				c2.422,1.239,4.319,3.815,5.583,5.992c0.367,3.515,0.762,10.678-0.872,18.444c-2.303,10.937-6.907,23.6-9.21,40.292
				c-2.302,16.692-2.878,29.355-3.454,45.473s-1.727,45.664-1.727,47.967h6.525c0,0,2.685-24.561,3.454-48.352
				c0,0,7.245-14.491,11.361-26.39c6.411,5.072,7.532,15.356,7.532,15.356C258.763,857.794,250.257,852.789,250.257,852.789z"/>
			<path d="M290.574,725.221c0,0-9.203,1.99-14.345,8.337c0,0,17.322,6.732,23.382,17.997c0,0-0.301-13.163-18.127-17.196
				C281.483,734.358,281.812,729.787,290.574,725.221z"/>
			<path d="M280.354,740.632c8.634,9.209,21.873,27.629,21.873,27.629C293.594,742.934,280.354,740.632,280.354,740.632z"/>
			<path d="M274.252,737.573l-3.757-0.822c4.054,5.832,1.027,14.776,1.027,14.776C278.693,743.997,274.252,737.573,274.252,737.573z
				"/>
			<path d="M306.68,704.874c0,0-7.407-12.906-27.29-7.28c0,0-2.143-4.715,4.09-13.985c0,0-8.063,6.95-9.738,16.029
				C273.742,699.638,294.578,696.962,306.68,704.874z"/>
			<path d="M283.053,702.246c8.105,5.074,23.2,21.271,23.2,21.271C293.594,698.208,283.053,702.246,283.053,702.246z"/>
			<path d="M271.77,687.391c0,0-6.791-9.541-17.897-4.92c0,0-2.139-3.499,0.02-10.581c0,0-3.683,5.371-3.101,12.22
				C250.792,684.109,263.008,681.692,271.77,687.391z"/>
			<path d="M253.252,689.987l-2.451,0.656c4.58,3.836,6.368,13.189,6.368,13.189C258.284,694.224,253.252,689.987,253.252,689.987z"
				/>
			<path d="M180.029,805.421c0,0-1.223-0.295-3.148,1.214c-0.587-0.252-1.7-0.722-2.966-1.219
				c5.563-2.664,11.148-3.047,11.148-3.047c-1.12-6.237-5.682-10.141-5.682-10.141c3.613,5.79,2.545,9.417,2.545,9.417
				c-4.755-0.632-8.155,0.906-10.487,2.851c-0.974-0.335-1.884-0.611-2.559-0.739l-1.536-0.382l1.536-1.536v-42.979
				c0,0,1.158-1.81,3.064-4.2c-0.2,0.387-0.391,0.731-0.596,1.141c0,0,2.431-3.011,5.482-6.521c1.684-1.604,3.537-3.11,5.479-4.234
				c0,0-0.526-0.107-1.659-0.029c1.985-2.138,3.937-4.094,5.441-5.293c0,0-3.139-1.333-8.589,5.813
				c-1.871,0.44-4.314,1.207-7.471,2.581V727.84c2.383-2.918,12.067-14.621,17.302-18.79c0,0-6.519-2.757-17.302,18.39v-59.907
				c0,0-3.072-0.771-7.292,0.382v46.049c0,0-7.674-9.977-7.674-18.42c0,0-9.21-2.3-9.21,17.652c0,0,1.534-7.674,6.139-13.814
				c0,0,2.305,13.046,9.979,21.489v22.257l-4.605,3.836l4.605,3.071v13.046l-3.838,4.604l-7.674-17.65c0,0-8.443-3.84-11.512,15.349
				c0,0,5.756-11.13,9.592-12.664l8.058,19.571l-1.727,4.604c0,0,3.454-7.482,7.483-9.21v33.961v13.623
				c0,0-7.29,7.677-11.895,13.048c0,0,10.743-8.44,10.743-4.604s0,52.955,0,52.955s-7.674-14.581-10.743-25.326
				c0,0-9.209,3.836-7.676,19.953c0,0,3.069-13.046,6.141-14.582c0,0,7.674,19.188,12.279,26.862v45.279h6.907V822.99
				C169.564,820.551,176.197,809.533,180.029,805.421z M168.112,822.63v-9.663c0,0,3.816-3.791,7.973-5.633
				C173.922,809.418,171.084,813.756,168.112,822.63z"/>
			<path d="M182.758,817.502c0,0,0.769-7.706,4.611-11.182l-2.309-0.331C185.061,805.989,180.84,809.828,182.758,817.502z"/>
			<path d="M172.651,742.657c7.429-6.141,18.871-5.212,18.871-5.212c-0.188-6.334-4.125-10.867-4.125-10.867
				c2.72,6.26,1.131,9.689,1.131,9.689C177.868,733.205,172.651,742.657,172.651,742.657z"/>
			<path d="M193.223,741.692l-2.235-0.665c0,0-4.74,3.172-3.973,11.047C187.015,752.074,188.91,744.566,193.223,741.692z"/>
			<path d="M193.904,706.291c-0.227-7.668-4.994-13.153-4.994-13.153c3.294,7.577,1.369,11.728,1.369,11.728
				c-6.854-1.97-11.829,0.34-15.006,2.932c1.001-3.073,5.039-14.844,11.643-26.068l0.385-6.907c0,0-11.939,17.937-12.252,33.16
				c-2.655,2.237-3.986,4.618-3.986,4.618C180.053,705.169,193.904,706.291,193.904,706.291z"/>
			<path d="M195.963,711.433l-2.705-0.805c0,0-5.738,3.841-4.81,13.372C188.449,724,190.743,714.911,195.963,711.433z"/>
			<path d="M208.404,839.636V734.3c0,0,10.361-11.512,9.785-27.629c0,0-4.029,15.541-9.21,20.146v-44.943
				c9.088,7.262,19.254,16.886,19.254,16.886c-17.794-28.578-25.405-23.616-26.57-22.568c-0.25-0.009-0.501-0.026-0.742-0.026
				v17.268l-5.181-14.966l-2.302,4.605l6.907,20.146v22.449l-4.029-11.513l-0.576,5.181l5.181,17.269v35.688
				c0,0-12.088-13.239-16.117-16.692l1.727-5.181c0,0-10.073,7.771-13.239,15.541c0,0,6.043-7.771,10.073-7.195l17.268,18.132
				v54.395c0,0-0.067,0.012-0.092,0.016c-1.644-4.517-5.38-13.837-10.938-22.177l-0.769,2.688c0,0,7.188,12.51,9.145,20.022
				c-5.607,1.304-18.624,5.2-23.535,14.129c0,0,12.088-9.785,23.024-8.634c0,0-18.995,13.239-24.751,35.688
				c0,0,14.39-23.024,25.327-28.78v85.189h9.785v-82.887c0,0,6.907,12.663,9.785,21.873
				C217.614,868.416,213.009,847.693,208.404,839.636z"/>
			<path d="M223.37,723.939c0,0,4.605-10.361-2.302-12.664C221.067,711.275,223.37,715.881,223.37,723.939z"/>
		</g>
	</g>
</g>
</svg>
