<?xml version="1.0" encoding="utf-8"?>
<!-- Generator: Adobe Illustrator 26.0.3, SVG Export Plug-In . SVG Version: 6.00 Build 0)  -->
<svg version="1.1" id="Ebene_1" xmlns="http://www.w3.org/2000/svg" xmlns:xlink="http://www.w3.org/1999/xlink" x="0px" y="0px"
	 width="570px" height="57.9px" viewBox="0 0 570 57.9" style="enable-background:new 0 0 570 57.9;" xml:space="preserve">
<g transform="translate(0.000000,251.000000) scale(0.100000,-0.100000)">
	<g>
		<path d="M1326.4,2500.7c-0.5,1.5-7.2,4.1-15,5.9s-29.7,3.4-48.8,3.4c-34.4,0-35.1,0-58.1-9.8c-29.4-12.1-36.2-16.5-44.7-29.7
			c-11.1-16.3-13.4-23.5-17.6-52.9c-5.2-38.5-9.8-50.6-21.2-58.4c-5.9-4.1-13.2-6.5-19.1-6.5c-9.3,0-9.8-0.5-9.8-7.7v-7.7h22h22
			v-107.7c-0.3-59.4-1.3-113.1-2.3-119.3c-3.1-15-12.7-24.5-25.3-24.8c-8.8,0-9.8-0.8-10.6-7l-0.8-7.2h73.9h73.9l-0.8,7
			c-0.8,6.2-1.8,7.2-7.7,6.5c-10.6-1-16.8,3.4-24,17.6l-6.5,12.7v111.3v111.1l11.1-0.3c11.6-0.3,33.3-3.4,42.1-6.2
			c4.6-1.5,5.9,0,10.1,10.8c2.6,6.7,6.7,17.6,9.6,23.5c4.9,11.4,4.6,18.6-0.5,18.6c-1.5,0-3.4-1.5-4.1-3.6c-2.3-6.2-14.2-9-41.1-9.8
			l-25.8-0.8v29.7c0,25.3,0.8,31.8,6.2,44.4c9,22.2,26.3,30.5,52.9,25.6c16.8-3.1,24.8-11.1,24.8-24.5c0-12.4,1.8-15.8,9.6-18.1
			c5.2-1.5,6.2-0.5,9.8,13.2c2.3,8.3,7.2,24.5,10.6,36.4C1324.6,2488,1327,2499.2,1326.4,2500.7z"/>
		<path d="M1629.6,2174.5c-1.3,0-4.1,0.8-6.5,1.5c-2.8,1-6.2-3.1-12.1-15c-9.6-18.9-33.6-43.4-51.4-52.4
			c-24.3-12.1-63.8-15.2-81.4-6.2c-39.5,20.9-41.8,22.7-64.1,55.8c-12.7,18.9-22.7,40.5-19.6,42.9c0.5,0.5,24.3,7.7,52.7,16
			s65.1,19.1,81.4,24c16.3,4.9,33.3,9.8,37.4,10.8c4.4,1,17,4.9,28.4,8.8c11.4,3.6,22.7,6.7,25.3,6.7c8.8,0,7.7,8.3-4.6,32.5
			c-8.8,17.6-16,27.6-25.6,36.4c-28.2,25.3-52.4,36.9-88.3,41.8c-10.6,1.5-19.6,2.6-19.9,2.6c-0.3-0.3-7.2-1.3-15.2-2.6
			c-37.4-5.4-69.5-16.5-88.1-30.5c-14.7-11.1-34.1-30.7-42.9-43.4c-16.3-23.8-26.6-73.9-21.2-101.8c6.5-32.8,17.3-56.6,34.9-77.2
			c26.3-31,57.1-48.8,108.7-63.5c21.4-6.2,63.8-7,91.7-2.1c13.4,2.3,30.2,4.4,37.2,4.6l12.7,0.5l16.3,48.8
			C1631.5,2161.9,1634.3,2174.5,1629.6,2174.5z M1393.3,2238.6c-0.5,1,0,10.3,1.3,20.7c3.6,32,22.7,61.5,50.1,76.4
			c11.9,6.5,42.9,4.6,59.1-3.6c19.9-10.1,45.7-44.2,37.2-49.3c-1.8-1.3-4.6-2.3-6.5-2.3c-3.4,0-26.9-7.2-83.4-25.8
			C1404.7,2239.3,1394.6,2236.5,1393.3,2238.6z"/>
		<path d="M1786.2,2086.7c-7.7,0.3-13.9,5.4-17.6,14.5c-2.1,5.4-2.6,60.2-1.8,197.1c0.5,125.3,0,189.8-1.8,190.1
			c-4.6,0.8-22.5-1.3-59.4-6.7c-52.4-7.5-50.4-7-50.4-14.2c0-6.5,4.4-9.6,18.6-12.4c3.9-0.8,9.6-5.4,12.9-10.1l5.9-8.3l0.8-149.8
			c0.5-82.4,0-158.3-0.8-168.7c-2.1-22-5.7-27.1-21.7-31.5c-8.8-2.3-10.6-3.9-10.6-9v-6.5h69.7h69.7v6.2
			C1799.8,2083.9,1795.7,2086.7,1786.2,2086.7z"/>
		<path d="M1064,2086.7c-4.4,0-9.8,2.8-14.7,8l-7.5,7.7l0.5,193.7c0.5,179.8,0,193.4-3.9,192.9c-2.3-0.3-9.6-0.8-15.8-1.3
			c-28.2-2.6-91.2-13.2-94-16c-4.9-4.9,1-11.4,15-16.3c7-2.6,15-7,17.8-9.8c5.4-5.2,5.4-7,5.2-174.8l-0.5-169.4l-6.5-6.5
			c-3.6-3.6-11.1-7.2-16.5-8c-8.3-1.3-9.8-2.6-10.6-8.8l-0.8-7h70.8c63.3,0,71.3,0.5,72.6,4.1
			C1077.5,2081.3,1072,2086.7,1064,2086.7z"/>
		<path d="M888.2,2087.2c-12.7,1.5-12.9,3.6-12.9,150.1v136.1h-10.8c-6.2,0-30.7-1.3-54.5-3.1l-43.4-2.8l0.8-9
			c0.8-8,2.1-9.3,12.4-13.2c19.4-7,20.7-11.9,20.7-80.3c0-61.7-2.1-76.7-13.2-98.7c-7.2-14.2-28.9-35.1-45.5-43.9
			c-19.4-10.3-34.1-11.6-48.6-4.6c-20.7,10.1-20.4,7.7-21.4,140.2l-0.8,115.4l-21.2-0.3c-25.1-0.5-81.6-4.6-86.5-6.2
			c-4.6-1.5-2.8-14.5,2.1-17c2.1-1,7.2-3.6,11.4-5.4c4.1-1.8,10.1-6.7,12.9-10.6c5.2-7,5.4-11.1,7-112.3c1.3-102,1.5-105.6,7.2-118
			c7.2-16.3,16.3-25.8,31.8-33.8c10.1-5.2,16-6.2,34.1-6.2c39.3,0,56.8,6.5,105.6,39c14.2,9.6,23,13.9,23.8,11.9
			c0.5-1.5,1.5-9.3,2.6-16.8c0.8-7.5,2.6-16.5,3.9-19.9l2.6-6.5h49.1h49.1v6.5C906.2,2084.1,903.6,2085.4,888.2,2087.2z"/>
		<path d="M739.9,2420.1c7.7-5.4,10.8-5.9,23.8-4.6c12.1,1.3,16,2.8,21.7,9.3c11.1,12.4,13.2,24,7,40.5c-3.6,9.8-7.7,15.2-13.7,19.1
			c-19.6,12.1-48,3.4-53.5-16.8C720,2448.8,725.7,2429.7,739.9,2420.1z"/>
		<path d="M3182.4,2409.3c12.7-5.2,33.3-3.9,43.9,2.6c16.8,10.3,24,35.6,17.3,59.7c-3.1,11.6-16.8,25.1-28.7,28.4
			c-13.9,4.1-23.5,3.1-34.9-3.9c-11.4-6.7-22.7-21.4-25.3-33.1C3150.9,2447,3167.1,2415.5,3182.4,2409.3z"/>
		<path d="M469.8,2474.1h-67.2v-6.5c0-7,0.3-7.2,17.3-11.6c25.3-6.5,25.8-14.7,7.2-100c-22.5-103.1-31.5-144.4-37.4-175.1
			c-3.1-15.5-6.5-29.4-7.7-30.7c-1-1-4.4,8.8-7.5,22c-2.8,13.4-16,71.3-28.9,128.9c-32.5,145.7-31.5,139.5-25.8,147.2
			c4.6,6.2,9.3,8.5,24.3,11.6c5.4,1,7,2.8,7,7.7v6.2l-71.3,0.8c-39,0.5-73.3,0-76.2-1c-8.8-3.4-4.6-10.8,8.3-15
			c6.7-2.1,13.9-5.4,16.3-7.5c6.7-5.7,4.9-24.8-7.5-78.5c-6.2-27.1-16.8-73.9-23.2-103.8c-27.6-125.8-27.6-126-30.5-116
			c-0.8,2.6-3.9,17.8-7,33.3c-3.1,15.8-7.7,39-10.6,51.7c-44.7,208.2-45.2,214.1-20.4,220.8c8.5,2.3,10.3,3.9,10.3,9v6.2l-61.2,0.8
			c-79.3,1-78.8,1-77.7-7.7c0.5-5.2,2.8-7.7,9.3-9.8c11.9-3.9,19.9-12.9,24.8-28.9c4.1-13.4,16-65.9,35.1-158.1
			c5.4-26.3,14.7-70.2,20.7-97.6c12.7-60.2,13.4-83.2,2.6-85.7c-4.6-1-6.7-3.4-7.2-8.5l-0.8-7h68.4h68.7v6.5c0,5.2-1.5,7-7.7,8.3
			c-15,2.8-14.7,5.4,9.8,107.2c9.8,40.3,20.9,87,25.1,104.1c9.8,42.4,11.6,47.8,13.9,47.8c1.3,0,2.8-3.1,3.6-7
			c1-4.1,6.2-30,11.9-57.6c5.7-27.6,13.4-64.3,17-81.4c13.4-60.4,16.5-77.7,17.3-94c0.8-16,0.5-16.8-5.7-18.3
			c-4.6-1-6.7-3.6-7.2-8.5l-0.8-7h65.9H431v6.5c0,3.4-2.1,7.5-4.9,8.8c-10.6,5.7-11.4,15.2-4.1,47c6.2,26.1,25.3,110.5,48,210.2
			c4.1,18.6,9.8,44.2,12.7,56.8c5.9,25.3,12.9,42.1,20.7,49.1c2.8,2.6,10.6,5.4,17.3,6.7c12.4,2.3,16.3,5.4,16.3,13.4
			C536.9,2473.8,532,2474.1,469.8,2474.1z"/>
		<path d="M657.3,2417.3c2.6-0.3,10.6-0.5,17.6-0.3c10.3,0.3,13.7,1.5,20.9,8.8c15,15,15.2,38.5,0.8,54.8c-7.2,8.3-8.8,9-22.5,9
			c-18.1,0-29.2-6.5-36.4-21.4c-4.9-10.6-4.9-11.1-0.5-24C642.3,2428.6,650.3,2418.1,657.3,2417.3z"/>
		<path d="M2362.9,2378c-11.9-1.5-23-5.7-37.7-13.7c-23-12.7-33.6-21.4-40.3-34.4c-5.9-11.1-9.8-10.3-9.8,2.1
			c0,14.5-9.3,38-15.5,39.5c-4.9,1.3-13.9,0.8-65.9-2.8l-23.2-1.8v-8.8c0-8.5,0.8-9,11.9-11.9c26.3-6.7,25.6-3.4,25.6-128.4
			c0-57.3-1.3-108.7-2.6-114.2c-2.8-13.2-7.2-17-20.4-18.9c-9.8-1.3-10.8-2.1-10.1-8.3c0.8-6.2,1.5-6.7,13.7-6.5
			c7.2,0.3,38.2,0.5,69.2,0.8l56,0.3v6.5c0,5.4-1.3,6.5-7.7,6.5c-10.8,0-22.2,6.5-24.3,13.4c-2.6,10.1-1.8,136.6,1.3,154.2
			c1.5,10.1,6.5,24.3,12.1,34.9c11.9,22.7,24.5,31,47.3,31.3c12.9,0,16.5-1.3,28.4-9.6l13.9-9.8l2.1,9.8
			c7.5,35.1,13.7,70.5,12.7,71.5C2397.7,2381.6,2382.5,2380.9,2362.9,2378z"/>
		<path d="M5699.2,2075.6c-0.8,6.5-2.1,7.5-12.1,8.5c-8.5,1-12.7,3.1-16.8,8.5c-5.2,7.2-5.4,10.8-7,118.8
			c-0.8,68.7-2.3,114.7-4.1,119.6c-7.2,20.4-16,30.2-36.7,40.8c-8.5,4.6-39,7.5-51.9,5.2c-32.8-5.9-66.6-22-88.1-41.8
			c-16.3-14.7-15.8-15-18.9,5.9c-1,5.7-4.1,15.8-7.2,22.7l-5.4,12.1h-13.9c-22.7,0-76.7-5.4-79.3-8c-1.5-1.5-1.5-4.9,0-9
			c1.8-5.4,5.2-7.7,14.5-10.6c22-6.2,21.4-2.8,22.2-134l0.8-114.2l-6.7-7.7c-5.4-6.5-9-8.3-18.9-8.8c-11.1-0.8-12.1-1.3-12.1-7.2
			v-6.5l71.5-0.8c69.5-0.5,71.5-0.5,73.1,4.6c2.3,7.2,0.3,9.6-11.6,11.4c-11.6,1.8-16.5,7.7-19.1,22.7c-2.8,16-2.1,137.7,0.8,148.5
			c4.1,15.5,16.5,32.5,33.3,46.7c18.9,15.8,29.7,19.6,50.1,18.1c13.9-1,16.5-2.1,23-10.1c3.9-4.9,8.5-13.7,9.8-19.6
			c3.6-14.2,3.9-176.9,0.3-189.8c-2.8-10.1-8.8-14.7-22-17.6c-6.2-1-7.7-2.8-7.7-7.7v-6.5l70.5-0.8l70.5-0.5L5699.2,2075.6z"/>
		<path d="M4993.1,2128.5c-6.2,2.8-7.5,2.3-13.7-4.9c-9.6-11.4-22.2-16.8-41.6-18.1c-20.7-1.3-27.6,2.1-36.2,17.3l-6.5,11.6
			l-0.8,97.6c-0.8,89.9-0.5,97.6,3.6,99.2c6.5,2.3,49.6-3.9,56.6-8.5c5.9-3.9,6.2-3.9,19.1,20.1c7.2,13.2,13.2,26.1,13.2,28.7
			c0,4.4-0.3,4.4-8.3,0c-7-3.9-15-4.6-46-4.6h-37.4l-0.8,55c-0.5,43.4-1.3,54.8-4.1,54.8c-1.8,0-16.3-6.2-31.8-13.9l-28.4-13.9
			l1.3-18.3c2.8-39.5-10.8-71.8-34.1-81.1c-5.2-2.1-5.2-0.8,0,22.5l1.8,7.5l-25.6-1.3c-21.7-1.3-28.2-2.8-42.1-9.6
			c-23.8-11.4-39-22.7-48.8-35.6c-4.6-5.9-9.6-11.1-10.8-11.1c-1.5,0-2.6,5.4-2.6,12.4c0,7.5-2.6,17.3-6.5,25.8
			c-5.4,11.6-7.2,13.4-12.1,12.4c-3.4-0.8-19.9-1.8-36.9-2.8c-17-0.8-35.4-2.3-40.8-3.1c-9-1.3-9.8-2.1-9-9.6
			c0.5-6.2,2.3-8.5,8.5-10.3c19.1-5.7,22.7-7.7,26.1-16c5.4-12.9,5.2-222.9,0-233.2c-4.1-7.7-13.7-13.2-23.8-13.2
			c-5.7,0-6.5-1-5.7-7.2l0.8-7h69.7h69.7l0.8,7.2c0.8,6.5,0.3,7-8.3,7c-13.9,0-21.2,3.9-24.5,13.2c-4.4,12.9-3.9,131.7,0.8,153.9
			c7.5,34.9,16.3,49.1,36.9,59.4c19.4,9.3,31.8,9,50.4-1.5l15-8.5l2.6,7c1.3,3.6,2.6,8.8,2.6,11.4c0,9.6,5.9,13.4,19.4,12.7
			l12.9-0.8l1.3-107.2l1.3-107.2l9-17.8c10.8-21.4,22-30.5,46.7-38c16-4.9,19.9-5.2,42.9-2.6c13.9,1.5,32.3,4.4,40.8,6.2l15.5,3.1
			l12.1,24.5c6.7,13.4,12.1,26.6,12.4,29.2C4999.8,2123.4,4996.7,2127,4993.1,2128.5z"/>
		<path d="M3105.7,2232.1c-12.9,27.9-48.3,58.6-93.2,80.6c-13.4,6.5-24,12.9-23.2,13.9c0.5,1.3,9.6,7.2,19.9,13.2
			c41.6,24.5,62.2,46.2,65.6,68.7c2.3,15.5,0,22-11.4,33.6c-16,16.8-36.7,25.8-65.6,29.2c-26.9,3.1-253.1,4.1-255.9,1
			c-1-0.8-1.8-3.9-1.8-6.5c0-3.6,4.6-7,16.3-12.4c28.4-12.9,26.3,1.8,26.3-178.2c0-166.8-0.3-170.7-12.9-184.4
			c-4.9-5.4-8.5-6.7-18.1-6.7c-10.6,0-11.6-0.5-11.6-6.5v-6.5l55-0.3c222.9-0.5,217.7-0.5,232.4,4.9c22.2,8.5,49.3,27.1,62.8,43.6
			C3115.5,2150.2,3121.7,2196.7,3105.7,2232.1z M2854.6,2365.9c1,55.8,2.6,60.4,18.9,63c5.4,1,11.1,2.1,12.4,2.6
			c1.5,0.5,15.8,1,31.5,1c47.8,0.5,73.1-11.1,73.1-33.3c0-3.6-4.1-12.7-9.3-20.1c-11.1-16.8-31.8-30.7-61.5-41.8
			c-11.4-4.4-23-9-25.3-10.3c-8.5-4.6-35.9-12.9-38.5-11.6C2854.6,2316.3,2854.1,2336.4,2854.6,2365.9z M3029.5,2164.7
			c-6.7-22.2-17.8-34.6-42.1-46.5c-25.1-12.4-42.4-16-73.9-16c-29.7,0-43.4,3.9-53.5,15.5c-4.9,5.4-5.2,10.1-5.9,82.6l-0.8,76.7
			l27.9,9.8c15.2,5.4,34.9,12.4,43.4,15.8c20.4,7.5,22.7,7.5,35.6-0.8c33.8-21.2,47.8-36.9,63.8-71.3
			C3035.2,2207,3036.7,2188.2,3029.5,2164.7z"/>
		<path d="M3261.1,2085.9c-12.9,2.1-13.9,2.8-19.4,13.7c-5.9,11.4-5.9,11.6-5.9,145.1c0,73.6-0.8,133.5-1.8,133.5
			c-1.3-0.3-18.9-1.3-39.5-2.6c-20.7-1-43.6-2.6-50.9-3.6c-13.2-1.5-13.7-2.1-13.7-9.3c0-7,1.6-8.5,14.2-13.9
			c24-10.8,23.2-5.7,24-121.4c0.8-116.2-0.8-133.5-12.4-139.5c-4.1-2.1-11.6-3.9-16.8-3.9c-8.8,0-9.3-0.5-8.5-7l0.8-7.2h71h71l0.8,7
			C3274.8,2083.3,3274.1,2083.9,3261.1,2085.9z"/>
		<path d="M3829.9,2376.2c-22-4.4-55.3-27.6-70.2-49.1c-5.9-8.3-7.7-6.2-10.3,12.7c-1,8.5-3.9,19.4-6.2,23.8l-4.1,8l-39.3-1.5
			c-21.4-1-42.9-2.3-47.5-3.4c-7.7-1.5-8.5-2.6-7.7-9.8c0.8-7.2,2.1-8.3,12.7-10.8c19.1-4.9,22.5-7.5,24.3-19.9
			c0.8-5.9,1.3-60.2,0.8-120.1l-0.8-109.5l-7.2-6.2c-4.6-3.9-10.6-6.2-16.3-6.2c-8.5,0-9-0.5-8.3-7l0.8-7.2l65.9-0.5
			c36.2,0,67.9,0.3,70.5,1c2.6,0.5,4.4,3.6,4.4,7c0,5.2-1.5,6.2-11.6,7.5c-6.5,0.5-14.2,3.4-17,5.9c-5.2,4.6-5.2,7-4.4,88.8
			l0.8,83.9l8.8,16.8c10.3,20.4,14.5,25.1,26.1,31c21.7,11.1,37.2,9.3,58.9-7c4.6-3.6,9-5.9,9.6-5.7c0.5,0.5,3.9,17.8,7.7,38.5
			c3.9,20.7,7.5,38.2,8.3,39.5C3879.4,2379.1,3842.5,2378.5,3829.9,2376.2z"/>
	</g>
	<path d="M2146.7,2172.2c-1.3,1-4.6,2.6-7.7,3.4c-4.9,1.5-6.5,0-12.7-13.2c-8-17-36.2-47.8-50.1-55c-11.6-5.9-35.1-10.3-55.8-10.3
		c-13.7,0-19.1,1.5-36.4,10.6c-12.4,6.5-25.1,15.5-33.1,24c-16,16.5-36.4,48.8-38.7,61l-1.5,9l71.8,21.2c160.1,47,157,46,157.8,51.9
		c1.3,8.5-15.8,41.3-29.2,56.8c-21.2,23.8-57.6,41.8-95,46.7c-11.1,1.5-20.4,2.6-20.7,2.6c-0.3-0.3-3.4-0.8-7-1.5
		c-61-9.6-89.1-22.2-118.8-54c-27.4-29.2-38.7-59.1-38.7-102.5c0-20.7,1.3-28.7,8-48.8c4.4-13.2,10.3-27.4,13.4-31.8
		c12.7-18.1,30-36.2,45.7-47.5c18.6-13.7,62.8-31.5,90.4-36.4c18.3-3.4,72.1-1.5,90.4,3.1c6.5,1.5,17,2.8,24,2.8
		c11.9,0,12.1,0.3,14.7,9.6c1.3,5.2,9,28.9,16.8,52.9C2142.1,2150.7,2147.7,2171.1,2146.7,2172.2z M1923.3,2296.4
		c11.1,20.7,15,25.1,34.1,35.6c12.9,7.2,16,8,31.5,7c23.8-1.5,41.8-10.6,54.5-27.6c10.3-13.7,16.3-25.1,14.5-27.1
		c-0.8-0.5-17.6-6.2-37.2-12.4c-19.9-6.5-52.4-16.8-72.3-23.2c-19.9-6.5-36.9-10.8-38.2-9.8
		C1905.7,2243.2,1913.5,2278.6,1923.3,2296.4z"/>
	<path d="M4551.2,2085.1c-15.8,3.6-21.4,7.7-28.4,19.4l-7.2,11.9l-1.3,106.1c-1.3,101-1.5,106.7-6.5,112.3
		c-21.7,26.3-35.1,35.1-62.5,42.4c-13.9,3.6-69,5.2-82.1,2.1c-22-4.9-36.2-9-45.7-13.4c-6.2-2.8-18.3-6.5-27.1-8.3
		c-15-2.8-16.5-2.6-23.8,2.8c-5.9,4.1-8.3,4.6-9.3,2.1c-0.8-2.6-7.5-67.4-9.8-95c-0.3-3.9,1-6.5,3.6-7.2c2.8-0.5,6.5,3.6,11.1,13.4
		c9.3,19.1,28.4,35.6,56.8,49.3c63.3,30.2,110.5,19.4,120.4-27.4c2.1-9,2.3-16.3,1-17.6s-13.9-4.6-28.2-8
		c-43.9-9.6-98.7-28.9-123.2-43.1c-16.3-9.6-42.9-33.6-52.2-46.7c-9-13.2-15-36.7-12.9-51.1c2.6-17.8,16-39,32-50.4
		c44.9-31.5,131.2-19.6,180.8,25.1c9.8,9,9.8,9,11.6,3.1c1-3.4,4.6-12.7,8.3-20.7l6.5-14.7l13.4-1.3c7.2-1,28.4-1.3,46.7-1l33.6,0.8
		l0.8,6.7C4558.4,2082.3,4557.2,2083.9,4551.2,2085.1z M4412.3,2132.1c-4.6-6.2-13.7-12.7-26.3-18.6c-18.1-8.8-20.4-9.3-40.8-8.5
		c-19.9,1-22.2,1.5-29.4,8.5c-10.1,9.6-17,27.4-14.7,36.9c3.1,12.7,19.9,34.1,36.2,46.2c20.1,15.2,35.1,22.7,68.7,34.9
		c35.9,12.9,36.2,12.9,36.2-2.1C4441.7,2197.8,4428,2152.8,4412.3,2132.1z"/>
	<path d="M3621.2,2172.2c-1,1-4.1,2.6-7.2,3.4c-4.4,1.3-6.2-0.5-11.6-11.9c-7-15-37.7-49.3-50.1-55.5c-13.4-7-32.8-11.1-53.2-11.1
		c-18.3,0-21.4,0.8-42.6,11.9c-18.9,9.6-25.3,14.7-36.2,27.9c-12.9,15.5-34.6,54-34.6,61.2c0,2.6,24.8,10.8,83.4,27.9
		c45.7,13.2,97.6,28.2,114.9,33.3l32,9.3l-1.5,9c-2.3,15.5-13.9,35.4-31.5,54.2c-13.9,15-21.4,20.4-40.5,30
		c-13.9,7-30.2,12.9-39.3,14.2c-40.8,6.7-92.5-3.1-127.6-24c-20.9-12.4-52.7-50.1-60.7-71.5c-11.6-32-12.7-60.4-3.6-99.4
		c13.9-59.4,65.3-102.8,144.1-121.1c21.7-5.2,65.6-5.2,90.4,0.3c10.6,2.1,24.8,4.1,31.3,4.1h11.9l17,53.2
		C3615.5,2146.6,3622.5,2171.1,3621.2,2172.2z M3384.6,2256.4c1.5,16.8,3.6,22.7,13.2,40c11.9,21.2,20.4,29.2,39.5,38.2
		c15.5,7,39.5,5.2,58.1-4.6c13.4-7.2,37.4-35.4,37.4-43.9c0-3.4-9.3-7.2-42.1-17c-23-7-55.5-17.3-72.3-22.7
		c-16.8-5.4-31.8-9.8-33.1-9.8C3383.8,2236.5,3383.6,2244,3384.6,2256.4z"/>
	<path d="M4204.9,2069.4c-5.2,10.3-10.8,17.8-16.3,20.9c-4.6,2.8-10.1,9.3-12.9,16c-4.9,10.6-4.9,17.3-4.4,120.6l0.8,109.2l6.2,9.3
		c4.6,6.5,9.8,10.3,18.1,12.9c10.6,3.1,11.9,4.4,12.7,11.9l0.8,8.3l-93.8-0.3c-51.7-0.3-101.2-1.3-110.5-2.3
		c-22-2.6-39.5-9.6-61.7-24.3c-22-14.7-36.2-31.3-50.6-59.1c-9-17.8-11.4-25.6-14.2-47.3c-4.1-32.8-0.8-52.9,13.2-80.8
		c13.4-26.9,26.1-41.3,48.8-56.6c48-32,58.1-34.9,160.9-44.7c24-2.3,31-3.9,32.3-7.2c2.3-5.9,2.3-33.8-0.3-42.1
		c-3.4-12.4-17.6-25.6-39.3-36.2l-20.7-10.3l-32.3,1.3c-48.3,2.1-71,12.4-84.2,38.5c-7.2,14.2-7,21.7,0.8,42.9
		c4.1,11.1,4.1,11.4-2.6,18.1l-7,6.7l-36.9-38l-37.2-38.2l7.5-9.3c10.8-13.9,43.1-33.8,73.1-45.7c29.7-11.6,110-16,145.9-8.3
		c41.1,9.3,57.6,16.3,82.6,35.6c20.7,16.3,29.7,35.1,29.4,62.2C4212.9,2050,4211.6,2056,4204.9,2069.4z M4098.5,2106.6l-28.9,1.5
		c-35.1,1.5-48,5.7-68.2,22c-12.4,10.1-17.3,16-26.1,34.1c-15.8,32-17.8,43.4-14.2,80.6c2.6,26.3,4.4,33.1,11.9,48
		c13.7,26.9,30.5,40.3,64.1,51.1c20.9,6.7,51.7-1,58.9-14.5c1.5-3.1,2.6-47,2.6-113.9V2106.6z"/>
	<path d="M5325.2,2173.7c-7.7,2.8-8,2.8-14.5-10.3c-8.8-17.3-25.1-38.5-35.4-46.5c-4.6-3.4-14.7-9-22.5-12.4
		c-12.4-5.4-18.3-6.2-43.9-6.2c-28.4,0-30.5,0.5-45.7,8.3c-23.5,12.4-48.6,41.8-64.3,75.4c-8,17.3-7.2,17.8,45.5,33.1
		c111.6,32,174.6,50.9,178.7,52.9c3.9,1.8,3.9,3.1,1.3,10.6c-10.6,28.4-36.4,61-61.2,76.7c-7,4.6-21.2,11.1-31.5,14.7
		c-18.3,6.2-50.6,9.6-67.9,7c-28.4-4.1-66.1-17.3-83.7-29.2c-31.5-21.4-60.4-63-67.4-96.6c-5.9-29.2,0.8-68.2,17.3-101
		c20.9-41.8,49.8-64.1,107.7-82.9l36.4-12.1l42.6,1.3c31.5,0.8,45.2,2.1,52.9,5.4c5.7,2.3,15,3.9,20.4,3.6
		c9.6-0.8,10.1-0.3,13.4,9.6c18.1,56.3,29.4,92.2,29.4,93.8C5333,2169.9,5329.4,2172.2,5325.2,2173.7z M5093.6,2237.3
		c-0.5,0.8,0,10.8,1.3,22.5c2.8,22.5,11.9,44.2,23.5,55.8c8.8,8.8,27.1,19.4,37.2,21.4c11.1,2.3,36.2-1.3,49.3-7.2
		c5.9-2.6,15.2-9.8,20.4-16.3c10.6-12.9,18.3-29.4,15-31.5c-1.3-0.8-19.6-6.7-40.5-13.2c-21.2-6.7-53.5-16.5-71.5-22.2
		C5109.9,2240.6,5094.4,2236.5,5093.6,2237.3z"/>
</g>
</svg>
