<?xml version="1.0" encoding="utf-8"?>
<!-- Generator: Adobe Illustrator 16.0.0, SVG Export Plug-In . SVG Version: 6.00 Build 0)  -->
<!DOCTYPE svg PUBLIC "-//W3C//DTD SVG 1.1 Tiny//EN" "http://www.w3.org/Graphics/SVG/1.1/DTD/svg11-tiny.dtd">
<svg version="1.1" baseProfile="tiny" id="Layer_1" xmlns="http://www.w3.org/2000/svg" xmlns:xlink="http://www.w3.org/1999/xlink"
	 x="0px" y="0px" width="1000px" height="1000px" viewBox="0 0 1000 1000" xml:space="preserve">
<g>
	<path d="M597.992,64.216c0,0,34.869,20.388,58.076,80.163c26.994,69.529,57.722,152.709,96.933,150.51
		C796.764,292.435,712.51,123.111,597.992,64.216z"/>
	<path d="M488.789,288.753c0,0,1.636-5.726,2.454-9.406c0.818-3.681,0.818-5.317,7.362-9.816
		c6.544-4.499,18.406-13.088,37.627-12.27c0,0-0.204,4.294-0.204,5.215c0,0-11.656,1.227-22.086,4.601s-10.43,4.294-15.031,6.749
		c-4.601,2.454-4.601,3.374-6.135,7.362S488.789,288.753,488.789,288.753z"/>
	<path d="M543.39,257.568l-0.307,4.601c0,0,3.681,1.841,9.202,3.988c5.521,2.147,9.203,3.067,11.656,1.534
		c2.454-1.534,0.921-2.454-3.681-4.908C555.66,260.329,547.378,258.182,543.39,257.568z"/>
	<path d="M505.967,281.801c0,0,7.362-2.761,13.19-3.987c5.828-1.227,22.085-4.295,33.128,1.84
		c11.043,6.135,5.521,14.724-2.76,16.564c-8.283,1.841-25.768,3.375-35.89,0.307c-10.123-3.068-0.307-2.454,8.589-1.534
		c8.896,0.92,10.736,0,10.43-6.135c-0.308-6.135,2.453-8.589-3.068-7.975C524.064,281.494,500.139,286.402,505.967,281.801z"/>
	<path d="M502.899,377.506c-9.203-0.307-42.331-0.614-46.625-1.534c-4.294-0.92-6.135-0.92-6.135,1.227
		c0,2.147,1.534,5.521,1.534,5.521s1.227,3.374,6.135,8.282c4.908,4.908,5.828,6.749,10.123,7.055
		c4.294,0.307,20.859,1.841,30.368,0.92s11.656-12.27,15.337-17.178C517.316,376.892,512.102,377.813,502.899,377.506z
		 M504.126,382.414c-0.613,1.227-0.92,3.375-0.92,6.442s-3.374,3.681-9.509,4.294c-6.135,0.613-15.644,0-22.085-0.307
		c-6.442-0.307-6.135-2.147-8.589-4.602c-2.454-2.454-3.375-6.441-3.375-6.441c0-1.84-0.92-1.534,7.976-0.92
		c8.896,0.614,21.779,0.92,29.754,0.614C505.354,381.187,504.74,381.187,504.126,382.414z"/>
	<path d="M515.476,354.807c0,0-0.307,6.441,4.295,15.03s7.976,17.485,9.509,15.031c1.534-2.454,0-4.294-3.681-11.043
		s-5.828-11.963-7.362-15.03C516.703,355.727,516.09,352.046,515.476,354.807z"/>
	<path d="M443.697,364.623c0,0-3.681,2.147-5.215,5.214c-1.534,3.068-4.908,8.896-2.147,5.215c2.761-3.681,5.215-4.908,7.055-5.828
		S445.231,363.396,443.697,364.623z"/>
	<circle cx="575.497" cy="823.312" r="10.634"/>
	<circle cx="597.173" cy="851.94" r="10.634"/>
	<circle cx="619.259" cy="887.933" r="10.634"/>
	<g>
		<path d="M368.954,710.429c-1.354,0-2.453-1.098-2.453-2.453c-0.001-1.354,1.097-2.454,2.452-2.455
			c0.36,0,36.171-0.295,46.023-22.272c0.556-1.236,2.009-1.788,3.243-1.235c1.237,0.555,1.79,2.007,1.236,3.243
			C408.299,710.141,370.555,710.429,368.954,710.429z"/>
	</g>
	<g>
		<path d="M472.019,635.174c-0.328,0-0.662-0.067-0.982-0.207c-1.241-0.543-1.808-1.99-1.265-3.231
			c5.141-11.751-3.856-27.051-3.947-27.204c-0.694-1.162-0.316-2.669,0.845-3.364c1.162-0.696,2.668-0.318,3.364,0.841
			c0.428,0.713,10.397,17.608,4.235,31.694C473.866,634.624,472.965,635.174,472.019,635.174z"/>
	</g>
	<g>
		<path d="M548.096,668.712c-0.975,0-1.896-0.584-2.28-1.544c-0.504-1.258,0.108-2.687,1.368-3.189
			c6.315-2.525,5.038-12.003,5.025-12.098c-0.191-1.342,0.74-2.585,2.081-2.776c1.331-0.189,2.585,0.739,2.776,2.081
			c0.078,0.547,1.798,13.408-8.062,17.351C548.706,668.655,548.398,668.712,548.096,668.712z"/>
	</g>
	<g>
		<path d="M575.088,696.523c-1.003,0-1.943-0.62-2.307-1.616c-0.463-1.274,0.194-2.682,1.468-3.146
			c6.445-2.344,11.148-12.681,12.417-16.467c0.431-1.283,1.822-1.978,3.104-1.549c1.285,0.43,1.979,1.817,1.551,3.104
			c-0.216,0.646-5.396,15.889-15.395,19.525C575.649,696.476,575.367,696.523,575.088,696.523z"/>
	</g>
	<path d="M449.935,698.157c9.75,11.839,4.077,32.563-11.452,41.494v218.832h34.356v-261.54
		C461.632,699.266,449.935,698.157,449.935,698.157z M827.847,522.29c0,0,4.908-5.726-3.272-17.995
		c-8.18-12.27-51.941-56.033-128.015-47.035c0,0-23.313,12.679-31.493,31.492c1.526,2.399-12.979-17.122,22.904-37.626
		c0,0-31.085-16.36-44.99-19.632c0,0-10.634-31.902-14.724-50.716c-4.09-18.813-8.179-32.72-4.09-34.355
		c4.09-1.636,8.18-0.818,13.905-22.903c5.727-22.086,5.727-44.171,5.727-49.897c0-5.726,70.347,20.45,89.979,25.357
		c0,0-46.624-30.265-79.344-116.971c-17.882-47.385-35.174-102.25-99.924-124.19c-16.006-5.424-33.029-7.95-49.743-7.143
		c-24.125,1.165-47.606,9.273-66.458,25.636c-11.276,9.786-20.698,21.957-28.046,34.939c-36.81,65.03-31.902,88.343-84.662,116.563
		s-35.583,31.902-13.497,31.902c22.086,0,78.527-6.135,90.797-6.135c0,0,2.045,16.77,2.045,47.035
		c0,30.266,4.09,44.171,13.906,71.983c9.816,27.813,17.996,44.172,15.542,55.624c-2.454,11.452-34.355,40.9-34.355,40.9
		s-27.812-4.5-56.033,1.636c-28.221,6.135-45.398,22.085-36.81,29.447c8.589,7.362-13.209,76.812-39.264,132.515
		c-35.583,76.073-97.417,179.853-106.62,222.183c-9.202,42.33-16.819,66.685,15.336,75.456c20.251,5.523,61.966,9.205,61.966,9.205
		s-25.158-23.928-21.478-68.097c3.68-44.169,27.605-46.01,27.605-46.01s-18.403,23.924-12.882,57.052
		c5.521,33.127,20.244,44.169,20.244,44.169s16.569,29.45,57.057,20.247l-3.193-11.14c0,0,6.135,4.908,24.54,2.454
		c0,0,9.203-1.228,29.448-3.682c18.633-2.258,17.792-1.227,22.699-1.84c4.908-0.613,11.656-4.295,11.656,2.454v5.521
		c0,0-0.613,17.791,11.657,17.791h21.472V743.55c-20.296,3.484-24.131-11.854-24.131-11.854
		c-1.635,5.726-9.816,13.905-18.814,13.087s-17.178-5.93-17.178-5.93c-7.348,13.471-29.583,12.881-39.853,4.055
		c-14.541-12.498-6.504-39.232,6.728-49.457c13.493-10.426,29.444-12.267,29.444-12.267c-0.614-42.944,37.423-46.625,37.423-46.625
		s-0.813-25.327,12.27-38.037c21.472-20.858,49.079-1.84,49.079-1.84s11.675-10.212,28.834-9.203
		c20.858,1.228,28.221,12.884,28.221,12.884c17.791-5.521,26.993-2.454,31.901-1.841s0-6.135-37.423-12.883
		c-37.423-6.749-70.552-1.841-70.552-5.521c0-3.682,9.202-31.901,15.337-51.533c6.135-19.632,12.27-42.945,12.27-42.945
		c5.521,1.022,50.103,0.204,79.55-7.976c29.448-8.18,53.987-23.722,53.987-23.722s-0.818,13.088,5.726,16.36
		c6.544,3.271,22.086,2.454,22.086,8.18s-10.634,4.09-15.541,8.998c-4.908,4.908-3.272,18.814,9.815,17.995
		c13.088-0.817,12.27-18.813,12.27-18.813l5.726-1.636c-2.454,20.449,8.181,23.723,13.088,24.54
		c4.908,0.817,3.272,8.998,3.272,17.178c0,8.179-4.091,6.545-17.178,16.36c-13.087,9.816-34.355,24.54-47.443,39.264
		c-13.089,14.724-32.721,31.083-32.721,31.083c8.18,13.905-3.271,27.812-3.271,27.812s9.815-5.726,22.902,0
		c13.087,5.725,13.089,31.901,13.089,31.901c9.815-1.637,20.45,8.18,18.813,19.632c-1.638,11.451-10.635,34.355-31.084,35.992
		c-20.448,1.637-22.085-12.27-22.085-12.27c-24.54,4.091-24.54-17.178-24.54-17.178c-2.34,1.049-4.665,1.761-6.953,2.212v258.931
		h14.724c0,0,13.497-1.227,13.497-20.858V775.766c0,0,32.721,30.367,58.078,67.176c25.356,36.81,35.989,53.171,27.811,59.306
		c0,0-19.632,13.495-69.12,33.127h231.082c0,0,12.362-23.418,16.043-109.917c3.682-86.499,9.204-160.114,12.884-202.442
		C839.185,580.686,837.663,541.104,827.847,522.29z M264.251,895.702c-8.18-25.356-3.272-37.627,0-44.988
		c0,0,7.362,44.171,24.54,71.165C288.791,921.879,272.431,921.06,264.251,895.702z M321.102,812.677
		c26.993-26.993,27.401-56.441,27.401-56.441c16.359,3.272,13.906-11.452,17.996-2.454c4.09,8.999,3.272,26.176,0.818,42.535
		s-0.818,14.724,9.816,14.724c8.641,0,18.691,1.572,18.077,12.525c-0.427,7.611-5.693,14.54-13.181,15.288
		c-8.171,0.816-14.712-0.818-17.166,2.453c-2.454,3.272-1.636,8.18,16.36,6.543c11.885-1.081,15.751,9.308,12.719,19.706
		c-3.187,10.923-17.979,7.288-26.624,7.288c-8.181,0-22.087,6.545-4.909,5.727c7.771-0.371,20.238-3.84,27.533-0.13
		c4.668,2.374,6.431,16.81,2.733,21.396c-0.048,0.06-3.363,3.369-11.453,4.092c-11.452,1.022-13.906,2.454-8.998,4.09
		c5.813,1.938,15.753-3.23,18.974,4.038c3.475,7.843-1.333,11.171-8.445,12.601c-9.41,1.892-14.21,0.539-27.711,2.994
		c-9.552,1.737-18.261,2.481-27.91,1.183c-33.114-4.454-56.351-45.177-44.141-76.776
		C289.47,837.293,308.811,824.967,321.102,812.677z M318.647,506.749c-0.409,4.498-1.636,11.45-3.272,21.676
		s-0.409,8.999-2.863,11.86c-2.454,2.863-3.681,0-2.863-4.908c0.817-4.908,1.227-11.45,2.863-22.902
		c1.636-11.453,2.045-10.634,2.045-10.634c0.818-1.637,2.863-2.454,4.908-2.454C321.51,499.387,319.057,502.248,318.647,506.749z
		 M330.099,505.93c-0.817,3.681-1.227,8.589-2.454,17.997c-1.227,9.406,0,15.541-2.863,16.769c-2.863,1.227-4.499,0-4.09-2.454
		s0.818-11.453,2.045-18.814c1.227-7.362,2.863-19.223,2.863-19.223C328.462,496.523,330.917,502.248,330.099,505.93z
		 M326.418,492.024c-18.814,2.454-2.454-8.998,19.632-14.724c22.085-5.726,55.214-0.409,55.214-0.409
		c16.359,3.271,13.497,11.86-12.679,11.86S345.232,489.57,326.418,492.024z M385.313,522.7c-3.271,0.408-2.863,0.407-2.863-2.454
		c0-2.864,0.818-8.999,0.818-8.999c0.817-3.681,2.454-2.454,2.863,2.454S388.585,522.29,385.313,522.7z M378.36,502.658
		c0,2.454,0,1.637-1.227,13.087c-1.227,11.453,0,17.178-3.271,19.632c-3.272,2.454-3.272,1.637-2.454-10.633
		s2.454-23.313,2.454-23.313C375.498,497.341,378.36,500.204,378.36,502.658z M367.727,504.295
		c-0.818,6.135-2.863,7.77-3.271,18.813c-0.409,11.043,0,15.95-4.5,16.36s-2.045-16.768,0-27.811s3.272-12.68,3.272-12.68
		C367.728,495.706,368.544,498.16,367.727,504.295z M340.733,506.749c-0.818,4.09-0.409,6.542-1.636,16.768
		c-1.227,10.227-1.227,13.088-2.454,15.134c-1.227,2.045-4.499,1.635-4.499-1.637c0-3.271,2.454-9.815,3.272-20.449
		s2.454-17.177,2.454-17.177C345.232,497.342,341.551,502.658,340.733,506.749z M345.232,539.878
		c-3.272,0-0.409-11.862,0.818-21.269s2.454-19.632,2.454-19.632c1.636-2.454,7.771-1.227,6.953,1.227
		c-0.818,2.454-1.636,10.226-2.863,19.223C350.932,531.611,348.504,539.878,345.232,539.878z M432.961,579.345
		c-29.448,4.295-35.583,26.38-38.037,37.423s0,7.362-15.951,15.951c-15.951,8.589-19.631,25.153-22.085,35.583
		c-1.952,8.296-4.294,3.681-4.294,3.681c-1.227-23.927,9.202-57.055,16.564-80.981c7.362-23.926,29.447-69.938,33.742-81.595
		c4.294-11.656,7.976-9.815,14.724-11.656s10.429-9.203,11.656-16.564s-4.294-7.976-13.497-7.976c-9.202,0-5.521-3.681,0.614-9.816
		c6.135-6.135,16.564-10.429,23.926,0.614s20.859,12.27,20.859,12.27C451.979,507.566,432.961,579.345,432.961,579.345z
		 M602.898,389.367c-2.045,11.861-13.087,19.632-19.632,30.265c-6.544,10.634-32.719,19.632-52.76,25.767
		c-20.042,6.135-37.627,6.135-42.126,4.09c-4.499-2.045-9.816-2.454-20.041-2.863s-17.996-4.499-20.858-10.225
		c-2.863-5.726-5.317-12.27-5.317-12.27c-3.272-8.18-12.104-34.502-21.676-59.304c-8.999-23.313-11.452-46.625-11.452-66.257
		c0-12.277,5.317-11.452,11.86-12.27s11.043-5.727,10.225-1.636s0.818,10.225-2.863,10.225c-3.681,0-11.452-0.818-11.452-0.818
		c16.36,11.043,47.034-0.409,47.034-0.409s1.227,3.272-0.818,20.45s-2.863,27.812-2.863,32.719c0,4.908-2.658,6.135,7.771,9.203
		c10.43,3.067,23.313-0.614,28.221-3.068c4.908-2.454,1.227-6.135,0-4.294c-1.227,1.84-3.681,0.613-10.429,0.613
		s-11.043,3.067-11.043,3.067c-10.429,0.613-11.043-7.976-9.816-24.54c1.227-16.564,6.135-31.902,1.84-46.625
		c-4.294-14.724-17.178-23.313-31.288-22.699c-14.11,0.613-23.313,0.613-23.313,0.613c0-4.908,0.613-6.748,0.613-6.748
		c88.343-8.589,185.274,8.589,185.274,8.589c3.273,0.408-0.408,7.771-0.818,19.223c-0.278,7.809,1.228,11.451,3.682,11.451
		s4.908-0.818,4.908-0.818c12.678-3.271,17.996-8.998,22.903-8.998c4.908,0,8.998,8.998,1.636,15.542
		c-7.361,6.544-3.271,2.862-9.406-0.818c-6.135-3.681-7.771,20.041-9.815,37.219S604.944,377.506,602.898,389.367z M413.125,271.167
		c0-3.681,0-5.726,0-5.726c3.851-0.707,7.807-0.543,11.043-0.818c30.447-2.585,33.537,9.407,35.173,14.724
		c0.992,3.223,4.908,14.724-3.681,5.726s-18.814-12.27-29.448-7.771s-13.088,4.499-13.088,4.499
		C413.943,278.938,413.125,274.848,413.125,271.167z M623.758,319.224c-1.534,4.294-2.761,3.374-3.375-1.227
		c-0.613-4.601-1.227-4.601,0.921-5.521s3.681-0.307,3.681-0.307C626.519,312.476,625.291,314.93,623.758,319.224z M619.156,331.801
		c-2.454,1.534-4.295-11.35-2.454-9.509c0,0,3.067,3.067,6.441,3.067C626.519,325.359,621.61,330.267,619.156,331.801z
		 M699.012,516.155c0,5.317-4.498,3.681-4.498,1.637c0-2.046,0-9.408,0-9.408c2.454-4.498,4.908,0.819,4.908,0.819
		S699.012,510.838,699.012,516.155z M714.146,546.83c-3.271,0.816-2.863-0.817-3.272-14.314
		c-0.408-13.497,0.818-20.451,0.818-20.451c4.091-4.498,3.271,2.454,2.863,11.862C714.146,533.333,717.417,546.013,714.146,546.83z
		 M725.188,547.646c-3.681,0.41-2.454-6.542-2.454-15.95c0-9.406,0.409-19.632,0.409-19.632c1.636-4.09,4.499-1.635,4.499,2.047
		c0,3.681-0.41,9.405-0.41,17.994C727.232,540.695,728.869,547.239,725.188,547.646z M739.094,541.104
		c0.818,10.225-0.408,12.678-2.453,12.271c-2.046-0.41-2.046-2.454-2.046-7.772v-20.448c0-7.362,0.41-11.863,0.41-11.863
		c3.272-4.907,4.498,1.228,4.498,4.908S738.275,530.879,739.094,541.104z M750.137,551.328c-0.408,2.454-4.908,2.454-4.908-4.498
		s1.228-18.814,1.228-18.814c4.499-3.682,3.272,1.227,3.272,10.635C749.729,548.057,750.546,548.874,750.137,551.328z
		 M752.183,518.199c-1.228,0.818-1.637,2.454-1.637,4.501c0,2.044-5.317,2.454-5.317,0s0.818-6.955,0.818-6.955
		C748.093,513.291,753.409,517.382,752.183,518.199z M763.224,544.785c0.818,10.225-0.408,12.678-2.454,12.271
		c-2.045-0.41-2.045-2.454-2.045-7.771v-20.449c0-7.362,0.41-10.636,0.41-10.636c3.272-4.908,4.498,0,4.498,3.681
		C763.633,525.562,762.405,534.56,763.224,544.785z M776.313,548.875c0.818,10.225-0.409,12.679-2.454,12.27
		c-2.046-0.408-2.046-2.453-2.046-7.77v-21.678c0-7.361,0.41-11.861,0.41-11.861c3.272-4.908,4.498,1.228,4.498,4.908
		S775.494,538.65,776.313,548.875z M787.355,565.645c-2.046-0.41-2.046-2.454-2.046-7.771c0-5.318-1.227-19.223-1.227-26.584
		c0-7.362,0.409-11.862,0.409-11.862c3.272-4.908,4.498,1.227,4.498,4.907c0,3.682,0,18.814,0.818,29.041
		C790.627,563.599,789.4,566.052,787.355,565.645z M804.124,555.419c0.818,10.226-3.681,10.225-5.726,9.815
		c-2.046-0.408-2.046-2.454-2.046-7.771c0-5.316-1.227-19.222-1.227-26.584s0.409-11.861,0.409-11.861
		c3.272-4.908,8.998-2.045,8.998,1.636S803.306,545.193,804.124,555.419z M813.531,565.645c-2.045-0.41-2.045-2.454-2.045-7.771
		c0-5.318-0.907-18.412-1.227-25.768c-0.409-9.405,0-11.452,0-11.452c2.045-2.454,6.543-2.454,6.543,1.227
		c0,3.682,1.637,18.405,2.045,34.766C819.104,566.9,815.577,566.052,813.531,565.645z M704.33,496.933
		c-28.629-7.362-28.629-11.453-16.359-20.451s45.807-14.724,76.891-4.089c31.083,10.634,53.986,35.173,53.986,35.173
		C824.573,516.564,732.959,504.295,704.33,496.933z M827.028,546.42c0,4.091,0,8.999-0.409,12.27
		c-0.41,3.272-2.863,5.318-2.863-2.861s0-15.543,0-15.543C828.664,539.468,827.028,542.332,827.028,546.42z M823.756,537.014
		c-0.818-1.227,0-9.815,0-9.815c4.09-4.091,4.908,5.317,4.908,7.771S824.574,538.241,823.756,537.014z M491.652,685.07
		c-1.565,3.478-4.356,6.063-7.771,7.985v265.428h35.583V699.786C503.655,697.5,491.652,685.07,491.652,685.07z"/>
</g>
</svg>
