<?xml version="1.0" encoding="utf-8"?>
<!-- Generator: Adobe Illustrator 16.0.0, SVG Export Plug-In . SVG Version: 6.00 Build 0)  -->
<!DOCTYPE svg PUBLIC "-//W3C//DTD SVG 1.1 Tiny//EN" "http://www.w3.org/Graphics/SVG/1.1/DTD/svg11-tiny.dtd">
<svg version="1.1" baseProfile="tiny" id="Layer_1" xmlns="http://www.w3.org/2000/svg" xmlns:xlink="http://www.w3.org/1999/xlink"
	 x="0px" y="0px" width="1000px" height="1000px" viewBox="0 0 1000 1000" xml:space="preserve">
<g>
	<path d="M287.842,570.59c1.682,1.04,3.305,1.783,4.867,2.221c1.563,0.44,3.185,0.662,4.868,0.662c1.922,0,3.765-0.222,5.528-0.662
		c1.761-0.438,3.725-1.181,5.888-2.221l1.683,3.484c-2.164,1.362-4.387,2.343-6.671,2.941c-2.283,0.602-4.827,0.903-7.63,0.903
		c-2.004,0-3.965-0.302-5.888-0.903c-1.924-0.599-3.726-1.501-5.409-2.703c-9.054,11.538-18.247,20.49-27.58,26.86
		c-9.333,6.368-17.925,9.554-25.778,9.554c-4.246,0-7.691-1.282-10.335-3.845c-2.643-2.563-3.966-5.89-3.966-9.976
		c0-6.568,2.524-13.92,7.571-22.052c5.047-8.131,11.859-15.643,20.43-22.534c8.172-6.489,16.002-11.476,23.494-14.962
		c7.491-3.485,14.121-5.229,19.89-5.229c3.364,0,6.047,0.903,8.052,2.705c2.001,1.803,3.004,4.188,3.004,7.151
		c0,3.685-1.042,8.012-3.125,12.979C294.65,559.935,291.687,565.14,287.842,570.59z M293.971,547.153
		c0.159-0.479,0.28-1.021,0.36-1.623c0.079-0.6,0.121-1.341,0.121-2.223c0-1.762-0.481-3.124-1.442-4.086
		c-0.962-0.961-2.284-1.442-3.967-1.442c-3.845,0-9.154,2.205-15.923,6.609c-6.771,4.407-14.121,10.496-22.052,18.267
		c-7.851,7.935-14.04,15.104-18.567,21.514c-4.525,6.409-6.79,11.216-6.79,14.421c0,2.161,0.741,3.864,2.223,5.106
		c1.483,1.243,3.546,1.863,6.189,1.863c6.17,0,13.219-2.886,21.152-8.653c7.931-5.768,16.944-14.66,27.04-26.68
		c-0.403-1.36-0.703-2.563-0.901-3.604c-0.201-1.042-0.301-1.923-0.301-2.644c0-3.526,1.382-7.151,4.146-10.877
		C288.022,549.377,290.926,547.395,293.971,547.153z"/>
	<path d="M385.673,534.415c-5.209,4.807-8.974,8.693-11.297,11.657c-2.324,2.964-3.485,5.369-3.485,7.211
		c0,1.122,0.64,1.942,1.922,2.463c1.282,0.521,3.285,0.781,6.01,0.781c1.52-0.16,2.643-0.24,3.364-0.24l-2.644,3.966
		c-0.72,0.08-1.643,0.222-2.763,0.421c-1.124,0.2-1.924,0.3-2.404,0.3c-3.526,0-6.369-0.579-8.533-1.742
		c-2.164-1.161-3.686-2.864-4.566-5.108l-59.728,44.226l-6.729,8.894H281.6l55.882-71.627h12.979l-40.378,51.437l52.156-39.657
		c2.323-4.807,4.747-8.253,7.271-10.336c2.524-2.084,5.547-3.124,9.074-3.124c0.721,0,2.243,0.08,4.567,0.24
		C384.189,534.255,385.03,534.335,385.673,534.415z"/>
	<path d="M437.235,563.979l-22.113,26.318c-2.883,3.285-4.806,5.689-5.768,7.211c-0.961,1.522-1.442,2.806-1.442,3.845
		c0,0.803,0.339,1.484,1.021,2.044c0.681,0.56,1.581,0.84,2.704,0.84c3.925,0,10.114-2.703,18.567-8.111
		c8.452-5.408,18.166-12.959,29.143-22.652l2.765,3.485c-10.657,10.255-20.691,18.267-30.104,24.034
		c-9.416,5.768-16.927,8.653-22.533,8.653c-2.726,0-4.849-0.902-6.37-2.703c-1.522-1.804-2.283-4.347-2.283-7.632
		s1.04-7.092,3.124-11.416c2.083-4.327,4.967-8.613,8.653-12.859l22.474-26.078c1.683-2.004,3.004-3.745,3.965-5.228
		c0.962-1.482,1.443-2.623,1.443-3.427c0-0.962-0.321-1.701-0.962-2.223c-0.641-0.52-1.561-0.78-2.763-0.78
		c-8.093,0-19.691,6.471-34.792,19.407c-15.1,12.94-29.984,29.785-44.646,50.535h-14.061l53.839-71.627h12.618l-16.705,22.594
		c10.095-8.651,18.847-15.081,26.259-19.289c7.409-4.205,13.8-6.308,19.169-6.308c3.443,0,6.068,0.762,7.871,2.282
		c1.802,1.524,2.704,3.648,2.704,6.369c0,2.646-1.042,5.992-3.125,10.036C443.803,555.348,440.919,559.572,437.235,563.979z"/>
	<path d="M539.24,534.415c-5.209,4.807-8.973,8.693-11.297,11.657s-3.485,5.369-3.485,7.211c0,1.122,0.641,1.942,1.923,2.463
		c1.282,0.521,3.285,0.781,6.011,0.781c1.52-0.16,2.644-0.24,3.364-0.24l-2.644,3.966c-0.721,0.08-1.643,0.222-2.765,0.421
		c-1.121,0.2-1.922,0.3-2.404,0.3c-3.526,0-6.368-0.579-8.532-1.742c-2.163-1.161-3.685-2.864-4.565-5.108l-59.73,44.226
		l-6.729,8.894h-13.219l55.882-71.627h12.978l-40.378,51.437l52.157-39.657c2.322-4.807,4.746-8.253,7.27-10.336
		c2.523-2.084,5.549-3.124,9.074-3.124c0.721,0,2.241,0.08,4.566,0.24C537.756,534.255,538.598,534.335,539.24,534.415z"/>
	<path d="M582.751,570.59c1.682,1.04,3.305,1.783,4.867,2.221c1.562,0.44,3.183,0.662,4.867,0.662c1.923,0,3.766-0.222,5.526-0.662
		c1.763-0.438,3.727-1.181,5.89-2.221l1.682,3.484c-2.161,1.362-4.386,2.343-6.668,2.941c-2.285,0.602-4.828,0.903-7.632,0.903
		c-2.003,0-3.967-0.302-5.89-0.903c-1.923-0.599-3.726-1.501-5.407-2.703c-9.056,11.538-18.247,20.49-27.58,26.86
		c-9.334,6.368-17.926,9.554-25.777,9.554c-4.246,0-7.692-1.282-10.335-3.845c-2.644-2.563-3.967-5.89-3.967-9.976
		c0-6.568,2.523-13.92,7.57-22.052c5.047-8.131,11.858-15.643,20.43-22.534c8.173-6.489,16.004-11.476,23.495-14.962
		c7.49-3.485,14.122-5.229,19.89-5.229c3.366,0,6.048,0.903,8.053,2.705c2,1.803,3.004,4.188,3.004,7.151
		c0,3.685-1.042,8.012-3.125,12.979C589.56,559.935,586.596,565.14,582.751,570.59z M588.878,547.153
		c0.161-0.479,0.281-1.021,0.363-1.623c0.078-0.6,0.119-1.341,0.119-2.223c0-1.762-0.482-3.124-1.442-4.086
		c-0.962-0.961-2.283-1.442-3.965-1.442c-3.848,0-9.156,2.205-15.923,6.609c-6.773,4.407-14.122,10.496-22.054,18.267
		c-7.851,7.935-14.04,15.104-18.566,21.514c-4.526,6.409-6.79,11.216-6.79,14.421c0,2.161,0.739,3.864,2.222,5.106
		c1.484,1.243,3.547,1.863,6.188,1.863c6.172,0,13.221-2.886,21.151-8.653c7.934-5.768,16.945-14.66,27.04-26.68
		c-0.401-1.36-0.701-2.563-0.9-3.604c-0.202-1.042-0.302-1.923-0.302-2.644c0-3.526,1.383-7.151,4.146-10.877
		C582.931,549.377,585.834,547.395,588.878,547.153z"/>
	<path d="M649.335,531.651c0.479,6.81,0.798,11.718,0.961,14.721c0.158,3.005,0.241,5.43,0.241,7.271
		c0,16.505-4.629,29.965-13.882,40.379c-9.252,10.416-20.688,15.623-34.312,15.623c-4.086,0-7.408-1.002-9.973-3.005
		c-2.563-2.001-3.846-4.606-3.846-7.813c0-3.041,0.942-5.606,2.824-7.689c1.883-2.083,4.227-3.125,7.03-3.125
		c1.681,0,3.125,0.602,4.326,1.803c1.2,1.201,1.801,2.644,1.801,4.325c0,2.966-1.261,5.108-3.784,6.43
		c-2.523,1.323-3.786,2.224-3.786,2.703c0,0.644,0.401,1.145,1.202,1.504c0.803,0.36,1.884,0.54,3.244,0.54
		c9.937,0,19.491-7.008,28.663-21.031c9.172-14.02,14.361-30.805,15.563-50.353c-6.57,6.249-13.04,12.197-19.408,17.845
		c-6.371,5.648-12.757,11.078-19.169,16.286l-2.763-3.606c5.048-4.086,10.815-9.015,17.306-14.781
		c6.488-5.769,14.42-13.102,23.793-21.994c2.084-4.725,4.187-8.391,6.311-10.994c2.123-2.604,4.064-3.906,5.829-3.906
		c1.202,0,2.062,0.26,2.581,0.781c0.521,0.521,0.782,1.383,0.782,2.584c0,1.923-1.02,4.247-3.063,6.97
		C655.764,525.842,652.938,528.688,649.335,531.651z"/>
	<path d="M728.025,569.625l2.884,3.365c-13.701,12.181-26.039,21.472-37.016,27.883c-10.976,6.407-20.027,9.612-27.159,9.612
		c-4.567,0-8.052-1.201-10.454-3.604c-2.404-2.404-3.606-5.81-3.606-10.217c0-6.327,2.244-13.458,6.729-21.392
		c4.49-7.931,10.538-15.142,18.148-21.63c7.45-6.49,15.343-11.699,23.673-15.624c8.333-3.926,15.423-5.89,21.273-5.89
		c3.925,0,7.092,0.962,9.493,2.887c2.404,1.923,3.606,4.405,3.606,7.449c0,3.606-1.403,6.892-4.208,9.854
		c-2.805,2.967-5.928,4.448-9.374,4.448c-1.843,0-3.285-0.46-4.324-1.382c-1.044-0.92-1.563-2.184-1.563-3.787
		c0-1.36,0.421-2.563,1.261-3.604c0.842-1.042,1.982-1.804,3.427-2.285c0.56-0.158,1.521-0.359,2.883-0.599
		c4.006-0.643,6.01-1.926,6.01-3.848c0-1.199-0.44-2.164-1.322-2.884c-0.883-0.72-2.085-1.08-3.606-1.08
		c-4.887,0-11.596,2.925-20.129,8.772c-8.531,5.849-16.926,13.458-25.178,22.832c-5.928,6.571-10.654,12.619-14.181,18.147
		c-3.523,5.527-5.288,9.536-5.288,12.018c0,2.164,0.681,3.787,2.044,4.867c1.362,1.081,3.324,1.623,5.89,1.623
		c5.768,0,13.959-3.163,24.574-9.496C703.127,589.737,714.965,580.922,728.025,569.625z"/>
	<path d="M770.183,537.779l-17.186,22.954c10.496-9.375,19.749-16.403,27.761-21.09c8.012-4.688,14.823-7.031,20.43-7.031
		c3.443,0,6.07,0.762,7.873,2.282c1.804,1.524,2.704,3.648,2.704,6.369c0,2.646-1.042,5.992-3.126,10.036
		c-2.085,4.048-4.969,8.272-8.653,12.679l-22.111,26.318c-2.565,2.966-4.407,5.288-5.527,6.97c-1.124,1.684-1.684,2.967-1.684,3.848
		c0,1.041,0.301,1.822,0.902,2.341c0.602,0.523,1.541,0.781,2.823,0.781c4.087,0,10.233-2.643,18.447-7.932
		c8.211-5.287,17.967-12.898,29.264-22.832l2.765,3.485c-10.897,10.496-20.931,18.565-30.106,24.215
		c-9.175,5.647-16.685,8.473-22.533,8.473c-2.723,0-4.847-0.902-6.368-2.703c-1.524-1.804-2.283-4.347-2.283-7.632
		s1.04-7.092,3.125-11.416c2.081-4.327,4.967-8.613,8.651-12.859l22.475-26.078c1.843-2.164,3.203-3.926,4.086-5.289
		c0.879-1.36,1.322-2.482,1.322-3.365c0-0.962-0.321-1.701-0.962-2.223c-0.643-0.52-1.563-0.78-2.765-0.78
		c-8.252,0-19.89,6.449-34.91,19.348c-15.022,12.9-29.865,29.765-44.525,50.595h-14.062l69.101-92.295
		c14.903-19.789,28.862-35.313,41.882-46.569c13.018-11.255,23.376-16.886,31.065-16.886c2.004,0,3.607,0.583,4.807,1.743
		c1.202,1.163,1.803,2.704,1.803,4.628c0,8.493-7.853,20.37-23.554,35.631C815.409,508.758,795.099,523.521,770.183,537.779z
		 M775.109,530.449c21.713-13.779,39.42-27.381,53.118-40.8c13.701-13.419,20.553-23.293,20.553-29.625
		c0-0.88-0.383-1.661-1.145-2.342c-0.761-0.68-1.621-1.022-2.581-1.022c-5.212,0-12.242,4.466-21.094,13.4
		C815.108,478.995,798.824,499.124,775.109,530.449z"/>
	<path d="M823.61,576.717c-4.005,4.729-7.13,9.034-9.374,12.92c-2.241,3.887-3.365,6.951-3.365,9.191
		c0,1.845,0.764,3.305,2.283,4.389c1.523,1.08,3.605,1.621,6.249,1.621c6.651,0,15.142-2.623,25.478-7.871
		c10.336-5.247,21.311-12.561,32.93-21.932l2.404,3.846c-12.181,10.016-23.796,17.826-34.852,23.433
		c-11.056,5.607-20.189,8.413-27.4,8.413c-4.488,0-8.072-1.221-10.757-3.665c-2.685-2.443-4.025-5.668-4.025-9.673
		c0-7.132,2.424-14.602,7.27-22.414c4.85-7.813,11.878-15.602,21.092-23.375c7.211-6.009,14.763-10.755,22.652-14.241
		c7.892-3.485,14.843-5.229,20.852-5.229c3.285,0,5.747,0.585,7.391,1.743c1.644,1.163,2.462,2.906,2.462,5.227
		c0,6.092-5.705,12.741-17.121,19.952C856.357,566.262,841.637,572.149,823.61,576.717z M829.019,570.107
		c13.862-3.523,25.697-8.472,35.512-14.843c9.814-6.368,14.724-11.516,14.724-15.441c0-0.962-0.404-1.701-1.203-2.225
		c-0.803-0.521-1.963-0.781-3.484-0.781c-4.889,0-11.377,2.944-19.469,8.834C847.005,551.541,838.313,559.693,829.019,570.107z"/>
	<path d="M943.199,563.979l-22.111,26.318c-2.884,3.285-4.807,5.689-5.769,7.211c-0.962,1.522-1.442,2.806-1.442,3.845
		c0,0.803,0.341,1.484,1.021,2.044c0.68,0.56,1.582,0.84,2.704,0.84c3.926,0,10.114-2.703,18.569-8.111
		c8.45-5.408,18.163-12.959,29.142-22.652l2.765,3.485c-10.657,10.255-20.693,18.267-30.106,24.034s-16.926,8.653-22.533,8.653
		c-2.723,0-4.847-0.902-6.368-2.703c-1.523-1.804-2.282-4.347-2.282-7.632s1.039-7.092,3.124-11.416
		c2.081-4.327,4.967-8.613,8.652-12.859l22.474-26.078c1.682-2.004,3.003-3.745,3.964-5.228c0.962-1.482,1.443-2.623,1.443-3.427
		c0-0.962-0.321-1.701-0.961-2.223c-0.643-0.52-1.563-0.78-2.765-0.78c-8.094,0-19.69,6.471-34.791,19.407
		c-15.101,12.94-29.985,29.785-44.645,50.535h-14.062l53.839-71.627h12.618l-16.704,22.594
		c10.095-8.651,18.846-15.081,26.259-19.289c7.41-4.205,13.798-6.308,19.167-6.308c3.443,0,6.069,0.762,7.872,2.282
		c1.805,1.524,2.705,3.648,2.705,6.369c0,2.646-1.042,5.992-3.125,10.036C949.768,555.348,946.884,559.572,943.199,563.979z"/>
	<rect x="554.207" y="514.217" width="42.364" height="6.644"/>
	<path d="M265.131,454.199l-3.115-3.115c0,0-20.56,9.345-32.396,17.444c0,0-31.773-64.792-130.208-23.051l8.099,6.23
		c0,0,25.225-15.761,59.602-14.33c29.905,1.247,52.956,19.521,58.563,34.473c0,0-19.729,13.499-55.862,55.863
		c-25.286,29.646-53.58,66.04-94.263,72.816c-11.859,1.977-25.442,0.794-37.192-1.793l-5.607,4.361c0,0,32.396,9.967,69.154-4.985
		c0,0,16.821,12.461,49.217,9.969c34.188-2.631,99.89-51.503,80.991-133.323C232.112,474.758,249.556,459.806,265.131,454.199z
		 M148.006,600.605c-28.658,0.623-37.38-5.607-37.38-5.607c13.706-4.984,52.24-31.619,76.63-67.908
		c25.543-38.002,40.495-46.932,40.495-46.932C242.289,556.995,173.551,600.05,148.006,600.605z"/>
</g>
</svg>
