<?xml version="1.0" encoding="utf-8"?>
<!-- Generator: Adobe Illustrator 16.0.0, SVG Export Plug-In . SVG Version: 6.00 Build 0)  -->
<!DOCTYPE svg PUBLIC "-//W3C//DTD SVG 1.1 Tiny//EN" "http://www.w3.org/Graphics/SVG/1.1/DTD/svg11-tiny.dtd">
<svg version="1.1" baseProfile="tiny" id="Layer_1" xmlns="http://www.w3.org/2000/svg" xmlns:xlink="http://www.w3.org/1999/xlink"
	 x="0px" y="0px" width="1000px" height="1000px" viewBox="0 0 1000 1000" xml:space="preserve">
<g>
	<path d="M508.746,807.215c-179.558,0-210.821,75.077-210.821,75.077v88.061h416.888v-88.061
		C714.813,882.292,688.303,807.215,508.746,807.215z M710.28,965.924H302.567v-86.922c18.656-12.664,92.434-57.532,201.267-57.532
		h4.437c112.818,0,185.005,45.896,202.022,57.951L710.28,965.924z"/>
	<path d="M424.164,600.988v106.021l74.127-106.021H424.164z M498.292,716.932v-85.108l-59.494,85.108H498.292z"/>
	<g>
		<g>
			<path d="M550.563,563.925c-31.361,0-37.063,27.56-37.063,27.56h29.817c0.571-3.499,3.586-6.178,7.246-6.178
				s6.676,2.679,7.247,6.178h29.817C587.627,591.484,581.925,563.925,550.563,563.925z M540.454,590.405l-14.097,0.292l0.279-2.908
				c0.086-0.279,0.15-0.565,0.247-0.842l13.721,2.977C540.557,590.085,540.495,590.24,540.454,590.405z M542.091,586.905
				l-12.045-5.775c0.689-0.899,1.468-1.738,2.294-2.536l9.949,8.07C542.226,586.746,542.152,586.821,542.091,586.905z
				 M545.524,584.016l-7.602-9.44c0.953-0.501,1.934-0.962,2.964-1.348l5.027,10.577
				C545.779,583.866,545.657,583.949,545.524,584.016z M550.478,582.989c-0.148-0.009-0.289-0.042-0.439-0.043l-1.333-11.343
				c0.555-0.034,1.108-0.076,1.675-0.076c0.485,0,0.959,0.04,1.438,0.065L550.478,582.989z M555.495,584.715
				c-0.065-0.047-0.124-0.101-0.189-0.145l5.255-11.057c0.987,0.402,1.936,0.862,2.849,1.372L555.495,584.715z M568.793,578.96
				c0.77,0.776,1.49,1.594,2.133,2.463l-12.648,6.064L568.793,578.96z M559.341,590.369c-0.006-0.03-0.019-0.056-0.026-0.086
				l14.611-3.169c0.395,1.151,0.665,2.349,0.843,3.573L559.341,590.369z M550.563,571.251c-13.132,0-24.342,7.304-28.041,17.62
				h-3.97c3.761-12.466,16.728-21.422,32.011-21.422s28.252,8.956,32.014,21.422h-3.973
				C574.904,578.555,563.697,571.251,550.563,571.251z"/>
			<path d="M513.557,600.988l74.127,106.021V600.988H513.557z M573.05,716.932l-59.493-85.108v85.108H573.05z"/>
		</g>
	</g>
	<rect x="417.511" y="722.633" width="39.915" height="53.22"/>
	<rect x="463.128" y="722.633" width="39.915" height="53.22"/>
	<rect x="508.746" y="722.633" width="39.914" height="53.22"/>
	<rect x="554.362" y="722.633" width="39.915" height="53.22"/>
	<path d="M514.824,240.172l-15.838,0.95l-7.603,9.514l3.167,6.642h23.126l2.85-6.642L514.824,240.172z M513.874,256.328h-15.523
		v-4.436h15.523V256.328z"/>
	<path d="M609.639,519.258H402.464l-158.394,79.83l8.871,112.776l24.711,10.137v133.682l20.272,26.609
		c0,0,79.195-60.822,205.909-60.822h4.437c129.879,0,205.907,60.822,205.907,60.822l20.273-26.609V722.001l24.709-10.137
		l8.872-112.776L609.639,519.258z M277.866,618.82l-28.511-15.204l1.789-3.354l28.51,15.206L277.866,618.82z M406.185,798.028
		l-121.487,56.389V619.362l121.487-60.822V798.028z M406.143,550.979l-4.751-24.709l3.732-0.719l4.752,24.709L406.143,550.979z
		 M600.454,798.028H411.65v-243.29h188.804V798.028z M601.913,550.26l4.752-24.709l3.734,0.719l-4.752,24.709L601.913,550.26z
		 M727.404,854.417l-121.485-56.389V558.54l121.485,60.822V854.417z M733.924,618.82l-1.79-3.353l28.511-15.206l1.79,3.354
		L733.924,618.82z"/>
	<g>
		<path d="M695.717,633.796c2.108,1.107,3.564,3.736,3.524,6.157l-7.217-3.767l24.399,12.737c0,0-0.405-19.451-18.469-28.885
			c-18.072-9.436-24.237,6.59-24.237,6.59l17.176,8.967C691.588,633.516,693.607,632.699,695.717,633.796z M692.946,631.455
			l-3.393-8.365c0.605-0.033,1.218-0.035,1.85,0.025l1.791,8.317C693.109,631.433,693.032,631.448,692.946,631.455z
			 M695.909,632.283c-0.085-0.047-0.163-0.111-0.251-0.16l0.422-7.703c0.323,0.146,0.646,0.288,0.971,0.457
			c0.28,0.146,0.549,0.317,0.822,0.476L695.909,632.283z M698.619,634.903c-0.033-0.053-0.063-0.102-0.097-0.15l4.186-5.531
			c0.525,0.552,1.025,1.131,1.498,1.738L698.619,634.903z M706.882,635.199c0.361,0.729,0.691,1.478,0.97,2.225l-7.92,0.101
			L706.882,635.199z M700.242,639.698c0.002-0.019-0.005-0.043-0.005-0.062l8.749,2.355c0.105,0.856,0.135,1.708,0.109,2.554
			L700.242,639.698z M679.186,627.655l-2.287-1.189c3.471-6.894,11.88-8.756,20.686-4.159c8.806,4.596,15.341,14.264,16.2,23.417
			l-2.286-1.189c-1.055-7.757-6.746-15.829-14.313-19.785C689.619,620.801,682.397,622.128,679.186,627.655z M689.357,634.039
			l-8.151-4.055l0.463-1.782c0.079-0.159,0.148-0.32,0.229-0.475l7.597,6.048C689.449,633.866,689.397,633.949,689.357,634.039z
			 M684.334,624.937c0.488-0.37,1.024-0.674,1.584-0.938l4.889,8.186c-0.044,0.033-0.094,0.062-0.14,0.099L684.334,624.937z"/>
		<path d="M672.284,638.052V740.69l44.667,20.907V660.86L672.284,638.052z M686.064,742.166l-10.454-4.894v-50.056l10.454,5.029
			V742.166z M686.064,685.918l-10.454-5.029v-30.723l10.454,5.338V685.918z M707.923,752.396l-16.156-7.562v-49.846l16.156,7.773
			V752.396z M707.923,696.436l-16.156-7.774v-30.247l16.156,8.248V696.436z"/>
		<polygon points="672.284,815.136 716.951,836.043 716.951,775.221 672.284,752.412 		"/>
		<polygon points="613.362,786.625 658.028,807.532 658.028,746.71 613.362,723.901 		"/>
		<path d="M636.794,605.285c2.109,1.108,3.566,3.736,3.525,6.157l-7.218-3.767l24.399,12.736c0,0-0.403-19.45-18.468-28.883
			c-18.072-9.437-24.238,6.59-24.238,6.59l17.178,8.967C632.666,605.005,634.686,604.188,636.794,605.285z M634.025,602.944
			l-3.394-8.365c0.604-0.033,1.218-0.035,1.849,0.025l1.791,8.317C634.188,602.922,634.11,602.938,634.025,602.944z
			 M636.987,603.772c-0.085-0.046-0.163-0.111-0.25-0.159l0.421-7.703c0.322,0.144,0.646,0.287,0.971,0.457
			c0.28,0.146,0.55,0.316,0.822,0.475L636.987,603.772z M639.697,606.394c-0.033-0.055-0.063-0.103-0.097-0.15l4.187-5.532
			c0.525,0.552,1.024,1.131,1.497,1.738L639.697,606.394z M647.959,606.688c0.362,0.729,0.692,1.478,0.972,2.226l-7.921,0.1
			L647.959,606.688z M641.319,611.188c0.002-0.019-0.003-0.043-0.003-0.061l8.747,2.355c0.106,0.855,0.136,1.707,0.109,2.553
			L641.319,611.188z M620.264,599.145l-2.287-1.189c3.472-6.894,11.879-8.755,20.685-4.159s15.342,14.264,16.201,23.417l-2.287-1.19
			c-1.054-7.756-6.745-15.829-14.311-19.784C630.696,592.291,623.477,593.617,620.264,599.145z M630.436,605.528l-8.15-4.054
			l0.462-1.783c0.08-0.158,0.148-0.32,0.23-0.475l7.595,6.048C630.528,605.355,630.477,605.439,630.436,605.528z M625.413,596.426
			c0.488-0.37,1.024-0.674,1.582-0.938l4.891,8.186c-0.046,0.033-0.096,0.062-0.14,0.099L625.413,596.426z"/>
		<path d="M613.362,609.541V712.18l44.666,20.908V632.35L613.362,609.541z M627.143,713.655l-10.454-4.893v-50.057l10.454,5.03
			V713.655z M627.143,657.408l-10.454-5.03v-30.723l10.454,5.338V657.408z M649,723.886l-16.155-7.562v-49.845L649,674.252V723.886z
			 M649,667.926l-16.155-7.774v-30.248L649,638.152V667.926z"/>
	</g>
	<path d="M693.173,530.662v-19.957h-12.354v-30.412l19.957-14.255l2.852,4.752l8.554-4.752l-28.511-58.922l-38.014-20.908
		l-39.915,19.008L522.109,256.01h-31.361l-83.631,149.206l-39.915-19.008l-38.014,20.908l-28.511,58.922l8.554,4.752l2.851-4.752
		l19.958,14.255v30.412h-12.355v19.957l-67.475,58.922l151.106-76.027h205.277l152.056,76.027L693.173,530.662z M681.929,410.285
		l25.975,53.853l-3.801,2.218l-24.394-51.319l-29.142-15.84l-5.31,6.137l28.748,16.038l20.594,42.766l-3.802,1.584l-19.323-41.183
		l-28.511-16.553l-4.852,5.609l25.6,14.429l12.354,28.511l-40.865-23.284l5.228-8.078l-7.905-5.115l-2.232,2.582l-8.869-6.97
		l24.074-25.976L681.929,410.285z M676.542,462.712v69.851l-40.391-20.391v-72.204L676.542,462.712z M632.351,437.827v72.426
		l-4.752-2.399v-72.702L632.351,437.827z M593.387,416.145l41.34-20.433l-27.085,28.986l-30.411,16.631L593.387,416.145z
		 M621.422,440.854v59.397c0,0-23.284-15.206-25.66-43.716L621.422,440.854z M418.997,416.145l16.156,25.185l-30.412-16.631
		l-27.085-28.986L418.997,416.145z M416.621,456.535c-2.376,28.51-25.66,43.716-25.66,43.716v-59.397L416.621,456.535z
		 M321.585,465.722l-3.801-1.584l20.591-42.766l28.749-16.038l-5.307-6.137l-29.144,15.84l-24.393,51.319l-3.801-2.218
		l25.976-53.853l36.431-20.592l24.075,25.976l-8.87,6.97l-2.232-2.582l-7.906,5.115l5.228,8.078l-40.865,23.284l12.354-28.511
		l25.599-14.429l-4.851-5.609l-28.51,16.553L321.585,465.722z M384.784,435.151v72.702l-4.752,2.399v-72.426L384.784,435.151z
		 M376.23,439.968v72.204l-40.39,20.391v-69.851L376.23,439.968z M400.94,508.328l-100.738,51.319l98.837-56.07l6.652-3.802
		c22.809-10.929,35.639-53.22,35.639-53.22l53.219-186.744h23.284l53.22,186.744c0,0,12.829,42.291,35.639,53.22l6.652,3.802
		l98.837,56.07l-100.738-51.319H400.94z"/>
	<path d="M536.858,326.574h-61.334L475.117,328h62.148L536.858,326.574z M540.38,338.928h-68.377l-0.406,1.426h69.189
		L540.38,338.928z M535.1,320.396h-57.816l-0.406,1.426h58.628L535.1,320.396z M533.34,314.219h-54.297l-0.404,1.426h55.105
		L533.34,314.219z M529.818,301.865h-47.254l-0.407,1.426h48.067L529.818,301.865z M531.578,308.042h-50.773l-0.406,1.425h51.586
		L531.578,308.042z M547.422,363.637H464.96l-0.406,1.426h83.275L547.422,363.637z M549.184,369.814h-85.984l-0.405,1.426h86.794
		L549.184,369.814z M550.942,375.992h-89.503l-0.407,1.425h90.317L550.942,375.992z M543.901,351.283h-75.42l-0.406,1.426h76.232
		L543.901,351.283z M545.663,357.46H466.72l-0.407,1.426h79.756L545.663,357.46z M552.703,382.169H459.68l-0.406,1.425h93.836
		L552.703,382.169z M542.142,345.105h-71.9l-0.406,1.426h72.713L542.142,345.105z M662.278,534.227l2.798,1.425h4.806l-2.513-1.425
		H662.278z M639.893,522.822l2.797,1.425h7.091l-2.514-1.425H639.893z M651.085,528.523l2.8,1.425h5.947l-2.514-1.425H651.085z
		 M628.699,517.12l2.797,1.425h8.23l-2.511-1.425H628.699z M606.691,499.775c-0.152-0.072-0.299-0.161-0.449-0.237H406.141
		c-0.151,0.076-0.297,0.165-0.45,0.237l-2.079,1.188H608.77L606.691,499.775z M528.057,295.688h-43.73l-0.407,1.425h44.544
		L528.057,295.688z M627.165,511.417h-9.66l2.8,1.426h9.372L627.165,511.417z M526.297,289.51h-40.211l-0.406,1.425h41.025
		L526.297,289.51z M524.536,283.333h-36.689l-0.407,1.425h37.501L524.536,283.333z M522.776,277.156h-33.17l-0.406,1.425h33.982
		L522.776,277.156z M519.255,264.801h-26.127l-0.407,1.425h26.94L519.255,264.801z M521.016,270.979h-29.647l-0.407,1.425h30.46
		L521.016,270.979z M538.62,332.751h-64.858l-0.406,1.426h65.671L538.62,332.751z M382.706,512.843h9.373l2.798-1.426h-9.658
		L382.706,512.843z M591.779,487.184H420.604c-0.39,0.481-0.786,0.958-1.187,1.425h173.55
		C592.565,488.142,592.171,487.665,591.779,487.184z M617.113,505.715H395.271l-2.513,1.426h226.868L617.113,505.715z
		 M597.53,493.361H414.852c-0.53,0.49-1.066,0.966-1.61,1.425h185.901C598.596,494.327,598.062,493.851,597.53,493.361z
		 M583.432,474.829H428.951c-0.272,0.476-0.545,0.95-0.828,1.426h156.136C583.978,475.779,583.705,475.305,583.432,474.829z
		 M587.248,481.006H425.136c-0.319,0.478-0.638,0.954-0.965,1.426h164.04C587.884,481.96,587.565,481.483,587.248,481.006z
		 M352.553,529.948h5.947l2.798-1.425h-6.233L352.553,529.948z M332.45,541.354h3.663l2.798-1.427h-3.949L332.45,541.354z
		 M342.501,535.651h4.804l2.799-1.425h-5.091L342.501,535.651z M677.42,539.928h-3.948l2.798,1.427h3.664L677.42,539.928z
		 M362.604,524.247h7.089l2.798-1.425h-7.375L362.604,524.247z M580.113,468.651H432.27c-0.237,0.474-0.483,0.949-0.73,1.426
		h149.303C580.596,469.6,580.351,469.125,580.113,468.651z M372.655,518.545h8.231l2.798-1.425h-8.517L372.655,518.545z
		 M557.985,400.702H454.398l-0.406,1.425h104.401L557.985,400.702z M561.507,413.056h-110.63l-0.407,1.425h111.441L561.507,413.056z
		 M559.745,406.879H452.638l-0.407,1.425h107.92L559.745,406.879z M563.267,419.233h-114.15l-0.406,1.425h114.963L563.267,419.233z
		 M565.026,425.411h-117.67l-0.406,1.425h118.482L565.026,425.411z M577.179,462.474H435.204c-0.208,0.468-0.429,0.948-0.649,1.426
		h143.273C577.609,463.422,577.388,462.942,577.179,462.474z M556.225,394.524H456.159l-0.407,1.425h100.879L556.225,394.524z
		 M554.465,388.347h-96.546l-0.406,1.425h97.358L554.465,388.347z M572.242,450.12H440.139c-0.155,0.442-0.324,0.915-0.509,1.426
		h133.124C572.568,451.035,572.398,450.562,572.242,450.12z M574.566,456.297H437.817c-0.185,0.463-0.38,0.94-0.579,1.426h137.905
		C574.945,457.237,574.751,456.76,574.566,456.297z M566.787,431.588H445.595l-0.407,1.426h122.006L566.787,431.588z
		 M568.547,437.765H443.834l-0.405,1.425h125.525L568.547,437.765z M570.309,443.942H442.074l-0.405,1.426h129.046L570.309,443.942z
		"/>
	<g>
		<path d="M371.638,388.105c0,0,8.87-8.87,15.839,8.237L371.638,388.105z"/>
		<path d="M385.893,361.183c0-2.625-2.127-4.752-4.752-4.752s-4.752,2.127-4.752,4.752c0,2.347,1.705,4.284,3.941,4.67
			c-0.428,5.483-1.636,18.436-3.624,20.673l6.969,3.167c0,0-1.419-9.397-1.568-23.858
			C384.268,365.39,385.893,363.476,385.893,361.183z"/>
	</g>
	<g>
		<path d="M640.269,388.105c0,0-8.868-8.87-15.838,8.237L640.269,388.105z"/>
		<path d="M626.015,361.183c0-2.625,2.126-4.752,4.751-4.752s4.752,2.127,4.752,4.752c0,2.347-1.704,4.284-3.939,4.67
			c0.428,5.483,1.636,18.436,3.623,20.673l-6.967,3.167c0,0,1.418-9.397,1.566-23.858
			C627.64,365.39,626.015,363.476,626.015,361.183z"/>
	</g>
	<g>
		<polygon fill="#FFFFFF" points="510.389,180.943 520.525,250.636 513.557,248.101 498.351,248.101 491.383,250.636 
			501.52,180.943 		"/>
		<path d="M510.389,180.943h-1.938l5.741,67.158l0.54,0.427l5.794,2.108L510.389,180.943z M491.383,250.636l6.968-2.535
			l5.742-67.158h-2.573L491.383,250.636z"/>
	</g>
	<path d="M518.75,165.094c0-8.554-10.454-9.188-10.454-9.188h-3.486c0,0-10.453,0.634-10.453,9.188l-6.969,2.534l6.336,0.634
		c0,0,0.949,13.622,9.82,13.622h6.021c8.871,0,9.82-13.622,9.82-13.622l6.336-0.634L518.75,165.094z M498.16,164.46
		c0,0,2.058-5.543,8.393-5.543s8.714,5.543,8.714,5.543H498.16z"/>
	<path d="M517.994,138.999l-0.508-0.393l-10.39,6.113v-21.886c1.941-0.343,3.618-1.448,4.706-3.004l5.941,7.825l1.514-1.149
		l-6.527-8.599c0.23-0.707,0.386-1.448,0.386-2.232v-13.938c0-0.062-0.016-0.118-0.018-0.179l6.161-8.116l-1.514-1.148l-5.148,6.782
		c-0.917-2.321-2.984-4.051-5.501-4.497V48.121c2.318-0.328,4.17-1.812,4.637-3.722h8.986v-1.901h-8.986
		c-0.467-1.91-2.318-3.394-4.637-3.721v-5.466h-1.899v5.466c-2.319,0.327-4.17,1.812-4.638,3.721h-8.983v1.901h8.983
		c0.468,1.91,2.318,3.394,4.638,3.722v46.394c-3.009,0.264-5.479,2.345-6.317,5.152l-5.598-7.374l-1.515,1.148l6.777,8.926v13.308
		c0,0.566,0.08,1.112,0.203,1.641l-6.978,9.189l1.514,1.149l6.298-8.293c1.166,1.969,3.219,3.325,5.616,3.536v21.343l-9.577-5.634
		l-0.508,0.393c-0.195,0.15-4.735,3.722-4.735,8.636c0,2.926,1.592,5.642,4.735,8.074l0.497,0.385l9.588-5.392v5.205h1.899v-5.663
		l10.4,5.85l0.497-0.385c3.144-2.432,4.735-5.148,4.735-8.074C522.729,142.72,518.189,139.149,517.994,138.999z M507.097,40.699
		c1.222,0.238,2.198,0.917,2.617,1.799h-2.617V40.699z M507.097,44.399h2.617c-0.419,0.882-1.396,1.561-2.617,1.799V44.399z
		 M507.097,96.518c2.12,0.516,3.736,2.281,4.044,4.474l-4.044,5.326V96.518z M507.097,109.461l4.119-5.425v11.638
		c0,0.071-0.019,0.139-0.021,0.21l-4.099-5.397V109.461z M507.097,113.632l3.464,4.563c-0.714,1.333-1.958,2.333-3.464,2.698
		V113.632z M505.197,40.699v1.799h-2.618C502.999,41.616,503.976,40.937,505.197,40.699z M502.579,44.399h2.618v1.799
		C503.976,45.96,502.999,45.281,502.579,44.399z M505.197,96.415v11.57l-4.751-6.257C500.45,98.979,502.531,96.732,505.197,96.415z
		 M500.444,115.078V104.87l3.877,5.104L500.444,115.078z M500.845,117.695l4.352-5.73v9.031
		C503.222,120.761,501.569,119.475,500.845,117.695z M495.788,153.813c-2.326-1.938-3.507-4.011-3.51-6.168
		c-0.004-3.137,2.459-5.749,3.521-6.729l0.895,0.526c-1.03,1.437-2.614,4.163-2.345,7.15c0.163,1.777,0.98,3.343,2.375,4.695
		L495.788,153.813z M504.983,148.64l-6.522,3.669c-1.32-1.119-2.083-2.417-2.217-3.88c-0.227-2.463,1.238-4.85,2.093-6.02
		l6.86,4.034v1.129L504.983,148.64z M514.646,152.309l-6.522-3.669l-0.416-2.077l7.062-4.153c0.855,1.169,2.321,3.556,2.095,6.02
		C516.729,149.893,515.966,151.19,514.646,152.309z M517.319,153.813l-0.936-0.526c1.395-1.352,2.212-2.918,2.373-4.695
		c0.27-2.987-1.313-5.713-2.344-7.15l0.895-0.526c1.062,0.98,3.525,3.591,3.521,6.729
		C520.826,149.802,519.646,151.874,517.319,153.813z"/>
	<path d="M300.123,970.353h3.832c33.375-18.827,115.007-58.604,208.969-58.604c86.314,0,159.754,36.697,195.901,58.604h3.636
		c-35.329-21.786-110.63-60.505-199.537-60.505C415.721,909.848,331.656,952.214,300.123,970.353z M345.558,970.353h4.763
		c41.157-17.603,99.057-35.796,162.603-35.796c59.88,0,113.556,17.663,152.891,35.796h4.483
		c-39.841-18.812-95.287-37.697-157.374-37.697C446.995,932.655,387.112,952.148,345.558,970.353z M373.932,970.353h5.581
		c37.481-13.268,83.722-24.392,133.412-24.392c47.066,0,90.299,10.916,125.749,24.392h5.254
		c-36.465-14.35-81.633-26.293-131.003-26.293C460.79,944.06,412.434,956.249,373.932,970.353z M463.733,970.353h16.342
		c10.735-1.018,21.704-1.584,32.849-1.584c10.625,0,21.049,0.568,31.237,1.584h15.532c-15.043-2.207-30.681-3.483-46.77-3.483
		C496.063,966.869,479.6,968.149,463.733,970.353z M409.311,970.353h7.243c29.304-7.668,62.012-12.988,96.37-12.988
		c32.676,0,63.507,5.263,91.169,12.988h6.819c-29.405-8.754-62.615-14.889-97.988-14.889
		C475.726,955.464,440.457,961.675,409.311,970.353z M512.924,830.018c-99.552,0-185.329,44.442-214.999,61.779v2.2
		c28.546-16.808,114.751-62.079,214.999-62.079c91.397,0,168.355,41.146,201.889,62.308v-2.24
		C680.557,870.523,603.858,830.018,512.924,830.018z M321.322,970.353h4.241c40.539-20.056,109.74-47.2,187.361-47.2
		c72.544,0,135.993,25.923,175.853,47.2h3.995c-39.836-21.675-105.024-49.101-179.848-49.101
		C432.752,921.252,361.519,950.074,321.322,970.353z M297.925,926.009v2.202c28.546-16.808,114.751-62.08,214.999-62.08
		c91.397,0,168.355,41.146,201.889,62.309v-2.241c-34.256-21.463-110.954-61.969-201.889-61.969
		C413.372,864.229,327.595,908.672,297.925,926.009z M297.925,914.604v2.201c28.546-16.807,114.751-62.079,214.999-62.079
		c91.397,0,168.355,41.146,201.889,62.308v-2.24c-34.256-21.463-110.954-61.968-201.889-61.968
		C413.372,852.826,327.595,897.269,297.925,914.604z M297.925,903.201v2.2c28.546-16.808,114.751-62.079,214.999-62.079
		c91.397,0,168.355,41.146,201.889,62.308v-2.239c-34.256-21.463-110.954-61.969-201.889-61.969
		C413.372,841.422,327.595,885.864,297.925,903.201z M297.925,960.222v2.201c28.546-16.808,114.751-62.079,214.999-62.079
		c91.397,0,168.355,41.146,201.889,62.308v-2.24c-34.256-21.463-110.954-61.968-201.889-61.968
		C413.372,898.443,327.595,942.885,297.925,960.222z M297.925,937.413v2.202c28.546-16.808,114.751-62.08,214.999-62.08
		c91.397,0,168.355,41.146,201.889,62.308v-2.24c-34.256-21.463-110.954-61.968-201.889-61.968
		C413.372,875.635,327.595,920.076,297.925,937.413z M297.925,948.817v2.201c28.546-16.808,114.751-62.078,214.999-62.078
		c91.397,0,168.355,41.145,201.889,62.307v-2.24c-34.256-21.463-110.954-61.968-201.889-61.968
		C413.372,887.039,327.595,931.48,297.925,948.817z"/>
	<g>
		<g>
			<g>
				<rect x="312.082" y="871.839" width="1.9" height="12.354"/>
			</g>
			<g>
				<rect x="343.761" y="855.365" width="1.901" height="14.256"/>
			</g>
			<g>
				<rect x="379.241" y="841.427" width="1.9" height="14.256"/>
			</g>
			<g>
				<rect x="411.553" y="831.291" width="1.9" height="14.255"/>
			</g>
			<g>
				<rect x="441.964" y="824.321" width="1.9" height="14.256"/>
			</g>
			<g>
				<rect x="472.374" y="821.787" width="1.901" height="12.354"/>
			</g>
			<g>
				<rect x="490.113" y="832.558" width="1.901" height="11.403"/>
			</g>
			<g>
				<rect x="456.534" y="836.358" width="1.901" height="11.246"/>
			</g>
			<g>
				<rect x="426.757" y="841.427" width="1.901" height="12.354"/>
			</g>
			<g>
				<rect x="395.712" y="849.663" width="1.9" height="12.354"/>
			</g>
			<g>
				<rect x="361.499" y="861.702" width="1.901" height="12.354"/>
			</g>
			<g>
				<rect x="326.02" y="877.541" width="1.901" height="12.354"/>
			</g>
			<g>
				<rect x="314.615" y="894.015" width="1.901" height="12.354"/>
			</g>
			<g>
				<rect x="345.661" y="880.074" width="1.901" height="12.354"/>
			</g>
			<g>
				<rect x="380.506" y="866.136" width="1.901" height="12.356"/>
			</g>
			<g>
				<rect x="412.186" y="856.001" width="1.901" height="12.354"/>
			</g>
			<g>
				<rect x="442.597" y="849.03" width="1.901" height="12.354"/>
			</g>
			<g>
				<rect x="473.642" y="845.229" width="1.901" height="9.82"/>
			</g>
			<g>
				<rect x="508.487" y="821.47" width="1.901" height="9.504"/>
			</g>
		</g>
		<g>
			<g>
				<rect x="490.113" y="855.365" width="1.901" height="11.404"/>
			</g>
			<g>
				<rect x="456.534" y="859.167" width="1.901" height="11.247"/>
			</g>
			<g>
				<rect x="426.757" y="864.236" width="1.901" height="12.354"/>
			</g>
			<g>
				<rect x="395.712" y="872.472" width="1.9" height="12.354"/>
			</g>
			<g>
				<rect x="361.499" y="884.511" width="1.901" height="12.354"/>
			</g>
			<g>
				<rect x="326.02" y="900.35" width="1.901" height="12.354"/>
			</g>
			<g>
				<rect x="314.615" y="916.823" width="1.901" height="12.354"/>
			</g>
			<g>
				<rect x="345.661" y="902.883" width="1.901" height="12.354"/>
			</g>
			<g>
				<rect x="380.506" y="888.945" width="1.901" height="12.354"/>
			</g>
			<g>
				<rect x="412.186" y="878.809" width="1.901" height="12.354"/>
			</g>
			<g>
				<rect x="442.597" y="871.839" width="1.901" height="12.354"/>
			</g>
			<g>
				<rect x="473.642" y="868.037" width="1.901" height="9.819"/>
			</g>
			<g>
				<rect x="509.121" y="865.504" width="1.899" height="12.354"/>
			</g>
		</g>
		<g>
			<g>
				<rect x="490.113" y="877.541" width="1.901" height="11.404"/>
			</g>
			<g>
				<rect x="456.534" y="881.342" width="1.901" height="11.247"/>
			</g>
			<g>
				<rect x="426.757" y="886.411" width="1.901" height="12.354"/>
			</g>
			<g>
				<rect x="395.712" y="894.647" width="1.9" height="12.354"/>
			</g>
			<g>
				<rect x="361.499" y="906.687" width="1.901" height="12.354"/>
			</g>
			<g>
				<rect x="326.02" y="922.524" width="1.901" height="12.354"/>
			</g>
			<g>
				<rect x="314.615" y="938.999" width="1.901" height="12.354"/>
			</g>
			<g>
				<rect x="345.661" y="925.059" width="1.901" height="12.354"/>
			</g>
			<g>
				<rect x="380.506" y="911.12" width="1.901" height="12.354"/>
			</g>
			<g>
				<rect x="412.186" y="900.983" width="1.901" height="12.354"/>
			</g>
			<g>
				<rect x="442.597" y="894.015" width="1.901" height="12.354"/>
			</g>
			<g>
				<rect x="473.642" y="890.243" width="1.901" height="11.662"/>
			</g>
			<g>
				<rect x="509.121" y="887.68" width="1.899" height="12.354"/>
			</g>
		</g>
		<g>
			<g>
				<rect x="490.113" y="900.034" width="1.901" height="12.67"/>
			</g>
			<g>
				<rect x="456.534" y="902.567" width="1.901" height="13.321"/>
			</g>
			<g>
				<rect x="426.757" y="910.031" width="1.901" height="11.718"/>
			</g>
			<g>
				<rect x="395.712" y="917.842" width="1.9" height="11.72"/>
			</g>
			<g>
				<rect x="361.499" y="929.261" width="1.901" height="11.721"/>
			</g>
			<g>
				<rect x="326.02" y="945.65" width="1.901" height="10.353"/>
			</g>
			<g>
				<rect x="314.615" y="963.39" width="1.901" height="4.437"/>
			</g>
			<g>
				<rect x="345.661" y="946.688" width="1.901" height="11.718"/>
			</g>
			<g>
				<rect x="380.506" y="933.467" width="1.901" height="11.72"/>
			</g>
			<g>
				<rect x="412.186" y="923.852" width="1.901" height="11.721"/>
			</g>
			<g>
				<rect x="442.597" y="917.242" width="1.901" height="11.718"/>
			</g>
			<g>
				<rect x="473.642" y="913.713" width="1.901" height="11.06"/>
			</g>
			<g>
				<rect x="509.121" y="911.233" width="1.899" height="11.719"/>
			</g>
		</g>
		<g>
			<g>
				<rect x="490.113" y="923.793" width="1.901" height="11.404"/>
			</g>
			<g>
				<rect x="456.534" y="927.594" width="1.901" height="11.246"/>
			</g>
			<g>
				<rect x="426.757" y="932.663" width="1.901" height="12.354"/>
			</g>
			<g>
				<rect x="395.712" y="940.898" width="1.9" height="12.354"/>
			</g>
			<g>
				<rect x="361.499" y="952.938" width="1.901" height="12.354"/>
			</g>
			<g>
				<rect x="380.506" y="957.373" width="1.901" height="12.354"/>
			</g>
			<g>
				<rect x="412.186" y="947.236" width="1.901" height="12.354"/>
			</g>
			<g>
				<rect x="442.597" y="940.267" width="1.901" height="12.354"/>
			</g>
			<g>
				<rect x="473.642" y="936.465" width="1.901" height="9.819"/>
			</g>
			<g>
				<rect x="509.121" y="933.932" width="1.899" height="12.354"/>
			</g>
		</g>
		<g>
			<g>
				<rect x="490.113" y="945.968" width="1.901" height="11.405"/>
			</g>
			<g>
				<rect x="456.534" y="949.77" width="1.901" height="11.246"/>
			</g>
			<g>
				<rect x="426.757" y="954.839" width="1.901" height="12.354"/>
			</g>
			<g>
				<rect x="395.712" y="962.54" width="1.9" height="7.72"/>
			</g>
			<g>
				<rect x="442.597" y="961.878" width="1.901" height="7.461"/>
			</g>
			<g>
				<rect x="473.642" y="958.641" width="1.901" height="9.818"/>
			</g>
			<g>
				<rect x="509.121" y="956.106" width="1.899" height="12.354"/>
			</g>
		</g>
		<g>
			<g>
				<g>
					<rect x="704.893" y="871.839" width="1.901" height="16.156"/>
				</g>
				<g>
					<rect x="673.215" y="857.267" width="1.899" height="14.255"/>
				</g>
				<g>
					<rect x="637.733" y="843.328" width="1.901" height="12.354"/>
				</g>
				<g>
					<rect x="605.421" y="833.191" width="1.901" height="12.354"/>
				</g>
				<g>
					<rect x="575.011" y="826.223" width="1.9" height="12.354"/>
				</g>
				<g>
					<rect x="544.601" y="821.787" width="1.901" height="12.354"/>
				</g>
				<g>
					<rect x="526.861" y="832.558" width="1.901" height="11.403"/>
				</g>
				<g>
					<rect x="560.439" y="836.358" width="1.9" height="11.246"/>
				</g>
				<g>
					<rect x="590.218" y="841.427" width="1.901" height="12.354"/>
				</g>
				<g>
					<rect x="621.262" y="849.663" width="1.901" height="12.354"/>
				</g>
				<g>
					<rect x="655.475" y="861.702" width="1.9" height="12.354"/>
				</g>
				<g>
					<rect x="690.955" y="879.441" width="1.901" height="12.355"/>
				</g>
				<g>
					<rect x="702.359" y="897.815" width="1.901" height="12.354"/>
				</g>
				<g>
					<rect x="671.315" y="880.074" width="1.9" height="12.354"/>
				</g>
				<g>
					<rect x="636.468" y="866.136" width="1.901" height="12.356"/>
				</g>
				<g>
					<rect x="604.791" y="856.001" width="1.9" height="12.354"/>
				</g>
				<g>
					<rect x="574.379" y="849.03" width="1.901" height="12.354"/>
				</g>
				<g>
					<rect x="543.333" y="845.229" width="1.901" height="9.82"/>
				</g>
				<g>
					<rect x="507.854" y="842.695" width="1.9" height="12.354"/>
				</g>
			</g>
			<g>
				<g>
					<rect x="526.861" y="855.365" width="1.901" height="11.404"/>
				</g>
				<g>
					<rect x="560.439" y="859.167" width="1.9" height="11.247"/>
				</g>
				<g>
					<rect x="590.218" y="864.236" width="1.901" height="12.354"/>
				</g>
				<g>
					<rect x="621.262" y="872.472" width="1.901" height="12.354"/>
				</g>
				<g>
					<rect x="655.475" y="884.511" width="1.9" height="12.354"/>
				</g>
				<g>
					<rect x="690.955" y="902.25" width="1.901" height="12.354"/>
				</g>
				<g>
					<rect x="702.359" y="920.625" width="1.901" height="12.354"/>
				</g>
				<g>
					<rect x="671.315" y="902.883" width="1.9" height="12.354"/>
				</g>
				<g>
					<rect x="636.468" y="888.945" width="1.901" height="12.354"/>
				</g>
				<g>
					<rect x="604.791" y="878.809" width="1.9" height="12.354"/>
				</g>
				<g>
					<rect x="574.379" y="871.839" width="1.901" height="12.354"/>
				</g>
				<g>
					<rect x="543.333" y="868.037" width="1.901" height="9.819"/>
				</g>
			</g>
			<g>
				<g>
					<rect x="526.861" y="877.541" width="1.901" height="11.404"/>
				</g>
				<g>
					<rect x="560.439" y="881.342" width="1.9" height="11.247"/>
				</g>
				<g>
					<rect x="590.218" y="886.411" width="1.901" height="12.354"/>
				</g>
				<g>
					<rect x="621.262" y="894.647" width="1.901" height="12.354"/>
				</g>
				<g>
					<rect x="655.475" y="906.687" width="1.9" height="12.354"/>
				</g>
				<g>
					<rect x="690.955" y="924.425" width="1.901" height="12.355"/>
				</g>
				<g>
					<rect x="702.359" y="942.8" width="1.901" height="12.354"/>
				</g>
				<g>
					<rect x="671.315" y="925.059" width="1.9" height="12.354"/>
				</g>
				<g>
					<rect x="636.468" y="911.12" width="1.901" height="12.354"/>
				</g>
				<g>
					<rect x="604.791" y="900.983" width="1.9" height="12.354"/>
				</g>
				<g>
					<rect x="574.379" y="894.015" width="1.901" height="12.354"/>
				</g>
				<g>
					<rect x="543.333" y="890.243" width="1.901" height="11.662"/>
				</g>
			</g>
			<g>
				<g>
					<rect x="526.861" y="900.034" width="1.901" height="11.72"/>
				</g>
				<g>
					<rect x="560.439" y="902.567" width="1.9" height="12.988"/>
				</g>
				<g>
					<rect x="590.218" y="910.031" width="1.901" height="10.751"/>
				</g>
				<g>
					<rect x="621.262" y="917.842" width="1.901" height="11.72"/>
				</g>
				<g>
					<rect x="655.475" y="931.161" width="1.9" height="11.245"/>
				</g>
				<g>
					<rect x="690.955" y="948.343" width="1.901" height="12.829"/>
				</g>
				<g>
					<rect x="702.359" y="964.854" width="1.901" height="4.99"/>
				</g>
				<g>
					<rect x="671.315" y="949.293" width="1.9" height="11.879"/>
				</g>
				<g>
					<rect x="636.468" y="934.562" width="1.901" height="10.625"/>
				</g>
				<g>
					<rect x="604.791" y="923.852" width="1.9" height="11.721"/>
				</g>
				<g>
					<rect x="574.379" y="917.242" width="1.901" height="11.718"/>
				</g>
				<g>
					<rect x="543.333" y="913.713" width="1.901" height="11.06"/>
				</g>
			</g>
			<g>
				<g>
					<rect x="526.861" y="923.793" width="1.901" height="9.818"/>
				</g>
				<g>
					<rect x="560.439" y="925.533" width="1.9" height="11.404"/>
				</g>
				<g>
					<rect x="590.218" y="932.663" width="1.901" height="11.402"/>
				</g>
				<g>
					<rect x="621.262" y="940.898" width="1.901" height="12.354"/>
				</g>
				<g>
					<rect x="655.475" y="952.938" width="1.9" height="12.354"/>
				</g>
				<g>
					<rect x="636.468" y="957.373" width="1.901" height="12.354"/>
				</g>
				<g>
					<rect x="604.791" y="947.236" width="1.9" height="12.354"/>
				</g>
				<g>
					<rect x="574.379" y="940.267" width="1.901" height="10.926"/>
				</g>
				<g>
					<rect x="543.333" y="936.465" width="1.901" height="9.819"/>
				</g>
			</g>
			<g>
				<g>
					<rect x="526.861" y="945.968" width="1.901" height="11.405"/>
				</g>
				<g>
					<rect x="560.439" y="949.77" width="1.9" height="11.246"/>
				</g>
				<g>
					<rect x="590.218" y="954.839" width="1.901" height="12.354"/>
				</g>
				<g>
					<rect x="621.262" y="962.54" width="1.901" height="7.72"/>
				</g>
				<g>
					<rect x="574.379" y="961.878" width="1.901" height="7.461"/>
				</g>
				<g>
					<rect x="543.333" y="958.641" width="1.901" height="9.818"/>
				</g>
			</g>
		</g>
	</g>
	<path d="M461.286,563.925c-31.362,0-37.064,27.56-37.064,27.56h29.818c0.571-3.499,3.586-6.178,7.247-6.178
		c3.66,0,6.674,2.679,7.246,6.178h29.818C498.35,591.484,492.647,563.925,461.286,563.925z M452.507,590.369l-15.428,0.318
		c0.178-1.225,0.449-2.422,0.843-3.573l14.611,3.169C452.526,590.313,452.513,590.339,452.507,590.369z M440.924,581.423
		c0.642-0.869,1.362-1.687,2.132-2.463l10.516,8.527L440.924,581.423z M456.354,586.615l-7.915-9.828
		c0.914-0.511,1.861-0.97,2.849-1.372l5.255,11.056C456.478,586.516,456.418,586.569,456.354,586.615z M461.811,584.846
		c-0.15,0.002-0.291,0.035-0.44,0.045l-1.34-11.397c0.479-0.025,0.952-0.065,1.438-0.065c0.566,0,1.119,0.042,1.674,0.076
		L461.811,584.846z M466.323,585.916c-0.132-0.066-0.254-0.148-0.388-0.211l5.026-10.576c1.03,0.385,2.01,0.846,2.964,1.347
		L466.323,585.916z M467.658,586.664l9.951-8.07c0.826,0.798,1.604,1.637,2.292,2.536l-12.045,5.775
		C467.795,586.821,467.722,586.746,467.658,586.664z M471.394,590.405c-0.041-0.165-0.102-0.32-0.15-0.481l13.721-2.977
		c0.096,0.276,0.161,0.563,0.247,0.842l0.281,2.908L471.394,590.405z M461.286,571.251c-13.134,0-24.342,7.304-28.041,17.62h-3.973
		c3.763-12.466,16.73-21.422,32.014-21.422c15.283,0,28.25,8.956,32.011,21.422h-3.97
		C485.627,578.555,474.418,571.251,461.286,571.251z"/>
	<g>
		<path d="M320.1,635.596l17.177-8.967c0,0-6.166-16.025-24.238-6.59c-18.064,9.434-18.469,28.885-18.469,28.885l24.399-12.737
			l-7.217,3.767c-0.041-2.421,1.417-5.05,3.525-6.157C317.387,632.699,319.406,633.516,320.1,635.596z M317.801,631.433l1.792-8.317
			c0.631-0.061,1.243-0.059,1.849-0.025l-3.393,8.365C317.962,631.448,317.884,631.433,317.801,631.433z M313.121,625.353
			c0.273-0.158,0.542-0.329,0.822-0.476c0.325-0.169,0.648-0.312,0.971-0.457l0.421,7.703c-0.087,0.049-0.165,0.113-0.25,0.16
			L313.121,625.353z M306.788,630.96c0.474-0.607,0.973-1.187,1.498-1.738l4.186,5.531c-0.034,0.049-0.063,0.098-0.097,0.15
			L306.788,630.96z M311.063,637.524l-7.92-0.101c0.278-0.747,0.609-1.495,0.971-2.225L311.063,637.524z M301.898,644.546
			c-0.025-0.846,0.004-1.697,0.11-2.554l8.748-2.355c0,0.019-0.005,0.043-0.003,0.062L301.898,644.546z M313.808,624.749
			c-7.566,3.956-13.257,12.028-14.311,19.785l-2.287,1.189c0.86-9.153,7.395-18.821,16.201-23.417
			c8.806-4.597,17.214-2.734,20.685,4.159l-2.286,1.189C328.596,622.128,321.375,620.801,313.808,624.749z M321.5,633.775
			l7.595-6.048c0.082,0.154,0.15,0.315,0.23,0.475l0.462,1.782l-8.15,4.055C321.597,633.949,321.544,633.866,321.5,633.775z
			 M320.327,632.283c-0.044-0.037-0.095-0.065-0.139-0.099l4.889-8.186c0.559,0.264,1.095,0.567,1.583,0.938L320.327,632.283z"/>
		<path d="M294.043,660.86v100.737l44.667-20.907V638.052L294.043,660.86z M324.93,692.246l10.454-5.029v50.056l-10.454,4.894
			V692.246z M324.93,655.504l10.454-5.338v30.723l-10.454,5.029V655.504z M303.072,702.763l16.156-7.773v49.846l-16.156,7.562
			V702.763z M303.072,666.662l16.156-8.248v30.247l-16.156,7.774V666.662z"/>
		<polygon points="338.71,815.136 294.043,836.043 294.043,775.221 338.71,752.412 		"/>
		<polygon points="397.632,786.625 352.965,807.532 352.965,746.71 397.632,723.901 		"/>
		<path d="M379.022,607.086l17.177-8.967c0,0-6.166-16.026-24.238-6.59c-18.064,9.433-18.469,28.883-18.469,28.883l24.399-12.736
			l-7.217,3.767c-0.041-2.421,1.417-5.049,3.525-6.157C376.309,604.188,378.328,605.005,379.022,607.086z M376.723,602.922
			l1.791-8.317c0.631-0.061,1.244-0.059,1.849-0.025l-3.393,8.365C376.884,602.938,376.806,602.922,376.723,602.922z
			 M372.043,596.842c0.273-0.158,0.542-0.329,0.822-0.475c0.325-0.17,0.648-0.313,0.971-0.457l0.421,7.703
			c-0.087,0.048-0.165,0.113-0.25,0.159L372.043,596.842z M365.71,602.449c0.474-0.607,0.973-1.187,1.498-1.738l4.186,5.532
			c-0.034,0.048-0.063,0.096-0.097,0.15L365.71,602.449z M369.984,609.014l-7.92-0.1c0.278-0.748,0.609-1.497,0.971-2.226
			L369.984,609.014z M360.821,616.035c-0.026-0.846,0.004-1.697,0.109-2.553l8.748-2.355c0,0.018-0.005,0.042-0.003,0.061
			L360.821,616.035z M372.73,596.238c-7.566,3.955-13.257,12.028-14.311,19.784l-2.287,1.19c0.859-9.153,7.395-18.821,16.201-23.417
			s17.214-2.734,20.685,4.159l-2.287,1.189C387.518,593.617,380.297,592.291,372.73,596.238z M380.422,605.265l7.595-6.048
			c0.082,0.154,0.15,0.316,0.23,0.475l0.462,1.783l-8.15,4.054C380.519,605.439,380.466,605.355,380.422,605.265z M379.249,603.772
			c-0.044-0.037-0.095-0.065-0.139-0.099l4.889-8.186c0.559,0.264,1.095,0.567,1.583,0.938L379.249,603.772z"/>
		<path d="M352.965,632.35v100.738l44.667-20.908V609.541L352.965,632.35z M383.852,663.736l10.454-5.03v50.057l-10.454,4.893
			V663.736z M383.852,626.993l10.454-5.338v30.723l-10.454,5.03V626.993z M361.994,674.252l16.156-7.772v49.845l-16.156,7.562
			V674.252z M361.994,638.152l16.156-8.249v30.248l-16.156,7.774V638.152z"/>
	</g>
</g>
</svg>
