<svg xmlns="http://www.w3.org/2000/svg" xmlns:xlink="http://www.w3.org/1999/xlink" width="70.3mm" height="41.19mm" viewBox="0 0 199.27 116.75">
  <defs>
    <style>
      .a {
        fill: none;
      }

      .b {
        clip-path: url(#a);
      }

      .c {
        fill: #004e37;
      }
    </style>
    <clipPath id="a">
      <rect class="a" width="199.27" height="116.75"/>
    </clipPath>
  </defs>
  <g class="b">
    <path class="c" d="M139.32,31.48l-13.91-2.06L125,23.18l.78,0,.07-.83-1.17-1.5-7.51-2.61-14.66,2.57c0-1.68-.21-19.37-.24-19.9S101.47,0,100.45,0c-.83,0-1.63.41-1.66,1s-.63,22.38-.69,24.21l-3.76-.54-12,1.62-.14,1-5.66-1L63.69,28.68l-.52,3.4-4.53.23-2.79,2.25-.26,1.95,1.85-.31.06-.61,1.83-1.47L63,33.93l-.23,1.51,1.83-.23.52-3.38.24-1.59,9.88-1.87-.37,5.88,1.79-.12.24-3.6,6.84-.6L84,27.87l9.92-1.33-.45,7c1.4,0,2.82,0,4.25,0,1.21,0,2.43,0,3.66,0l-.06-10.61,15.53-2.73,1.08,14.21,1.79.15-.33-4.17L132,32.16l.44,3.67,7.8.92Z"/>
    <path class="c" d="M172.3,108.58h-6v1.92H167a3.61,3.61,0,0,1,.05-.71c0-.22.17-.33.34-.33h1.41v6.12c0,.17-.11.29-.33.34a3.54,3.54,0,0,1-.71,0v.65h3.13V116a3.66,3.66,0,0,1-.72,0c-.22,0-.32-.17-.32-.34v-6.12h1.41c.18,0,.29.11.35.33a3.85,3.85,0,0,1,0,.71h.65Zm-7,4.42a4.06,4.06,0,0,0-1.53-.94,4,4,0,0,1-1.21-.65,1.17,1.17,0,0,1-.39-.89,1.11,1.11,0,0,1,.34-.81,1.66,1.66,0,0,1,1.18-.39,3.28,3.28,0,0,1,.94.13c.15.09.22.42.22,1h.65v-1.6a3.41,3.41,0,0,0-1.77-.4,2.81,2.81,0,0,0-1.89.62,2,2,0,0,0-.72,1.56c0,1,.71,1.77,2.12,2.29a3,3,0,0,1,1.17.66,1.27,1.27,0,0,1,.35.93,1.23,1.23,0,0,1-.45,1,1.85,1.85,0,0,1-1.23.38,3.69,3.69,0,0,1-1.08-.17l-.21-.08c-.12-.1-.18-.43-.18-1H161v1.56a3.6,3.6,0,0,0,2,.52,3,3,0,0,0,2.12-.69,2.09,2.09,0,0,0,.7-1.63,2,2,0,0,0-.52-1.42m-5.74-4.42h-3.14v.66a3.91,3.91,0,0,1,.72,0c.22.06.33.17.33.35v3.72c0,1.7-.65,2.55-2,2.55a1.62,1.62,0,0,1-1.34-.6,3,3,0,0,1-.54-2v-3.72c0-.18.11-.29.33-.35a3.91,3.91,0,0,1,.72,0v-.66h-3.13v.66a3.71,3.71,0,0,1,.71,0c.22.06.33.17.33.35v3.69a3.74,3.74,0,0,0,.83,2.65,2.68,2.68,0,0,0,2,.78,2.9,2.9,0,0,0,2.18-.81,3.74,3.74,0,0,0,.86-2.67v-3.64c0-.18.11-.29.33-.35a3.91,3.91,0,0,1,.72,0Zm-14.47,4.7.79-2.32c.19-.65.32-1.13.4-1.46h0c.18.72.32,1.21.41,1.47l.8,2.31Zm5.29,2.69c-.54,0-.86-.06-1-.19l-2.46-7.2h-1.24l-2.46,7.2c-.1.13-.43.19-1,.19v.65h2.81V116a2.79,2.79,0,0,1-.81-.08l.6-1.8h2.85l.61,1.81a2.77,2.77,0,0,1-.8.07v.65h2.84Zm-9-7.39h-5.37v.66a3.71,3.71,0,0,1,.71,0c.22.06.33.17.33.35v6c0,.17-.11.29-.33.34a3.46,3.46,0,0,1-.71,0v.65h3.13V116a3.66,3.66,0,0,1-.72,0c-.22,0-.33-.17-.33-.34V113h2c.18,0,.29.11.35.32a3.66,3.66,0,0,1,.05.72h.65v-3h-.65a3.66,3.66,0,0,1-.05.72c-.06.22-.17.32-.35.32h-2v-2.67h2.24c.18,0,.29.11.35.33a3.54,3.54,0,0,1,.05.71h.65ZM132,116a4.71,4.71,0,0,1-.69,0c-.22-.05-.34-.15-.34-.3l-.39-6.18q.15-.21,1-.21v-.66h-2.37l-1.43,3.89c-.33.9-.61,1.8-.85,2.71h0c-.22-.91-.49-1.82-.8-2.71l-1.37-3.89h-2.37v.66c.56,0,.89.06,1,.19l-.44,6.21c0,.22-.36.33-1,.33v.65h3V116q-.84,0-1-.21l.16-2.59c.07-1.13.13-2.31.16-3.54h0c.22.94.53,2,.92,3.11l1.31,3.83h.78l1.42-3.9c.38-1,.72-2.07,1-3h0c0,.67,0,1.83.12,3.46l.15,2.66c-.09.15-.43.22-1,.22v.65h3Zm-11.73-7.39h-3.13v.66a4.05,4.05,0,0,1,.72,0c.21.06.32.17.32.35v3.72q0,2.55-1.95,2.55a1.66,1.66,0,0,1-1.35-.6,3,3,0,0,1-.53-2v-3.72c0-.18.1-.29.32-.35a3.91,3.91,0,0,1,.72,0v-.66h-3.13v.66a3.91,3.91,0,0,1,.72,0c.21.06.32.17.32.35v3.69a3.74,3.74,0,0,0,.83,2.65,2.68,2.68,0,0,0,2.06.78,2.9,2.9,0,0,0,2.17-.81,3.7,3.7,0,0,0,.87-2.67v-3.64c0-.18.1-.29.32-.35a3.91,3.91,0,0,1,.72,0Zm-11.7,3.35a2,2,0,0,1-1.32.42h-1.06v-2.93a4.42,4.42,0,0,1,1-.09c1.23,0,1.84.5,1.84,1.5a1.35,1.35,0,0,1-.49,1.1m2.53,4c-.58,0-.91-.08-1-.22l0-.17c-.06-.23-.15-.62-.28-1.17a2,2,0,0,0-1.18-1.62v0a2.3,2.3,0,0,0,1.07-.74,2,2,0,0,0,.44-1.31,2,2,0,0,0-.62-1.53,3.45,3.45,0,0,0-2.33-.66l-1.55,0-1.49,0v.66a3.78,3.78,0,0,1,.71,0c.22.06.33.17.33.35v6c0,.17-.11.29-.33.34a3.61,3.61,0,0,1-.71,0v.65h3.12V116a3.66,3.66,0,0,1-.72,0c-.22,0-.32-.17-.32-.34v-2.44h1a1.47,1.47,0,0,1,1.07.36,2.4,2.4,0,0,1,.54,1.19,11,11,0,0,0,.53,1.93h1.79Zm-7.88-7.39h-6v1.92h.65a3.61,3.61,0,0,1,0-.71c0-.22.17-.33.34-.33h1.41v6.12c0,.17-.11.29-.33.34a3.61,3.61,0,0,1-.71,0v.65h3.13V116a3.66,3.66,0,0,1-.72,0c-.22,0-.33-.17-.33-.34v-6.12h1.42c.17,0,.29.11.34.33a3.61,3.61,0,0,1,0,.71h.65Zm-6.85,0H93.25v.66a3.91,3.91,0,0,1,.72,0c.22.06.33.17.33.34V112c0,1.33,0,2.43.11,3.3h0A21.43,21.43,0,0,0,93,112.65l-2.57-4.07H88.19v.66a3.91,3.91,0,0,1,.72,0c.22.06.32.17.32.35v6c0,.17-.1.29-.32.34a3.66,3.66,0,0,1-.72,0v.65h3.06V116a3.61,3.61,0,0,1-.71,0c-.22,0-.33-.17-.33-.34v-2.4c0-1.37,0-2.48-.07-3.31l0,0a24,24,0,0,0,1.5,2.69l2.55,4.08h1v-7c0-.18.11-.29.33-.35a3.91,3.91,0,0,1,.72,0Zm-9.47,6.13H86.2a3.66,3.66,0,0,1,0,.72c-.06.22-.17.33-.35.33H83.36v-2.91h2.08c.17,0,.29.11.34.33a3.61,3.61,0,0,1,0,.71h.65V111h-.65a3.66,3.66,0,0,1,0,.72c0,.22-.17.33-.34.33H83.36v-2.55h2.26c.18,0,.29.11.35.33a3.78,3.78,0,0,1,0,.71h.66v-1.91H81.28v.66a3.71,3.71,0,0,1,.71,0c.22.06.33.17.33.35v6c0,.17-.11.29-.33.34a3.46,3.46,0,0,1-.71,0v.65h5.57Zm-6.84,0h-.65a2.91,2.91,0,0,1-.06.72c0,.21-.17.32-.34.32H75.52l4.42-6.53v-.64H74.52v1.91h.65a3.61,3.61,0,0,1,0-.71c0-.22.17-.33.34-.33h3L74.14,116v.61H80Zm-9-2.78a2,2,0,0,1-1.32.42H68.6v-2.93a4.52,4.52,0,0,1,1-.09c1.23,0,1.84.5,1.84,1.5a1.35,1.35,0,0,1-.49,1.1m2.52,4c-.57,0-.9-.08-1-.22l0-.17c-.06-.23-.15-.62-.28-1.17A2,2,0,0,0,71,112.79v0a2.3,2.3,0,0,0,1.07-.74,2,2,0,0,0,.44-1.31,2,2,0,0,0-.62-1.53,3.45,3.45,0,0,0-2.33-.66l-1.55,0-1.49,0v.66a3.85,3.85,0,0,1,.71,0c.22.06.33.17.33.35v6c0,.17-.11.29-.33.34a3.61,3.61,0,0,1-.71,0v.65h3.12V116a3.66,3.66,0,0,1-.72,0c-.22,0-.33-.17-.33-.34v-2.44h1a1.45,1.45,0,0,1,1.06.36,2.32,2.32,0,0,1,.55,1.19,10.11,10.11,0,0,0,.53,1.93h1.78Zm-8.78-7.39H61.59v.66a3.91,3.91,0,0,1,.72,0c.22.06.33.17.33.35v3.72c0,1.7-.65,2.55-2,2.55a1.62,1.62,0,0,1-1.34-.6,3,3,0,0,1-.54-2v-3.72c0-.18.11-.29.33-.35a3.85,3.85,0,0,1,.71,0v-.66H56.72v.66a3.71,3.71,0,0,1,.71,0c.22.06.33.17.33.35v3.69a3.74,3.74,0,0,0,.83,2.65,2.68,2.68,0,0,0,2,.78,2.9,2.9,0,0,0,2.18-.81,3.74,3.74,0,0,0,.86-2.67v-3.64c0-.18.11-.29.33-.35a3.91,3.91,0,0,1,.72,0Zm-8.89,0h-6v1.92h.65a3.61,3.61,0,0,1,.05-.71c0-.22.17-.33.34-.33h1.41v6.12c0,.17-.11.29-.33.34a3.54,3.54,0,0,1-.71,0v.65h3.13V116a3.66,3.66,0,0,1-.72,0c-.22,0-.32-.17-.32-.34v-6.12H54.8c.18,0,.29.11.34.33a3,3,0,0,1,0,.71h.65Zm-6.19,6.12H49a3.66,3.66,0,0,1,0,.72c-.05.22-.17.33-.34.33H46.22v-6.12c0-.18.1-.29.32-.35a3.91,3.91,0,0,1,.72,0v-.66H44.13v.66a3.91,3.91,0,0,1,.72,0c.21.06.32.17.32.35v6c0,.17-.11.29-.32.34a3.66,3.66,0,0,1-.72,0v.65h5.52Zm-7.32-6.12H39.2v.66a3.91,3.91,0,0,1,.72,0c.22.06.33.17.33.35v3.72c0,1.7-.66,2.55-2,2.55a1.66,1.66,0,0,1-1.35-.6,3.08,3.08,0,0,1-.53-2v-3.72c0-.18.11-.29.32-.35a4.05,4.05,0,0,1,.72,0v-.66H34.32v.66a3.91,3.91,0,0,1,.72,0c.22.06.33.17.33.35v3.69a3.74,3.74,0,0,0,.82,2.65,2.7,2.7,0,0,0,2.06.78,2.88,2.88,0,0,0,2.17-.81,3.7,3.7,0,0,0,.87-2.67v-3.64c0-.18.11-.29.33-.35a3.71,3.71,0,0,1,.71,0ZM33.55,116a2.44,2.44,0,0,1-.84-.09L30.08,112l2.3-2.7a3.08,3.08,0,0,1,.76-.06v-.66H30.65v.66h.5l-1.91,2.35c-.22.28-.43.56-.63.86h0v-2.83c0-.18.11-.29.32-.35a4.05,4.05,0,0,1,.72,0v-.66H26.49v.66a3.91,3.91,0,0,1,.72,0c.21.06.32.17.32.35v6c0,.17-.11.29-.32.34a3.66,3.66,0,0,1-.72,0v.65h3.12V116a3.81,3.81,0,0,1-.72,0c-.21,0-.32-.17-.32-.34v-2l.77-.88L31.53,116l-.59,0v.65h2.61Z"/>
    <path class="c" d="M118.54,100.53c.14-1.11,0-2-.6-2s-1.49,1-2,2.14c.13-.56.3-1.2.54-2,.07-.23,0-.27-.2-.21a1.8,1.8,0,0,0-.46.23,1,1,0,0,0-.39.58,11,11,0,0,0-.51,3.29.48.48,0,0,0,.2.43.85.85,0,0,0,.34.09c.13,0,.21,0,.27-.21.51-1.57,1.4-3.15,1.8-3.22s0,1.68,0,2.41c0,.4.19.53.44.52a.43.43,0,0,0,.39-.27c.53-1,1.36-2.4,1.66-2.42s-.08.85-.11,1.5.21,1.17.91,1.12a3.11,3.11,0,0,0,1.68-1.14.66.66,0,0,0,.16-.54.79.79,0,0,0-.13-.31c-.06-.08-.13-.11-.24,0-.49.55-.87,1-1.19.94s-.35-.3-.21-1.26.19-1.55-.32-1.6-1.4.76-2,1.85m-4.72-.87c.08-.29.05-.47-.07-.57a.59.59,0,0,0-.34-.15c-.14,0-.21,0-.28.19a12.15,12.15,0,0,0-.46,1.53c-.34,1.43-.09,2.37.81,2.31a3.13,3.13,0,0,0,1.67-1.13.58.58,0,0,0,.16-.53.82.82,0,0,0-.12-.32c-.07-.08-.14-.1-.25,0-.48.54-.82,1-1.18,1s-.38-.23-.31-.75.22-1,.37-1.6m.27-2.85a1.07,1.07,0,0,0-1,.85.66.66,0,0,0,.65.87,1,1,0,0,0,.92-.86c.12-.53-.18-.88-.61-.86m-6.58,4.75a1.11,1.11,0,0,1,0-.17c.16-.75.74-1.42,1.19-1.47.16,0,.26.1.23.3a2.29,2.29,0,0,1-1.44,1.34m.21.7a3.35,3.35,0,0,0,2.19-2.1A.87.87,0,0,0,109,99a3.11,3.11,0,0,0-2.42,2.5c-.26,1.44.71,1.94,1.74,1.91a3.81,3.81,0,0,0,2.67-1.34.62.62,0,0,0,.16-.52.83.83,0,0,0-.13-.32c-.06-.08-.13-.11-.24,0a2.87,2.87,0,0,1-2.25,1.25,1.12,1.12,0,0,1-.78-.24m-2.69.3a2.14,2.14,0,0,0,.42-.86c.27-1.2-.69-1.49-1.57-2,.19-.46.41-1.1,0-1.08s-.88.61-1,1a.69.69,0,0,0,.05.46,7.59,7.59,0,0,1-1.14,1.74.63.63,0,0,0-.17.5.89.89,0,0,0,.14.35c.07.08.13.12.24,0a10.82,10.82,0,0,0,1.48-2.09c.44.3,1.16.62,1,1.3a1.08,1.08,0,0,1-.57.7c-.48-.11-1.14-.57-1.36-.08s.15,1,.86,1a1.68,1.68,0,0,0,.76-.21c1,.44,1.82-.24,2.47-1a.63.63,0,0,0,.15-.53.69.69,0,0,0-.12-.32c-.07-.08-.13-.11-.26,0a2.78,2.78,0,0,1-1.39,1.06m-5.29-1.94a5.9,5.9,0,0,0-.2.72c-.06.27-.1.53-.13.77a1.84,1.84,0,0,1-1.37.82c-.32,0-.54-.32-.4-.86a2.06,2.06,0,0,1,1.54-1.54.91.91,0,0,1,.56.09m-.26,2.43a.82.82,0,0,0,.88.67,3.11,3.11,0,0,0,1.67-1.14.64.64,0,0,0,.16-.53,1.12,1.12,0,0,0-.12-.32c-.07-.08-.14-.1-.25,0-.49.55-.84,1-1.27,1-.19,0-.31-.21-.29-.57a4,4,0,0,0,.65-1.54c.08-.44,0-1-.34-1.1-.17,0-.33.07-.46.26a1.2,1.2,0,0,0-.8-.19,3.32,3.32,0,0,0-2.62,2.54c-.27,1.24.39,1.78,1.12,1.75a2.51,2.51,0,0,0,1.67-.86M92,96.4a2.28,2.28,0,0,0,1.65,1.79,3.76,3.76,0,0,0,2,0,5.7,5.7,0,0,1-.12,1.73c-.48,2.35-2.09,4.1-3.94,4.19s-2.52-1.61-2.16-3.47A7.36,7.36,0,0,1,92,96.4m3.49,1c-1.54.31-2.71-.57-2.59-1.52a.59.59,0,0,1,.62-.51c1,0,1.7.87,2,2m1-.32c-.34-1.53-1.3-2.63-2.82-2.58A1.6,1.6,0,0,0,92,95.79l0,.09-.09,0a.65.65,0,0,0-.51.12,7.69,7.69,0,0,0-3,4.73c-.44,2.3.4,4.43,3,4.31s4.47-2.25,5-5.21a7,7,0,0,0,.1-2l.22-.14a.89.89,0,0,0,.37-.44,1.72,1.72,0,0,0,0-.39c0-.12-.08-.19-.21-.1a6,6,0,0,1-.53.31m-13.23,5.89a1.11,1.11,0,0,1,0-.17c.16-.75.74-1.42,1.19-1.47.16,0,.26.1.24.3a2.28,2.28,0,0,1-1.45,1.34m.21.7a3.36,3.36,0,0,0,2.19-2.09.88.88,0,0,0-.94-1.17,3.1,3.1,0,0,0-2.41,2.5c-.27,1.45.7,2,1.73,1.91a3.77,3.77,0,0,0,2.67-1.33.65.65,0,0,0,.16-.53,1,1,0,0,0-.12-.32c-.07-.08-.14-.1-.25,0a2.91,2.91,0,0,1-2.25,1.26,1.17,1.17,0,0,1-.78-.25M81,101.53c.09-.3.06-.48-.07-.58a.67.67,0,0,0-.33-.15c-.14,0-.22,0-.28.2a9.12,9.12,0,0,0-.46,1.52c-.35,1.44-.09,2.38.8,2.32a3.13,3.13,0,0,0,1.68-1.14.61.61,0,0,0,.16-.53.9.9,0,0,0-.13-.32c-.06-.08-.13-.1-.24,0-.48.53-.83,1-1.19,1s-.38-.24-.3-.76a16.12,16.12,0,0,1,.36-1.59m.28-2.86a1.11,1.11,0,0,0-1,.85.66.66,0,0,0,.66.87,1,1,0,0,0,.91-.86.62.62,0,0,0-.6-.86m-8.35,6.07a43.32,43.32,0,0,1,1.57-7.13c.06-.2,0-.26-.19-.2a4.59,4.59,0,0,0-.48.26.94.94,0,0,0-.44.56,30.58,30.58,0,0,0-1.26,6.37,4.52,4.52,0,0,1-.54-.2c-.17-.08-.24,0-.28.16a1.42,1.42,0,0,0,0,.46.53.53,0,0,0,.37.4,5.79,5.79,0,0,0,2.35.3,5.55,5.55,0,0,0,5.11-4.64c.77-3.44-.95-5.48-3.56-5.53-2.23,0-4.19,1.3-4.49,2.76a1.39,1.39,0,0,0,.78,1.63.68.68,0,0,0,.51,0,1.48,1.48,0,0,0,.35-.25c.11-.1.11-.2,0-.25a1.16,1.16,0,0,1-.76-1.2,3.4,3.4,0,0,1,3.35-1.77c2.08.05,3.44,1.74,2.81,4.65a4.32,4.32,0,0,1-4,3.67,5.45,5.45,0,0,1-1.21,0"/>
    <path class="c" d="M199.27,76.31,190,74.58l-.37,2a11.85,11.85,0,0,1,2.14.54c.64.29.91.69.81,1.21l-1.31,7q-1.12,6-1.53,10l-.07,0a68.94,68.94,0,0,0-2.87-8.7L181.33,73l-6.59-1.23-.37,2a11.85,11.85,0,0,1,2.14.54c.62.29.89.7.79,1.23l-3.35,18c-.1.53-.49.82-1.18.86a11.19,11.19,0,0,1-2.19-.27l-.36,2,9.24,1.73.37-2a11.26,11.26,0,0,1-2.14-.55c-.62-.28-.89-.69-.79-1.22l1.35-7.22c.77-4.16,1.32-7.5,1.64-10l.11,0a74.38,74.38,0,0,0,3,9l5.4,13.74,3.19.59,3.93-21.11c.1-.52.49-.81,1.18-.85a11.11,11.11,0,0,1,2.2.27ZM166.11,89.52l-2-.24a9.88,9.88,0,0,1-.43,2.18c-.25.64-.64.93-1.17.86l-7.43-.92,1.09-8.85,6.32.78c.53.07.84.44.92,1.13a10.68,10.68,0,0,1-.12,2.2l2,.24,1.11-9-2-.25a10.71,10.71,0,0,1-.42,2.18q-.36,1-1.17.87l-6.31-.79,1-7.75,6.88.85c.53.07.84.44.93,1.13a11.8,11.8,0,0,1-.13,2.2l2,.24.72-5.82-16.4-2-.25,2a11.21,11.21,0,0,1,2.16.41c.65.25.93.64.87,1.17L152,90.46c-.06.53-.44.84-1.12.92a10.21,10.21,0,0,1-2.2-.13l-.25,2,17,2.1Zm-23,1.1a10.79,10.79,0,0,1-2.18-.3c-.65-.21-1-.59-.92-1.12L141.28,71c0-.54.4-.86,1.08-1a10.44,10.44,0,0,1,2.2,0l.14-2-9.59-.68-.14,2a11.46,11.46,0,0,1,2.18.3c.66.22,1,.59.93,1.11l-.52,7.13L125.67,77l.51-7.12c0-.53.4-.86,1.08-1a11.47,11.47,0,0,1,2.2,0l.14-2L120,66.24l-.14,2a12,12,0,0,1,2.18.3c.65.21,1,.58.92,1.11L121.68,87.9c0,.53-.39.85-1.07,1a11.48,11.48,0,0,1-2.2,0l-.15,2,9.58.69.14-2a11.87,11.87,0,0,1-2.18-.3c-.66-.22-1-.59-.92-1.13l.59-8.34,11.9.85-.6,8.37q-.06.78-1.08,1a10.65,10.65,0,0,1-2.2,0l-.14,2,9.59.69ZM114.86,66.78A12.9,12.9,0,0,0,109,65.56,12.25,12.25,0,0,0,95.87,78.21q-.14,5.92,3.26,9.37A11.89,11.89,0,0,0,107.74,91a14.36,14.36,0,0,0,6.55-1l-.59-2.55a11.92,11.92,0,0,1-5.24.9,9,9,0,0,1-6.89-2.82,10.08,10.08,0,0,1-2.34-7.27A10.36,10.36,0,0,1,102,70.73a9.26,9.26,0,0,1,7-2.5,12.35,12.35,0,0,1,3,.42c.49.26.71,1.3.67,3.11l2,0ZM92.53,65.65l-18.27.26.09,5.9,2,0a10.68,10.68,0,0,1,.11-2.2c.16-.67.51-1,1-1l4.33-.06.26,18.79c0,.52-.32.87-1,1a10.69,10.69,0,0,1-2.18.17l0,2,9.6-.13,0-2a11.23,11.23,0,0,1-2.2-.12c-.67-.15-1-.5-1-1L85,68.46l4.34-.07c.54,0,.89.33,1.07,1a10.78,10.78,0,0,1,.17,2.2l2,0ZM70.07,84.9l-2,.1a10.82,10.82,0,0,1,0,2.22c-.14.68-.47,1-1,1l-7.48.39-.46-8.91,6.36-.33c.53,0,.9.29,1.1,1a11.25,11.25,0,0,1,.26,2.19l2-.1-.47-9-2,.11a12.14,12.14,0,0,1,0,2.22c-.14.67-.47,1-1,1L59,77.12l-.4-7.8L65.5,69c.53,0,.9.29,1.1,1a10.79,10.79,0,0,1,.26,2.18l2-.1-.3-5.85L52,67l.11,2a10.29,10.29,0,0,1,2.2,0c.67.13,1,.46,1,1l.93,18.25c0,.53-.29.9-.94,1.1a11.26,11.26,0,0,1-2.19.25l.1,2,17.07-.87ZM40.53,78.32A6.07,6.07,0,0,1,36.63,80l-3.26.33-.91-9a14.29,14.29,0,0,1,3.12-.59q5.64-.57,6.1,4a4.23,4.23,0,0,1-1.15,3.54m9,11.53c-1.76.18-2.79.06-3.11-.37l-.2-.5c-.26-.69-.66-1.85-1.21-3.47-.92-2.62-2.29-4.16-4.12-4.59v-.09a7.08,7.08,0,0,0,3-2.59,6.27,6.27,0,0,0,.94-4.14,6,6,0,0,0-2.39-4.46q-2.47-1.8-7.32-1.31c-1.19.12-2.76.31-4.72.58s-3.48.45-4.55.56l.21,2a11.3,11.3,0,0,1,2.2-.08c.68.1,1,.42,1.1,1l1.85,18.19c.05.52-.24.9-.89,1.14a12,12,0,0,1-2.17.36l.2,2,9.53-1-.2-2a11.29,11.29,0,0,1-2.2.08c-.68-.1-1-.41-1.11-.95l-.75-7.45,3-.3A4.46,4.46,0,0,1,40,83.2a7.28,7.28,0,0,1,2,3.47,31.73,31.73,0,0,0,2.22,5.73l5.44-.56ZM20.07,82l-8,1.25.39,2.53L17.37,85l1.14,7.26a10.16,10.16,0,0,1-4.09,1.3A9.18,9.18,0,0,1,7.16,92a10,10,0,0,1-3.67-6.81A9.83,9.83,0,0,1,5,77.62a9.89,9.89,0,0,1,6.71-3.71,15.4,15.4,0,0,1,3.52-.17c.52.19.93,1.17,1.21,3l2-.31-.77-5a14.47,14.47,0,0,0-6.27-.16,13.29,13.29,0,0,0-9.08,5.08A12.23,12.23,0,0,0,.19,85.91q.92,5.78,4.79,8.5t9.64,1.83a21.49,21.49,0,0,0,7.28-2.51Z"/>
    <path class="c" d="M182.15,48.61l-6.44-1L175.5,49a7.81,7.81,0,0,1,1.49.34c.44.18.64.46.58.82L176.81,55q-.66,4.18-.86,7h0a46.63,46.63,0,0,0-2.16-6l-4.07-9.38-4.58-.72-.22,1.37a8.73,8.73,0,0,1,1.49.33c.44.19.63.47.57.83L165,61c-.06.36-.33.57-.8.61a6.84,6.84,0,0,1-1.52-.14l-.21,1.37,6.43,1,.21-1.37a7.45,7.45,0,0,1-1.49-.33c-.44-.19-.63-.46-.57-.83l.79-5q.68-4.34.93-7l.08,0a50.67,50.67,0,0,0,2.25,6.14l4,9.39,2.21.35,2.3-14.68c.06-.37.32-.57.8-.62a8.4,8.4,0,0,1,1.53.14ZM159.06,58.3l-1.36-.16a7.07,7.07,0,0,1-.29,1.52c-.16.44-.43.64-.8.6l-5.15-.59.7-6.14,4.38.51c.37,0,.58.3.65.77a8.49,8.49,0,0,1-.08,1.52l1.38.16.71-6.22-1.37-.16a7.83,7.83,0,0,1-.28,1.51c-.17.45-.43.65-.8.61l-4.38-.5.62-5.38,4.77.55c.37,0,.58.3.64.77a7.52,7.52,0,0,1-.07,1.53l1.38.16.46-4L148.8,44l-.16,1.37a7.52,7.52,0,0,1,1.5.28c.45.16.65.43.6.8L149.3,59c0,.37-.3.59-.77.65a7.41,7.41,0,0,1-1.52-.07L146.85,61l11.75,1.35ZM145.4,43.67,132.8,42.6l-.34,4.07,1.38.12a7.37,7.37,0,0,1,.23-1.51q.23-.68.78-.63l3,.25-1.1,13c0,.37-.28.58-.76.66a8,8,0,0,1-1.51,0l-.12,1.38,6.62.56.12-1.38a7.24,7.24,0,0,1-1.51-.23q-.68-.23-.63-.78L140,45.09l3,.25c.37,0,.59.28.67.75a8.16,8.16,0,0,1,0,1.53l1.38.12ZM125,49.26a4.23,4.23,0,0,1-2.85.73l-2.26-.12.34-6.23a9.64,9.64,0,0,1,2.2-.07q3.92.23,3.74,3.39a2.92,2.92,0,0,1-1.17,2.3m4.88,8.85c-1.21-.06-1.91-.26-2.08-.58l-.08-.37c-.11-.5-.26-1.33-.46-2.5-.34-1.9-1.11-3.09-2.32-3.59V51a5,5,0,0,0,2.36-1.44,4.39,4.39,0,0,0,1.09-2.73,4.14,4.14,0,0,0-1.16-3.31q-1.49-1.5-4.86-1.68c-.83-.05-1.92-.09-3.29-.12s-2.43-.06-3.17-.1L115.83,43a7.82,7.82,0,0,1,1.52.18c.45.15.67.4.65.77l-.7,12.64c0,.36-.26.59-.73.68a7.66,7.66,0,0,1-1.52,0L115,58.68l6.62.36.08-1.38a8.05,8.05,0,0,1-1.52-.18c-.45-.14-.67-.4-.65-.77l.29-5.18,2.09.12a3.09,3.09,0,0,1,2.22.89,5,5,0,0,1,1,2.6,22.39,22.39,0,0,0,.9,4.15l3.78.21Zm-28.49-6.87,1.8-4.9c.42-1.37.73-2.4.91-3.08h.06c.36,1.53.63,2.58.81,3.14l1.58,5Zm11.12,5.95c-1.14,0-1.83-.17-2.06-.44l-4.87-15.41-2.65-.06L97.37,56.46c-.23.26-.92.37-2.08.35l0,1.38,6,.14,0-1.39a6.07,6.07,0,0,1-1.71-.2L100.9,53l6,.13L108.16,57a6.68,6.68,0,0,1-1.7.11l0,1.38,6,.14ZM92.08,49.25l-5.62.06,0,1.77,3.45,0,0,5.08a6.91,6.91,0,0,1-2.93.49,6.4,6.4,0,0,1-4.82-1.79,6.94,6.94,0,0,1-1.83-5,6.37,6.37,0,0,1,6.79-6.92,10.64,10.64,0,0,1,2.42.23c.34.18.52.9.53,2.15h1.39l0-3.48A10.13,10.13,0,0,0,87.22,41a9.21,9.21,0,0,0-6.73,2.57,8.49,8.49,0,0,0-2.42,6.34,8.38,8.38,0,0,0,2.43,6.3,8.79,8.79,0,0,0,6.42,2.22,14.91,14.91,0,0,0,5.24-1Zm-21.7-.55a4.18,4.18,0,0,1-2.76,1l-2.26.1-.27-6.23a9.42,9.42,0,0,1,2.18-.28c2.61-.11,4,.89,4.06,3a3,3,0,0,1-1,2.4M76.11,57c-1.22,0-1.93-.07-2.14-.38l-.11-.35c-.15-.49-.39-1.31-.7-2.45-.52-1.85-1.41-3-2.66-3.34v-.07a4.9,4.9,0,0,0,2.21-1.66A4.38,4.38,0,0,0,73.53,46a4.15,4.15,0,0,0-1.47-3.18q-1.64-1.34-5-1.2c-.82,0-1.92.11-3.29.21S61.34,42,60.6,42l.06,1.38a8.35,8.35,0,0,1,1.53,0c.46.1.7.33.72.7l.54,12.65c0,.37-.21.61-.66.75a7.68,7.68,0,0,1-1.52.16l.06,1.39L68,58.77l-.06-1.39a8.38,8.38,0,0,1-1.53,0c-.46-.1-.7-.33-.72-.7l-.22-5.18,2.09-.09a3,3,0,0,1,2.29.67,5,5,0,0,1,1.27,2.48,22.74,22.74,0,0,0,1.3,4l3.79-.17ZM57.17,55.24l-1.37.1a6.28,6.28,0,0,1,0,1.54c-.08.47-.31.72-.68.75L50,58l-.44-6.16,4.39-.32c.38,0,.63.19.78.64a7.29,7.29,0,0,1,.21,1.51l1.38-.1-.45-6.24-1.38.1a6.94,6.94,0,0,1,0,1.53c-.08.47-.31.72-.68.75L49.38,50,49,44.63l4.79-.35c.37,0,.63.19.78.64a7.8,7.8,0,0,1,.21,1.51l1.38-.09-.29-4.05-11.42.82.1,1.38a7.66,7.66,0,0,1,1.53,0c.47.08.71.31.74.68l.91,12.61c0,.37-.19.63-.64.78a7.8,7.8,0,0,1-1.51.21l.09,1.38,11.8-.85ZM41.69,59.13a7.19,7.19,0,0,1-1.52.06c-.47-.07-.73-.29-.77-.66L38.13,46c0-.37.16-.64.61-.8a7.7,7.7,0,0,1,1.51-.25l-.14-1.38-6.62.67.14,1.38a7.81,7.81,0,0,1,1.53,0c.47.07.72.28.76.64L37.2,58.77c0,.36-.17.62-.61.78a7.24,7.24,0,0,1-1.51.25l.14,1.38,6.61-.67Zm-13.86.57a5.64,5.64,0,0,1-2.95,1.11,10.47,10.47,0,0,1-1.85.13l-.83-6.46L24,54.25a5.44,5.44,0,0,1,3.18.38A2.83,2.83,0,0,1,28.83,57a2.87,2.87,0,0,1-1,2.74m-1.27-8.26A4.1,4.1,0,0,1,24,52.58l-2,.26-.71-5.46A8.78,8.78,0,0,1,23.22,47q3.71-.48,4.06,2.28a2.55,2.55,0,0,1-.72,2.19m3.05,2.48a4.73,4.73,0,0,0-2.51-1v-.06A4.49,4.49,0,0,0,29,51.08a3.52,3.52,0,0,0,.48-2.32,3.66,3.66,0,0,0-1.81-2.83,7.5,7.5,0,0,0-4.8-.63c-.8.1-1.85.26-3.15.47s-2.31.37-3,.46l.18,1.38a7.38,7.38,0,0,1,1.52-.1c.48.06.74.27.78.64l1.61,12.54c.05.36-.15.63-.59.8a7,7,0,0,1-1.5.31l.18,1.37c.63-.08,1.56-.17,2.8-.28s2.18-.21,2.81-.29c2.76-.35,4.65-1.14,5.65-2.35a4.47,4.47,0,0,0,1-3.56,4,4,0,0,0-1.53-2.77"/>
  </g>
</svg>
