<?xml version="1.0" standalone="no"?>
<!DOCTYPE svg PUBLIC "-//W3C//DTD SVG 20010904//EN"
 "http://www.w3.org/TR/2001/REC-SVG-20010904/DTD/svg10.dtd">
<svg version="1.0" xmlns="http://www.w3.org/2000/svg"
 width="534.000000pt" height="683.000000pt" viewBox="0 0 534.000000 683.000000"
 preserveAspectRatio="xMidYMid meet">

<g transform="translate(0.000000,683.000000) scale(0.100000,-0.100000)"
fill="#000000" stroke="none">
<path d="M2375 6583 c-386 -61 -639 -174 -955 -428 -32 -26 -256 -250 -294
-294 -45 -52 -156 -209 -156 -220 0 -5 -3 -11 -7 -13 -41 -17 -226 -354 -342
-620 -26 -60 -141 -405 -141 -424 0 -8 -4 -22 -9 -32 -5 -9 -16 -53 -26 -97
-9 -44 -22 -107 -30 -140 -46 -205 -92 -717 -77 -857 5 -40 4 -68 -1 -68 -11
0 -2 -265 13 -415 10 -101 31 -245 50 -342 5 -29 14 -74 19 -100 17 -88 120
-457 151 -543 25 -67 29 -78 67 -160 17 -36 36 -80 43 -98 7 -18 21 -37 31
-43 11 -5 19 -18 19 -28 0 -10 8 -29 19 -42 10 -13 16 -30 13 -37 -4 -12 35
-100 49 -112 3 -3 14 -21 24 -40 58 -115 187 -306 283 -420 69 -81 260 -270
333 -329 30 -24 92 -69 139 -99 47 -31 91 -62 98 -69 7 -7 20 -13 28 -13 8 0
14 -4 14 -10 0 -5 5 -10 10 -10 6 0 50 -19 98 -43 48 -23 121 -54 162 -67 41
-14 77 -28 80 -31 3 -3 32 -11 65 -18 33 -7 78 -17 100 -22 190 -41 536 -36
623 10 9 5 51 17 92 27 41 9 94 25 117 35 23 10 70 23 105 30 35 6 68 15 73
19 6 4 48 27 95 51 206 105 441 292 613 488 72 82 228 294 245 332 9 22 20 39
24 39 5 0 8 5 8 10 0 6 16 37 37 68 20 31 69 125 110 207 41 83 78 157 83 166
4 9 11 38 15 65 16 117 57 249 96 307 22 31 46 82 54 112 8 30 17 61 21 67 5
7 14 40 20 73 7 33 20 92 29 130 55 240 84 518 85 828 1 253 -4 300 -39 391
-18 45 -25 204 -13 262 10 44 8 72 -13 185 -52 287 -96 446 -209 755 -24 67
-115 266 -125 274 -3 3 -19 32 -35 65 -32 69 -97 177 -168 282 -26 40 -48 76
-48 81 0 6 -7 12 -15 16 -8 3 -15 12 -15 21 0 8 -4 15 -10 15 -6 0 -10 -73
-10 -200 l0 -200 -376 0 -377 0 40 -43 c48 -52 97 -149 119 -237 20 -79 14
-235 -11 -320 -49 -161 -198 -305 -373 -360 -103 -32 -196 -43 -322 -37 -259
11 -445 107 -577 296 -18 25 -36 51 -41 56 -10 12 -11 15 -43 150 -38 161 -12
329 69 448 27 38 45 56 106 100 18 13 12 15 -65 22 -46 4 -88 11 -94 15 -6 5
-9 77 -7 190 l3 183 87 -7 c48 -3 483 -9 967 -12 862 -7 880 -6 865 12 -8 10
-17 21 -20 24 -3 3 -25 30 -50 60 -86 106 -233 254 -317 318 -122 94 -299 212
-318 212 -3 0 -22 11 -43 24 -20 12 -48 27 -62 31 -14 4 -52 20 -85 35 -109
50 -203 74 -286 72 -52 -1 -98 5 -145 19 -68 21 -286 34 -359 22z m-700 -823
c20 -11 47 -33 61 -48 22 -24 24 -34 21 -94 -3 -75 -9 -84 -85 -119 -41 -19
-116 -28 -129 -15 -3 3 -5 55 -4 116 2 92 -1 111 -13 116 -24 9 -62 -3 -93
-30 -26 -23 -28 -29 -28 -103 0 -71 -2 -78 -21 -81 -16 -2 -23 5 -32 36 -36
120 14 219 123 244 53 12 161 0 200 -22z m81 -393 c-1 -31 -3 -32 -41 -31 -22
1 -113 2 -201 3 l-162 1 -4 30 c-3 17 -3 31 -2 33 1 1 94 1 207 -1 l204 -3 -1
-32z m152 34 c8 -5 12 -21 10 -37 -3 -25 -8 -29 -36 -32 -24 -2 -38 2 -48 15
-17 23 -17 28 2 47 17 17 51 21 72 7z m-153 -183 c-1 -13 -3 -26 -4 -30 0 -5
-13 -8 -27 -8 l-26 0 31 -35 c57 -65 35 -158 -45 -191 -23 -10 -79 -14 -184
-14 l-150 0 0 29 0 29 143 3 c115 3 148 8 170 22 50 33 47 95 -6 128 -28 16
-51 19 -169 19 l-138 0 0 35 0 35 204 0 203 0 -2 -22z m2 -360 c-2 -20 4 -23
57 -30 98 -13 146 -66 134 -149 -2 -19 -9 -24 -33 -24 -27 0 -30 3 -27 30 5
46 -33 77 -89 73 -43 -3 -44 -4 -47 -40 -3 -33 -7 -38 -28 -38 -24 0 -30 14
-26 62 1 14 -15 17 -104 23 -58 4 -121 5 -139 2 -19 -3 -51 -3 -71 0 -32 5
-35 8 -32 36 l3 31 166 -2 c144 -2 168 0 173 14 3 9 4 20 0 25 -3 5 11 9 30 9
31 0 35 -3 33 -22z m-218 -225 c33 -25 59 -78 64 -134 3 -39 7 -44 30 -47 43
-5 75 35 71 88 -2 23 -9 49 -15 57 -14 16 -12 18 19 27 19 6 25 2 37 -28 24
-58 20 -129 -11 -165 -35 -42 -77 -51 -241 -51 l-143 0 0 26 c0 17 6 28 20 31
20 5 28 23 10 23 -15 0 -40 56 -40 90 0 42 15 67 53 91 39 25 106 21 146 -8z
m107 -344 c36 -11 89 -63 103 -102 12 -31 14 -99 4 -135 -5 -20 -10 -23 -36
-18 -17 3 -32 7 -33 9 -1 1 3 21 9 44 9 35 8 48 -6 77 -43 90 -201 102 -266
20 -20 -25 -22 -36 -16 -86 3 -35 2 -58 -4 -58 -5 0 -16 -2 -23 -5 -34 -13
-52 119 -24 173 45 87 167 121 292 81z m-459 -160 c-15 -24 -27 -14 -27 20 0
38 11 46 26 19 9 -16 9 -27 1 -39z m1765 -20 c143 -29 259 -89 352 -183 144
-145 215 -357 203 -606 -15 -296 -158 -513 -405 -614 -93 -37 -165 -49 -298
-48 -210 2 -356 62 -495 202 -99 100 -150 201 -185 369 -34 162 -15 359 46
496 96 213 238 328 475 384 56 13 244 13 307 0z m-1012 -185 l0 -36 -115 4
c-63 1 -115 1 -115 -1 0 -2 11 -16 25 -33 37 -43 35 -109 -3 -148 -41 -40 -88
-50 -244 -50 l-138 0 0 25 c0 14 -1 28 -2 33 -2 4 65 9 148 12 168 6 194 15
194 71 0 75 -31 89 -197 89 -70 0 -133 4 -138 8 -6 4 -11 19 -10 35 l0 27 298
0 297 0 0 -36z m120 -114 c0 -5 13 -7 30 -3 19 3 30 1 30 -6 0 -6 -18 -11 -45
-11 -33 0 -45 4 -45 15 0 8 7 15 15 15 8 0 15 -4 15 -10z m-540 -385 c42 -22
67 -62 81 -134 12 -63 12 -63 42 -57 54 11 66 53 42 147 -6 23 -3 27 20 31 35
7 48 -24 49 -114 1 -56 -3 -70 -22 -91 -37 -40 -83 -48 -242 -45 l-145 3 0 25
c0 18 6 26 22 28 l23 3 -25 33 c-44 58 -30 141 30 174 29 16 91 14 125 -3z
m-108 -351 c4 -3 1 -20 -6 -37 -23 -59 -2 -116 44 -117 26 0 59 29 81 72 30
58 65 88 105 88 48 0 81 -18 106 -58 17 -27 19 -43 15 -85 -8 -63 -18 -74 -53
-58 -20 9 -24 15 -16 23 16 16 15 81 0 96 -7 7 -24 12 -39 12 -28 0 -47 -21
-79 -84 -20 -40 -67 -66 -117 -66 -35 0 -48 6 -78 35 -30 31 -35 42 -35 85 0
68 14 100 43 100 13 0 26 -3 29 -6z m493 -300 c21 -21 16 -46 -13 -60 -33 -16
-61 -6 -69 24 -11 44 48 70 82 36z m-157 -26 l-3 -33 -135 -1 c-74 -1 -165 1
-202 4 -62 4 -68 7 -68 27 0 12 3 25 7 28 3 4 96 7 205 7 l199 0 -3 -32z
m-228 -123 c43 -22 68 -64 77 -130 8 -59 9 -60 38 -57 56 5 77 54 53 122 -10
29 -9 35 8 47 16 12 21 11 36 -9 22 -30 33 -109 19 -150 -6 -19 -27 -44 -48
-58 -35 -24 -45 -25 -200 -29 l-163 -3 0 31 c0 24 5 32 24 37 l25 6 -24 22
c-35 33 -42 87 -16 129 11 19 31 39 43 45 33 16 95 14 128 -3z m1640 -236
c366 -2 722 -5 793 -7 l127 -3 0 -219 0 -219 -580 6 c-319 3 -580 4 -580 1 0
-3 32 -24 71 -47 39 -24 133 -87 209 -141 75 -54 151 -107 167 -117 17 -10 49
-33 72 -52 l42 -34 -2 -254 c0 -139 -4 -255 -8 -257 -4 -3 -34 21 -68 52 -81
75 -121 113 -288 266 -77 72 -148 138 -158 148 -10 10 -21 18 -26 18 -10 0
-125 -82 -129 -92 -2 -4 -8 -8 -13 -8 -5 0 -32 -17 -59 -37 -26 -21 -70 -53
-97 -71 -26 -18 -102 -72 -168 -119 -66 -48 -142 -102 -170 -121 -27 -20 -70
-50 -94 -69 -24 -18 -50 -33 -57 -33 -12 0 -14 49 -14 265 l0 264 45 27 c25
14 45 32 45 40 0 8 6 14 13 13 19 -3 52 14 182 95 66 41 153 94 193 117 40 24
69 45 65 49 -5 3 -33 27 -64 53 l-57 46 -208 3 -209 3 -1 215 c-1 118 0 218 2
221 2 3 83 5 181 3 98 -1 477 -3 843 -5z m-1410 -104 c0 -14 6 -25 13 -26 63
-4 65 -5 73 -45 l6 -29 -46 3 -46 4 0 -46 c0 -44 -1 -46 -30 -46 -29 0 -30 2
-30 45 l0 45 -119 0 c-145 0 -169 -7 -173 -52 -4 -38 -34 -51 -55 -22 -17 23
-16 49 2 89 22 44 64 55 219 55 l126 0 0 25 c0 21 5 25 30 25 25 0 30 -4 30
-25z m156 -266 c24 -26 9 -53 -33 -57 -40 -4 -60 20 -45 53 14 31 52 33 78 4z
m-158 -21 l-3 -33 -200 0 c-185 0 -200 1 -203 18 -9 46 -4 47 208 47 l201 0
-3 -32z m-339 -124 c2 -2 -2 -22 -9 -43 -16 -50 -7 -84 25 -99 34 -16 70 1 90
44 26 55 64 93 100 100 93 17 160 -64 137 -166 -8 -36 -33 -49 -61 -31 -12 8
-12 14 -1 40 17 42 6 79 -27 87 -36 9 -53 -4 -88 -67 -35 -61 -80 -90 -133
-83 -51 6 -72 22 -93 67 -23 52 -24 86 -2 132 13 28 21 34 37 29 12 -4 23 -8
25 -10z m207 -279 c92 -27 136 -86 136 -181 -1 -75 -9 -89 -46 -80 -24 6 -25
9 -20 50 9 65 -1 93 -46 122 -72 48 -177 34 -224 -29 -19 -26 -22 -55 -13
-121 1 -14 -5 -20 -25 -23 -24 -3 -28 1 -37 34 -22 79 -10 133 41 181 62 59
140 75 234 47z m316 -347 c3 -7 2 -23 0 -35 -4 -22 -8 -23 -118 -23 -63 0
-114 -3 -114 -6 0 -3 9 -13 20 -22 51 -41 39 -131 -23 -176 -26 -19 -45 -21
-193 -24 l-165 -3 3 31 3 32 125 -1 c174 -1 219 18 220 91 0 9 -11 30 -24 45
-24 28 -25 28 -172 33 -133 4 -149 7 -152 23 -9 47 -11 47 297 47 218 0 290
-3 293 -12z"/>
<path d="M1590 5637 c0 -46 2 -86 5 -89 12 -12 85 15 99 37 24 37 8 86 -38
115 -60 36 -66 31 -66 -63z"/>
<path d="M1411 4569 c-19 -20 -17 -55 4 -90 11 -17 67 -37 95 -34 14 2 30 4
36 4 14 1 1 80 -18 110 -22 36 -87 42 -117 10z"/>
<path d="M2700 3660 c-85 -16 -140 -32 -140 -40 0 -5 -9 -12 -21 -15 -36 -12
-93 -80 -113 -134 -20 -55 -17 -141 5 -183 38 -71 121 -130 224 -159 75 -21
256 -18 330 5 154 49 232 149 218 281 -11 103 -98 195 -220 230 -67 20 -218
27 -283 15z"/>
<path d="M1424 3362 c-25 -16 -32 -47 -19 -79 17 -40 42 -53 100 -53 l47 0 -6
48 c-5 32 -15 54 -32 70 -25 22 -68 29 -90 14z"/>
<path d="M1406 2548 c-38 -59 21 -119 112 -116 31 1 33 3 27 32 -14 68 -26 94
-48 100 -45 12 -76 6 -91 -16z"/>
<path d="M2750 5310 c-147 -6 -158 -10 -228 -75 -45 -42 -82 -122 -82 -177 0
-67 32 -148 74 -192 78 -78 160 -106 310 -106 94 0 120 4 169 24 110 45 151
86 182 180 49 145 -45 306 -195 336 -82 16 -85 16 -230 10z"/>
</g>
</svg>
