<?xml version="1.0" encoding="utf-8"?>
<!-- Generator: Adobe Illustrator 16.0.0, SVG Export Plug-In . SVG Version: 6.00 Build 0)  -->
<!DOCTYPE svg PUBLIC "-//W3C//DTD SVG 1.1 Tiny//EN" "http://www.w3.org/Graphics/SVG/1.1/DTD/svg11-tiny.dtd">
<svg version="1.1" baseProfile="tiny" id="Layer_1" xmlns="http://www.w3.org/2000/svg" xmlns:xlink="http://www.w3.org/1999/xlink"
	 x="0px" y="0px" width="1000px" height="606px" viewBox="0 0 1000 606" xml:space="preserve">
<g>
	<g>
		<g>
			<path d="M979,510.333H22.5V106.73H979V510.333z M30.091,502.741h941.317v-388.42H30.091V502.741z"/>
		</g>
		<rect x="27.561" y="111.791" fill="#FFFFFF" width="946.378" height="393.48"/>
		<g>
			<path d="M919.428,169.146c6.521,0,11.808-5.287,11.808-11.808c0-2.346-0.693-4.527-1.872-6.366l-17.113,15.727
				C914.241,168.229,916.725,169.146,919.428,169.146z"/>
			<path d="M925.778,147.395c-1.834-1.175-4.011-1.864-6.351-1.864c-6.521,0-11.808,5.287-11.808,11.808
				c0,1.984,0.495,3.85,1.358,5.492L925.778,147.395z"/>
			<path d="M919.428,447.916c-6.521,0-11.808,5.287-11.808,11.809c0,1.983,0.495,3.85,1.358,5.492l16.8-15.438
				C923.944,448.605,921.768,447.916,919.428,447.916z"/>
			<path d="M912.25,469.085c1.991,1.529,4.475,2.447,7.178,2.447c6.521,0,11.808-5.287,11.808-11.808
				c0-2.348-0.693-4.527-1.872-6.366L912.25,469.085z"/>
			<path d="M73.836,166.699c1.991,1.529,4.474,2.447,7.178,2.447c6.521,0,11.808-5.287,11.808-11.808
				c0-2.346-0.693-4.527-1.873-6.366L73.836,166.699z"/>
			<path d="M87.364,147.395c-1.835-1.175-4.011-1.864-6.351-1.864c-6.521,0-11.809,5.287-11.809,11.808
				c0,1.984,0.496,3.85,1.359,5.492L87.364,147.395z"/>
			<path d="M81.014,447.916c-6.521,0-11.809,5.287-11.809,11.809c0,1.983,0.496,3.85,1.359,5.492l16.8-15.438
				C85.529,448.605,83.354,447.916,81.014,447.916z"/>
			<path d="M73.836,469.085c1.991,1.529,4.474,2.447,7.178,2.447c6.521,0,11.808-5.287,11.808-11.808
				c0-2.348-0.693-4.527-1.873-6.366L73.836,469.085z"/>
		</g>
		<path d="M45.25,126.973v363.116h911V126.973H45.25z M919.428,140.469c9.316,0,16.868,7.553,16.868,16.869
			s-7.552,16.869-16.868,16.869s-16.869-7.553-16.869-16.869S910.111,140.469,919.428,140.469z M81.014,140.469
			c9.316,0,16.869,7.553,16.869,16.869s-7.553,16.869-16.869,16.869c-9.316,0-16.87-7.553-16.87-16.869
			S71.697,140.469,81.014,140.469z M81.014,476.594c-9.316,0-16.87-7.554-16.87-16.869c0-9.316,7.553-16.87,16.87-16.87
			c9.316,0,16.869,7.554,16.869,16.87C97.883,469.04,90.33,476.594,81.014,476.594z M919.428,476.594
			c-9.316,0-16.869-7.554-16.869-16.869c0-9.316,7.553-16.87,16.869-16.87s16.868,7.554,16.868,16.87
			C936.296,469.04,928.744,476.594,919.428,476.594z M944.603,433.065c-6.321-4.709-14.155-7.502-22.645-7.502
			c-20.962,0-37.956,16.993-37.956,37.956c0,6.573,1.689,12.744,4.629,18.135H111.794c2.945-5.391,4.646-11.559,4.646-18.135
			c0-20.963-16.994-37.956-37.957-37.956c-8.022,0-15.457,2.495-21.585,6.745V184.748c6.129,4.25,13.562,6.751,21.585,6.751
			c20.963,0,37.957-16.994,37.957-37.957c0-6.575-1.696-12.743-4.639-18.135h776.841c-2.944,5.392-4.64,11.56-4.64,18.135
			c0,20.963,16.994,37.957,37.956,37.957c8.489,0,16.323-2.792,22.645-7.502V433.065z"/>
	</g>
	<path d="M448.349,308.801c9.278-8.434,29.1,22.773,30.788,28.68V257.35h-64.104c0,0-28.678,0-32.474,37.535
		c-1.379,13.637,4.049,24.881,13.427,34.388c3.667,3.716,13.69,10.11,11.96,16.031c-3.877,13.263-30.869-1.077-33.4-12.885
		c0,0-5.904,47.233-5.061,68.321h110.496v-21.088c0,0,2.53-19.398-11.809-38.799S439.348,316.983,448.349,308.801z M485.041,258.192
		V400.74h63.26c0,0,23.617-30.364,22.773-70.008c0,0-3.584,10.121-14.339,10.121c-10.754,0-11.808-10.965-11.808-10.965V301.21
		h26.99c0,0-19.399-17.714-5.061-43.861h-21.087c0,0-1.688-21.086,10.965-58.2C556.735,199.15,532.275,239.636,485.041,258.192z
		 M326.467,348.867c-28.042-6.786-13.496-42.598,1.687-42.598s10.122,19.401,1.687,19.401s-12.652-4.218-12.652-4.218
		s-5.061,22.773,18.556,22.773s32.895-14.339,38.799-35.426c5.905-21.086,5.062-36.269,18.557-51.451c0,0-47.233,1.265-63.26,1.265
		c-16.026,0-43.861,0.422-57.356,45.97c-13.495,45.548-15.182,53.139-31.208,96.155H363.58c0,0,1.687-37.955,5.904-65.791
		C369.484,334.949,352.615,355.193,326.467,348.867z M771.821,359.409V239.636c0-36.268-35.426-37.113-35.426-37.113h-47.234
		c0,0,25.305,9.279,25.305,37.113v117.242c0,0-3.375,44.705,38.378,44.705h48.5C770.978,401.583,771.821,359.409,771.821,359.409z
		 M899.186,335.371c-2.529,3.374-11.915,7.877-13.631,8.683c-20.107,9.452-52.672,2.293-53.847-24.709
		c-0.844-19.4,24.46-18.134,25.305-7.168c0.843,10.964-17.715,9.276-21.087,6.745c0,0,0.843,21.51,26.147,22.774
		c25.304,1.266,35.849-20.242,30.787-40.907c-5.061-20.666-29.943-40.91-57.356-41.752h-55.247v100.372
		c0,0-4.218,41.331,37.112,41.331h108.809C926.178,400.74,902.559,378.388,899.186,335.371z M687.053,401.583h57.355
		c-41.752,0-38.377-44.705-38.377-44.705V239.636c0-36.268-35.427-37.113-35.427-37.113h-2.757
		c-0.144-6.44-1.875-12.805-5.635-18.77c-13.228-20.983-41.782-16.224-57.399,0.845l-0.633,0.633
		c-3.95-9.406-12.555-17.1-22.186-19.514c-18.815-4.715-39.951,0.994-57.667,7.881c-21.799,8.476-42.857,22.398-63.118,2.143
		c-16.02-16.018-41.75-8.855-40.485,14.55c0.018,0.328-9.734-3.046-10.221-3.255c-20.721-8.877-37.396-22.762-60.375-26.54
		c-26.526-4.361-60.878,2.32-71.109,31.062c-12.749,35.82,18.028,63.476,52.479,64.13c19.384,0.368,43.459-4.283,60.125-14.789
		c0,0-1.265,12.02,8.856,13.917c10.122,1.897,14.55-4.429,29.732-15.815c15.183-11.387,21.509-10.122,21.509-10.122
		s-0.632,24.039,22.774,26.569c23.932,2.587,32.263-12.019,52.506-34.793c20.243-22.773,37.957-37.323,53.772-28.467
		c0,0-24.627,3.485-24.04,28.472c0.387,16.446,11.667,27.563,22.685,36.688h-1.176c-5.59,0-10.121,4.532-10.121,10.122
		c0,5.014,3.648,9.165,8.435,9.97V367l-51.03,93.626c0,0-14.339,21.931,6.326,21.931h148.643c20.896,0,6.326-21.931,6.326-21.931
		L635.793,367v-89.681c4.479-1.042,7.821-5.052,7.821-9.848c0-3.877-2.184-7.242-5.385-8.942c2.184-3.354,5.778-8.543,10.445-14.173
		v112.521C648.675,356.878,645.301,401.583,687.053,401.583z M445.819,172.158c11.387,2.109,17.713,15.182,28.678,17.713
		c10.965,2.53,21.508-0.844,37.114-6.749c15.604-5.903,37.112-17.291,59.465-15.604c28.205,2.129,32.051,29.1,32.051,29.1
		c-16.447-35.848-51.452-24.883-66.212-19.822c-14.761,5.061-35.005,16.87-61.153,20.666s-45.969,0.421-48.079-11.81
		C426.223,177.177,434.432,170.048,445.819,172.158z M478.292,220.657c0,7.17,9.278,10.543,17.292,5.905
		c8.014-4.638,11.387-9.279,22.773-23.618c11.388-14.339,27.836-22.774,27.836-22.774c-6.748,1.265-19.822,9.7-26.992,17.292
		c-7.168,7.591-12.23,13.917-12.23,13.917c-2.529-8.013-16.447-10.966-16.447-10.966c9.278-1.687,24.039-8.856,39.222-16.869
		c15.183-8.012,25.726-6.749,25.726-6.749l3.795,0.423c-1.897,0.105-14.76,7.168-14.76,7.168
		c-20.981,11.598-39.583,56.203-61.469,53.667c-21.825-2.53-19.083-24.566-9.383-28.783c9.7-4.217,20.244,0.421,20.244,0.421
		C485.883,208.426,478.292,213.487,478.292,220.657z M501.91,213.91c-7.169,16.87-22.353,9.277-18.135,3.373
		C487.993,211.379,501.91,213.91,501.91,213.91z M291.041,233.942c-12.02-11.387-9.489-42.385,22.774-51.874
		c32.263-9.489,51.844,1.334,82.871,14.55c34.161,14.55,44.283,10.754,44.283,10.754c-18.109-0.863-34.985-11.165-51.258-18.253
		c-18.989-8.269-35.987-16.01-56.918-15.275c-36.058,1.265-49.975,24.671-49.975,24.671c3.163-13.284,12.02-29.1,39.854-34.161
		c36.43-6.624,60.297,17.161,91.095,29.732c30.998,12.652,51.241,9.489,51.241,9.489l6.958-1.265
		c-36.691,24.671-69.586-2.53-103.115-13.285s-58.2-2.53-60.73,23.407c-2.53,25.937,22.774,32.263,22.774,32.263
		C316.978,246.594,303.061,245.329,291.041,233.942z M322.039,249.757c0,0,31.63,1.265,55.037-12.652
		c17.272-10.271,20.875-9.489,20.875-6.326S366.954,256.083,322.039,249.757z M370.328,223.609c-6.563,0-16.53,0.168-21.785-4.33
		c-4.056-3.472-4.546-9.51,2.211-12.038c5.646-2.109,15.67,2.836,20.839,4.56c16.448,5.482,29.521,10.965,29.521,10.965
		C390.149,221.921,384.246,223.609,370.328,223.609z M402.38,249.125c-8.224-2.53-6.326-12.652,6.958-18.979
		s29.732-3.163,29.732-3.163C419.46,235.84,412.222,252.152,402.38,249.125z M394.789,215.597
		c-15.089-4.904-30.41-11.836-38.589-13.918c-11.598-2.952-21.508,7.592-13.917,20.243c7.591,12.652,36.059,9.489,36.059,9.489
		c-13.149,4.931-31.657,5.92-42.354-4.916c-9.712-9.838-4.64-26.644,8.819-29.191c12.199-2.308,26.539,5.399,37.33,10.069
		c21.931,9.489,44.282,12.019,44.282,12.019c-25.304-3.795-50.462-21.762-72.539-25.726c-16.447-2.953-31.208,9.911-25.514,27.624
		c5.693,17.713,30.365,17.081,30.365,17.081c-32.263,6.959-42.385-12.02-43.65-21.509c-1.265-9.489,3.796-28.467,30.365-28.467
		s48.078,18.978,73.382,25.937s41.119,1.266,41.119,1.266C439.704,227.616,411.658,221.079,394.789,215.597z M574.133,245.329
		c-5.693-5.377-12.969-15.5-11.388-28.151c1.582-12.652,12.021-23.09,29.732-19.611c0,0-5.062-12.019-21.191-12.019
		c-16.132,0-26.254,7.591-41.753,24.671c-15.498,17.08-27.229,37.636-46.813,40.17c-17.923,2.319-28.15-12.968-21.825-24.039
		c0,0,0,15.499,20.56,17.397c15.94,1.471,26.932-13.282,36.156-24.42c15.401-18.598,29.951-37.259,51.964-37.37
		c14.055-0.071,24.444,7.248,29.545,20.67c0,0-14.866-4.428-24.039,3.479s-10.754,25.937,8.857,46.813
		c1.069,1.138,1.924,2.19,2.711,3.067C582.759,252.844,577.438,248.451,574.133,245.329z M588.788,372.904
		c6.749,0,7.169,3.374,7.169,3.374c-20.243,5.062-20.665,21.087-10.543,22.773s20.664-7.592,20.664-7.592
		c-4.638,5.905-12.755,15.378-23.704,14.706C560.968,404.856,573.632,372.904,588.788,372.904z M609.874,383.87
		c-5.257-0.439-21.984,17.047-25.439,9.15c-1.974-4.512,2.927-8.239,6.018-9.853c5.413-2.827,12.423-1.175,17.562-4.514
		c4.04-2.626,5.346-7.697,10.12-9.538c4.393-1.694,8.793,0.267,11.14,3.79c4.218,6.324,5.905,9.698,5.905,9.698
		c-10.966,0.421-17.713,14.34-17.713,14.34C618.73,386.822,614.936,384.292,609.874,383.87z M636.022,406.223
		c2.53,5.904-2.53,15.604-37.535,16.868c0,0,8.013-6.745,16.448-13.494C623.37,402.848,633.492,400.317,636.022,406.223z
		 M579.932,411.282c13.495,0.845,22.925-9.568,29.101-16.869c4.638-5.483,6.746,1.266-4.219,10.544
		c-12.523,10.596-37.112,15.182-37.533-3.375C567.28,401.582,568.988,410.599,579.932,411.282z M565.171,407.487
		c0,0,1.687,10.121,14.339,10.121c8.593,0,15.192-2.315,17.761-4.018c0.511-0.39,0.796-0.621,0.796-0.621
		c-0.193,0.192-0.465,0.401-0.796,0.621c-3.283,2.502-16.222,11.692-27.46,10.344C559.266,422.669,563.062,410.861,565.171,407.487z
		 M559.688,415.078c0,0-3.375,9.701,8.013,12.231c11.387,2.53,23.617-5.905,23.617-5.905s-10.964,13.074-26.568,13.074
		C549.145,434.479,552.098,420.561,559.688,415.078z M541.976,444.179l7.169-12.652c0,0-0.074,6.321,14.34,7.169
		c14.339,0.844,25.726-10.12,25.726-10.12c-5.062,6.325-8.856,15.604-8.856,15.604c-26.991-11.809-36.486,11.592-32.475,15.604
		c2.53,2.53,5.061,0.844,9.7-4.639c4.64-5.481,15.183-1.265,11.809,5.903c-3.374,7.169-18.135,8.015-25.726,1.688
		S541.976,444.179,541.976,444.179z M545.349,476.229c-4.698,0-12.006,0.837-13.903-5.457c-1.279-4.241,2.096-10.567,4.414-12.256
		l0.633,1.688c3.172,8.463,10.544,10.774,19.615,11.006c7.196,0.185,15.294-1.356,18.158-9.769
		c1.694-4.973,0.148-10.112-4.878-12.625c-8.435-4.216-16.025,4.218-16.025,4.218c2.951-9.278,22.352-14.34,29.1,4.217
		c4.877,13.411,11.387,18.978,11.387,18.978H545.349z M603.548,475.598c0,0,12.012-6.674,8.225-12.021
		c-3.584-5.061-6.536,4.64-13.918,1.266c-8.237-3.766-2.74-14.338,6.326-12.652c6.22,1.157,10.755,5.061,18.979,12.652
		s13.918,10.122,18.346,10.755H603.548z M682.877,472.038c-3.333,4.18-9.204,4.191-13.903,4.191h-9.756
		c0,0,8.436-0.842,13.917-6.326c5.547-5.547,5.328-11.387,5.328-11.387C682.75,461.334,686.275,467.779,682.877,472.038z
		 M648.253,473.277c-13.073-1.686-19.822-9.277-30.787-18.978c-10.966-9.701-24.039-6.747-26.57,1.687
		c-2.529,8.434,3.375,11.387,8.015,12.652c4.639,1.265,8.856-2.107,8.856-2.107s-2.953,6.326-10.545,4.216
		c-7.59-2.108-11.809-7.593-8.435-18.557s19.821-10.12,29.101-3.373c9.278,6.748,14.338,17.712,31.63,19.821
		c16.168,1.972,22.881-11.07,23.723-18.027C675.034,466.551,660.539,474.862,648.253,473.277z M666.388,437.431
		c0,0,8.599,16.759-6.326,23.616c-15.605,7.17-30.788-7.168-38.8-14.338c-8.013-7.17-15.184-6.748-15.184-6.748
		s6.748-2.952,20.244,5.482C639.818,453.879,660.482,454.721,666.388,437.431z M659.218,438.273
		c-5.482,8.856-16.446,10.543-32.052,2.531c-15.604-8.014-21.93-8.013-32.896-4.64c0,0,8.435-8.013,21.93-5.904
		c13.496,2.109,21.93,5.482,31.209-0.421c7.837-4.986,7.592-13.497,7.592-13.497S664.7,429.417,659.218,438.273z M649.518,406.223
		c0,0,5.062,11.385-2.108,18.134c-7.169,6.749-14.34,4.639-22.353,3.374c-8.013-1.266-14.761-1.687-14.761-1.687
		s5.531-0.885,13.493-2.109c10.968-1.686,19.641-8.304,17.052-16.973c-3.053-10.23-13.957-8.987-21.688-5.38
		c0,0,2.951-8.011,9.697-12.649C639.802,381.4,645.669,398.979,649.518,406.223z M644.035,243.431
		c-13.361,17.427-45.291,61.231-44.282,95.523c0.632,21.509,7.591,36.06,7.591,36.06c-27.201-34.162-22.773-64.526-18.978-86.035
		c1.739-9.857,4.502-21.468,2.296-31.469c-1.474-6.689-7.509-12.894-11.053-18.654c-7.691-12.505-10.185-32.572,10.021-33.381
		c15.816-0.633,19.612,15.182,19.612,15.182s-8.225-8.856-18.978-5.06c-10.755,3.795-8.225,15.814-1.898,25.937
		c6.325,10.122,12.811,16.194,7.591,32.896c-6.325,20.243-9.488,55.669-0.633,73.382c0,0-6.325-35.426,12.652-69.586
		c18.979-34.161,32.896-48.078,29.732-66.423c-3.162-18.346-20.243-10.122-23.406-3.163c0,0,1.266-16.448,15.815-17.081
		c14.55-0.633,16.448,17.713,13.917,28.467c-2.53,10.754-10.754,27.835-28.467,51.874c0,0-11.388,17.713-16.448,37.956
		c0,0,8.856-24.039,29.732-53.771s23.406-45.547,16.448-59.465c-6.959-13.917-32.264-13.917-35.427,13.917
		c0,0-6.326-26.569,14.551-34.161c20.876-7.591,36.058,5.061,37.956,20.876C664.278,213.066,658.585,224.453,644.035,243.431z
		 M620.629,209.271c17.713-7.592,12.652,13.284,0.633,34.161c-12.02,20.876-27.835,56.935-27.835,56.935
		c3.795-18.979,31.63-67.057,34.794-81.607C630.602,207.806,620.629,209.271,620.629,209.271z M621.895,213.066
		c6.326,2.531-1.898,15.815-10.122,33.528c-8.225,17.713-15.183,36.691-15.183,36.691s1.897-9.489,7.591-24.672
		c5.693-15.182,5.062-15.815,7.592-30.998C614.303,212.434,621.895,213.066,621.895,213.066z M594.059,240.268
		c-7.59-7.591-8.855-17.713-1.897-19.611c6.959-1.898,12.652,1.898,13.285,12.652c0.632,10.754-4.429,21.509-4.429,21.509
		S601.65,247.859,594.059,240.268z M143.011,192.401c-70.43,16.871-65.791,69.587-65.791,69.587
		c48.5-38.376,92.361-22.352,92.361-22.352c-7.592,13.495-70.008,17.713-70.008,17.713c21.931,64.104-21.087,150.138-21.087,150.138
		c86.035-10.122,156.887-6.326,156.887-6.326s26.318-59.796,34.161-113.869C277.546,232.045,221.498,173.602,143.011,192.401z
		 M204.585,319.768c-13.419,23.856-43.861,31.63-44.704-9.702c-0.844-41.329,14.76-68.321,14.76-68.321
		C205.851,248.07,219.768,292.775,204.585,319.768z"/>
</g>
</svg>
