<?xml version="1.0" encoding="utf-8"?>
<!-- Generator: Adobe Illustrator 16.0.0, SVG Export Plug-In . SVG Version: 6.00 Build 0)  -->
<!DOCTYPE svg PUBLIC "-//W3C//DTD SVG 1.1 Tiny//EN" "http://www.w3.org/Graphics/SVG/1.1/DTD/svg11-tiny.dtd">
<svg version="1.1" baseProfile="tiny" id="Layer_1" xmlns="http://www.w3.org/2000/svg" xmlns:xlink="http://www.w3.org/1999/xlink"
	 x="0px" y="0px" width="1000px" height="1000px" viewBox="0 0 1000 1000" xml:space="preserve">
<g>
	<g>
		<path d="M151.777,433.36l1.144-40.043c0.014-0.498-0.295-0.95-0.766-1.113c-0.484-0.17-12.079-4.159-30.204-4.159
			c-22.495,0-56.355,6.32-89.922,36.421c-0.354,0.315-0.474,0.817-0.304,1.26c0.168,0.443,0.594,0.735,1.068,0.735h4.351
			c-2.203,12.426-18.071,107.137-3.18,174.148c0.076,0.342,0.305,0.63,0.621,0.782c0.158,0.076,0.327,0.114,0.497,0.114
			c0.171,0,0.343-0.038,0.5-0.116l44.619-21.737c0.282-0.137,0.494-0.382,0.59-0.68c0.095-0.299,0.063-0.623-0.086-0.896
			c-0.198-0.364-19.813-36.637-30.219-85.982c8.17-5.271,17.348-7.941,27.29-7.941c26.687,0,50.539,19.272,50.776,19.467
			c0.272,0.224,0.631,0.311,0.97,0.232c0.342-0.074,0.63-0.302,0.784-0.616l14.491-29.747c0.137-0.279,0.152-0.603,0.045-0.894
			c-0.107-0.292-0.329-0.529-0.613-0.654c-0.195-0.085-19.619-8.505-40.738-8.505c-6.486,0-12.543,0.791-18.002,2.351
			c-18.96,5.414-31.109,13.926-36.564,18.416c-3.869-20.914-5.458-41.208-4.722-60.364c4.098-1.481,25.626-8.817,50.003-8.817
			c23.166,0,41.888,6.441,55.651,19.145c0.331,0.304,0.804,0.387,1.22,0.214C151.49,434.207,151.764,433.807,151.777,433.36z
			 M149.559,430.839c-14.004-12.015-32.611-18.106-55.354-18.106c-27.403,0-51.292,9.137-51.53,9.231
			c-0.424,0.163-0.71,0.563-0.729,1.019c-0.84,20.144,0.873,41.535,5.093,63.581c0.077,0.404,0.365,0.735,0.753,0.867
			c0.388,0.134,0.818,0.05,1.127-0.224c4.344-3.825,16.663-13.356,37.196-19.221c5.256-1.502,11.102-2.262,17.375-2.262
			c17.788,0,34.369,6.121,38.716,7.858l-13.341,27.387c-5.137-3.864-26.937-19.106-51.089-19.106
			c-10.664,0-20.489,2.943-29.204,8.749c-0.389,0.259-0.581,0.729-0.485,1.185c9.452,45.363,26.726,79.926,30.05,86.316
			l-42.248,20.581c-15.219-70.955,3.556-172.143,3.748-173.165c0.064-0.335-0.025-0.679-0.243-0.943
			c-0.217-0.262-0.54-0.413-0.88-0.413h-2.69c32.278-27.903,64.539-33.84,86.128-33.84c15.083,0,25.757,2.896,28.657,3.778
			L149.559,430.839z"/>
		<path d="M264.303,488.926c-3.438-18.163-18.403-28.578-41.062-28.578c-3.598,0-7.298,0.279-10.997,0.832
			c-0.434,0.064-0.792,0.371-0.923,0.788c-0.13,0.42-0.011,0.877,0.31,1.178c0.227,0.213,22.677,21.547,17.974,41.616
			c-5.413,23.09-16.686,32.135-39.225,45.484c-3.997-5.32-25.939-39.266,17.581-92.55c0.317-0.389,0.344-0.939,0.068-1.356
			c-0.278-0.42-0.795-0.606-1.275-0.465c-0.504,0.145-50.382,15.319-54.973,68.117c-2.063,23.715,4.983,45.701,19.839,61.905
			c12.981,14.158,30.275,21.957,48.698,21.957c5.069,0,10.198-0.605,15.24-1.803c0.232-0.055,0.441-0.182,0.599-0.363l25.933-29.745
			c0.31-0.354,0.37-0.863,0.152-1.278c-0.217-0.418-0.66-0.659-1.137-0.611c-0.048,0.006-4.937,0.52-12.018,0.52
			c-15.633,0-42.844-2.477-53.593-18.634c8.282-1.247,35.571-12.938,36.892-13.581C256.484,530.629,268.416,510.652,264.303,488.926
			z M194.283,553.759c-0.197,0-0.272-0.021-0.275-0.022c0.053,0.016,0.215,0.098,0.34,0.311l-1.996,1.122
			c10.411,18.875,40.015,21.692,56.735,21.692c4.001,0,7.273-0.156,9.428-0.3l-23.841,27.346c-4.755,1.103-9.583,1.658-14.356,1.658
			c-17.773,0-34.469-7.534-47.012-21.215c-14.417-15.726-21.251-37.09-19.246-60.162c3.717-42.744,38.05-60.097,49.583-64.75
			c-44.821,57.478-14.71,92.704-14.395,93.059c0.363,0.409,0.967,0.505,1.437,0.226c23.686-13.968,35.467-23.201,41.148-47.438
			c4.273-18.232-11.619-36.593-16.969-42.148c2.823-0.333,5.632-0.501,8.378-0.501c10.149,0,34.25,2.604,38.814,26.714
			c3.908,20.652-7.558,39.699-30.67,50.952C228.278,541.813,199.507,553.759,194.283,553.759z"/>
		<path d="M387.004,447.062c-0.069-0.007-1.726-0.177-4.67-0.177c-8.24,0-29.7,1.431-53.1,14.48
			c-1.182-3.891-4.81-14.564-9.832-17.579c-0.371-0.224-0.837-0.215-1.201,0.013l-34.323,21.738
			c-0.293,0.188-0.486,0.496-0.524,0.84c-0.039,0.346,0.082,0.69,0.327,0.937c0.356,0.357,35.555,36.972,27.128,137.528
			c-0.045,0.523,0.273,1.01,0.77,1.181c0.122,0.04,0.247,0.06,0.369,0.06c0.38,0,0.746-0.189,0.96-0.522
			c0.327-0.505,32.471-51.265,20.323-130.378c1.576-0.682,5.759-2.172,12.186-2.172c7.548,0,19.869,2.115,35.706,12.194
			c0.33,0.209,0.741,0.239,1.093,0.073c0.353-0.163,0.6-0.492,0.655-0.878l5.148-36.039c0.043-0.306-0.04-0.619-0.231-0.865
			C387.596,447.25,387.313,447.093,387.004,447.062z M380.853,482.336c-12.538-7.708-24.451-11.615-35.436-11.615
			c-8.937,0-13.805,2.682-14.008,2.796c-0.417,0.235-0.644,0.702-0.57,1.173c10.279,65.407-10.023,111.297-17.354,125.209
			c6.268-88.711-21.695-126.577-27.247-133.149l32.55-20.614c4.121,3.171,7.609,13.394,8.644,17.232
			c0.093,0.345,0.338,0.624,0.667,0.76c0.328,0.137,0.701,0.112,1.008-0.064c23.412-13.44,45.022-14.891,53.226-14.891
			c1.393,0,2.49,0.041,3.246,0.081L380.853,482.336z"/>
		<path d="M465.543,457.827c-1.405,0-2.158,0.108-2.158,0.108c-0.324,0.044-0.617,0.226-0.798,0.498l-6.864,10.297
			c-5.331,7.996-12.123,17.133-14.809,20.706c-10.956-24.005-28.602-36.333-28.783-36.459c-0.406-0.277-0.94-0.265-1.334,0.027
			c-0.392,0.295-0.555,0.807-0.401,1.271c21.404,65.338,11.497,142.874,11.394,143.649c-0.044,0.326,0.056,0.657,0.273,0.903
			c0.217,0.247,0.531,0.391,0.86,0.391h36.611c0.015-0.002,0.03-0.002,0.046,0c0.631,0,1.144-0.512,1.144-1.144
			c0-0.112-0.016-0.219-0.045-0.322c-0.051-57.112-13.432-96.148-15.307-101.33c1.895-2.661,3.557-5.242,5.166-7.743
			c5.926-9.208,10.208-15.863,19.038-15.863c1.42,0,2.965,0.179,4.592,0.527c15.293,3.276,26.564,24.806,29.419,56.187
			c2.808,30.9-6.173,66.76-6.262,67.116c-0.087,0.343-0.011,0.707,0.206,0.983c0.217,0.279,0.55,0.443,0.903,0.443h44.046
			c0.591,0,1.085-0.45,1.141-1.037c0.069-0.731,6.561-73.539-23.735-107.836C494.171,460.091,471.79,457.827,465.543,457.827z
			 M541.426,595.786h-41.542c1.642-7.026,8.507-38.686,5.982-66.46c-2.947-32.416-14.909-54.726-31.218-58.221
			c-1.785-0.382-3.491-0.576-5.072-0.576c-10.079,0-14.882,7.462-20.962,16.913c-1.694,2.631-3.445,5.352-5.452,8.141
			c-0.226,0.313-0.278,0.719-0.139,1.078c0.152,0.398,15.177,40.081,15.366,100.269h-34.175
			c1.179-10.266,8.128-79.447-10.518-139.828c5.532,4.622,17.856,16.371,25.912,35.026c0.161,0.373,0.508,0.632,0.912,0.681
			c0.4,0.063,0.803-0.118,1.049-0.442c0.091-0.12,9.253-12.158,16.058-22.368l6.561-9.84c0.313-0.022,0.769-0.042,1.356-0.042
			c6.005,0,27.546,2.208,52.626,30.6C545.854,522.06,542.096,586.806,541.426,595.786z"/>
		<path d="M640.84,574.05c-3.879,0-38.088-0.874-44.42-31.126c-7.033-33.604,3.369-65.691,27.826-85.833
			c0.389-0.32,0.523-0.854,0.332-1.316c-0.191-0.465-0.632-0.735-1.16-0.707c-0.521,0.047-52.126,5.435-56.718,71.995
			c-2.524,36.633,8.145,56.321,17.538,66.386c9.381,10.051,21.96,15.586,35.421,15.586c2.666,0,5.315-0.23,7.874-0.682
			c0.38-0.067,0.701-0.321,0.854-0.675l13.729-32.034c0.15-0.355,0.003-0.76-0.21-1.081
			C641.696,574.242,641.225,574.05,640.84,574.05z M626.528,606.203c-2.24,0.359-4.548,0.543-6.869,0.543
			c-12.82,0-24.804-5.278-33.746-14.857c-13.029-13.961-18.885-36.322-16.929-64.669c3.699-53.652,38.639-66.355,50.627-69.142
			c-22.836,20.791-32.331,52.353-25.431,85.314c6.181,29.531,37.183,32.613,45.16,32.914L626.528,606.203z"/>
		<path d="M637.645,452.085c-0.469-0.18-0.994-0.022-1.301,0.373l-25.932,33.559c-0.224,0.289-0.295,0.664-0.194,1.012
			c0.098,0.349,0.358,0.63,0.697,0.758c0.362,0.136,36.351,13.875,49.725,39.877c11.586,22.527-9.19,59.567-16.017,71.737
			c-1.198,2.134-1.988,3.544-2.324,4.324c-0.192,0.453-0.076,0.979,0.29,1.304c0.215,0.192,0.488,0.29,0.763,0.29
			c0.194,0,0.391-0.048,0.566-0.148c0.435-0.248,43.291-25.329,42.526-75.76C685.768,484.763,652.649,457.614,637.645,452.085z
			 M646.509,600.718c0.035-0.065,0.071-0.13,0.11-0.198c7.713-13.751,28.203-50.278,16.055-73.902
			c-12.389-24.088-42.493-37.532-49.52-40.407l24.479-31.679c14.878,5.989,45.876,32.202,46.523,74.916
			C684.767,569.704,656.792,593.386,646.509,600.718z"/>
		<path d="M722.212,496.49c4.975-4.505,20.214-16.485,41.522-16.485c15.059,0,30.263,5.899,45.185,17.53
			c0.297,0.233,0.69,0.302,1.053,0.188c0.359-0.116,0.639-0.402,0.749-0.764l10.678-35.848c0.111-0.373,0.025-0.779-0.232-1.075
			c-0.51-0.593-12.84-14.496-40.335-14.496c-2.579,0-5.244,0.128-7.924,0.376c-27.002,2.512-43.933,26.213-55.137,41.897
			c-2.558,3.578-4.765,6.67-6.64,8.833c-0.25,0.288-0.339,0.685-0.236,1.054c0.103,0.369,0.382,0.664,0.747,0.782
			c0.69,0.226,68.745,23.107,75.379,81.907c-2.175,0.429-7.785,1.376-15.011,1.376c-15.408,0-36.708-4.165-50.689-24.012
			c-0.263-0.374-0.724-0.565-1.166-0.46c-0.446,0.091-0.795,0.438-0.889,0.885l-9.153,43.475c-0.118,0.561,0.196,1.121,0.74,1.313
			c0.145,0.052,14.819,5.158,32.585,5.158c19.736,0,35.443-5.976,46.735-17.767v6.953c0,0.429,0.242,0.823,0.624,1.02
			c0.386,0.191,0.843,0.158,1.191-0.092l35.849-25.934c0.281-0.204,0.455-0.525,0.471-0.874
			C828.339,570.785,830.106,507.129,722.212,496.49z M792.462,595.073v-7.679c0-0.478-0.297-0.906-0.747-1.072
			c-0.442-0.167-0.951-0.036-1.265,0.327c-10.956,12.731-26.774,19.188-47.013,19.188c-14.801,0-27.396-3.62-30.874-4.717
			l8.415-39.973c14.529,18.866,35.63,22.907,51.031,22.907c9.59,0,16.246-1.58,16.525-1.646c0.557-0.135,0.928-0.657,0.87-1.229
			c-5.591-55.923-64.991-80.413-75.483-84.31c1.688-2.097,3.58-4.744,5.709-7.728c10.963-15.345,27.527-38.535,53.486-40.948
			c2.61-0.244,5.204-0.366,7.714-0.366c23.665,0,35.842,10.915,38.186,13.264l-10.015,33.62
			c-14.913-11.277-30.136-16.995-45.268-16.995c-27.136,0-44.775,18.712-44.952,18.899c-0.295,0.319-0.384,0.782-0.228,1.188
			c0.156,0.407,0.531,0.691,0.966,0.729c102.759,9.213,106.419,66.106,106.506,72.257L792.462,595.073z"/>
		<path d="M970.008,447.987c-0.196-0.325-0.54-0.53-0.918-0.547c-0.042-0.002-4.149-0.206-10.826-0.206
			c-12.498,0-31.46,0.67-51.445,3.825c-0.21-5.99-0.791-31.761,3.832-50.252c0.13-0.516-0.116-1.055-0.592-1.298
			c-0.477-0.237-1.056-0.123-1.396,0.289c-0.154,0.185-15.372,18.761-25.242,57.782c-4.694,1.36-32.543,9.597-44.632,16.71
			c-0.474,0.279-0.682,0.856-0.496,1.374c0.189,0.516,0.722,0.84,1.26,0.74c0.161-0.024,16.118-2.601,28.146-2.601
			c6.143,0,9.255,0.674,10.833,1.352c-1.453,9.166-13.45,90.964,12.484,134.186c0.214,0.358,0.592,0.557,0.981,0.557
			c0.18,0,0.363-0.042,0.536-0.132l38.898-20.594c0.538-0.285,0.758-0.944,0.501-1.497c-0.279-0.597-27.678-59.773-25.869-112.725
			c5.139,0.281,26.825,1.899,46.527,9.778c0.558,0.229,1.21-0.031,1.465-0.584l16.018-35.084
			C970.23,448.711,970.207,448.311,970.008,447.987z M952.426,482.205c-22.539-8.749-47.179-9.589-47.429-9.598
			c-0.575-0.027-1.151,0.471-1.178,1.095c-2.113,50.028,21.966,105.858,25.59,113.95l-36.981,19.578
			c-26.171-45.142-11.657-131.649-11.506-132.522c0.078-0.466-0.134-0.933-0.54-1.176c-2.262-1.355-6.412-2.017-12.684-2.017
			c-7.237,0-15.855,0.916-21.709,1.667c14.625-6.677,38.419-13.505,38.696-13.586c0.393-0.112,0.694-0.424,0.795-0.822
			c7.003-28.019,16.779-45.419,21.756-53.027c-3.891,20.676-2.668,46.424-2.652,46.706c0.016,0.325,0.17,0.628,0.422,0.832
			c0.253,0.204,0.586,0.299,0.903,0.239c20.302-3.305,39.675-4,52.354-4c4.111,0,7.233,0.079,9.019,0.136L952.426,482.205z"/>
	</g>
	<g>
		<path d="M86.746,470.188c-12.799,3.656-22.315,8.75-28.629,12.926c6.171-2.35,12.747-3.538,19.659-3.538
			c22.483,0,42.445,12.386,50.237,17.919l11.042-22.669c-6.257-2.295-20.486-6.813-35.565-6.813
			C97.43,468.013,91.795,468.743,86.746,470.188z"/>
		<path d="M45.923,492.897l-1.129-5.901c-3.063-15.998-4.814-31.657-5.24-46.758c-4.465,29.898-12.856,100.788-2.021,155.112
			l37.508-18.271c-5.022-10.007-20.309-42.559-29.07-84.224L45.923,492.897z"/>
		<path d="M47.311,417.953c8.673-2.744,26.649-7.508,46.895-7.508c21.396,0,39.251,5.287,53.199,15.733l0.867-30.354
			c-4.188-1.122-13.657-3.202-26.32-3.202C102.979,392.622,75.608,397.299,47.311,417.953z"/>
		<path d="M190.35,556.272l6.003-3.33c-0.148-0.252-0.314-0.465-0.485-0.641c-1.31,0.789-2.649,1.584-4.02,2.394l-2.436,1.437
			l-1.875-2.116c-1.285-1.448-29.286-34.204,9.037-88.883c-14.319,7.501-37.234,24.758-40.234,59.255
			c-1.95,22.424,4.675,43.169,18.654,58.417c12.104,13.202,28.201,20.473,45.325,20.473c4.36,0,8.77-0.482,13.123-1.436
			l19.832-22.748C237.272,579.511,202.285,577.911,190.35,556.272z"/>
		<path d="M223.242,464.925c-1.186,0-2.384,0.033-3.591,0.096c6.917,8.086,18.255,24.38,14.41,40.788
			c-5.406,23.063-16.996,33.394-35.08,44.592c9.428-2.879,28.36-10.677,31.405-12.156c22.128-10.772,33.127-28.89,29.422-48.467
			C255.562,467.347,232.821,464.925,223.242,464.925z"/>
		<path d="M330.246,466.049l-3.86,2.217l-1.162-4.3c-1.286-4.76-4.02-11.767-6.718-14.941l-28.84,18.264
			c7.93,10.205,29.793,45.456,26.761,120.975c8.548-20.273,20.473-60.27,12.152-113.219l-0.37-2.354l2.079-1.169
			c0.562-0.314,5.761-3.088,15.13-3.088c10.533,0,21.834,3.424,33.656,10.185l3.879-27.154c-0.198-0.002-0.405-0.002-0.618-0.002
			C374.313,451.461,353.181,452.883,330.246,466.049z"/>
		<path d="M465.543,462.404c-0.035,0-0.069,0-0.104,0l-5.644,8.466c3.981-2.409,9.074-3.34,15.331-2.002
			c17.325,3.712,29.977,26.799,33.018,60.25c2.333,25.659-3.053,53.81-5.386,64.379h36.526
			c0.849-14.093,2.656-72.412-22.831-101.267C492.007,464.556,471.306,462.404,465.543,462.404z"/>
		<path d="M440.772,497.187l-0.941,1.233l-2.325-5.385c-5.633-13.045-13.405-22.628-19.328-28.662
			c14.861,55.001,10.18,114.693,8.583,130.269h29.324c-0.553-58.41-15.05-96.769-15.199-97.158L440.772,497.187z"/>
		<path d="M591.941,543.862c-6.394-30.544,0.975-59.935,19.784-81.063c-14.598,5.727-37.49,21.53-40.461,64.579
			c-1.907,27.697,3.734,49.463,16.319,62.949c11.478,12.293,25.022,14.131,32.075,14.131c1.775,0,3.542-0.114,5.271-0.336
			l11.035-25.748C624.49,577.306,597.789,571.805,591.941,543.862z"/>
		<path d="M638.356,457.338l-21.585,27.932c10.313,4.579,36.45,17.964,47.938,40.302c10.337,20.099-1.575,48.531-10.623,66.004
			c11.983-11.093,28.242-31.776,27.781-62.096C681.26,489.348,653.253,464.239,638.356,457.338z"/>
		<path d="M807.735,490.945l8.692-29.178c-3.599-3.265-14.865-11.651-35.597-11.651c-2.438,0-4.964,0.12-7.501,0.355
			c-24.918,2.317-41.116,24.995-51.835,40c-0.342,0.479-0.677,0.945-1.005,1.406c6.481-5.573,21.871-16.448,43.244-16.448
			C778.479,475.43,793.26,480.646,807.735,490.945z"/>
		<path d="M730.987,502.109c21.86,11.53,56.438,36.271,60.694,78.843l0.07,0.678l2.998-3.485v12.447l28.978-20.963
			C823.37,560.209,817.187,513.646,730.987,502.109z"/>
		<path d="M772.01,586.343c-14.869,0-34.894-3.661-49.764-20.107l-7.01,33.295c4.954,1.41,15.789,4.018,28.201,4.018
			c19.544,0,34.776-6.187,45.279-18.393l0.476-0.554l-0.121,0.029C788.783,584.7,781.87,586.343,772.01,586.343z"/>
		<path d="M901.677,470.219l3.39,0.103c1.008,0.028,23.898,0.813,46.166,8.985l12.531-27.447c-1.538-0.027-3.386-0.049-5.5-0.049
			c-12.594,0-31.836,0.69-51.986,3.971l-3.787,0.617l-0.192-3.832c-0.047-0.947-0.856-17.939,0.994-35.482
			c-4.874,9.345-10.867,23.34-15.592,42.246l-0.481,1.922l-1.905,0.545c-0.192,0.054-11.738,3.37-23.595,7.598
			c2.029-0.105,4.047-0.168,5.979-0.168c6.793,0,11.197,0.747,13.86,2.344l2.016,1.208l-0.397,2.317
			c-0.147,0.854-14.111,84.162,10.153,129.066l33.114-17.529c-5.694-12.965-26.944-64.87-24.911-113.027L901.677,470.219z"/>
	</g>
	<g>
		<path d="M213.182,479.107c-0.329-0.051-0.653,0.029-0.908,0.23c-0.228,0.181-22.752,18.563-19.306,57.059
			c0.034,0.373,0.25,0.707,0.576,0.893c0.174,0.1,0.369,0.148,0.563,0.148c0.171,0,0.342-0.038,0.5-0.116
			c0.804-0.391,19.765-9.782,24.898-27.503c2.78-9.592,0.913-19.749-5.548-30.186C213.787,479.354,213.504,479.163,213.182,479.107z
			 M217.314,509.171c-4.03,13.93-17.644,22.685-22.205,25.281c-2.204-31.48,13.475-48.53,17.609-52.445
			C218.25,491.45,219.797,500.583,217.314,509.171z"/>
		<path d="M651.217,531.934c-9.218-16.902-38.895-31.879-40.152-32.51c-0.286-0.141-0.617-0.157-0.918-0.047
			c-0.3,0.114-0.536,0.349-0.655,0.646c-0.507,1.266-12.276,31.293,0.864,51.389c8.182,12.507,22.06,15.132,32.265,15.132
			c5.842,0,9.951-0.874,10.123-0.911c0.355-0.076,0.652-0.317,0.802-0.647C653.835,564.341,660.535,549.017,651.217,531.934z
			 M651.672,563.508c-1.311,0.234-4.707,0.748-9.052,0.748c-9.64,0-22.729-2.443-30.347-14.096
			c-11.067-16.924-3.126-42.337-1.095-48.1c5.587,2.947,30.142,16.504,38.031,30.969
			C657.024,547.358,652.731,560.701,651.672,563.508z"/>
	</g>
	<g>
		<path d="M160.42,469.747c-14.551-9.702-32.131-14.621-52.25-14.621c-23.161,0-42.863,6.693-48.125,8.648
			c-1.737-13.407-0.847-25.579-0.613-28.258c8.987-5.642,19.583-8.505,31.504-8.505c35.445,0,71.641,25.3,72.003,25.555
			c0.341,0.241,0.792,0.274,1.167,0.091c0.376-0.188,0.621-0.564,0.636-0.985l2.288-63.307c0.018-0.472-0.258-0.905-0.692-1.093
			c-12.587-5.394-26.054-8.129-40.025-8.129c-49.135,0-91.013,33.142-97.86,42.044c-2.694,3.501-3.551,6.121-2.624,8.004
			c0.745,1.513,2.54,2.313,5.188,2.313c0.01,0,0.021,0,0.03,0c-29.166,176.103,3.492,186.393,4.9,186.746
			c0.091,0.022,0.185,0.034,0.277,0.034c0.191,0,0.381-0.047,0.551-0.141l61.018-33.559c0.539-0.298,0.748-0.965,0.473-1.515
			c-22.805-45.609-29.69-77.947-30.941-84.591c43.917-1.731,70.069,22.392,70.319,22.629c0.271,0.255,0.648,0.355,1.017,0.286
			c0.365-0.075,0.67-0.323,0.818-0.666l21.355-49.578C161.055,470.645,160.879,470.053,160.42,469.747z M137.997,518.39
			c-5.779-4.792-31.763-24.154-72.083-22.137c-0.324,0.015-0.625,0.167-0.83,0.419c-0.204,0.251-0.292,0.577-0.244,0.899
			c0.054,0.342,5.596,34.653,30.889,85.538l-59.57,32.762c-3.48-1.832-29.93-21.549-2.619-185.408
			c0.061-0.359-0.056-0.724-0.31-0.985c-0.216-0.224-0.514-0.347-0.82-0.347c-0.052,0-0.106,0.005-0.159,0.011
			c-0.031,0.004-0.544,0.074-1.235,0.074c-1.644,0-2.816-0.387-3.136-1.037c-0.225-0.456-0.444-1.919,2.387-5.598
			c6.442-8.375,48.46-41.151,96.045-41.151c13.393,0,26.309,2.569,38.403,7.64l-2.186,60.464
			c-7.705-5.052-39.877-24.812-71.594-24.812c-12.575,0-23.749,3.083-33.211,9.166c-0.292,0.187-0.482,0.498-0.518,0.842
			c-0.016,0.147-1.516,14.816,0.767,30.79c0.05,0.351,0.259,0.656,0.565,0.833c0.307,0.17,0.675,0.197,1.004,0.063
			c0.218-0.089,22.11-9.003,48.626-9.003c19.293,0,36.172,4.612,50.186,13.714L137.997,518.39z"/>
		<path d="M278.77,504.259c0-39.739-26.958-53.497-44.007-52.667c-3.063-4.795-6.845-6.854-12.523-6.854
			c-2.139,0-4.371,0.275-6.733,0.567c-0.989,0.121-2.002,0.246-3.038,0.355c-24.903,2.595-47.778,24.698-59.4,45.455
			c-15.065,26.902-14.153,61.137,2.383,89.348c15.635,26.675,41.715,41.976,71.553,41.976c5.391,0,10.943-0.505,16.502-1.502
			c0.267-0.048,0.509-0.189,0.681-0.4l32.034-38.898c0.085-0.101,0.151-0.217,0.194-0.342c0.093-0.259,2.23-6.406-1.152-11.206
			c-2.457-3.486-7.097-5.253-13.79-5.253c-0.705,0-1.441,0.02-2.212,0.06c-2.295,0.121-4.61,0.182-6.881,0.182
			c-11.676,0-20.397-1.612-24.849-2.666C239.352,557.558,278.77,538.771,278.77,504.259z M223.485,561.523
			c-0.465,0.158-0.777,0.597-0.775,1.088c0.002,0.49,0.316,0.925,0.782,1.081c0.451,0.15,11.227,3.674,28.887,3.674
			c2.312,0,4.667-0.063,7.002-0.185c7.181-0.375,11.771,1.061,14.003,4.214c2.423,3.426,1.22,8.009,0.932,8.958l-31.626,38.405
			c-5.288,0.923-10.563,1.393-15.686,1.393c-29.004,0-54.365-14.89-69.579-40.846c-16.126-27.512-17.031-60.877-2.362-87.073
			c11.335-20.24,33.555-41.787,57.642-44.297c1.051-0.11,2.078-0.235,3.081-0.36c2.291-0.281,4.455-0.549,6.453-0.549
			c3.704,0,7.591,0.768,10.93,6.335c0.222,0.368,0.621,0.594,1.062,0.553c0.627-0.044,1.271-0.066,1.932-0.066
			c16.208,0,40.319,13.425,40.319,50.411C276.482,543.013,224.015,561.345,223.485,561.523z"/>
		<path d="M460.712,445.911c-0.348,0.029-0.704,0.15-0.93,0.432l-16.785,21.119c-4.565-6.338-25.992-34.783-49.925-45.475
			c-0.427-0.19-0.931-0.103-1.265,0.224c-0.336,0.328-0.438,0.827-0.258,1.26c0.025,0.063,2.462,6.011,2.263,12.156
			c-6.07,0.1-35.314,1.135-55.168,11.637c-2.056-3.096-8.495-12.271-13.292-13.337c-4.03-0.872-12.085,4.578-27.846,15.277
			c-6.636,4.504-14.895,10.111-24.508,16.341c-0.277,0.181-0.463,0.472-0.51,0.797c-0.047,0.329,0.05,0.659,0.266,0.91
			c0.419,0.487,41.861,49.882,30.05,142.69c-0.042,0.326,0.059,0.654,0.277,0.9c0.216,0.248,0.529,0.389,0.857,0.389h23.454
			c0.442,0,0.844-0.254,1.034-0.652c0.285-0.599,28.215-60.098,21.997-119.885c2.657,0.366,9.139,1.453,19.564,4.371
			c11.291,3.162,19.812,3.503,22.95,3.503c0.948,0,1.451-0.031,1.451-0.031c0.533-0.031,0.975-0.426,1.062-0.954l6.192-37.148
			c3.52,9.53,12.004,36.88,11.557,78.134c-0.564,51.935-1.136,62.2-1.141,62.458c0.012,0.152,1.437,15.353,19.446,15.353h22.752
			c0.448,0.099,1.863,0.37,3.742,0.37c5.179,0,14.123-2.034,15.828-15.673c2.409-19.274-2.088-59.592-15.327-99.531
			c1.381-2.212,7.863-12.116,14.576-14.514c6.751-2.431,21.934,12.634,22.498,45.279c0.65,37.703-5.34,59.087-7.945,66.53
			c-4.017,11.479-2.995,15.225-2.864,15.612c0.155,0.468,0.592,0.782,1.084,0.782h70.361c0.6,0,1.096-0.459,1.14-1.057
			c0.04-0.522,3.891-52.715-7.477-91.933C537.788,480.558,498.625,447.026,460.712,445.911z M555.14,612.946h-68.286
			c-0.064-1.548,0.186-5.494,2.935-13.351c2.646-7.56,8.729-29.253,8.072-67.327c-0.529-30.767-14.068-47.785-23.224-47.785
			c-0.817,0-1.601,0.132-2.33,0.393c-8.303,2.965-15.733,15.412-16.046,15.941c-0.167,0.284-0.205,0.627-0.099,0.942
			c13.26,39.785,17.782,79.933,15.395,99.031c-1.413,11.3-8.153,13.671-13.558,13.671c-1.944,0-3.323-0.333-3.336-0.337
			c-0.091-0.023-0.185-0.034-0.276-0.034h-22.882c-15.857,0-17.119-12.71-17.164-13.09c0.006-0.098,0.581-10.354,1.147-62.406
			c0.568-52.282-13.124-82.565-13.262-82.868c-0.189-0.408-0.598-0.664-1.04-0.664c-0.05,0-0.102,0.002-0.151,0.011
			c-0.499,0.067-0.894,0.45-0.977,0.945l-6.709,40.257c-2.667,0-11.185-0.178-22.744-3.417c-14.242-3.988-21.094-4.592-21.379-4.614
			c-0.339-0.024-0.678,0.099-0.916,0.342c-0.238,0.246-0.354,0.585-0.316,0.928c6.368,56.25-18.3,112.75-21.333,119.426h-21.425
			c10.501-85.698-24.116-134.64-29.933-142.165c9.181-5.969,17.09-11.339,23.489-15.682c13.288-9.021,22.066-14.981,25.608-14.981
			c0.17,0,0.322,0.016,0.457,0.045c3.84,0.853,10.282,9.837,12.439,13.227c0.328,0.511,0.995,0.679,1.519,0.386
			c21.224-11.729,55.733-11.87,56.079-11.87c0.596,0,1.09-0.456,1.14-1.048c0.374-4.489-0.637-8.918-1.454-11.624
			c25.264,12.654,47.195,44.449,47.421,44.78c0.204,0.299,0.54,0.485,0.902,0.499c0.361-0.009,0.71-0.15,0.938-0.431l17.375-21.861
			c36.799,1.406,74.694,34.084,86.458,74.668C558.033,558.621,555.619,605.36,555.14,612.946z"/>
		<path d="M762.43,494.682c1.986-0.209,3.952-0.317,5.879-0.317c15.452,0,25.813,6.615,32.668,10.992
			c2.078,1.324,3.72,2.373,5.132,3.001c1.752,0.778,3.771,1.188,5.845,1.188c6.261,0,14.496-3.913,17.104-14.998
			c4.074-17.32,6.118-26.012,6.118-34.525c0-8.06-26.995-22.484-53.56-22.484c-4.999,0-9.776,0.517-14.198,1.538
			c-23.331,5.385-42.767,28.988-54.38,43.091c-3.386,4.111-6.058,7.356-7.912,9.043c-3.218,2.925-6.545,4.469-9.624,4.469
			c-1.627,0-2.771-0.434-3.247-0.655c-15.827-30.711-34.365-44.647-38.476-46.704c-0.671-0.334-0.711-0.686-0.728-0.833
			c-0.178-1.589,2.674-4.706,4.754-6.411c0.382-0.313,0.52-0.833,0.344-1.294c-0.177-0.46-0.555-0.749-1.12-0.735
			c-57.359,2.531-94.55,35.996-99.479,89.515c-5.693,61.83,29.024,87.389,50.438,92.743c6.947,1.735,12.489,2.58,16.943,2.58
			c9.644,0,12.526-4.092,15.069-7.703l0.469-0.661c2.371-3.319,4.746-3.664,5.827-3.508c0.523,1.136,2.036,3.102,6.239,3.102
			c1.41,0,3.033-0.228,4.822-0.675c10.29-2.574,27.094-21.514,37.403-48.757c9.278-24.518,3.692-51.024,1.991-57.813
			c52.48,6.391,73.941,57.593,77.061,65.816c-1.233,0.314-2.559,0.474-3.955,0.474c-11.541,0-26.558-10.784-36.494-17.919
			c-2.714-1.948-5.055-3.632-7.02-4.894c-2.349-1.511-4.602-2.274-6.689-2.274c-6.857,0-9.41,7.9-9.531,8.292l-12.202,47.287
			c-0.101,0.394,0.014,0.809,0.299,1.095c9.859,9.858,24.569,14.857,43.722,14.854c8.136,0,15.623-0.891,20.548-1.563
			c9.587-1.307,15.236-4.531,19.358-6.889c3.006-1.717,5-2.834,6.867-2.297c0.92,0.263,1.767,0.599,2.591,0.922
			c1.654,0.648,3.366,1.32,5.356,1.32c3.202,0,6.496-1.711,10.684-5.55c4.335-3.973,9.598-7.995,14.238-11.544
			c5.22-3.99,9.728-7.437,11.799-9.923c0.297-0.358,0.651-0.749,1.046-1.181c4.821-5.305,14.853-16.346-1.694-45.121
			C818.071,513.275,777.021,499.048,762.43,494.682z M832.734,582.358c-0.415,0.461-0.793,0.876-1.107,1.254
			c-1.911,2.292-6.322,5.664-11.432,9.572c-4.681,3.578-9.984,7.633-14.396,11.676c-4.838,4.433-7.533,4.946-9.138,4.946
			c-1.558,0-2.929-0.538-4.518-1.162c-0.892-0.351-1.809-0.707-2.8-0.991c-2.659-0.765-5.288,0.597-8.632,2.51
			c-3.96,2.264-9.386,5.362-18.531,6.609c-4.86,0.661-12.243,1.541-20.24,1.541c-18.221,0.002-32.228-4.618-41.638-13.729
			l12.021-46.592c0.021-0.067,2.135-6.632,7.33-6.632c1.644,0,3.479,0.643,5.452,1.913c1.915,1.229,4.233,2.896,6.922,4.825
			c10.784,7.743,25.552,18.349,37.829,18.349c2.084,0,4.042-0.315,5.82-0.938c0.59-0.206,0.905-0.847,0.709-1.441
			c-0.209-0.626-21.517-62.554-81.056-68.658c-0.38-0.045-0.756,0.114-0.999,0.409c-0.243,0.294-0.324,0.69-0.212,1.057
			c0.089,0.301,8.923,30.459-1.499,57.997c-10.947,28.926-27.845,45.353-35.817,47.345c-1.609,0.403-3.046,0.607-4.269,0.607
			c-3.763,0-4.23-1.919-4.243-1.972c-0.064-0.396-0.333-0.728-0.704-0.874c-0.118-0.05-0.758-0.284-1.751-0.284
			c-1.836,0-4.577,0.78-7.232,4.494l-0.478,0.677c-2.438,3.462-4.739,6.73-13.196,6.73c-4.264,0-9.625-0.822-16.389-2.514
			c-20.705-5.178-54.266-30.023-48.713-90.312c4.796-52.073,39.053-83.739,94.165-87.27c-1.646,1.737-3.449,4.152-3.218,6.237
			c0.09,0.791,0.503,1.89,1.978,2.627c3.743,1.873,22.205,15.945,37.63,46.026c0.097,0.184,0.236,0.338,0.414,0.448
			c0.073,0.046,1.834,1.126,4.703,1.126c2.55,0,6.556-0.878,11.161-5.064c1.978-1.796,4.699-5.101,8.141-9.282
			c11.43-13.879,30.556-37.106,53.129-42.315c4.254-0.98,8.859-1.479,13.684-1.479c26.895,0,51.271,14.538,51.271,20.196
			c0,8.247-2.025,16.854-6.072,34.061c-2.287,9.725-9.436,13.175-14.861,13.175c-1.756,0-3.454-0.342-4.916-0.992
			c-1.256-0.559-2.911-1.615-4.828-2.838c-6.65-4.246-17.781-11.352-33.9-11.352c-3.744,0-7.626,0.387-11.533,1.144
			c-0.524,0.103-0.909,0.557-0.924,1.093c-0.016,0.534,0.344,1.008,0.861,1.14c0.568,0.145,56.938,14.729,74.038,44.463
			C846.468,567.249,837.192,577.454,832.734,582.358z"/>
		<path d="M980.643,442.139c-1.926-2.625-4.762-4.176-8.427-4.607c-4.522-0.534-9.688-0.805-15.355-0.805
			c-9.334,0-20.444,0.715-33.934,2.183c0.186-5.68,1.026-28.233,2.987-37.379c0.126-0.59-0.228-1.178-0.811-1.341l-19.069-5.338
			c-0.456-0.127-0.938,0.036-1.221,0.411c-0.167,0.221-16.811,22.395-25.954,54.696c-3.773,1.189-24.501,7.956-43.123,18.994
			c-0.446,0.263-0.66,0.793-0.52,1.292l5.339,19.069c0.149,0.539,0.63,0.896,1.229,0.829c0.114-0.013,11.619-1.282,19.827-1.282
			c2.324,0,4.156,0.101,5.47,0.297c-0.98,7.857-6.435,56.93,4.753,93.993c7.879,26.102,16.013,37.741,26.375,37.741
			c2.838,0,5.785-0.84,9.555-2.726l30.646-15.338c0.106-0.073,10.625-7.548,4.975-20.467l-0.696-1.581
			c-5.956-13.549-23.942-54.45-24.371-91.949c4.522,0.767,19.511,3.435,28.997,6.599c3.814,1.271,6.786,1.864,9.347,1.864
			c6.758,0,11.308-4.034,15.705-13.926c6.051-13.612,10.665-26.648,10.757-26.946C983.189,456.069,984.723,447.703,980.643,442.139z
			 M980.92,455.828c-0.049,0.143-4.635,13.088-10.646,26.611c-4.02,9.043-7.837,12.568-13.613,12.568
			c-2.308,0-5.047-0.554-8.622-1.748c-11.398-3.799-30.5-6.878-30.692-6.909c-0.331-0.052-0.67,0.042-0.922,0.259
			c-0.255,0.219-0.402,0.536-0.402,0.872c0,38.344,18.495,80.4,24.573,94.221l0.692,1.577c4.882,11.164-3.811,17.41-4.04,17.586
			l-30.509,15.255c-3.436,1.719-6.066,2.484-8.53,2.484c-5.703,0-14.414-3.742-24.185-36.113
			c-11.989-39.71-4.614-93.548-4.538-94.09c0.08-0.579-0.289-1.126-0.856-1.269c-1.501-0.375-3.799-0.558-7.019-0.558
			c-6.932,0-16.14,0.887-19.114,1.193l-4.84-17.292c20.037-11.713,42.241-18.441,42.465-18.51c0.375-0.112,0.669-0.409,0.773-0.786
			c8.146-29.185,22.544-50.097,25.285-53.908l17.285,4.838c-2.12,11.295-2.836,36.932-2.867,38.052
			c-0.01,0.331,0.125,0.65,0.368,0.874c0.244,0.223,0.575,0.331,0.903,0.294c13.997-1.555,25.442-2.313,34.99-2.313
			c5.577,0,10.654,0.266,15.087,0.787c3.008,0.355,5.31,1.594,6.845,3.683C982.265,448.21,980.906,455.828,980.92,455.828z"/>
	</g>
	<path d="M458.488,422.983c-0.785,3.51,0.017,13.556-1.399,28.928c2.43-2.548,4.733-4.851,4.733-4.851l0.243,0.04
		c0.428-6.384,0.507-11.691,0.563-15.772c0.015-1.113,0.03-2.196,0.052-3.193l76.265,0.085c0.018,0.997,0.033,2.081,0.044,3.193
		c0.18,15.621,0.58,48.898,20.201,93.879c0.491-2.777,1.041-5.587,1.563-8.143c-21.149-52.078-16.008-86.856-17.604-94.074
		c-2.277-10.299-4.524-48.056,3.539-97.243l-25.142-25.199l-0.083,75.509l-41.188-0.044l0.083-75.509l-25.197,25.141
		C463.118,374.936,460.787,412.688,458.488,422.983z M538.86,425.802c0.037,0.675,0.063,1.471,0.083,2.349
		C538.923,427.275,538.897,426.477,538.86,425.802z M460.049,327.322l15.722-15.688l-0.076,69.038l50.337,0.054l0.079-69.039
		l15.687,15.725c-6.876,43.361-5.837,77.73-3.867,92.226l-74.216-0.081c-0.002,0.009-0.002,0.016-0.004,0.027
		C465.715,405.106,466.835,370.721,460.049,327.322z M631.28,621.51c-1.466,0.346-3.336,0.614-5.776,0.79
		c45.046,42.85,103.813,66.894,143.506,79.239c-18.927-3.188-43.463-7.698-73.053-13.914l-5.514-1.158l-0.033,30.801l-379.833-0.42
		l0.034-30.8l-5.514,1.144c-29.604,6.153-54.151,10.609-73.084,13.753c47.416-14.629,122.054-45.85,168.139-105.921
		c4.842-6.313,9.268-12.49,13.385-18.556c0.105-2.724,0.248-6.044,0.37-8.804c-5.168,7.961-10.928,16.158-17.386,24.575
		c-71.036,92.59-209.494,115.319-209.494,115.319l-0.005,4.577c0,0,42.336-4.53,119.006-20.462l-0.033,29.746l388.987,0.429
		l0.033-29.745c76.636,16.102,118.96,20.725,118.96,20.725l0.007-4.576C813.982,708.252,705.316,690.156,631.28,621.51z"/>
	<path d="M547.088,672.11c-0.22-0.149-0.385-0.267-0.494-0.349c-1.029,0.905-1.785,1.799-2.266,2.677
		c-0.482,0.881-0.722,1.821-0.722,2.824c0,1.524,0.442,2.754,1.33,3.687c0.885,0.935,2.042,1.402,3.47,1.402
		c1.222,0,2.246-0.382,3.07-1.144c0.824-0.763,1.235-1.698,1.235-2.813C552.712,676.912,550.838,674.816,547.088,672.11z
		 M550.056,666.754c1.152-0.824,2.026-1.689,2.616-2.596c0.59-0.907,0.885-1.826,0.885-2.76c0-1.126-0.436-2.085-1.307-2.876
		c-0.872-0.789-1.939-1.185-3.205-1.185c-1.222,0-2.212,0.286-2.967,0.856c-0.756,0.569-1.133,1.307-1.133,2.214
		c0,0.977,0.415,1.981,1.247,3.019C547.022,664.464,548.31,665.572,550.056,666.754z M450.333,670.988
		c0.013-0.145,0.021-0.25,0.021-0.319c0-1.166-0.313-2.078-0.938-2.73c-0.626-0.652-1.494-0.979-2.607-0.979
		c-0.92,0-1.679,0.4-2.277,1.195c-0.597,0.798-0.903,1.849-0.917,3.152h6.696C450.312,671.239,450.318,671.132,450.333,670.988z
		 M527.268,658.06c-1.072,0-1.882,0.525-2.432,1.575c-0.549,1.053-0.824,2.621-0.824,4.708c0,2.09,0.277,3.671,0.834,4.751
		c0.556,1.077,1.362,1.615,2.422,1.615c1.07,0,1.901-0.572,2.493-1.721c0.591-1.146,0.885-2.777,0.885-4.891
		c0-1.938-0.294-3.429-0.885-4.472C529.169,658.582,528.338,658.06,527.268,658.06z M569.3,657.937
		c-1.196,0-2.043,0.903-2.546,2.709c-0.5,1.805-0.751,4.996-0.751,9.569c0,4.602,0.26,7.768,0.782,9.499
		c0.522,1.729,1.415,2.598,2.68,2.598c1.195,0,2.042-0.891,2.545-2.668c0.5-1.779,0.751-4.983,0.751-9.613
		c0-4.657-0.257-7.837-0.773-9.539C571.474,658.787,570.577,657.937,569.3,657.937z M366.864,632.396v74.365h266.953v-74.365
		H366.864z M461.995,655.155c0.618-0.606,1.366-0.907,2.246-0.907s1.618,0.294,2.215,0.887c0.598,0.59,0.897,1.324,0.897,2.203
		c0,0.894-0.303,1.651-0.907,2.277c-0.604,0.626-1.339,0.938-2.205,0.938c-0.879,0-1.627-0.317-2.246-0.95
		c-0.618-0.631-0.927-1.386-0.927-2.266C461.067,656.486,461.377,655.758,461.995,655.155z M432.612,683.165
		c-1.429,1.229-3.303,1.846-5.625,1.846c-1.346,0-2.643-0.177-3.894-0.527c-1.25-0.349-2.472-0.874-3.668-1.575v-4.555h2.041
		c0.413,1.252,1.072,2.243,1.979,2.979c0.906,0.734,1.902,1.102,2.988,1.102c0.961,0,1.779-0.231,2.451-0.69
		c0.673-0.461,1.01-0.999,1.01-1.619c0-0.974-1.023-1.818-3.07-2.534c-0.77-0.273-1.375-0.499-1.813-0.679
		c-2.28-0.894-3.835-1.804-4.667-2.73c-0.832-0.928-1.248-2.111-1.248-3.555c0-1.771,0.743-3.247,2.226-4.43
		c1.484-1.182,3.386-1.771,5.707-1.771c1.017,0,2.03,0.121,3.039,0.36c1.01,0.24,2.05,0.616,3.122,1.123v4.203h-1.854
		c-0.426-1.139-0.982-1.99-1.669-2.554c-0.687-0.563-1.511-0.845-2.473-0.845c-0.852,0-1.548,0.215-2.091,0.648
		c-0.543,0.433-0.813,0.985-0.813,1.657c0,0.867,1.078,1.712,3.234,2.534c0.467,0.18,0.832,0.317,1.092,0.413
		c2.555,0.988,4.217,1.932,4.987,2.822c0.77,0.895,1.154,2.08,1.154,3.564C434.756,680.331,434.041,681.936,432.612,683.165z
		 M451.661,683.927c-1.339,0.75-2.792,1.124-4.357,1.124c-2.679,0-4.88-0.968-6.604-2.904c-1.724-1.938-2.585-4.438-2.585-7.5
		c0-2.953,0.886-5.367,2.658-7.244c1.772-1.875,4.066-2.812,6.881-2.812c2.418,0,4.372,0.801,5.862,2.4s2.277,3.754,2.358,6.46
		h-12.28v0.122c0,1.992,0.522,3.616,1.566,4.875c1.043,1.256,2.37,1.883,3.977,1.883c0.701,0,1.487-0.141,2.36-0.423
		c0.871-0.281,1.939-0.743,3.203-1.39l1.442,1.567C454.494,681.897,453,683.178,451.661,683.927z M469.598,684.68h-10.673v-2.104
		c0.934-0.079,1.58-0.303,1.938-0.667c0.356-0.365,0.535-0.973,0.535-1.823v-10.633l-2.39-1.277v-1.339l6.737-2.288h1.36v15.537
		c0,0.851,0.182,1.458,0.546,1.823c0.364,0.364,1.012,0.588,1.947,0.667V684.68z M483.896,683.918
		c-0.976,0.411-1.89,0.722-2.741,0.928c-0.851,0.205-1.669,0.308-2.451,0.308c-1.841,0-3.122-0.508-3.844-1.523
		c-0.721-1.018-1.082-2.905-1.082-5.668v-10.754h-2.37v-2.021l6.615-6.2h1.318v5.954h4.471v2.267h-4.471v11.271
		c0,1.235,0.192,2.043,0.577,2.421c0.385,0.377,1.12,0.567,2.205,0.567c0.302,0,0.601-0.012,0.896-0.031
		c0.295-0.021,0.587-0.046,0.876-0.074V683.918z M514.06,684.68h-15.061v-2.368h0.413c1.716,0,2.816-0.2,3.296-0.6
		c0.48-0.397,0.721-1.381,0.721-2.945v-17.842c0-0.593-0.155-1.001-0.464-1.228c-0.309-0.228-0.916-0.339-1.824-0.339
		c-0.522,0-0.929,0.002-1.224,0.009c-0.297,0.009-0.589,0.018-0.876,0.031v-1.938c0.975-0.109,2.242-0.335,3.799-0.679
		c1.56-0.343,3.768-0.893,6.625-1.647v23.632c0,1.564,0.241,2.548,0.722,2.945c0.48,0.399,1.601,0.6,3.359,0.6h0.514V684.68z
		 M535.209,673.934c-0.926,2.192-2.261,4.174-4.007,5.946c-1.553,1.58-3.242,2.805-5.067,3.676
		c-1.828,0.873-3.854,1.419-6.078,1.641l-1.01-1.401c2.912-1.388,5.194-2.967,6.851-4.74c1.654-1.771,2.758-3.832,3.308-6.181
		c-0.785,0.303-1.497,0.532-2.144,0.688c-0.646,0.159-1.225,0.237-1.731,0.237c-2.212,0-3.997-0.784-5.355-2.357
		c-1.361-1.574-2.041-3.646-2.041-6.212c0-2.845,0.902-5.213,2.709-7.108c1.807-1.896,4.07-2.844,6.79-2.844
		c2.733,0,4.945,1.085,6.634,3.255c1.689,2.17,2.534,5.021,2.534,8.552C536.601,669.46,536.136,671.744,535.209,673.934z
		 M554.866,682.712c-1.779,1.559-4.028,2.339-6.748,2.339c-2.568,0-4.724-0.718-6.469-2.154c-1.746-1.435-2.616-3.176-2.616-5.223
		c0-1.195,0.39-2.339,1.172-3.43c0.785-1.093,2.239-2.455,4.369-4.092c-1.663-1.331-2.894-2.632-3.698-3.903
		c-0.802-1.269-1.204-2.552-1.204-3.843c0-2.045,0.857-3.784,2.574-5.211c1.718-1.431,3.854-2.143,6.408-2.143
		c2.361,0,4.326,0.613,5.893,1.843c1.566,1.229,2.348,2.757,2.348,4.585c0,1.223-0.403,2.407-1.215,3.553
		c-0.812,1.146-1.998,2.208-3.564,3.185c1.908,1.498,3.289,2.93,4.141,4.295c0.852,1.367,1.278,2.807,1.278,4.316
		C557.534,679.191,556.646,681.153,554.866,682.712z M576.079,681.176c-1.606,2.68-3.826,4.021-6.657,4.021
		c-2.938,0-5.197-1.344-6.777-4.029s-2.371-6.521-2.371-11.508c0-4.464,0.824-8.009,2.474-10.632s3.859-3.935,6.635-3.935
		c2.788,0,5.003,1.331,6.646,3.997c1.64,2.666,2.462,6.297,2.462,10.899C578.489,674.77,577.686,678.498,576.079,681.176z"/>
</g>
</svg>
