<?xml version="1.0" encoding="utf-8"?>
<!-- Generator: Adobe Illustrator 16.0.0, SVG Export Plug-In . SVG Version: 6.00 Build 0)  -->
<!DOCTYPE svg PUBLIC "-//W3C//DTD SVG 1.1 Tiny//EN" "http://www.w3.org/Graphics/SVG/1.1/DTD/svg11-tiny.dtd">
<svg version="1.1" baseProfile="tiny" id="Layer_1" xmlns="http://www.w3.org/2000/svg" xmlns:xlink="http://www.w3.org/1999/xlink"
	 x="0px" y="0px" width="1000px" height="1000px" viewBox="0 0 1000 1000" xml:space="preserve">
<g>
	<g>
		<path fill="#231F20" d="M37.143,552.972v30.288h-2.78v-14.079h-5.521v14.079h-2.741v-30.288h2.741v13.965h5.521v-13.965H37.143z"
			/>
		<path fill="#231F20" d="M53.665,581.091v2.055c-0.464,0.267-1.043,0.495-1.7,0.495c-1.505,0-2.509-1.18-2.741-3.197
			c-0.888,1.827-2.278,3.197-4.17,3.197h-0.231c-2.394,0-4.247-1.483-4.247-5.556c0-3.614,0.656-5.099,2.741-6.164l5.598-2.854
			v-3.424c0-2.017-0.81-3.12-2.548-3.12H46.29c-1.892,0-2.587,1.142-2.587,3.12v1.56l-2.779-0.189v-1.256
			c0-3.957,1.622-5.555,5.598-5.555h0.077c3.167,0,5.097,1.636,5.097,5.555v13.546c0,1.218,0.232,2.017,1.042,2.017
			C53.007,581.319,53.355,581.205,53.665,581.091z M48.954,577.515v-6.278l-4.286,2.473c-1.12,0.685-1.352,1.827-1.352,4.109
			c0,2.396,0.734,3.501,2.51,3.501h0.154C47.95,581.319,48.954,578.922,48.954,577.515z"/>
		<path fill="#231F20" d="M67.059,565.757v17.503h-2.78v-17.236c0-2.397-0.618-3.501-2.394-3.501H61.77
			c-1.931,0-2.896,2.397-2.896,3.806v16.932h-2.741v-22.677h1.814l0.656,2.663c0.888-1.75,2.24-3.044,4.131-3.044h0.193
			C65.36,560.202,67.059,561.686,67.059,565.757z"/>
		<path fill="#231F20" d="M82.036,565.757v17.503h-2.779v-17.236c0-2.397-0.618-3.501-2.394-3.501h-0.116
			c-1.931,0-2.896,2.397-2.896,3.806v16.932H71.11v-22.677h1.815l0.656,2.663c0.888-1.75,2.239-3.044,4.131-3.044h0.193
			C80.338,560.202,82.036,561.686,82.036,565.757z"/>
		<path fill="#231F20" d="M91.222,560.202h0.077c3.707,0,5.328,1.598,5.328,5.707v12.023c0,4.071-1.622,5.708-5.328,5.708h-0.077
			c-3.745,0-5.367-1.6-5.367-5.708v-12.023C85.855,561.838,87.515,560.202,91.222,560.202z M88.596,565.757v12.29
			c0,2.131,0.811,3.272,2.625,3.272h0.077c1.854,0,2.587-1.142,2.587-3.272v-12.29c0-2.093-0.772-3.234-2.587-3.234h-0.077
			C89.407,562.522,88.596,563.626,88.596,565.757z"/>
		<path fill="#231F20" d="M111.759,560.583l-4.71,22.677h-3.514l-4.671-22.677h3.011l3.012,16.817l0.424,3.006l0.386-3.006
			l3.05-16.817H111.759z"/>
		<path fill="#231F20" d="M124.808,576.41v1.522c-0.039,4.071-1.622,5.708-5.367,5.708h-0.116c-3.745,0-5.367-1.6-5.367-5.708
			v-12.023c0-4.071,1.66-5.707,5.367-5.707h0.116c3.745,0,5.367,1.598,5.367,5.707v6.811h-8.108v5.327
			c0,2.131,0.811,3.272,2.625,3.272h0.116c1.853,0,2.586-1.142,2.586-3.272l0.039-1.789L124.808,576.41z M116.699,565.757v4.984
			h5.328v-4.984c0-2.093-0.772-3.234-2.586-3.234h-0.116C117.51,562.522,116.699,563.626,116.699,565.757z"/>
		<path fill="#231F20" d="M136.349,560.43v2.664c-0.541-0.152-1.197-0.229-1.776-0.229h-0.155c-2.046,0-3.282,1.637-3.282,5.327
			v15.067h-2.741v-22.677h1.814l0.579,2.435c0.888-1.75,2.201-2.815,3.977-2.815h0.039
			C135.345,560.202,136.04,560.277,136.349,560.43z"/>
		<path fill="#231F20" d="M148.355,576.753v1.332c0,3.956-1.622,5.556-5.173,5.556h-0.31c-3.552,0-5.173-1.637-5.173-5.708v-1.483
			l2.78-0.152v1.75c0,2.131,0.771,3.272,2.393,3.272h0.31c1.622,0,2.393-1.142,2.393-3.12v-1.332c0-1.18-0.385-2.207-1.235-2.816
			l-3.938-2.663c-1.737-1.142-2.548-2.777-2.548-5.06v-0.571c0-3.919,1.66-5.555,5.173-5.555h0.077c3.552,0,5.174,1.598,5.174,5.555
			v1.256l-2.78,0.189v-1.56c0-1.979-0.733-3.12-2.394-3.12h-0.077c-1.583,0-2.394,1.104-2.394,3.12v0.571
			c0,1.217,0.309,2.245,1.197,2.853l4.054,2.74C147.699,572.986,148.355,574.546,148.355,576.753z"/>
		<path fill="#231F20" d="M161.904,577.933c0,4.071-1.622,5.708-5.096,5.708h-0.154c-3.475,0-5.097-1.6-5.097-5.708v-12.023
			c0-4.071,1.66-5.707,5.097-5.707h0.077c3.514,0,5.135,1.598,5.135,5.707v1.865l-2.78,0.189v-2.207
			c0-2.093-0.772-3.234-2.355-3.234h-0.077c-1.545,0-2.356,1.104-2.356,3.234v12.29c0,2.131,0.811,3.272,2.356,3.272h0.154
			c1.583,0,2.355-1.142,2.355-3.272v-2.549l2.741,0.152V577.933z"/>
		<path fill="#231F20" d="M176.225,565.757v17.503h-2.779v-17.236c0-2.397-0.618-3.501-2.394-3.501h-0.116
			c-1.93,0-2.896,2.397-2.896,3.806v16.932h-2.741v-30.288h2.741v9.779c0.889-1.522,2.163-2.549,3.861-2.549h0.193
			C174.527,560.202,176.225,561.686,176.225,565.757z"/>
		<path fill="#231F20" d="M190.894,576.41v1.522c-0.039,4.071-1.622,5.708-5.367,5.708h-0.116c-3.745,0-5.367-1.6-5.367-5.708
			v-12.023c0-4.071,1.66-5.707,5.367-5.707h0.116c3.745,0,5.367,1.598,5.367,5.707v6.811h-8.108v5.327
			c0,2.131,0.811,3.272,2.625,3.272h0.116c1.853,0,2.586-1.142,2.586-3.272l0.039-1.789L190.894,576.41z M182.785,565.757v4.984
			h5.328v-4.984c0-2.093-0.772-3.234-2.586-3.234h-0.116C183.596,562.522,182.785,563.626,182.785,565.757z"/>
		<path fill="#231F20" d="M211.197,581.053v2.207h-9.073v-30.288h2.741v28.081H211.197z"/>
		<path fill="#231F20" d="M226.061,581.091v2.055c-0.464,0.267-1.043,0.495-1.699,0.495c-1.506,0-2.51-1.18-2.741-3.197
			c-0.888,1.827-2.278,3.197-4.169,3.197h-0.232c-2.394,0-4.247-1.483-4.247-5.556c0-3.614,0.656-5.099,2.741-6.164l5.598-2.854
			v-3.424c0-2.017-0.81-3.12-2.548-3.12h-0.077c-1.892,0-2.587,1.142-2.587,3.12v1.56l-2.78-0.189v-1.256
			c0-3.957,1.622-5.555,5.598-5.555h0.077c3.167,0,5.097,1.636,5.097,5.555v13.546c0,1.218,0.231,2.017,1.042,2.017
			C225.404,581.319,225.751,581.205,226.061,581.091z M221.35,577.515v-6.278l-4.286,2.473c-1.12,0.685-1.352,1.827-1.352,4.109
			c0,2.396,0.734,3.501,2.51,3.501h0.154C220.346,581.319,221.35,578.922,221.35,577.515z"/>
		<path fill="#231F20" d="M239.455,565.757v17.503h-2.779v-17.236c0-2.397-0.618-3.501-2.394-3.501h-0.116
			c-1.93,0-2.896,2.397-2.896,3.806v16.932h-2.741v-22.677h1.814l0.656,2.663c0.888-1.75,2.24-3.044,4.131-3.044h0.193
			C237.756,560.202,239.455,561.686,239.455,565.757z"/>
		<path fill="#231F20" d="M254.2,552.972v30.288h-1.853l-0.656-2.702c-0.888,1.789-2.24,3.083-4.093,3.083h-0.193
			c-2.471,0-4.131-1.483-4.131-5.556v-12.328c0-4.071,1.66-5.555,4.131-5.555h0.193c1.66,0,2.934,1.026,3.823,2.549v-9.779H254.2z
			 M251.421,577.515v-11.187c0-1.408-0.927-3.806-2.896-3.806h-0.116c-1.738,0-2.394,1.104-2.394,3.501v11.795
			c0,2.396,0.656,3.501,2.394,3.501h0.116C250.494,581.319,251.421,578.922,251.421,577.515z"/>
		<path fill="#231F20" d="M268.174,576.753v1.332c0,3.956-1.622,5.556-5.174,5.556h-0.309c-3.552,0-5.174-1.637-5.174-5.708v-1.483
			l2.78-0.152v1.75c0,2.131,0.772,3.272,2.394,3.272H263c1.622,0,2.394-1.142,2.394-3.12v-1.332c0-1.18-0.386-2.207-1.236-2.816
			l-3.938-2.663c-1.737-1.142-2.548-2.777-2.548-5.06v-0.571c0-3.919,1.66-5.555,5.174-5.555h0.077c3.553,0,5.174,1.598,5.174,5.555
			v1.256l-2.78,0.189v-1.56c0-1.979-0.734-3.12-2.394-3.12h-0.077c-1.583,0-2.395,1.104-2.395,3.12v0.571
			c0,1.217,0.31,2.245,1.197,2.853l4.054,2.74C267.518,572.986,268.174,574.546,268.174,576.753z"/>
		<path fill="#231F20" d="M281.722,577.933c0,4.071-1.622,5.708-5.097,5.708h-0.154c-3.475,0-5.097-1.6-5.097-5.708v-12.023
			c0-4.071,1.66-5.707,5.097-5.707h0.077c3.513,0,5.135,1.598,5.135,5.707v1.865l-2.779,0.189v-2.207
			c0-2.093-0.772-3.234-2.355-3.234h-0.077c-1.544,0-2.355,1.104-2.355,3.234v12.29c0,2.131,0.811,3.272,2.355,3.272h0.154
			c1.583,0,2.356-1.142,2.356-3.272v-2.549l2.741,0.152V577.933z"/>
		<path fill="#231F20" d="M296.044,565.757v17.503h-2.779v-17.236c0-2.397-0.618-3.501-2.394-3.501h-0.116
			c-1.931,0-2.896,2.397-2.896,3.806v16.932h-2.741v-30.288h2.741v9.779c0.889-1.522,2.163-2.549,3.861-2.549h0.193
			C294.345,560.202,296.044,561.686,296.044,565.757z"/>
		<path fill="#231F20" d="M305.346,583.146c-0.541,0.267-1.236,0.495-2.008,0.495c-2.046,0-3.282-1.408-3.282-3.653v-27.016h2.78
			v26.331c0,1.218,0.309,2.017,1.313,2.017c0.348,0,0.811-0.114,1.197-0.229V583.146z"/>
		<path fill="#231F20" d="M319.977,581.091v2.055c-0.464,0.267-1.043,0.495-1.7,0.495c-1.505,0-2.509-1.18-2.741-3.197
			c-0.888,1.827-2.278,3.197-4.17,3.197h-0.231c-2.394,0-4.247-1.483-4.247-5.556c0-3.614,0.656-5.099,2.741-6.164l5.599-2.854
			v-3.424c0-2.017-0.811-3.12-2.548-3.12h-0.077c-1.892,0-2.587,1.142-2.587,3.12v1.56l-2.779-0.189v-1.256
			c0-3.957,1.622-5.555,5.598-5.555h0.077c3.166,0,5.096,1.636,5.096,5.555v13.546c0,1.218,0.232,2.017,1.042,2.017
			C319.32,581.319,319.667,581.205,319.977,581.091z M315.267,577.515v-6.278l-4.286,2.473c-1.12,0.685-1.352,1.827-1.352,4.109
			c0,2.396,0.734,3.501,2.51,3.501h0.154C314.263,581.319,315.267,578.922,315.267,577.515z"/>
		<path fill="#231F20" d="M332.561,577.933c0,4.071-1.622,5.708-5.096,5.708h-0.154c-3.475,0-5.096-1.6-5.096-5.708v-12.023
			c0-4.071,1.66-5.707,5.096-5.707h0.077c3.513,0,5.135,1.598,5.135,5.707v1.865l-2.78,0.189v-2.207
			c0-2.093-0.772-3.234-2.355-3.234h-0.077c-1.544,0-2.355,1.104-2.355,3.234v12.29c0,2.131,0.811,3.272,2.355,3.272h0.154
			c1.583,0,2.355-1.142,2.355-3.272v-2.549l2.741,0.152V577.933z"/>
		<path fill="#231F20" d="M346.882,565.757v17.503h-2.78v-17.236c0-2.397-0.618-3.501-2.394-3.501h-0.116
			c-1.93,0-2.896,2.397-2.896,3.806v16.932h-2.741v-30.288h2.741v9.779c0.889-1.522,2.163-2.549,3.861-2.549h0.193
			C345.183,560.202,346.882,561.686,346.882,565.757z"/>
		<path fill="#231F20" d="M357.843,581.015v2.131c-0.656,0.267-1.505,0.495-2.432,0.495c-2.355,0-3.707-1.408-3.707-4.148V562.79
			h-2.549v-2.207h2.549v-5.099h2.741v5.099h3.282v2.207h-3.282v15.98c0,1.787,0.386,2.549,1.66,2.549
			C356.686,581.319,357.303,581.205,357.843,581.015z"/>
		<path fill="#231F20" d="M370.931,576.41v1.522c-0.038,4.071-1.622,5.708-5.366,5.708h-0.116c-3.745,0-5.367-1.6-5.367-5.708
			v-12.023c0-4.071,1.66-5.707,5.367-5.707h0.116c3.745,0,5.366,1.598,5.366,5.707v6.811h-8.108v5.327
			c0,2.131,0.811,3.272,2.626,3.272h0.116c1.853,0,2.586-1.142,2.586-3.272l0.039-1.789L370.931,576.41z M362.822,565.757v4.984
			h5.328v-4.984c0-2.093-0.772-3.234-2.586-3.234h-0.116C363.633,562.522,362.822,563.626,362.822,565.757z"/>
		<path fill="#231F20" d="M382.472,560.43v2.664c-0.541-0.152-1.197-0.229-1.776-0.229h-0.155c-2.046,0-3.282,1.637-3.282,5.327
			v15.067h-2.741v-22.677h1.815l0.579,2.435c0.888-1.75,2.2-2.815,3.977-2.815h0.039
			C381.468,560.202,382.163,560.277,382.472,560.43z"/>
		<path fill="#231F20" d="M395.096,576.41v1.522c-0.04,4.071-1.622,5.708-5.367,5.708h-0.116c-3.745,0-5.367-1.6-5.367-5.708
			v-12.023c0-4.071,1.66-5.707,5.367-5.707h0.116c3.745,0,5.367,1.598,5.367,5.707v6.811h-8.108v5.327
			c0,2.131,0.811,3.272,2.625,3.272h0.116c1.853,0,2.586-1.142,2.586-3.272l0.039-1.789L395.096,576.41z M386.988,565.757v4.984
			h5.328v-4.984c0-2.093-0.772-3.234-2.586-3.234h-0.116C387.798,562.522,386.988,563.626,386.988,565.757z"/>
		<path fill="#231F20" d="M401.425,553.962v3.652h-2.741v-3.652H401.425z M401.425,560.583v22.677h-2.741v-22.677H401.425z"/>
	</g>
	<g>
		<path fill="#231F20" d="M607.871,565.109v12.328c0,4.071-1.728,5.556-4.2,5.556h-0.234c-1.885,0-3.258-1.294-4.162-3.083
			l-0.667,2.702h-1.845v-30.288h2.787v9.779c0.903-1.522,2.198-2.549,3.887-2.549h0.234
			C606.144,559.555,607.871,561.038,607.871,565.109z M602.611,561.875h-0.117c-1.963,0-2.944,2.396-2.944,3.805v11.188
			c0,1.406,0.981,3.805,2.944,3.805h0.117c1.806,0,2.434-1.104,2.434-3.501v-11.795
			C605.045,562.979,604.417,561.875,602.611,561.875z"/>
		<path fill="#231F20" d="M622.633,575.763v1.522c-0.039,4.071-1.648,5.708-5.456,5.708h-0.118c-3.808,0-5.455-1.6-5.455-5.708
			v-12.023c0-4.071,1.688-5.707,5.455-5.707h0.118c3.808,0,5.456,1.598,5.456,5.707v6.811h-8.243v5.327
			c0,2.131,0.824,3.272,2.669,3.272h0.118c1.885,0,2.63-1.142,2.63-3.272l0.039-1.789L622.633,575.763z M614.39,565.109v4.984h5.417
			v-4.984c0-2.093-0.785-3.234-2.63-3.234h-0.118C615.214,561.875,614.39,562.979,614.39,565.109z"/>
		<path fill="#231F20" d="M636.295,576.105v1.332c0,3.956-1.65,5.556-5.261,5.556h-0.313c-3.612,0-5.261-1.637-5.261-5.708v-1.483
			l2.827-0.153v1.751c0,2.131,0.784,3.272,2.434,3.272h0.313c1.648,0,2.434-1.142,2.434-3.12v-1.332c0-1.18-0.393-2.207-1.255-2.816
			l-4.004-2.663c-1.767-1.142-2.592-2.777-2.592-5.061v-0.57c0-3.919,1.688-5.555,5.261-5.555h0.078c3.61,0,5.259,1.598,5.259,5.555
			v1.256l-2.825,0.189v-1.56c0-1.979-0.746-3.12-2.434-3.12h-0.078c-1.61,0-2.435,1.104-2.435,3.12v0.57
			c0,1.218,0.314,2.246,1.217,2.854l4.122,2.74C635.627,572.339,636.295,573.898,636.295,576.105z"/>
		<path fill="#231F20" d="M646.777,580.366v2.132c-0.668,0.267-1.531,0.495-2.473,0.495c-2.396,0-3.769-1.408-3.769-4.148v-16.703
			h-2.591v-2.206h2.591v-5.099h2.786v5.099h3.337v2.206h-3.337v15.981c0,1.787,0.394,2.549,1.688,2.549
			C645.6,580.672,646.228,580.558,646.777,580.366z"/>
		<path fill="#231F20" d="M660.085,575.763v1.522c-0.038,4.071-1.648,5.708-5.456,5.708h-0.118c-3.807,0-5.455-1.6-5.455-5.708
			v-12.023c0-4.071,1.688-5.707,5.455-5.707h0.118c3.808,0,5.456,1.598,5.456,5.707v6.811h-8.242v5.327
			c0,2.131,0.824,3.272,2.668,3.272h0.118c1.885,0,2.631-1.142,2.631-3.272l0.038-1.789L660.085,575.763z M651.843,565.109v4.984
			h5.417v-4.984c0-2.093-0.786-3.234-2.631-3.234h-0.118C652.667,561.875,651.843,562.979,651.843,565.109z"/>
		<path fill="#231F20" d="M688.858,582.612h-2.787l0.236-19.938l0.156-4.87l-0.941,4.87l-4.436,19.824h-1.845l-4.435-19.824
			l-0.942-4.794l0.156,4.794l0.275,19.938h-2.787v-30.288h3.376l4.67,21.574l0.629,3.349l0.588-3.349l4.671-21.574h3.415V582.612z"
			/>
		<path fill="#231F20" d="M703.975,575.763v1.522c-0.038,4.071-1.648,5.708-5.455,5.708h-0.118c-3.808,0-5.456-1.6-5.456-5.708
			v-12.023c0-4.071,1.688-5.707,5.456-5.707h0.118c3.807,0,5.455,1.598,5.455,5.707v6.811h-8.242v5.327
			c0,2.131,0.824,3.272,2.669,3.272h0.118c1.884,0,2.63-1.142,2.63-3.272l0.038-1.789L703.975,575.763z M695.732,565.109v4.984
			h5.417v-4.984c0-2.093-0.785-3.234-2.63-3.234h-0.118C696.557,561.875,695.732,562.979,695.732,565.109z"/>
		<path fill="#231F20" d="M710.414,553.314v3.652h-2.787v-3.652H710.414z M710.414,559.936v22.677h-2.787v-22.677H710.414z"/>
		<path fill="#231F20" d="M724.664,576.105v1.332c0,3.956-1.649,5.556-5.261,5.556h-0.313c-3.612,0-5.26-1.637-5.26-5.708v-1.483
			l2.826-0.153v1.751c0,2.131,0.784,3.272,2.434,3.272h0.313c1.648,0,2.434-1.142,2.434-3.12v-1.332c0-1.18-0.393-2.207-1.255-2.816
			l-4.004-2.663c-1.767-1.142-2.592-2.777-2.592-5.061v-0.57c0-3.919,1.688-5.555,5.261-5.555h0.078c3.61,0,5.259,1.598,5.259,5.555
			v1.256l-2.825,0.189v-1.56c0-1.979-0.746-3.12-2.434-3.12h-0.078c-1.61,0-2.435,1.104-2.435,3.12v0.57
			c0,1.218,0.314,2.246,1.217,2.854l4.122,2.74C723.996,572.339,724.664,573.898,724.664,576.105z"/>
		<path fill="#231F20" d="M735.146,580.366v2.132c-0.668,0.267-1.531,0.495-2.473,0.495c-2.396,0-3.769-1.408-3.769-4.148v-16.703
			h-2.591v-2.206h2.591v-5.099h2.786v5.099h3.337v2.206h-3.337v15.981c0,1.787,0.394,2.549,1.688,2.549
			C733.969,580.672,734.597,580.558,735.146,580.366z"/>
		<path fill="#231F20" d="M748.454,575.763v1.522c-0.038,4.071-1.648,5.708-5.456,5.708h-0.117c-3.808,0-5.456-1.6-5.456-5.708
			v-12.023c0-4.071,1.688-5.707,5.456-5.707h0.117c3.808,0,5.456,1.598,5.456,5.707v6.811h-8.242v5.327
			c0,2.131,0.824,3.272,2.669,3.272h0.117c1.885,0,2.631-1.142,2.631-3.272l0.038-1.789L748.454,575.763z M740.212,565.109v4.984
			h5.417v-4.984c0-2.093-0.786-3.234-2.631-3.234h-0.117C741.036,561.875,740.212,562.979,740.212,565.109z"/>
		<path fill="#231F20" d="M760.192,559.782v2.664c-0.55-0.153-1.218-0.229-1.806-0.229h-0.157c-2.08,0-3.337,1.636-3.337,5.327
			v15.067h-2.786v-22.677h1.845l0.589,2.435c0.902-1.75,2.237-2.815,4.044-2.815h0.038
			C759.172,559.555,759.879,559.63,760.192,559.782z"/>
		<path fill="#231F20" d="M773.108,559.936v30.286h-2.825v-9.778c-0.904,1.484-2.199,2.55-3.886,2.55h-0.196
			c-2.513,0-4.2-1.484-4.2-5.556v-12.328c0-4.071,1.688-5.555,4.2-5.555h0.196c1.883,0,3.257,1.293,4.16,3.044l0.668-2.663H773.108z
			 M770.283,576.867V565.68c0-1.408-0.942-3.805-2.945-3.805h-0.116c-1.767,0-2.435,1.104-2.435,3.501v11.795
			c0,2.396,0.668,3.501,2.435,3.501h0.116C769.341,580.672,770.283,578.273,770.283,576.867z"/>
		<path fill="#231F20" d="M788.223,559.936v22.677h-1.845l-0.668-2.664c-0.864,1.751-2.237,3.045-4.122,3.045h-0.196
			c-2.472,0-4.16-1.484-4.16-5.556v-17.502h2.787v17.235c0,2.396,0.628,3.501,2.394,3.501h0.118c1.963,0,2.905-2.398,2.905-3.805
			v-16.932H788.223z"/>
		<path fill="#231F20" d="M804.906,580.443v2.055c-0.47,0.267-1.06,0.495-1.727,0.495c-1.53,0-2.552-1.18-2.787-3.197
			c-0.902,1.827-2.315,3.197-4.238,3.197h-0.236c-2.434,0-4.317-1.484-4.317-5.556c0-3.614,0.667-5.099,2.787-6.164l5.69-2.854
			v-3.424c0-2.017-0.824-3.12-2.591-3.12h-0.078c-1.923,0-2.63,1.142-2.63,3.12v1.56l-2.825-0.189v-1.256
			c0-3.957,1.648-5.555,5.691-5.555h0.078c3.219,0,5.181,1.636,5.181,5.555v13.545c0,1.219,0.235,2.018,1.061,2.018
			C804.24,580.672,804.593,580.558,804.906,580.443z M800.118,576.867v-6.278l-4.356,2.473c-1.139,0.685-1.374,1.827-1.374,4.109
			c0,2.396,0.746,3.501,2.551,3.501h0.156C799.098,580.672,800.118,578.273,800.118,576.867z"/>
		<path fill="#231F20" d="M812.76,582.498c-0.55,0.267-1.257,0.495-2.041,0.495c-2.081,0-3.336-1.408-3.336-3.653v-27.016h2.825
			v26.33c0,1.219,0.314,2.018,1.335,2.018c0.353,0,0.824-0.114,1.217-0.229V582.498z"/>
		<path fill="#231F20" d="M817.98,553.314v3.652h-2.787v-3.652H817.98z M817.98,559.936v22.677h-2.787v-22.677H817.98z"/>
		<path fill="#231F20" d="M829.403,580.366v2.132c-0.667,0.267-1.531,0.495-2.472,0.495c-2.396,0-3.77-1.408-3.77-4.148v-16.703
			h-2.59v-2.206h2.59v-5.099h2.787v5.099h3.336v2.206h-3.336v15.981c0,1.787,0.393,2.549,1.688,2.549
			C828.227,580.672,828.854,580.558,829.403,580.366z"/>
		<path fill="#231F20" d="M844.359,580.443v2.055c-0.47,0.267-1.059,0.495-1.727,0.495c-1.529,0-2.552-1.18-2.786-3.197
			c-0.902,1.827-2.316,3.197-4.239,3.197h-0.236c-2.434,0-4.316-1.484-4.316-5.556c0-3.614,0.666-5.099,2.787-6.164l5.69-2.854
			v-3.424c0-2.017-0.824-3.12-2.591-3.12h-0.078c-1.923,0-2.631,1.142-2.631,3.12v1.56l-2.825-0.189v-1.256
			c0-3.957,1.648-5.555,5.692-5.555h0.078c3.218,0,5.181,1.636,5.181,5.555v13.545c0,1.219,0.235,2.018,1.061,2.018
			C843.693,580.672,844.047,580.558,844.359,580.443z M839.571,576.867v-6.278l-4.356,2.473c-1.139,0.685-1.373,1.827-1.373,4.109
			c0,2.396,0.745,3.501,2.55,3.501h0.157C838.551,580.672,839.571,578.273,839.571,576.867z"/>
		<path fill="#231F20" d="M853.901,580.366v2.132c-0.668,0.267-1.531,0.495-2.473,0.495c-2.396,0-3.769-1.408-3.769-4.148v-16.703
			h-2.591v-2.206h2.591v-5.099h2.787v5.099h3.336v2.206h-3.336v15.981c0,1.787,0.393,2.549,1.688,2.549
			C852.725,580.672,853.352,580.558,853.901,580.366z"/>
		<path fill="#231F20" d="M874.079,576.105v1.332c0,3.956-1.649,5.556-5.261,5.556h-0.313c-3.612,0-5.261-1.637-5.261-5.708v-1.483
			l2.826-0.153v1.751c0,2.131,0.785,3.272,2.435,3.272h0.313c1.648,0,2.435-1.142,2.435-3.12v-1.332c0-1.18-0.394-2.207-1.256-2.816
			l-4.004-2.663c-1.766-1.142-2.592-2.777-2.592-5.061v-0.57c0-3.919,1.688-5.555,5.261-5.555h0.078c3.611,0,5.26,1.598,5.26,5.555
			v1.256l-2.826,0.189v-1.56c0-1.979-0.745-3.12-2.434-3.12h-0.078c-1.609,0-2.434,1.104-2.434,3.12v0.57
			c0,1.218,0.314,2.246,1.217,2.854l4.122,2.74C873.412,572.339,874.079,573.898,874.079,576.105z"/>
		<path fill="#231F20" d="M888.369,575.763v1.522c-0.039,4.071-1.648,5.708-5.456,5.708h-0.118c-3.807,0-5.455-1.6-5.455-5.708
			v-12.023c0-4.071,1.688-5.707,5.455-5.707h0.118c3.808,0,5.456,1.598,5.456,5.707v6.811h-8.242v5.327
			c0,2.131,0.824,3.272,2.668,3.272h0.118c1.885,0,2.631-1.142,2.631-3.272l0.038-1.789L888.369,575.763z M880.127,565.109v4.984
			h5.417v-4.984c0-2.093-0.786-3.234-2.631-3.234h-0.118C880.951,561.875,880.127,562.979,880.127,565.109z"/>
		<path fill="#231F20" d="M894.808,553.314v3.652h-2.786v-3.652H894.808z M894.808,559.936v22.677h-2.786v-22.677H894.808z"/>
		<path fill="#231F20" d="M906.231,580.366v2.132c-0.668,0.267-1.531,0.495-2.473,0.495c-2.396,0-3.769-1.408-3.769-4.148v-16.703
			h-2.591v-2.206h2.591v-5.099h2.787v5.099h3.336v2.206h-3.336v15.981c0,1.787,0.393,2.549,1.688,2.549
			C905.055,580.672,905.682,580.558,906.231,580.366z"/>
		<path fill="#231F20" d="M928.528,580.405v2.207h-12.247v-2.207h5.535v-24.58l-5.064,2.588v-2.436l6.438-3.653h1.414v28.081
			H928.528z"/>
		<path fill="#231F20" d="M943.446,570.854v6.431c0,4.071-1.648,5.708-5.416,5.708h-0.393c-3.769,0-5.417-1.6-5.417-5.708v-6.431
			c0-2.473,0.942-3.842,2.394-4.528c-1.373-0.685-2.275-1.978-2.275-4.298v-4.377c0-4.071,1.688-5.708,5.455-5.708h0.079
			c3.807,0,5.456,1.6,5.456,5.708v4.377c0,2.282-0.903,3.576-2.237,4.261C942.504,566.974,943.446,568.344,943.446,570.854z
			 M940.659,570.854c0-2.13-0.784-3.234-2.629-3.234h-0.393c-1.845,0-2.63,1.065-2.63,3.234v6.545c0,2.131,0.785,3.272,2.63,3.272
			h0.393c1.884,0,2.629-1.142,2.629-3.272V570.854z M935.164,562.028c0,2.13,0.785,3.271,2.63,3.271h0.079
			c1.884,0,2.63-1.141,2.63-3.271V557.5c0-2.093-0.746-3.235-2.63-3.235h-0.079c-1.845,0-2.63,1.104-2.63,3.235V562.028z"/>
		<path fill="#231F20" d="M958.836,557.651v19.634c0,4.108-1.649,5.708-5.457,5.708h-0.038c-3.808,0-5.457-1.637-5.457-5.556v-2.359
			l2.827-0.152v2.626c0,1.979,0.745,3.12,2.63,3.12h0.038c1.845,0,2.631-1.142,2.631-3.272v-10.426
			c-0.902,1.522-2.159,2.55-3.886,2.55h-0.158c-2.472,0-4.198-1.484-4.198-5.556v-6.316c0-4.108,1.647-5.708,5.455-5.708h0.156
			C957.187,551.943,958.836,553.543,958.836,557.651z M953.379,554.265h-0.156c-1.845,0-2.63,1.143-2.63,3.235v6.201
			c0,2.396,0.629,3.501,2.355,3.501h0.156c1.925,0,2.905-2.396,2.905-3.805V557.5C956.01,555.407,955.264,554.265,953.379,554.265z"
			/>
		<path fill="#231F20" d="M975.011,569.257v8.028c0,4.108-1.649,5.708-5.457,5.708h-0.157c-3.807,0-5.455-1.6-5.455-5.708v-19.634
			c0-4.108,1.648-5.708,5.455-5.708h0.04c3.808,0,5.456,1.6,5.456,5.557v1.217l-2.827,0.152v-1.483c0-1.979-0.745-3.121-2.629-3.121
			h-0.04c-1.844,0-2.63,1.143-2.63,3.235v8.751c0.903-1.484,2.159-2.55,3.886-2.55h0.158
			C973.282,563.701,975.011,565.185,975.011,569.257z M972.184,569.523c0-2.396-0.628-3.501-2.315-3.501h-0.157
			c-1.962,0-2.944,2.396-2.944,3.805v7.572c0,2.131,0.746,3.272,2.63,3.272h0.157c1.845,0,2.63-1.142,2.63-3.272V569.523z"/>
	</g>
	<g>
		<rect x="26.617" y="539.727" fill="#231F20" width="407.674" height="1.359"/>
		<rect x="570.183" y="539.727" fill="#231F20" width="403.598" height="1.359"/>
	</g>
	<g>
		<path fill="#231F20" d="M81.943,504.103H55.357v3.379h5.755c0.915,0,1.615,0.229,2.098,0.687c0.482,0.459,0.724,1.147,0.724,2.061
			v5.014c0,3.564-1.076,6.423-3.226,8.577c-2.151,2.153-5.129,3.231-8.937,3.231c-2.892,0-5.45-0.824-7.674-2.469
			c-2.225-1.645-3.881-4.161-4.969-7.551c-1.087-3.387-1.631-8.559-1.631-15.508c0-6.185,0.655-11.063,1.968-14.637
			c1.312-3.575,3.124-6.202,5.439-7.885c2.313-1.682,4.883-2.524,7.705-2.524c3.688,0,7.036,1.456,10.043,4.364
			s5.39,7.643,7.147,14.202h3.267L71.731,473.1h-2.636l-3.115,5.605c-2.477-2.078-4.815-3.532-7.018-4.36
			c-2.204-0.831-4.718-1.245-7.539-1.245c-7.6,0-14.023,2.734-19.271,8.2c-5.248,5.468-7.872,12.468-7.872,21.001
			c0,5.791,1.113,10.749,3.341,14.882c2.228,4.131,5.385,7.384,9.468,9.758c4.084,2.375,8.614,3.562,13.589,3.562
			c3.738,0,6.986-0.741,9.747-2.228c2.76-1.485,5.181-3.837,7.259-7.054l4.642,9.244h2.896v-20.236c0-0.866,0.266-1.541,0.798-2.022
			c0.532-0.483,1.393-0.725,2.581-0.725h3.342V504.103z"/>
		<path fill="#231F20" d="M122.887,525.055c-0.525,0-0.996-0.273-1.412-0.82c-0.416-0.548-0.898-1.885-1.446-4.006
			c-0.878-3.307-2.008-6.143-3.39-8.506c-1.05-1.799-2.258-3.154-3.625-4.067c-1.367-0.909-3.317-1.572-5.855-1.992
			c5.058-0.501,8.801-1.596,11.231-3.28c3.196-2.209,4.793-5.096,4.793-8.663c0-2.231-0.635-4.261-1.904-6.087
			c-1.27-1.825-3.201-3.27-5.795-4.33c-2.594-1.062-5.949-1.594-10.065-1.594h-25.35v3.055h4.138c0.853,0,1.51,0.234,1.969,0.707
			c0.46,0.47,0.69,1.208,0.69,2.214V524.3c0,0.921-0.252,1.636-0.755,2.149c-0.502,0.517-1.248,0.772-2.233,0.772h-3.809v3.054
			h24.594v-3.054h-4.399c-0.876,0-1.643-0.274-2.299-0.821c-0.46-0.416-0.69-1.017-0.69-1.805v-17.897h3.579
			c1.511,0,2.781,0.339,3.809,1.019c1.029,0.678,1.867,1.72,2.513,3.121c0.645,1.398,1.373,4.135,2.184,8.206
			c0.699,3.482,1.247,5.693,1.641,6.636c0.656,1.641,1.614,2.888,2.874,3.743c1.258,0.853,2.927,1.278,5.008,1.278
			c2.91,0,5.166-0.879,6.763-2.643c1.599-1.761,2.507-4.68,2.725-8.75h-2.89C125.197,523.139,124.332,525.055,122.887,525.055z
			 M101.379,503.742h-4.105v-15.267c0-1.556,0.263-2.558,0.788-3.005c0.525-0.451,1.818-0.674,3.875-0.674
			c3.831,0,6.524,0.717,8.079,2.151c1.553,1.432,2.331,3.703,2.331,6.813c0,3.371-0.788,5.768-2.364,7.191
			C107.881,502.813,105.013,503.742,101.379,503.742z"/>
		<path fill="#231F20" d="M178.18,526.564c-0.612-0.438-1.183-1.27-1.708-2.494l-18.21-43.574h-3.688l-17.413,41.57
			c-0.702,1.642-1.691,2.988-2.966,4.039c-0.9,0.744-1.943,1.116-3.129,1.116h-1.055v3.054h18.455v-3.054h-1.547
			c-1.819,0-3.256-0.443-4.309-1.33c-1.053-0.885-1.579-2.041-1.579-3.465c0-0.83,0.362-2.102,1.086-3.809l1.726-4.104h18.182
			l3.746,8.998c0.262,0.634,0.394,1.192,0.394,1.673c0,0.613-0.318,1.105-0.952,1.479c-0.635,0.372-1.795,0.558-3.48,0.558h-2.135
			v3.054h22.788v-3.054h-1.773C179.606,527.222,178.796,527.003,178.18,526.564z M145.199,511.296l7.783-18.508l7.704,18.508
			H145.199z"/>
		<path fill="#231F20" d="M214.617,514.613l-11.029-32.904h-19.559v3.055h3.842c1.313,0,2.2,0.221,2.66,0.658
			c0.459,0.437,0.69,1.323,0.69,2.656v31.396c0,2.165-0.63,3.951-1.889,5.351c-1.259,1.402-3.026,2.2-5.303,2.396v3.054h18.028
			v-3.054c-2.453-0.262-4.324-1.046-5.615-2.347c-1.292-1.303-1.938-2.973-1.938-5.008v-35.496l15.388,45.904h2.903l15.432-45.512
			v39.732c0,0.854-0.225,1.521-0.673,2.005c-0.449,0.48-1.101,0.721-1.955,0.721h-4.662v3.054h24.726v-3.054h-3.859
			c-1.122,0-2.012-0.262-2.672-0.788c-0.44-0.351-0.66-0.997-0.66-1.938V487.39c0-0.963,0.203-1.642,0.61-2.034
			c0.408-0.395,1.149-0.592,2.227-0.592h4.355v-3.055H225.6L214.617,514.613z"/>
		<path fill="#231F20" d="M295.179,526.564c-0.614-0.438-1.183-1.27-1.709-2.494l-18.211-43.574h-3.687l-17.413,41.57
			c-0.702,1.642-1.691,2.988-2.964,4.039c-0.901,0.744-1.944,1.116-3.131,1.116h-1.054v3.054h18.454v-3.054h-1.545
			c-1.821,0-3.256-0.443-4.31-1.33c-1.053-0.885-1.579-2.041-1.579-3.465c0-0.83,0.361-2.102,1.085-3.809l1.726-4.104h18.182
			l3.746,8.998c0.263,0.634,0.394,1.192,0.394,1.673c0,0.613-0.318,1.105-0.952,1.479c-0.635,0.372-1.795,0.558-3.48,0.558h-2.135
			v3.054h22.788v-3.054h-1.773C296.604,527.222,295.793,527.003,295.179,526.564z M262.196,511.296l7.784-18.508l7.704,18.508
			H262.196z"/>
		<path fill="#231F20" d="M335.441,484.764c2.342,0.155,4.148,0.903,5.417,2.249s1.905,3.135,1.905,5.368v22.627l-26.303-33.299
			h-15.072v3.055h2.168c2.276,0,4.147,0.97,5.614,2.91v31.351c0,2.404-0.656,4.371-1.97,5.9c-1.313,1.531-2.933,2.297-4.86,2.297
			h-1.346v3.054h19.604v-3.054h-0.821c-2.058,0-3.782-0.692-5.171-2.083c-1.391-1.388-2.087-3.603-2.087-6.641V491.96l29.927,38.315
			h3.798v-37.895c0-2.383,0.536-4.187,1.608-5.399c1.072-1.216,2.845-1.954,5.32-2.218v-3.055h-17.731V484.764z"/>
		<path fill="#231F20" d="M391.461,481.709v3.055c2.341,0.155,4.148,0.903,5.418,2.249c1.268,1.346,1.904,3.135,1.904,5.368v22.627
			l-26.303-33.299h-15.071v3.055h2.168c2.276,0,4.148,0.97,5.614,2.91v31.351c0,2.404-0.657,4.371-1.969,5.9
			c-1.314,1.531-2.934,2.297-4.861,2.297h-1.346v3.054h19.604v-3.054h-0.82c-2.058,0-3.783-0.692-5.172-2.083
			c-1.391-1.388-2.085-3.603-2.085-6.641V491.96l29.927,38.315h3.797v-37.895c0-2.383,0.536-4.187,1.609-5.399
			c1.072-1.216,2.845-1.954,5.32-2.218v-3.055H391.461z"/>
	</g>
	<g>
		<path fill="#231F20" d="M646.422,525.192c-0.696-0.495-1.338-1.436-1.932-2.821L623.897,473.1h-4.17l-19.689,47.006
			c-0.795,1.857-1.912,3.379-3.351,4.568c-1.02,0.841-2.201,1.261-3.541,1.261h-1.191v3.453h20.866v-3.453h-1.747
			c-2.059,0-3.684-0.5-4.875-1.502c-1.19-1.002-1.785-2.309-1.785-3.918c0-0.939,0.41-2.378,1.228-4.308l1.954-4.641h20.559
			l4.233,10.173c0.297,0.718,0.447,1.35,0.447,1.893c0,0.694-0.359,1.252-1.076,1.672c-0.72,0.421-2.032,0.631-3.937,0.631h-2.412
			v3.453h25.768v-3.453h-2.008C648.031,525.935,647.114,525.688,646.422,525.192z M609.127,507.926l8.8-20.925l8.709,20.925H609.127
			z"/>
		<path fill="#231F20" d="M685.032,484.764h2.824c1.16,0,1.987,0.229,2.48,0.688c0.491,0.461,0.739,1.271,0.739,2.432v15.103h-18.52
			v-15.923c0-0.702,0.229-1.26,0.69-1.678c0.457-0.414,1.158-0.622,2.101-0.622h3.316v-3.055h-22.493v3.055h2.824
			c1.115,0,1.925,0.234,2.429,0.707c0.506,0.47,0.755,1.274,0.755,2.413v36.612c0,0.963-0.19,1.657-0.573,2.086
			c-0.385,0.429-0.991,0.64-1.822,0.64h-3.612v3.054h22.493v-3.054h-3.91c-0.678,0-1.213-0.219-1.606-0.657
			c-0.395-0.438-0.591-1.128-0.591-2.068v-17.47h18.52v17.47c0,0.986-0.202,1.687-0.605,2.101c-0.407,0.418-1.08,0.625-2.021,0.625
			h-3.417v3.054h22.529v-3.054h-3.382c-0.9,0-1.596-0.247-2.088-0.738c-0.494-0.493-0.736-1.274-0.736-2.347v-36.68
			c0-0.921,0.238-1.599,0.721-2.035c0.48-0.438,1.303-0.658,2.463-0.658h3.022v-3.055h-22.529V484.764z"/>
		<path fill="#231F20" d="M757.835,525.055c-0.525,0-0.996-0.273-1.413-0.82c-0.418-0.548-0.898-1.885-1.446-4.006
			c-0.879-3.307-2.01-6.143-3.391-8.506c-1.05-1.799-2.258-3.154-3.625-4.067c-1.366-0.909-3.318-1.572-5.857-1.992
			c5.058-0.501,8.802-1.596,11.231-3.28c3.196-2.209,4.794-5.096,4.794-8.663c0-2.231-0.636-4.261-1.904-6.087
			c-1.27-1.825-3.2-3.27-5.795-4.33c-2.596-1.062-5.95-1.594-10.063-1.594h-25.351v3.055h4.137c0.854,0,1.51,0.234,1.972,0.707
			c0.459,0.47,0.688,1.208,0.688,2.214V524.3c0,0.921-0.252,1.636-0.755,2.149c-0.505,0.517-1.246,0.772-2.232,0.772h-3.809v3.054
			h24.596v-3.054h-4.403c-0.874,0-1.64-0.274-2.297-0.821c-0.459-0.416-0.69-1.017-0.69-1.805v-17.897h3.578
			c1.513,0,2.781,0.339,3.813,1.019c1.026,0.678,1.864,1.72,2.511,3.121c0.646,1.398,1.374,4.135,2.184,8.206
			c0.699,3.482,1.247,5.693,1.642,6.636c0.656,1.641,1.612,2.888,2.873,3.743c1.259,0.853,2.927,1.278,5.008,1.278
			c2.91,0,5.168-0.879,6.765-2.643c1.598-1.761,2.508-4.68,2.726-8.75h-2.891C760.142,523.139,759.277,525.055,757.835,525.055z
			 M736.324,503.742h-4.104v-15.267c0-1.556,0.262-2.558,0.789-3.005c0.525-0.451,1.816-0.674,3.875-0.674
			c3.829,0,6.523,0.717,8.077,2.151c1.555,1.432,2.332,3.703,2.332,6.813c0,3.371-0.787,5.768-2.363,7.191
			C742.827,502.813,739.958,503.742,736.324,503.742z"/>
		<path fill="#231F20" d="M800.326,504.906c4.181-1.094,7.314-2.624,9.406-4.594c2.09-1.967,3.136-4.375,3.136-7.218
			c0-3.236-1.311-5.945-3.939-8.12c-2.628-2.175-6.229-3.266-10.803-3.266h-29.455v3.055h3.775c1.159,0,1.987,0.177,2.48,0.524
			c0.492,0.352,0.738,0.811,0.738,1.381v37.598c0,0.874-0.263,1.629-0.788,2.265c-0.394,0.461-0.977,0.69-1.742,0.69h-4.464v3.054
			h27.844c4.007,0,7.482-0.558,10.427-1.675c2.943-1.119,5.006-2.399,6.191-3.846c1.66-2.037,2.493-4.469,2.493-7.294
			c0-3.198-1.165-5.861-3.498-7.987C809.798,507.349,805.863,505.827,800.326,504.906z M786.073,487.386
			c0-0.983,0.277-1.661,0.838-2.031c0.558-0.37,1.878-0.558,3.954-0.558c4.361,0,7.313,0.667,8.868,1.998
			c1.554,1.333,2.333,3.573,2.333,6.722c0,3.627-0.813,6.229-2.433,7.802c-1.618,1.573-4.311,2.358-8.077,2.358h-5.483V487.386z
			 M801.853,524.693c-1.763,1.686-4.187,2.528-7.275,2.528h-6.305c-0.677,0-1.213-0.24-1.606-0.721
			c-0.396-0.483-0.593-1.184-0.593-2.104v-17.664h7.388c3.592,0,6.328,0.9,8.21,2.707c1.884,1.806,2.823,4.418,2.823,7.829
			C804.494,520.533,803.613,523.008,801.853,524.693z"/>
		<path fill="#231F20" d="M857.625,523.379c-2.541,2.561-5.813,3.843-9.819,3.843h-5.846c-1.313,0-2.319-0.24-3.019-0.721
			c-0.461-0.33-0.69-0.888-0.69-1.676v-17.962h1.871c2.912,0,5.091,0.766,6.535,2.3c1.443,1.531,2.265,4.168,2.46,7.913h2.959
			v-22.592h-2.959c-0.26,3.305-1.108,5.701-2.541,7.19c-1.437,1.488-3.456,2.233-6.06,2.233h-2.266v-16.845
			c0-0.724,0.229-1.289,0.69-1.693c0.458-0.405,1.202-0.606,2.232-0.606h6.632c2.671,0,4.832,0.438,6.487,1.313
			c1.652,0.876,2.985,2.195,4.004,3.958c1.019,1.762,1.868,4.645,2.548,8.65h2.888l-0.953-16.977h-42.292v3.055h3.842
			c1.336,0,2.259,0.186,2.772,0.559c0.518,0.374,0.773,0.951,0.773,1.741v37.364c0,0.857-0.256,1.533-0.773,2.039
			c-0.514,0.503-1.264,0.755-2.247,0.755h-4.367v3.054h44.1l0.721-18.486h-2.954C861.74,516.955,860.165,520.82,857.625,523.379z"/>
		<path fill="#231F20" d="M915.976,525.055c-0.525,0-0.995-0.273-1.409-0.82c-0.418-0.548-0.9-1.885-1.449-4.006
			c-0.878-3.307-2.008-6.143-3.389-8.506c-1.05-1.799-2.259-3.154-3.626-4.067c-1.367-0.909-3.319-1.572-5.856-1.992
			c5.059-0.501,8.8-1.596,11.231-3.28c3.195-2.209,4.796-5.096,4.796-8.663c0-2.231-0.636-4.261-1.906-6.087
			c-1.27-1.825-3.202-3.27-5.795-4.33c-2.595-1.062-5.949-1.594-10.063-1.594h-25.352v3.055h4.136c0.854,0,1.512,0.234,1.973,0.707
			c0.458,0.47,0.688,1.208,0.688,2.214V524.3c0,0.921-0.25,1.636-0.756,2.149c-0.504,0.517-1.247,0.772-2.23,0.772h-3.81v3.054
			h24.596v-3.054h-4.403c-0.876,0-1.639-0.274-2.299-0.821c-0.457-0.416-0.688-1.017-0.688-1.805v-17.897h3.579
			c1.512,0,2.78,0.339,3.811,1.019c1.028,0.678,1.864,1.72,2.511,3.121c0.644,1.398,1.372,4.135,2.186,8.206
			c0.698,3.482,1.245,5.693,1.639,6.636c0.66,1.641,1.615,2.888,2.875,3.743c1.258,0.853,2.927,1.278,5.008,1.278
			c2.912,0,5.165-0.879,6.765-2.643c1.596-1.761,2.505-4.68,2.726-8.75h-2.889C918.286,523.139,917.42,525.055,915.976,525.055z
			 M894.469,503.742h-4.105v-15.267c0-1.556,0.264-2.558,0.789-3.005c0.526-0.451,1.815-0.674,3.873-0.674
			c3.831,0,6.522,0.717,8.078,2.151c1.556,1.432,2.332,3.703,2.332,6.813c0,3.371-0.789,5.768-2.365,7.191
			C900.973,502.813,898.101,503.742,894.469,503.742z"/>
		<path fill="#231F20" d="M954.887,507.914v2.987h5.092c0.81,0,1.428,0.203,1.853,0.607c0.428,0.405,0.643,1.015,0.643,1.822v4.434
			c0,3.153-0.951,5.682-2.854,7.585c-1.9,1.905-4.535,2.858-7.901,2.858c-2.56,0-4.82-0.729-6.787-2.184
			c-1.969-1.453-3.435-3.68-4.396-6.676c-0.96-2.997-1.441-7.57-1.441-13.717c0-5.471,0.58-9.783,1.738-12.943
			c1.161-3.162,2.766-5.485,4.813-6.975c2.046-1.486,4.317-2.232,6.813-2.232c3.263,0,6.22,1.287,8.881,3.86
			c2.661,2.572,4.769,6.759,6.323,12.56h2.887l-1.18-19.405h-2.332l-2.756,4.956c-2.188-1.838-4.258-3.124-6.207-3.856
			c-1.948-0.735-4.171-1.1-6.666-1.1c-6.72,0-12.402,2.418-17.042,7.251c-4.642,4.836-6.964,11.026-6.964,18.572
			c0,5.122,0.985,9.507,2.955,13.161c1.971,3.654,4.762,6.529,8.374,8.629c3.61,2.103,7.62,3.15,12.019,3.15
			c3.306,0,6.178-0.655,8.621-1.969c2.44-1.314,4.58-3.396,6.418-6.239l4.104,8.177h2.56v-17.897c0-0.766,0.237-1.362,0.709-1.789
			c0.471-0.427,1.232-0.641,2.281-0.641h2.955v-2.987H954.887z"/>
	</g>
	<g>
		<path fill="#231F20" d="M502.237,581.853c-42.71,0-77.458-34.747-77.458-77.458c0-42.71,34.748-77.458,77.458-77.458
			c42.71,0,77.458,34.748,77.458,77.458C579.695,547.105,544.947,581.853,502.237,581.853z M502.237,429.655
			c-41.212,0-74.74,33.528-74.74,74.74s33.528,74.74,74.74,74.74s74.74-33.528,74.74-74.74S543.449,429.655,502.237,429.655z"/>
	</g>
	<path fill="#231F20" d="M502.237,436.449c-37.525,0-67.946,30.42-67.946,67.945s30.42,67.946,67.946,67.946
		s67.945-30.421,67.945-67.946S539.763,436.449,502.237,436.449z M502.237,565.546c-33.773,0-61.151-27.379-61.151-61.151
		s27.378-61.151,61.151-61.151s61.151,27.378,61.151,61.151S536.011,565.546,502.237,565.546z"/>
	<path fill="#231F20" d="M505.635,466.572c-0.793-0.794-2.039-1.924-0.793-2.604c1.662-0.906,4.734,1.644,5.426-0.809
		c0.398-1.414-0.939-2.354-2.142-2.703c-3.511-1.02-5.889,2.718-5.889,2.718h-1.132c0,0-2.378-3.737-5.889-2.718
		c-1.202,0.349-2.539,1.289-2.141,2.703c0.691,2.452,3.764-0.098,5.425,0.809c1.246,0.68,0.001,1.81-0.792,2.604l-59.34,49.826
		v4.304l9.513-7.135v28.197h107.581v-28.197l9.513,7.135v-4.304L505.635,466.572z M495.76,473.395l1.359-1.125v21.934h-1.359
		V473.395z M490.641,477.632l1.359-1.125v17.696h-1.359V477.632z M485.523,481.871l1.359-1.126v13.458h-1.359V481.871z
		 M480.404,486.107l1.359-1.125v9.221h-1.359V486.107z M476.757,500.264c0-2.597,2.206-4.702,4.926-4.702
		c2.72,0,4.926,2.105,4.926,4.702v1.136h-9.852V500.264z M463.621,500.264c0-0.044,0.012-0.084,0.013-0.127l5.546-4.514
		c2.418,0.299,4.293,2.251,4.293,4.641v1.136h-9.852V500.264z M460.111,539.727h-9.852v-9.513h9.852V539.727z M460.111,528.855
		h-9.852v-8.833h9.852V528.855z M460.111,518.663h-9.852v-1.188c0-2.721,2.206-4.926,4.926-4.926c2.721,0,4.926,2.205,4.926,4.926
		V518.663z M460.111,509.943h-7.814l7.814-6.567V509.943z M463.621,502.696h9.852v7.134h-9.852V502.696z M473.7,518.663h-9.853
		v-1.188c0-2.721,2.206-4.926,4.926-4.926c2.721,0,4.926,2.205,4.926,4.926V518.663z M476.645,494.203h-1.358v-3.856l1.358-1.126
		V494.203z M476.757,502.696h9.852v7.134h-9.852V502.696z M487.289,539.727h-9.852v-9.513h9.852V539.727z M487.289,528.855h-9.852
		v-8.833h9.852V528.855z M487.289,518.663h-9.852v-1.188c0-2.721,2.206-4.926,4.926-4.926c2.72,0,4.926,2.205,4.926,4.926V518.663z
		 M499.745,509.83h-9.852v-7.134h9.852V509.83z M499.745,501.399h-9.852v-1.136c0-2.597,2.206-4.702,4.926-4.702
		c2.721,0,4.926,2.105,4.926,4.702V501.399z M502.237,494.203h-1.359v-25.819h1.359V494.203z M543.854,503.376l7.814,6.567h-7.814
		V503.376z M529.301,500.264c0-2.412,1.91-4.377,4.361-4.647l5.47,4.452c0.003,0.066,0.021,0.129,0.021,0.195v1.136h-9.852V500.264z
		 M521.443,484.918l1.359,1.125v8.16h-1.359V484.918z M516.324,480.681l1.359,1.125v12.397h-1.359V480.681z M516.164,500.264
		c0-2.597,2.206-4.702,4.927-4.702s4.926,2.105,4.926,4.702v1.136h-9.853V500.264z M511.206,476.441l1.358,1.126v16.636h-1.358
		V476.441z M506.088,472.204l1.359,1.124v20.875h-1.359V472.204z M512.881,509.83h-9.852v-7.134h9.852V509.83z M512.881,501.399
		h-9.852v-1.136c0-2.597,2.205-4.702,4.926-4.702s4.926,2.105,4.926,4.702V501.399z M516.164,502.696h9.853v7.134h-9.853V502.696z
		 M526.018,539.727h-9.852v-9.513h9.852V539.727z M526.018,528.855h-9.852v-8.833h9.852V528.855z M526.018,518.663h-9.852v-1.188
		c0-2.721,2.205-4.926,4.926-4.926s4.926,2.205,4.926,4.926V518.663z M527.92,494.203h-1.358v-5.047l1.358,1.125V494.203z
		 M529.301,502.696h9.852v7.134h-9.852V502.696z M539.607,539.727h-9.852v-9.513h9.852V539.727z M539.607,518.663h-9.852v-1.188
		c0-2.721,2.205-4.926,4.926-4.926c2.72,0,4.926,2.205,4.926,4.926V518.663z M553.196,539.727h-9.852v-9.513h9.852V539.727z
		 M553.196,528.855h-9.852v-8.833h9.852V528.855z M553.196,518.663h-9.852v-1.188c0-2.721,2.205-4.926,4.926-4.926
		s4.926,2.205,4.926,4.926V518.663z"/>
	<g>
		<circle fill="#231F20" cx="89.807" cy="557.845" r="1.472"/>
		<circle fill="#231F20" cx="95.696" cy="557.845" r="1.472"/>
	</g>
	<g>
		<circle fill="#231F20" cx="835.737" cy="557.845" r="1.472"/>
		<circle fill="#231F20" cx="841.626" cy="557.845" r="1.472"/>
	</g>
</g>
</svg>
