<?xml version="1.0" encoding="utf-8"?>
<!-- Generator: Adobe Illustrator 16.0.0, SVG Export Plug-In . SVG Version: 6.00 Build 0)  -->
<!DOCTYPE svg PUBLIC "-//W3C//DTD SVG 1.1 Tiny//EN" "http://www.w3.org/Graphics/SVG/1.1/DTD/svg11-tiny.dtd">
<svg version="1.1" baseProfile="tiny" id="Layer_1" xmlns="http://www.w3.org/2000/svg" xmlns:xlink="http://www.w3.org/1999/xlink"
	 x="0px" y="0px" width="768px" height="600px" viewBox="0 0 768 600" xml:space="preserve">
<g>
	<path d="M659.952,61.5c-12.988,0-14.564-3.456-15.996-5.993c-3.668-6.504-9.664-4.175-11.586,2.085
		c-2.455,7.999-9.03,10.066-14.018,2.867c-3.988-5.756-6.959-10.488-14.9-9.959c-15,1-18,13-28.5,13s-22.5-17.5-14-23.5
		s13.5,4.5,19,10s15-6,3.5-23.5c-11.5-17.5-36.498-6.834-38.5,12.498c-0.583,5.629,0.431,14.973-4.11,19.275
		c-2.933,2.777-6.325,1.165-9.27-0.579c-4.196-2.485-6.664-1.683-10.614,1.801c-6.172,5.444-8.661,8.775-14.971,1.245
		c-5.368-6.407-18.701-8.407-26.535,0.76c-8.74,10.228-1.003,35.791-8.5,36c-6,0.167-1-16.5-3.5-31.5s-14.5-17.5-23-9.5s-17,8-19-6
		s0-22.5-8.5-24s-10.5,12.5-11,25.003c-0.133,3.326-0.289,6.575-0.308,9.939c-0.025,4.557-4.692,6.5-4.692-0.109
		c0-2.999-3.329-5.665-8.325-2.006c-4.146,3.037-4.656,2.38-7.286-1.18c-2.614-3.54-6.067-4.562-10.389-3.481
		c-6.667,1.667-9,8.001-9,16.667s-0.667,11-3.667,12s-6.667-1.667-8.667-7.667s-2.667-8.333-6-8.333s-5.333,6-7,12
		s-2.667,11.333-8.333,11.333s-6-5.333-8-12s-4.333-15.333-14-14.333s-17,1-20.333-9.667s-4-22.667-14.333-21.333
		c-7.472,0.964-8.817,9.372-10.079,14.894c-0.785,3.438-1.419,7.339-3.261,10.412c-3.27,5.457-12.625,6.663-18.321,7.453
		c-6.905,0.959-10.836-1.757-11.007-9.092c-0.333-14.333-1.333-22.333-10.333-20c-8.718,2.26-7.667,24.666-7.667,35.333
		s-0.333,12-3,12s-2.333-4.667-4.333-12s-3.043-11.127-9-10.333c-5,0.667-7,8-8.333,14.667s-3,11.667-9.667,11.667
		c-10.333,0-6-29-22.667-25c-14.217,3.412-3,23-8,30.667c-5,7.666-11.999-3.331-16-7.332c-9-9.001,5.497-14.461,9.462-19.798
		c4.216-5.675,7.481-14.112,7.883-21.202c0.473-8.339-6.807-15.519-14.504-10.46c-6.319,4.154-8.131,13.173-9.517,20.158
		c-0.889,4.483-1.167,17.313-7.324,15.634c-7.333-2-2.667-26-9.667-34c-2.954-3.376-7.463-5.563-11.683-5.143
		c-10.348,1.032-11.546,14.958-11.315,22.81c0.667,22.667,1.667,34.334,3,49.667s3.333,26.667,16.667,28s8.333-17,8.333-21.667
		s0.667-13.999,8.667-11.333c7.99,2.663,15.981,29.268,25.299,29.333c5.492,0.038,6.001-2.76,7.435-7.084
		c1.674-5.049,5.436-7.006,8.599-1.583c4.667,8,12.666,12,21.333,12s13.333-4.666,17.333-13.333s8.667-9.999,12.667-1.333
		s5.333,16.666,18,18.666s26.667-13.333,26.667-21.333s-6.06-12.056-14.667-2.667c-7.334,8-9.652,3.257-10.667-3.333
		c-1.334-8.667-4-22.667,10.667-28s23.333,2.001,24,16.667s1.333,21.334,1.333,26s2.333,15.333,11.667,14
		c9.899-1.414,8.999-16.334,9-27.334c0.001-10.749-2.667-25.999,8-26.666s9.333,8.666,10,18.666s-0.667,32,19.333,34
		s23.333-12.666,24-25.333s10-8.667,10,1.333s0.666,22.668,11.333,21.334s6.667-16.668,6.667-29.334s-1.001-28,5.499-28
		s4.5,8.333,9.5,8c5.654-0.377,3.097-7.928,7.5-7c3.167,0.667,1,3.5,2,17s-1.238,34.716,10,35.5c7.167,0.5,12.37-3.359,10.5-23
		c-1.666-17.5,0.137-23.368,6-22c5,1.167,5,15.5,5,22.5s1,20,12.502,20.5c4.961,0.215,8.979-1.807,10.828-6.479
		c1.494-3.776-0.436-9.572,2.883-12.536c3.095-2.765,6.986-0.723,7.787,3.015c1.5,7-0.5,15.5,10.5,18
		c4.988,1.134,10.491,0.525,14.519-2.837c4.538-3.789,2.315-10.663,4.505-13.166c2.626-3.002,6.811-2.497,7.977,3.497
		c1.523,7.833,7.393,15.157,15.425,10.413c6.478-3.826,4.527-16.879,4.075-22.907c-1.5-20,6-21,10-15.5s0.5,37,0,59s4,30,13,30
		s13-13,10.5-42.5s-7.5-47.5,3.5-51.5s9,6,6,17s-0.5,23,9.5,28s23.5-4,29-15.5s4.5-16-2-16s-10.5,13-18,9s-2-22.5,4.5-21
		s10,2,14.5-0.5s12.5-3.5,13,5.5s-7.5,33,4,37s10.5-15,9.5-23s0.5-18.5,6.5-19s7.5,6.5,7.5,18s1,23,8,24s14.5-8.5,17-32
		S672.952,61.5,659.952,61.5z M499.994,93.195c-2.845,0.894-6.013-1.137-7.078-4.533s0.376-6.871,3.221-7.764
		c2.843-0.892,6.011,1.139,7.076,4.534C504.278,88.829,502.837,92.305,499.994,93.195z M602.132,76.05
		c-2.46,0.772-5.279-1.237-6.299-4.487c-1.02-3.249,0.147-6.508,2.607-7.28c2.459-0.771,5.278,1.238,6.298,4.487
		C605.758,72.02,604.591,75.279,602.132,76.05z"/>
	<g>
		<path d="M699.281,214.478c-2.511,0-5.896,0.292-10.182,0.661c-4.167,0.359-9.355,0.806-15.649,1.155
			c-19.362,1.076-47.066,2.164-55.766,2.497c0.005-0.39,0.011-0.765,0.016-1.127c0.137-8.804-0.288-11.656-10.074-13.054
			c-8.95-1.278-57.936-10.298-58.35-10.373c-77.375-16.764-113.266-18.255-113.618-18.268l-0.492-0.019l-25.755,9.015
			c-4.494-1.168-10.731-4.278-16.268-7.038c-7.63-3.803-12.468-6.134-15.658-6.134c-2.607,0-4.358,1.677-4.358,4.173
			c0,4.593-0.68,11.985-1.051,15.677c-20,0.995-97.69,12.91-166.117,31.239c-46.663,12.499-91.628,21.181-133.646,25.804
			l-1.244,0.137c-5.375,0.597-9.14,2.32-11.187,5.12c-1.647,2.251-1.632,4.484-1.539,5.388c-0.109,3.056-1.359,38.517-2.595,81.753
			c-1.162,40.643,1.489,84.41,2.609,97.846c0.108,1.298,0.195,2.447,0.272,3.469c0.646,8.521,0.939,9.984,7.532,11.733
			c1.9,0.504,4.502,1.195,8.153,2.615c25.759,10.018,241.596,91.557,292.308,106.201v17.545c0,4.771,3.889,6.504,6.504,6.504h0.668
			l25.603-14.082l34.71,11.569l0.689-0.145c15.891-3.346,55.177-18.505,89.839-31.881c19.081-7.363,37.104-14.318,47.025-17.624
			c26.951-8.985,40.116-12.945,40.247-12.983l1.854-0.557v-11.217c12.836-0.894,72.511-5.027,79.345-5.027
			c4.053,0,6.248-1.98,7.117-6.422c0.724-3.7,0.778-9.646,0.876-20.441c0.099-10.852,0.234-25.712,1.109-47.173
			c2.578-63.156,5.205-204.386,5.205-210.824C707.414,214.478,701.505,214.478,699.281,214.478z M609.425,367.57
			c-0.656,44.099-0.815,102.537-0.854,127.698c-2.326,0.851-7.817,2.851-15.738,5.694c-36.322-12.344-143.908-39.173-156.691-42.35
			c-0.184-36.461-0.036-72.135,0.109-106.906c0.091-21.744,0.177-42.283,0.177-62.141c0-12.893,0.084-25.486,0.216-37.288
			c5.917-1.246,25.416-5.66,54.372-15.311c29.842-9.948,58.1-17.141,65.521-18.982c34.62,7.25,50.093,10.429,55.729,11.578
			C611.712,252.722,610.129,320.385,609.425,367.57z M432.45,196.594l-16.349-8.458l16.741-5.859
			C432.75,185.374,432.61,190.271,432.45,196.594z M437.644,197.102c11.442,1.638,61.252,8.945,107.352,18.47
			c-12.699,3.341-33.741,9.165-55.626,16.459c-27.104,9.035-45.789,13.426-52.663,14.914
			C436.959,226.829,437.336,209.343,437.644,197.102z M431.702,578.2l-26.062-8.688l26.106-14.208
			C431.793,568.552,431.743,575.184,431.702,578.2z M436.636,512.806c10.15,4.367,40.38,17.414,53.918,23.721
			c-25.724,8.988-46.065,16.374-53.599,19.126C436.919,545.656,436.829,531.834,436.636,512.806z M436.576,507.117
			c-0.044-4.217-0.094-8.665-0.148-13.366c-0.034-2.912-0.056-5.804-0.085-8.707c8.715,2.825,36.173,11.812,65.981,22.458
			c16.442,5.873,29.485,9.963,37.077,12.238c-5.112,1.759-10.384,3.562-15.793,5.396c-9.178,3.113-18.107,6.188-26.56,9.126
			l0.16-0.32C486.467,528.572,444.592,510.558,436.576,507.117z M547.922,516.799c-1.898-0.525-18.921-5.294-43.848-14.197
			c-32.127-11.474-61.536-21.027-67.785-23.043c-0.046-5.208-0.082-10.398-0.113-15.575c16.491,4.104,108.973,27.246,148.667,39.839
			C574.764,507.416,562.138,511.874,547.922,516.799z M606.89,209.76c2.155,0.308,4.691,0.753,5.175,1.469
			c0.52,0.77,0.481,3.234,0.435,6.354c-0.018,1.152-0.038,2.444-0.038,3.893c-0.005,0.201-0.028,1.167-0.068,2.803
			c-6.31-1.289-21.981-4.516-55.081-11.448l-0.089-0.373c-0.027,0.006-0.306,0.074-0.781,0.19c-2.317-0.486-4.693-0.983-7.183-1.505
			c-47.956-10.055-100.996-17.784-111.48-19.279c0.125-4.712,0.23-8.302,0.3-10.542c9.458,0.656,44.859,3.863,110.176,18.014
			C550.273,199.709,597.837,208.467,606.89,209.76z M76.201,451.898c-3.922-1.524-6.687-2.259-8.705-2.795
			c-1.336-0.354-2.718-0.721-2.876-0.985c-0.388-0.652-0.57-3.062-0.801-6.111c-0.078-1.032-0.167-2.194-0.275-3.508
			c-1.113-13.354-3.749-56.86-2.594-97.265c1.286-44.995,2.588-81.563,2.601-81.928l0.025-0.225l-0.06-0.298
			c-0.005-0.037-0.107-0.917,0.643-1.87c1.16-1.475,3.819-2.512,7.485-2.919l1.239-0.137c42.28-4.653,87.506-13.384,134.423-25.951
			c67.818-18.165,144.536-29.994,164.604-31.051c0.216,8.192,0.602,35.963-2.248,80.84c-2.914,45.903-2.774,105.733-2.652,158.52
			c0.023,10.015,0.046,19.72,0.046,28.95c0,46.998-0.296,81.736-0.397,92.37C314.46,542.111,100.7,461.427,76.201,451.898z
			 M372.607,581.714c-0.781-0.228-0.781-0.854-0.781-1.22v-19.481c0.004-0.386,0.433-39.255,0.433-95.847
			c0-9.234-0.022-18.943-0.046-28.963c-0.123-52.706-0.262-112.445,2.643-158.177c3.294-51.892,2.279-81.153,2.179-83.758
			c0.166-1.522,1.166-10.909,1.284-17.169c2.593,0.544,7.826,3.153,12.505,5.485c6.241,3.112,12.68,6.312,17.776,7.528l23.71,12.267
			c-0.493,20.811-1.085,52.944-1.085,87.188c0,19.848-0.086,40.38-0.177,62.118c-0.191,45.888-0.391,93.338,0.177,142.127
			c0.288,24.82,0.434,42.731,0.497,55.582l-32.832,17.87l-0.005-0.003l-0.908,0.499l-0.079,0.044l0,0L372.607,581.714z
			 M608.559,517.435c-4.503,1.386-17.234,5.361-38.544,12.465c-10.035,3.346-27.282,10.001-47.252,17.707
			c-30.74,11.861-68.515,26.437-85.858,30.889c0.036-2.484,0.081-7.576,0.064-17.309c7.518-2.754,45.212-16.499,88.312-31.123
			c40.225-13.649,73.349-25.634,83.283-29.254c-0.002,1.815-0.004,3.301-0.004,4.419h-0.001v2.327v0.098V517.435z M697.011,430.805
			c-0.88,21.542-1.015,36.451-1.113,47.337c-0.092,10.141-0.147,16.261-0.78,19.488c-0.434,2.219-0.675,2.219-2.011,2.219
			c-7.033,0-65.605,4.058-79.344,5.016c0.011-14.833,0.098-85.788,0.865-137.215c0.776-52.038,2.62-129.017,2.975-143.649
			c8.376-0.32,36.518-1.421,56.138-2.511c6.371-0.354,11.603-0.805,15.806-1.167c4.161-0.358,7.448-0.641,9.735-0.641
			c1.94,0,2.676,0.214,2.921,0.318c0.006,0.047,0.01,0.11,0.01,0.193C702.212,226.623,699.586,367.699,697.011,430.805z"/>
		<g>
			<path d="M433.827,249.242l-0.867,210.719l10.406,3.468c0,0,0-25.147,0-102.323c0-55.594,1.35-96.333,2.104-114.774
				L433.827,249.242z"/>
		</g>
		<path d="M455.506,244.906c0,0-0.866,29.485-1.734,82.38c-0.867,52.896,0,124.87,0,137.01l19.078,6.07
			c0,0,2.602-111.864,2.602-155.222c0-43.356,1.301-77.176,1.301-77.176L455.506,244.906z"/>
		<path d="M496.262,231.898c0,0-0.866,43.883-1.734,98.51c-0.867,54.626-1.301,131.559-1.301,144.096l20.379,4.968
			c0,0,2.602-116.826,2.602-161.603c0-44.775,2.602-92.709,2.602-92.709L496.262,231.898z"/>
		<path d="M535.283,221.493c0,0-0.866,54.289-1.733,108.916c-0.868,54.626-1.301,141.964-1.301,154.501l21.679,6.27
			c0,0,1.301-128.533,1.301-173.31c0-44.775,2.602-103.115,2.602-103.115L535.283,221.493z"/>
		<path d="M580.374,220.192c0,0-0.866,55.589-1.733,110.216c-0.867,54.626-1.301,154.972-1.301,167.509l21.68,3.667
			c0,0,1.301-138.938,1.301-183.715c0-44.775,2.601-94.01,2.601-94.01L580.374,220.192z"/>
		<path d="M104.228,298.669c0-13.233-0.001-26.344-0.052-38.893c-2.177,0.324-4.335,0.633-6.491,0.938
			c-0.022,9.197-0.059,19.504-0.11,31.018c-0.331,73.471-0.167,98.702,0.163,158.122c2.055,0.704,4.22,1.443,6.493,2.217
			C103.948,395,104.228,330.69,104.228,298.669z M214.464,298.669c0-21.574-0.002-42.842-0.279-61.82
			c-1.397,0.368-2.794,0.736-4.188,1.109c-4.563,1.223-9.151,2.398-13.749,3.548c-0.017,13.338-0.079,29.893-0.219,50.226
			c-0.506,73.708-0.253,98.856,0.252,158.689c0.096,11.313,0.165,22.221,0.199,32.516c6.054,2.008,12.169,4.033,18.316,6.067
			c-0.027-3.119-0.059-6.294-0.095-9.533C213.987,417.035,214.464,335.957,214.464,298.669z M91.553,261.563
			c-3.779,0.51-7.523,0.993-11.221,1.445c-0.017,8.617-0.042,18.145-0.078,28.724c-0.239,70.919-0.134,96.898,0.097,152.056
			c2.874,1.036,6.656,2.365,11.225,3.945c-0.217-55.961,0.017-117.853,0.017-149.064C91.592,286.063,91.592,273.568,91.553,261.563z
			 M315.027,298.669c0-30.278,0-59.983-1.393-83.546c-6.62,1.174-13.588,2.47-20.805,3.874c0.082,15.436,0.05,38.851-0.349,72.735
			c-0.867,73.708-0.433,98.856,0.434,158.689c0.348,23.964,0.485,46.109,0.304,64.45c7.879,2.591,15.467,5.086,22.658,7.447
			c0.014-12.225-0.082-26.848-0.416-42.848C314.16,417.035,315.027,335.957,315.027,298.669z M238.717,298.669
			c0-23.874-0.004-47.375-0.687-67.807c-4.921,1.18-9.853,2.396-14.776,3.645c-0.002,14.401-0.056,33.165-0.211,57.225
			c-0.477,73.708-0.238,98.856,0.238,158.689c0.117,14.65,0.19,28.618,0.207,41.457c5.319,1.76,10.642,3.518,15.947,5.271
			c-0.065-5.657-0.158-11.564-0.285-17.678C237.85,417.035,238.717,335.957,238.717,298.669z M276.872,298.669
			c0-27.241-0.004-53.998-1.019-76.256c-6.922,1.439-13.994,2.967-21.15,4.578c0.033,15.173-0.042,36.251-0.377,64.741
			c-0.867,73.708-0.434,98.856,0.434,158.689c0.271,18.727,0.416,36.349,0.378,51.909c7.644,2.521,15.187,5.006,22.558,7.434
			c-0.047-9.259-0.165-19.458-0.39-30.293C276.005,417.035,276.872,335.957,276.872,298.669z M122.872,298.669
			c0-14.276-0.001-28.418-0.065-41.855c-3.894,0.657-7.768,1.291-11.611,1.892c-0.026,9.706-0.068,20.654-0.132,33.026
			c-0.38,73.708-0.19,98.856,0.189,158.689c0.009,1.355,0.017,2.699,0.025,4.044c3.67,1.242,7.559,2.556,11.629,3.926
			C122.571,399.817,122.872,331.879,122.872,298.669z M75.743,263.555c-1.882,0.22-3.768,0.442-5.625,0.647l-0.23,0.025
			c-0.398,11.504-1.426,41.853-2.439,77.305c-1.141,39.922,1.462,82.907,2.562,96.103c0.076,0.911,0.142,1.751,0.201,2.525
			c1.563,0.479,3.406,1.1,5.528,1.914c-0.135-54.425,0.028-113.242,0.028-143.405C75.768,286.762,75.768,274.947,75.743,263.555z
			 M145.417,298.669c0-15.726-0.001-31.286-0.086-45.921c-5.186,0.998-10.353,1.955-15.483,2.858
			c-0.025,10.445-0.069,22.429-0.14,36.126c-0.38,73.708-0.19,98.856,0.189,158.689c0.022,3.489,0.042,6.936,0.061,10.342
			c4.965,1.667,10.156,3.406,15.543,5.208C145.09,405.789,145.417,333.322,145.417,298.669z M359.047,208.226
			c-7.453,0.845-17.031,2.186-28.108,3.966c0.129,15.01,0.16,40.25-0.303,79.54c-0.867,73.708-0.433,98.856,0.434,158.689
			c0.43,29.691,0.539,56.598,0.117,76.921c9.522,3.124,18.038,5.913,25.184,8.251c0.123-16.564,0.28-36.527,0.28-70.427
			c0-9.223-0.022-18.919-0.046-28.926c-0.123-52.954-0.423-108.971,0.072-155.302C357.084,242.738,359.077,221.593,359.047,208.226z
			 M163.503,298.669c0-17.039-0.002-33.882-0.147-49.566c-3.658,0.775-7.308,1.524-10.953,2.253
			c-0.023,11.411-0.069,24.775-0.149,40.376c-0.38,73.708-0.19,98.856,0.189,158.689c0.039,6.099,0.071,12.07,0.097,17.902
			c3.64,1.214,7.355,2.454,11.132,3.711C163.035,410.735,163.503,334.495,163.503,298.669z M186.916,298.669
			c0-18.96-0.001-37.688-0.201-54.832c-4.626,1.104-9.256,2.177-13.888,3.209c-0.026,12.311-0.088,27.072-0.21,44.685
			c-0.506,73.708-0.253,98.856,0.253,158.689c0.072,8.505,0.128,16.771,0.167,24.73c4.643,1.545,9.361,3.112,14.136,4.697
			c-0.001-0.127-0.003-0.251-0.004-0.378C186.409,417.035,186.916,335.957,186.916,298.669z"/>
	</g>
</g>
</svg>
