<?xml version="1.0" encoding="utf-8"?>
<!-- Generator: Adobe Illustrator 16.0.0, SVG Export Plug-In . SVG Version: 6.00 Build 0)  -->
<!DOCTYPE svg PUBLIC "-//W3C//DTD SVG 1.1 Tiny//EN" "http://www.w3.org/Graphics/SVG/1.1/DTD/svg11-tiny.dtd">
<svg version="1.1" baseProfile="tiny" id="Layer_1" xmlns="http://www.w3.org/2000/svg" xmlns:xlink="http://www.w3.org/1999/xlink"
	 x="0px" y="0px" width="1000px" height="1000px" viewBox="0 0 1000 1000" xml:space="preserve">
<g>
	<g>
		<path d="M368.344,555.173c-7.935-17.12-46.767-16.284-78.083-12.944c-31.317,3.341-38.415,15.868-35.075,20.46
			s11.274-3.34,38.416-7.516c27.141-4.177,58.457-1.67,59.71,3.758c0.801,3.475-5.011,7.099-23.801,12.944
			c-18.789,5.847-26.305,11.692-83.51,11.274c-48.033-0.351-114.827-2.089-119.002-2.089c-4.176,0,2.505-5.01,7.933-19.206
			c5.428-14.196,8.769-25.054,9.187-45.097c0.417-20.042,2.087-36.119,2.087-36.119s-1.879-13.152,4.384-23.174
			c6.264-10.021,12.527-18.79,1.879-21.294c-10.648-2.506-23.175,6.889-31.943,15.658c-8.769,8.768-8.142,7.829-13.152,11.274
			c-3.463,2.38-3.132,7.515-3.132,25.679c0,18.163,1.879,43.844,0.626,66.392c-1.252,22.548,0,28.185-24.427,32.569
			c-24.426,4.384-28.185,5.01-38.206,7.516c-10.021,2.505-18.164,10.021-14.406,18.79c3.758,8.768,25.68,3.132,43.844-3.758
			c18.163-6.89,26.932-11.274,30.69-15.032c0,0,10.021-0.626,30.063,0c20.043,0.626,48.228,3.758,81.423,10.021
			c9.97,1.882,19.956,3.71,29.995,5.189c20.454,3.016,37.241,4.063,56.95,1.016c5.491-0.85,11.014-2.018,16.602-3.549
			C340.411,601.633,382.577,585.881,368.344,555.173z"/>
		<path d="M423.043,594.005c-10.856,2.924-13.362,1.253-13.153,0c0,0,13.153-4.384,20.668-11.274
			c7.516-6.89-0.415-16.63-18.163-18.163c-16.911-1.461-44.47,8.769-41.338,27.559s16.876,22.289,39.458,19.416
			c22.966-2.922,25.053-15.449,23.801-18.163C432.283,588.97,429.27,592.328,423.043,594.005z M391.414,585.863
			c-1.252-3.445,3.132-6.264,10.021-7.829c6.889-1.566,10.647,1.252,10.647,1.252c0.94,1.253-4.541,2.35-11.9,5.167
			C396.205,585.977,392.666,589.308,391.414,585.863z"/>
		<path d="M858.135,594.005c-10.857,2.924-13.363,1.253-13.152,0c0,0,13.152-4.384,20.668-11.274
			c7.516-6.89-0.416-16.63-18.164-18.163c-16.91-1.461-44.469,8.769-41.338,27.559c3.133,18.79,16.877,22.289,39.459,19.416
			c22.965-2.922,25.053-15.449,23.801-18.163C867.373,588.97,864.361,592.328,858.135,594.005z M826.504,585.863
			c-1.252-3.445,3.133-6.264,10.023-7.829c6.889-1.566,10.646,1.252,10.646,1.252c0.939,1.253-4.541,2.35-11.9,5.167
			C831.295,585.977,827.758,589.308,826.504,585.863z"/>
		<path d="M518.246,594.632c-4.385,1.252-10.648,7.516-17.538-1.253c-6.889-8.77-13.779-26.307-21.295-23.174
			c-7.516,3.131-15.681,18.869-20.042,19.416c-2.505,0.313,0.313-21.296,1.879-37.894c1.471-15.588-1.879-19.729-3.132-21.608
			c0,0-1.879-5.637-9.395-8.143c-7.516-2.505-6.264,8.143-6.264,16.284c0,8.144-2.192,26.62-1.252,44.47
			c1.121,21.304,0.939,28.812,9.082,28.812s14.719-8.769,19.103-16.91c4.384-8.143,13.466,10.021,21.922,14.405
			c7.563,3.922,23.8,5.637,30.69-3.758C528.893,595.884,522.63,593.379,518.246,594.632z"/>
		<path d="M661.885,592.335c-4.176,2.088-10.408,3.132-18.373-5.011c-9.395-9.604-15.033-17.118-23.383-17.954
			c-8.352-0.835-12.945,10.438-17.539,12.944c-4.592,2.505-7.098-5.429-12.943-10.439c-5.846-5.01-14.613-2.505-22.547,5.011
			c-7.934,7.517-10.648,12.422-12.109,6.682c-2.168-8.508-7.934-16.285-23.383-12.527c0,0-5.844,1.251-4.176,6.678
			c0.867,2.829,2.854,3.737,5.07,5.335c6.941,5.003,8.211,13.444,8.709,21.393c0.418,6.68,3.744,7.843,9.186,7.932
			c6.369,0.104,14.615-8.35,19.209-17.954c4.594-9.604,5.428-8.352,11.691,0.835c6.262,9.188,9.184,18.79,21.293,17.537
			s10.023-7.932,7.1-10.855c-2.922-2.924-3.34-7.935,0-10.856c3.34-2.923,4.594-3.759,8.77,1.252
			c4.174,5.011,15.031,20.879,30.48,20.879s22.131-11.274,22.131-16.285S666.061,590.247,661.885,592.335z"/>
		<path d="M738.297,575.215c-6.264-4.175-12.109-8.35-28.395-7.933c0,0-17.953,0.418-26.307,8.352
			c-8.35,7.934-7.516,31.316,10.439,35.073c17.955,3.759,40.92-0.834,45.096-5.01s2.924-9.605,2.924-14.198
			C742.055,586.908,744.559,579.39,738.297,575.215z M722.428,596.093c-8.768,1.253-22.547,1.253-26.305,0
			c-3.758-1.252-5.428-4.594-1.252-7.099c4.174-2.505,12.943-2.086,12.943-2.086c5.01-0.418,15.451,0.416,19.625,2.921
			C731.615,592.335,731.197,594.841,722.428,596.093z"/>
		<path d="M790.072,525.527c-9.186-2.506-16.703-0.418-25.889,7.933c-7.004,6.369-7.516,18.791-7.516,25.889
			c0,7.099,1.838,9.603-2.922,9.603c-5.848,0-7.1,7.935-2.506,11.274c4.594,3.339,5.428,4.594,5.428,16.703
			s5.428,15.448,12.527,15.866c7.098,0.417,10.02-2.923,9.604-6.264c-0.418-3.341-1.254-11.69-1.254-11.69
			c-0.834-4.594-1.252-9.187,0.836-9.604c2.086-0.419,6.262-0.835,10.855-0.835s11.275-6.264,11.691-11.692
			c0.418-5.43-2.506-3.759-12.943-3.759c-10.439,0-14.615,1.671-14.615-3.757c0-5.429-2.088-22.13,0.836-25.054
			c2.924-2.923,8.77,0.835,8.77,0.835c9.184,5.847,17.953,5.847,19.207-1.252C803.434,532.625,799.258,528.032,790.072,525.527z"/>
		<path d="M965.445,595.258c-7.111,1.186-13.363-7.516-20.043-14.614c-6.682-7.1-10.857-12.527-18.373-12.527
			s-10.855,7.935-17.955,12.944c-5.07,3.581-6.264,0-9.604-8.769c-3.34-8.768-20.043-5.01-23.383-0.418
			c-3.338,4.593,0,5.847,4.176,5.847c2.656,0,4.521,1.168,5.824,2.938c2.52,3.421,2.945,9.092,2.945,12.923
			c0,8.774,0.834,14.202,5.01,16.29c7.633,3.818,13.031-1.416,15.934-7.804c1.65-3.63,5.016-12.513,8.686-14.553
			c3.924-2.181,6.729,2.249,9.076,4.937c4.092,4.686,7.93,9.581,12.652,13.66c9.188,7.936,26.723,6.265,31.734,0.837
			C977.137,601.52,975.467,593.588,965.445,595.258z"/>
	</g>
	<g>
		<path d="M342.99,477.583c-16.733,1.785-20.525,8.479-18.74,10.932c1.785,2.454,6.023-1.784,20.525-4.017
			c14.502-2.231,31.235-0.893,31.905,2.008c0.428,1.857-2.678,3.794-12.718,6.918c-10.04,3.123-14.056,6.247-44.622,6.022
			c-25.666-0.186-61.355-1.115-63.586-1.115c-2.23,0,1.339-2.678,4.239-10.263c2.9-7.585,4.686-13.387,4.909-24.095
			c0.223-10.709,1.116-19.299,1.116-19.299s-1.004-7.029,2.343-12.383c3.346-5.354,6.693-10.04,1.003-11.378
			c-5.689-1.338-12.382,3.682-17.067,8.367c-4.685,4.685-4.351,4.183-7.027,6.023c-1.851,1.272-1.674,4.016-1.674,13.722
			c0,9.705,1.003,23.426,0.334,35.474c-0.669,12.049,0,15.061-13.052,17.402c-13.052,2.344-15.06,2.678-20.415,4.016
			c-5.354,1.34-9.705,5.356-7.696,10.041c2.008,4.686,13.721,1.672,23.426-2.009c9.705-3.68,14.391-6.023,16.398-8.032
			c0,0,5.355-0.334,16.064,0c10.708,0.335,25.769,2.009,43.506,5.356c5.327,1.004,10.663,1.98,16.026,2.772
			c10.929,1.611,19.899,2.171,30.43,0.542c2.934-0.454,5.885-1.077,8.871-1.896c12.297-3.367,34.828-11.784,27.223-28.192
			C380.472,475.351,359.724,475.797,342.99,477.583z"/>
		<path d="M647.045,499.841c-9.621,2.592-11.842,1.11-11.656,0c0,0,11.656-3.886,18.316-9.992c6.662-6.106-0.365-14.742-16.1-16.1
			c-14.986-1.295-39.414,7.771-36.639,24.425c2.777,16.654,14.961,19.756,34.975,17.21c20.355-2.591,22.207-13.694,21.096-16.098
			C655.234,495.378,652.563,498.354,647.045,499.841z M619.012,492.624c-1.113-3.054,2.775-5.551,8.881-6.939
			c6.107-1.389,9.438,1.11,9.438,1.11c0.832,1.109-4.023,2.081-10.549,4.58C623.258,492.724,620.121,495.676,619.012,492.624z"/>
		<path d="M801.539,499.841c-9.621,2.592-11.842,1.11-11.658,0c0,0,11.658-3.886,18.32-9.992c6.66-6.106-0.367-14.742-16.1-16.1
			c-14.988-1.295-39.416,7.771-36.641,24.425c2.777,16.654,14.961,19.756,34.975,17.21c20.355-2.591,22.207-13.694,21.096-16.098
			C809.729,495.378,807.057,498.354,801.539,499.841z M773.506,492.624c-1.111-3.054,2.775-5.551,8.881-6.939
			c6.105-1.389,9.436,1.11,9.436,1.11c0.836,1.109-4.023,2.081-10.547,4.58C777.752,492.724,774.615,495.676,773.506,492.624z"/>
		<path d="M431.395,500.891c-5.429-2.088-9.188,4.175-14.615,2.088c-5.428-2.088-2.923-12.109-2.505-19.208
			c0.417-7.098-3.758-7.933-9.186-7.098c3.353-0.386-10.869,1.637-11.274,13.778c-0.417,12.527,3.757,26.725,22.965,25.89
			C435.988,515.505,436.823,502.979,431.395,500.891z"/>
		<ellipse transform="matrix(0.3865 0.9223 -0.9223 0.3865 668.2906 -96.0438)" cx="406.342" cy="454.333" rx="10.23" ry="12.109"/>
		<path d="M514.212,500.279c-6.296,1.063-11.83-6.749-17.745-13.124c-5.915-6.373-9.613-11.246-16.267-11.246
			c-6.654,0-9.611,7.123-15.897,11.623c-4.489,3.215-5.544,0-8.501-7.874c-2.959-7.872-17.745-4.498-20.702-0.374
			c-2.958,4.122,0,5.249,3.697,5.249c2.351,0,4.001,1.048,5.156,2.637c2.229,3.073,2.605,8.164,2.605,11.605
			c0,7.877,0.74,12.751,4.437,14.625c6.758,3.428,11.537-1.272,14.107-7.006c1.46-3.26,4.439-11.236,7.691-13.066
			c3.472-1.959,5.957,2.02,8.035,4.432c3.624,4.208,7.02,8.603,11.202,12.266c8.134,7.125,23.66,5.625,28.098,0.75
			C524.563,505.902,523.084,498.779,514.212,500.279z"/>
		<path d="M742.195,500.279c-6.295,1.063-11.83-6.749-17.742-13.124c-5.916-6.373-9.613-11.246-16.268-11.246
			c-6.656,0-9.611,7.123-15.898,11.623c-4.488,3.215-5.545,0-8.5-7.874c-2.961-7.872-17.746-4.498-20.703-0.374
			c-2.957,4.122,0,5.249,3.697,5.249c2.352,0,4.002,1.048,5.156,2.637c2.23,3.073,2.605,8.164,2.605,11.605
			c0,7.877,0.74,12.751,4.438,14.625c6.758,3.428,11.537-1.272,14.105-7.006c1.461-3.26,4.439-11.236,7.693-13.066
			c3.471-1.959,5.955,2.02,8.033,4.432c3.623,4.208,7.021,8.603,11.201,12.266c8.135,7.125,23.66,5.625,28.098,0.75
			C752.547,505.902,751.068,498.779,742.195,500.279z"/>
		<path d="M862.309,475.002c-6.682,0-12.527,0.835-20.043,7.517c-4.334,3.853-4.592-7.098-20.459-3.34c0,0-6.262,0.417-6.264,5.009
			c-0.002,5.137,4.33,4.422,7.848,5.113c2.387,0.47,3.6,2.327,4.391,4.57c2.598,7.385-0.756,23.307,9.057,24.14
			c8.895,0.756,8.979-3.338,8.979-10.436c0-7.094-0.211-15.441,6.461-14.619c3.021,0.374,4.895,2.02,7.715,2.315
			C871.387,496.457,874.379,475.002,862.309,475.002z"/>
		<path d="M584.684,500.421c-3.568-4.087-3.139-12.565-2.971-17.484c0.418-12.109,0.836-22.965,1.254-32.152
			c0.416-9.187,1.252-14.614-6.682-12.526c0,0-5.012,0.417-9.186,5.845c-4.176,5.429-4.176,9.186-3.758,20.877
			c0.416,11.692,1.252,14.197-4.594,14.197s-17.535-1.671-25.053,5.846c-9.313,9.314-7.435,30.198,7.77,31.323
			c3.934,0.292,10.432-0.178,13.943-2.094c2.859-1.56,5.984-3.421,9.242-3.998c4.502-0.795,6.525,3.165,9.93,5.099
			c3.848,2.186,8.535,1.378,12.561,0.152c3.424-1.042,7.328-2.973,9.529-5.884c1.436-1.898,1.857-5.017,0.313-6.978
			C593.928,498.76,587.947,504.156,584.684,500.421z M550.188,499.432c-4.174,1.462-7.307,0.834-6.471-2.715
			c0.834-3.548,4.176-3.131,8.561-3.131c4.383,0,7.723,0,7.723,0C565.012,495.255,554.363,497.97,550.188,499.432z"/>
	</g>
	<g>
		<path fill="#231F20" d="M38.148,630.432c-14.136,0-19.385-7.328-21.256-11.696c-2.673-6.235-2.509-12.968,0.46-18.956
			c3.748-7.554,11.97-13.561,21.996-16.066c9.778-2.445,14.054-3.212,34.603-6.896l4.388-0.787
			c11.162-2.004,12.669-3.705,12.804-3.892c1.005-1.393,1.355-8.213,1.636-13.693c0.064-1.259,0.132-2.563,0.208-3.933
			c0.783-14.103,0.282-29.92-0.161-43.875c-0.25-7.902-0.484-15.301-0.484-21.855l-0.005-4.341
			c-0.027-16.92-0.041-25.413,8.295-31.145c0.801-0.551,1.467-0.996,2.052-1.388c2.448-1.637,2.82-1.887,9.428-8.494
			c12.975-12.976,25.331-19.556,36.721-19.556c2.169,0,4.31,0.245,6.361,0.728c8.514,2.003,12.136,6.902,13.675,10.659
			c3.852,9.397-1.733,18.269-7.134,26.848l-1.056,1.682c-3.17,5.073-3.012,12.735-2.683,15.259c0.134,0.936,0.148,1.841,0.045,2.834
			c-0.067,0.653-1.631,16.185-2.027,35.137c-0.47,22.563-4.608,35.08-9.969,49.099c-0.438,1.147-0.903,2.292-1.39,3.42
			c24.204,0.538,67.147,1.476,101.431,1.726c0.259,0.003,0.517,0.004,0.773,0.005c-0.461-0.487-0.894-1.011-1.298-1.565
			c-3.473-4.773-3.984-11.137-1.371-17.024c3.043-6.856,12.913-18.865,44.806-22.269c12.453-1.328,23.68-2.001,33.371-2.001
			c31.41,0,49.98,7.122,56.771,21.774c1.274,2.747,2.25,5.544,2.913,8.332c8.268-3.807,18.025-5.973,27.029-5.973
			c1.477,0,2.937,0.062,4.336,0.183c6.062,0.524,11.487,1.829,16.158,3.887c0.153-2.834,0.321-5.5,0.474-7.931
			c0.272-4.33,0.508-8.071,0.508-10.406c0-0.866-0.016-1.764-0.032-2.671l-0.004-0.225c-0.056-3.075-0.119-6.482,0.31-9.783
			c-3.939,1.539-8.479,2.428-13.535,2.647c-13.646,0.599-21.701-4.742-25.999-9.187c-1.862-1.924-3.478-4.155-4.819-6.646
			c-6.203,4.814-14.887,8.771-25.847,11.773c-3.342,0.914-6.771,1.648-10.194,2.179c-4.867,0.751-9.592,1.117-14.448,1.117
			c-5.784,0-11.81-0.508-19.539-1.647c-5.816-0.857-11.563-1.922-16.496-2.853c-15.782-2.978-30.582-4.808-41.673-5.154
			c-3.02-0.096-5.896-0.143-8.552-0.143c-1.165,0-2.174,0.01-3.027,0.022c-3.4,2.134-8.311,4.357-16.292,7.384
			c-9.055,3.436-16.502,5.178-22.133,5.178c-11.132,0-15.212-6.719-16.45-9.607c-2.078-4.849-1.945-10.095,0.375-14.773
			c2.754-5.554,8.357-9.745,15.372-11.499c5.41-1.353,7.716-1.766,18.793-3.755l2.405-0.432c1.147-0.205,2.134-0.41,2.947-0.614
			c0.085-1.075,0.151-2.375,0.212-3.551l0.115-2.181c0.406-7.297,0.142-15.619-0.091-22.961c-0.135-4.268-0.262-8.264-0.262-11.855
			l-0.002-2.311c-0.016-9.578-0.028-16.499,6.833-21.217c0.43-0.296,0.792-0.538,1.11-0.751c0.982-0.656,1.101-0.736,4.246-3.88
			c8.01-8.011,15.93-12.072,23.54-12.072c1.585,0,3.155,0.18,4.667,0.535c7.207,1.697,10.089,6.361,11.167,8.99
			c3.139,7.66-1.132,14.445-4.25,19.397l-0.556,0.885c-0.671,1.074-0.749,3.712-0.651,4.39c0.137,0.963,0.156,1.943,0.056,2.914
			c-0.009,0.083-0.846,8.273-1.055,18.318c-0.206,9.876-1.607,16.341-3.69,22.577c10.527,0.226,25.236,0.522,38.838,0.679
			c-0.039-2.211,0.424-4.455,1.362-6.568c2.111-4.755,8.611-13.047,28.418-15.16c6.937-0.74,12.961-1.099,18.418-1.099
			c5.702,0,20.545,0,29.786,7.674c0.176-0.164,0.355-0.327,0.54-0.49c-2.78-2.206-4.933-5.021-6.273-8.219
			c-2.29-5.463-2.123-11.57,0.468-17.197c2.575-5.59,7.234-10.026,13.122-12.494c3.206-1.343,6.559-2.025,9.965-2.025
			c9.246,0,17.383,5.163,20.731,13.154c3.582,8.548,0.882,18.758-6.549,25.292c0.96,1.108,1.763,2.339,2.405,3.683
			c0.331-0.568,0.695-1.129,1.091-1.68c4.602-6.418,14.42-9.343,21.595-9.343c7.401,0,13.659,2.858,17.424,7.896
			c3.604-3.406,8.575-6.891,15.75-6.891c11.214,0,17.631,7.016,23.293,13.206c0.548,0.6,1.11,1.215,1.696,1.846
			c1.016,1.093,2.02,2.225,3.017,3.352c1.592,1.797,4.159,4.692,5.698,5.903c1.408-0.146,2.807-0.164,4.182-0.063
			c1.586-4.5,4.06-8.51,7.193-11.644c9.166-9.165,21.561-9.479,26.234-9.489c-0.021-0.549-0.043-1.121-0.064-1.715
			c-0.438-12.201-0.699-19.565,6.217-28.557c6.002-7.805,13.42-9.789,16.332-10.281c1.801-0.435,3.527-0.655,5.197-0.655
			c5.693,0,9.309,2.543,11.34,4.677c5.084,5.345,4.738,12.281,4.404,18.989l-0.084,1.749c-0.365,7.996-0.746,17.713-1.141,28.922
			c0.582-0.848,1.215-1.675,1.895-2.476c9.391-11.086,26.385-16.049,39.059-16.049c1.354,0,2.688,0.057,3.965,0.167
			c7.65,0.661,14.338,2.754,19.412,6.069c5.367-3.643,12.213-4.958,16.967-4.958c7.398,0,13.658,2.858,17.424,7.896
			c3.604-3.406,8.574-6.891,15.75-6.891c11.213,0,17.629,7.013,23.289,13.202l0.115,0.126c0.512,0.559,1.037,1.134,1.584,1.723
			c1.008,1.086,2.006,2.209,2.994,3.327c1.605,1.812,4.18,4.715,5.721,5.928c0.826-0.084,1.713-0.113,2.508-0.124
			c1.092-3.73,3.008-7.231,5.707-10.417c9.391-11.086,26.385-16.049,39.059-16.049c1.354,0,2.688,0.057,3.963,0.167
			c8.461,0.731,15.666,3.188,20.898,7.12c1.895-0.83,3.887-1.37,5.936-1.611c2.73-0.604,5.469-0.921,8.016-0.921
			c4.377,0,8.426,0.928,12.049,2.758c8.166-5.381,15.531-6.136,22.285-6.136c7.172,0,13.285,3.464,16.773,9.506
			c3.992,6.92,3.789,16.572-0.51,24.018c-3.832,6.631-10.439,10.591-17.678,10.591c-0.707,0-1.424-0.038-2.135-0.111
			c-0.348-0.036-0.695-0.082-1.043-0.137v0.604c0,4.237,0,8.619-2.115,12.942c-1.732,3.541-6.219,9.482-16.816,9.482
			c-0.93,0-1.924-0.044-2.955-0.132c-7.66-0.65-13.639-5.396-16.396-13.021c-0.291-0.804-0.551-1.647-0.781-2.543
			c-2.586,3.288-6.018,6.021-10.248,8.156c6.732,7.187,6.115,15.814,5.496,19.332c-1.441,8.161-7.309,13.79-15.346,15.055
			c2.707,0.148,7.063,0.895,10.516,4.622c0.309,0.334,0.598,0.682,0.875,1.049c11.051-7.348,24.828-9.989,34.229-9.989
			c1.479,0,2.938,0.062,4.338,0.183c9.238,0.799,17.072,3.447,22.732,7.677c5.742-3.888,13.148-5.291,18.316-5.291
			c8.65,0,15.627,3.508,19.424,9.689c3.479-3.522,9.273-8.57,18.045-8.57c11.939,0,18.641,7.225,25.121,14.212
			c0.617,0.667,1.254,1.354,1.92,2.06c1.127,1.198,2.244,2.442,3.355,3.677c1.941,2.161,5.412,6.022,7.203,7.188
			c1.111-0.14,2.215-0.211,3.291-0.211c8.012,0,14.508,3.917,17.381,10.478c2.996,6.84,1.256,15.24-4.432,21.4
			c-4.869,5.278-13.697,8.429-23.617,8.429c-9.674-0.001-18.424-2.959-24.639-8.328c-4.066-3.511-7.379-7.3-10.545-11.003
			c-0.131,0.302-0.248,0.57-0.346,0.796c-0.342,0.789-0.648,1.497-0.914,2.082c-4.639,10.214-12.57,16.073-21.758,16.073
			c-3.473,0-6.949-0.859-10.33-2.552c-5.42-2.711-8.869-7.323-10.473-14.043c-3.896,6.541-12.439,14.495-31.139,16.875
			c-5.195,0.661-9.729,0.983-13.859,0.983c-21.918-0.001-34.895-9.718-38.596-28.891c-1.705,0.527-3.379,0.814-5,0.856
			c0.293,2.841,0.705,6.772,0.953,8.76c0.594,4.757-0.889,9.547-4.066,13.144c-2.629,2.979-7.57,6.53-16.17,6.53
			c-0.604,0-1.229-0.019-1.875-0.056c-9.164-0.538-16.029-4.533-19.986-11.589c-0.313,0.354-0.633,0.694-0.963,1.025
			c-7.824,7.823-28.848,9.889-38.869,9.889c-6.123,0-11.869-0.553-17.08-1.645c-6.193-1.295-11.648-4.268-15.861-8.625
			c-4.217,4.69-12.707,11.383-26.797,11.383c-9.281,0-18.287-3.727-26.791-11.08c-2.223,4.51-7.213,9.448-18.332,10.6
			c-1.121,0.114-2.229,0.173-3.293,0.173c-14.033,0-20.576-9.201-25.207-16.7c-7.186,10.164-16.355,16.174-24.803,16.174
			l-0.316-0.002c-11.631-0.191-16.824-5.798-19.117-11.276c-5.611,7.155-14.648,11.081-25.555,11.081
			c-6.921-0.001-14.282-1.676-19.69-4.48c-4.65-2.411-8.579-6.506-11.822-10.082c-6.982,9.24-14.957,13.923-23.725,13.923
			c-3.956,0-11.053-1.075-15.595-8.019c-5.802,4.082-13.421,6.746-22.674,7.924c-5.195,0.661-9.729,0.983-13.859,0.983
			c-19.136-0.001-31.499-7.482-36.776-22.239c-10.125,6.844-23.855,12.667-40.844,17.322c-5.875,1.609-11.907,2.898-17.927,3.83
			c-8.575,1.326-16.9,1.971-25.452,1.971c-10.298,0-21.109-0.916-35.053-2.973c-10.699-1.576-21.335-3.548-30.465-5.271
			c-30.038-5.667-58.303-9.155-79.588-9.818c-5.81-0.183-11.305-0.274-16.33-0.274c-3.983,0-6.994,0.059-8.912,0.112
			c-5.707,4.079-14.724,8.282-30.919,14.424C65.051,625.528,49.703,630.432,38.148,630.432z M148.833,426.363
			c-10.703,0-22.461,6.333-34.95,18.821c-6.781,6.782-7.181,7.05-9.784,8.791c-0.599,0.401-1.256,0.841-2.047,1.384
			c-7.249,4.984-7.237,12.036-7.209,29.074l0.005,4.346c0,6.517,0.234,13.896,0.481,21.709c0.446,14.074,0.949,29.949,0.16,44.162
			c-0.076,1.364-0.143,2.667-0.207,3.912c-0.415,8.094-0.738,13.146-2.106,15.041c-1.287,1.782-5.995,3.382-14.393,4.89
			l-4.383,0.787c-20.485,3.674-24.746,4.438-34.441,6.862c-9.323,2.331-16.935,7.845-20.36,14.748
			c-2.639,5.321-2.781,11.308-0.403,16.858c1.628,3.8,6.256,10.176,18.954,10.176c11.174,0,26.21-4.813,36.856-8.852
			c16.273-6.174,25.153-10.326,30.647-14.335c0.204-0.149,0.448-0.231,0.701-0.24c1.906-0.058,5.081-0.126,9.371-0.126
			c5.052,0,10.572,0.094,16.409,0.276c21.41,0.668,49.812,4.169,79.974,9.861c9.106,1.718,19.714,3.683,30.367,5.253
			c13.818,2.037,24.517,2.945,34.688,2.945c8.422,0,16.622-0.634,25.069-1.941c5.927-0.917,11.864-2.185,17.648-3.771
			c17.492-4.792,31.435-10.816,41.439-17.907c0.326-0.232,0.746-0.293,1.125-0.165c0.379,0.129,0.675,0.431,0.795,0.813
			c4.579,14.654,16.326,22.086,34.918,22.088c4.028,0,8.458-0.316,13.547-0.965c9.418-1.197,17.019-3.973,22.59-8.251
			c0.289-0.223,0.66-0.309,1.016-0.234c0.357,0.074,0.664,0.299,0.841,0.618c3.854,6.91,10.513,7.943,14.139,7.943
			c8.3,0,15.905-4.753,22.606-14.126c0.221-0.309,0.569-0.501,0.949-0.521c0.389-0.018,0.747,0.13,1.001,0.411
			c3.294,3.659,7.394,8.214,12.144,10.676c5.069,2.63,11.999,4.198,18.535,4.199c10.434,0,18.977-3.814,24.057-10.742
			c0.303-0.412,0.572-0.814,0.844-1.219s0.746-0.613,1.234-0.539c0.48,0.075,0.875,0.423,1.008,0.892
			c2.207,7.678,8.121,11.649,17.578,11.803l0.27,0.004c8.041,0,16.943-6.229,23.813-16.662c0.232-0.354,0.627-0.565,1.049-0.565
			h0.002c0.422,0.001,0.816,0.216,1.047,0.569c0.008,0.011,0.061,0.098,0.066,0.108c4.391,7.205,10.406,17.076,24.033,17.076
			c0.98,0,2.002-0.055,3.035-0.161c11.221-1.16,15.41-6.42,16.947-10.629c0.145-0.392,0.475-0.688,0.879-0.787
			c0.404-0.096,0.836,0.011,1.143,0.292c8.41,7.692,17.297,11.593,26.412,11.593c14.195,0,22.256-7.24,25.797-11.557
			c0.232-0.284,0.578-0.452,0.947-0.458c0.371-0.003,0.719,0.149,0.963,0.428c3.969,4.523,9.318,7.595,15.465,8.882
			c5.043,1.056,10.615,1.592,16.564,1.592c9.664,0,29.857-1.914,37.098-9.154c0.717-0.716,1.359-1.464,1.965-2.286
			c0.264-0.354,0.688-0.543,1.137-0.503c0.439,0.046,0.824,0.319,1.01,0.722c3.354,7.26,9.84,11.376,18.758,11.9
			c8.799,0.5,13.566-2.85,16.02-5.633c2.703-3.059,3.965-7.131,3.459-11.173c-0.295-2.358-0.814-7.394-1.098-10.184
			c-0.035-0.35,0.076-0.698,0.311-0.961c0.234-0.261,0.564-0.415,0.916-0.419c0.324-0.005,0.654-0.008,0.986-0.008
			c1.891,0,3.889-0.401,5.945-1.191c0.35-0.132,0.742-0.105,1.066,0.079c0.326,0.184,0.553,0.505,0.617,0.874
			c3.129,18.793,15.365,28.266,36.381,28.268c4.027,0,8.459-0.316,13.549-0.965c18.346-2.334,26.262-10.163,29.674-16.319
			c0.408-0.738,0.781-1.536,1.174-2.511c0.213-0.529,0.748-0.843,1.322-0.775c0.566,0.073,1.01,0.52,1.084,1.085
			c1.004,7.928,4.207,13.141,9.791,15.934c3.033,1.518,6.131,2.287,9.211,2.287c8.16,0,15.262-5.322,19.479-14.604
			c0.26-0.573,0.561-1.267,0.895-2.04c0.27-0.624,0.684-1.585,1.166-2.644c0.176-0.392,0.541-0.664,0.965-0.724
			c0.436-0.063,0.854,0.103,1.129,0.427l0.531,0.624c3.344,3.917,6.791,7.958,11.035,11.622c5.762,4.976,13.928,7.717,23,7.719
			c9.234,0,17.375-2.85,21.779-7.622c5.012-5.431,6.574-12.77,3.977-18.696c-2.461-5.622-8.1-8.978-15.086-8.978
			c-1.098,0-2.232,0.081-3.373,0.244c-0.258,0.039-0.521-0.009-0.752-0.127c-1.914-0.988-5.104-4.441-8.205-7.895
			c-1.125-1.251-2.23-2.479-3.346-3.664c-0.668-0.71-1.309-1.401-1.932-2.074c-6.113-6.592-12.436-13.409-23.283-13.409
			c-8.102,0-13.238,4.653-17.418,9.016c-0.281,0.295-0.691,0.434-1.092,0.371c-0.404-0.062-0.75-0.315-0.934-0.68
			c-3.104-6.245-9.674-9.826-18.025-9.826c-4.775,0-12.252,1.401-17.605,5.35c-0.455,0.341-1.082,0.324-1.525-0.029
			c-5.322-4.256-12.977-6.925-22.135-7.716c-1.328-0.115-2.715-0.173-4.121-0.173c-9.314,0-23.098,2.692-33.836,10.249
			c-0.283,0.199-0.635,0.271-0.971,0.203c-0.338-0.068-0.633-0.273-0.814-0.568c-0.404-0.65-0.836-1.222-1.32-1.747
			c-3.572-3.856-8.502-3.856-10.357-3.856c-0.957,0-2.082,0.045-3.395,0.1c-1.625,0.068-3.398,0.143-5.496,0.143
			c-1.555,0-2.979,0.034-4.248,0.076c-0.629,0.043-1.248-0.496-1.291-1.172c-0.086-1.337-0.201-3.213-0.287-5.164
			c-0.018-0.432,0.186-0.841,0.541-1.086c0.355-0.246,0.811-0.288,1.207-0.119c3.873,1.671,7.619,2.518,11.129,2.52
			c8.541,0,14.977-5.203,16.398-13.254c0.584-3.325,1.17-11.764-6.025-18.336c-0.311-0.284-0.457-0.706-0.391-1.124
			c0.066-0.416,0.338-0.771,0.725-0.944c5.568-2.494,9.764-5.989,12.467-10.389c0.271-0.443,0.789-0.67,1.303-0.574
			c0.512,0.099,0.91,0.502,1,1.017c0.326,1.884,0.744,3.516,1.277,4.987c2.412,6.666,7.607,10.813,14.256,11.378
			c0.959,0.08,1.881,0.122,2.74,0.122c9.236,0,13.09-5.061,14.564-8.078c1.861-3.803,1.861-7.89,1.861-11.842v-2.133
			c0.002-0.38,0.178-0.741,0.479-0.978c0.299-0.237,0.691-0.323,1.061-0.236c0.758,0.178,1.521,0.309,2.271,0.387
			c7.021,0.735,13.674-2.823,17.379-9.24c3.869-6.697,4.072-15.342,0.512-21.512c-3.029-5.246-8.352-8.254-14.604-8.254
			c-6.525,0-13.645,0.742-21.498,6.121c-0.389,0.268-0.895,0.293-1.309,0.066c-5.336-2.909-11.67-3.561-19.129-1.925
			c-2.123,0.255-4.146,0.845-5.971,1.727c-0.434,0.207-0.951,0.151-1.326-0.149c-4.891-3.9-11.863-6.341-20.166-7.059
			c-1.205-0.104-2.467-0.157-3.748-0.157c-12.096,0-28.275,4.688-37.146,15.163c-2.684,3.166-4.516,6.658-5.453,10.378
			c-0.145,0.577-0.711,0.991-1.268,0.946c-1.182-0.053-2.418-0.008-3.596,0.141c-0.299,0.035-0.605-0.037-0.855-0.205
			c-1.734-1.172-4.619-4.427-6.529-6.581c-0.998-1.127-1.98-2.236-2.977-3.309c-0.551-0.593-1.082-1.173-1.596-1.736l-0.113-0.123
			c-5.314-5.81-11.334-12.392-21.443-12.392c-6.996,0-11.721,3.852-15.055,7.207c-0.27,0.271-0.641,0.411-1.029,0.362
			c-0.381-0.043-0.721-0.258-0.924-0.583c-3.154-5.078-9.049-7.989-16.166-7.989c-5.746,0-12.109,1.956-16.207,4.981
			c-0.432,0.318-1.02,0.327-1.459,0.02c-4.797-3.35-11.342-5.466-18.93-6.123c-1.205-0.104-2.465-0.157-3.748-0.157
			c-12.098,0-28.275,4.688-37.148,15.163c-1.693,2-3.068,4.169-4.086,6.446c-0.244,0.545-0.84,0.847-1.422,0.708
			c-0.582-0.132-0.992-0.657-0.975-1.255l0.066-2.034c0.432-12.531,0.852-23.314,1.248-32.049l0.084-1.754
			c0.338-6.749,0.629-12.574-3.715-17.14c-1.693-1.779-4.721-3.899-9.525-3.899c-1.471,0-3.008,0.197-4.697,0.603
			c-2.703,0.459-9.385,2.253-14.846,9.355c-6.365,8.276-6.113,15.302-5.699,26.94c0.037,1.077,0.078,2.078,0.119,3.007
			c0.016,0.343-0.113,0.678-0.352,0.926c-0.24,0.247-0.564,0.375-0.914,0.38l-0.824-0.005c-4,0-16.176,0-24.932,8.756
			c-3.074,3.075-5.461,7.086-6.901,11.599c-0.183,0.573-0.749,0.943-1.347,0.862c-1.649-0.201-3.367-0.197-5.088,0.018
			c-0.299,0.038-0.605-0.036-0.855-0.205c-1.732-1.17-4.611-4.417-6.517-6.568c-0.997-1.125-1.987-2.242-2.989-3.321
			c-0.591-0.637-1.158-1.257-1.707-1.858c-5.314-5.81-11.336-12.393-21.446-12.393c-6.997,0-11.72,3.852-15.053,7.207
			c-0.271,0.272-0.653,0.406-1.03,0.362c-0.381-0.043-0.721-0.258-0.922-0.583c-3.157-5.078-9.049-7.989-16.169-7.989
			c-6.556,0-15.472,2.597-19.56,8.297c-0.905,1.261-1.592,2.516-2.102,3.836c-0.193,0.503-0.675,0.82-1.226,0.8
			c-0.538-0.024-1-0.391-1.147-0.909c-0.66-2.319-1.782-4.331-3.336-5.979c-0.08-0.084-0.172-0.172-0.265-0.259l-0.164-0.157
			c-0.259-0.252-0.396-0.603-0.377-0.964c0.019-0.361,0.193-0.696,0.477-0.919c7.346-5.773,10.162-15.328,6.848-23.235
			c-2.958-7.058-10.188-11.618-18.421-11.618c-3.072,0-6.099,0.616-8.996,1.831c-5.307,2.224-9.503,6.212-11.815,11.23
			c-2.294,4.982-2.448,10.374-0.433,15.181c1.358,3.241,3.673,6.038,6.695,8.087c0.33,0.224,0.534,0.592,0.548,0.991
			c0.016,0.398-0.161,0.781-0.473,1.028c-0.885,0.701-1.694,1.424-2.403,2.152c-0.474,0.485-1.247,0.505-1.748,0.044
			c-8.426-7.794-23.359-7.794-28.981-7.794c-5.366,0-11.304,0.355-18.152,1.086c-18.557,1.979-24.502,9.424-26.395,13.686
			c-0.957,2.154-1.327,4.461-1.069,6.673c0.042,0.356-0.072,0.714-0.313,0.981c-0.24,0.269-0.603,0.438-0.944,0.416
			c-14.736-0.16-30.99-0.495-41.933-0.732c-0.402-0.009-0.774-0.211-1.003-0.54c-0.229-0.331-0.284-0.751-0.15-1.13
			c2.309-6.535,3.892-13.02,4.108-23.426c0.213-10.238,1.06-18.451,1.069-18.529c0.079-0.761,0.063-1.535-0.045-2.295
			c-0.081-0.564-0.236-4.081,1.009-6.074l0.558-0.888c3.142-4.992,6.703-10.648,4.052-17.115c-0.894-2.184-3.308-6.061-9.422-7.5
			c-1.324-0.312-2.701-0.469-4.093-0.469c-6.921,0-14.245,3.815-21.769,11.338c-3.211,3.211-3.442,3.401-4.566,4.153
			c-0.367,0.245-0.719,0.481-1.141,0.772c-5.773,3.969-5.765,9.683-5.749,19.15l0.002,2.312c0,3.553,0.126,7.53,0.259,11.741
			c0.236,7.43,0.501,15.811,0.09,23.213l-0.112,2.112c-0.082,1.601-0.172,3.347-0.302,4.597c-0.053,0.507-0.407,0.93-0.895,1.072
			c-1.02,0.298-2.374,0.6-4.024,0.896l-2.406,0.432c-11.009,1.976-13.3,2.388-18.629,3.717c-6.301,1.578-11.308,5.289-13.734,10.184
			c-1.989,4.009-2.101,8.509-0.317,12.673c1.042,2.433,4.507,8.089,14.148,8.089c5.327,0,12.475-1.687,21.246-5.015
			c8.049-3.053,12.873-5.247,16.128-7.34c0.195-0.127,0.422-0.194,0.654-0.2c0.935-0.017,2.077-0.028,3.424-0.028
			c2.682,0,5.585,0.048,8.631,0.144c11.217,0.35,26.154,2.196,42.06,5.197c4.907,0.926,10.626,1.983,16.396,2.835
			c7.603,1.121,13.515,1.621,19.173,1.621c4.726,0,9.326-0.356,14.064-1.089c3.329-0.516,6.665-1.229,9.915-2.12
			c11.349-3.107,20.136-7.232,26.121-12.262c0.296-0.248,0.69-0.344,1.07-0.265c0.379,0.081,0.698,0.334,0.865,0.684
			c1.35,2.821,3.057,5.308,5.074,7.393c3.949,4.083,11.436,8.976,24.088,8.425c5.668-0.246,10.621-1.37,14.722-3.342
			c0.43-0.208,0.941-0.152,1.317,0.145c0.375,0.296,0.55,0.779,0.45,1.246c-0.794,3.71-0.717,7.872-0.649,11.545l0.004,0.224
			c0.017,0.922,0.033,1.836,0.033,2.717c0,2.414-0.238,6.19-0.513,10.563c-0.186,2.947-0.393,6.242-0.569,9.764
			c-0.021,0.423-0.253,0.806-0.62,1.02c-0.365,0.212-0.814,0.226-1.192,0.038c-4.757-2.383-10.465-3.876-16.967-4.438
			c-1.329-0.115-2.715-0.173-4.121-0.173c-9.162,0-19.135,2.333-27.363,6.401c-0.35,0.175-0.761,0.175-1.111,0
			c-0.35-0.174-0.599-0.5-0.674-0.883c-0.606-3.109-1.639-6.249-3.068-9.33c-6.337-13.676-24.164-20.322-54.498-20.322
			c-9.603,0-20.74,0.668-33.105,1.986c-30.643,3.27-39.957,14.431-42.782,20.794c-2.247,5.059-1.833,10.492,1.106,14.534
			c0.957,1.315,2.107,2.411,3.418,3.254c0.468,0.3,0.681,0.873,0.524,1.406c-0.157,0.533-0.646,0.899-1.201,0.899
			c-0.001,0-0.001,0-0.002,0c-1.388-0.003-2.804-0.009-4.258-0.02c-35.208-0.256-79.535-1.239-103.348-1.767
			c-0.421-0.01-0.81-0.229-1.034-0.588c-0.224-0.357-0.253-0.802-0.079-1.186c0.747-1.633,1.453-3.317,2.098-5.007
			c5.272-13.787,9.341-26.097,9.803-48.253c0.397-19.055,1.973-34.686,2.039-35.341c0.082-0.791,0.07-1.5-0.036-2.242
			c-0.362-2.787-0.52-11.229,3.043-16.928l1.057-1.684c5.064-8.046,10.3-16.362,6.937-24.566c-1.316-3.213-4.455-7.412-11.93-9.171
			C152.756,426.586,150.81,426.363,148.833,426.363z M784.758,555.133c0.035,0.695,0.076,1.357,0.111,1.961
			c0.969-0.025,2.01-0.042,3.115-0.042c1.578,0,2.977-0.044,4.244-0.094C789.803,556.689,787.303,556.079,784.758,555.133z
			 M509.217,588.221c-0.365,0-0.723-0.16-0.967-0.455l-0.154-0.193c-1.639-2.084-3.516-5.159-5.33-8.133
			c-5.7-9.342-11.592-18.999-21.552-18.999c-1.853,0-3.674,0.368-5.413,1.092c-1.402,0.583-2.829,1.394-4.24,2.409
			c-0.401,0.287-0.934,0.314-1.359,0.067c-0.427-0.247-0.669-0.721-0.618-1.211c0.361-3.516,0.714-6.946,1.02-10.188
			c1.491-15.811-1.407-22.65-4.099-26.846c-0.032-0.048-0.061-0.1-0.085-0.153c-0.432-0.941-0.988-1.914-1.654-2.89
			c-0.188-0.276-0.258-0.615-0.195-0.944c0.063-0.328,0.255-0.616,0.533-0.803c3.514-2.354,6.478-6.065,8.572-10.737
			c0.232-0.518,0.5-1.145,0.797-1.843l0.226-0.527c0.171-0.399,0.537-0.681,0.967-0.746c0.432-0.059,0.862,0.1,1.142,0.433
			c2.672,3.164,5.57,6.507,9.033,9.54c5.305,4.646,12.804,7.206,21.116,7.206c6.939,0,13.407-1.85,17.744-5.075
			c0.492-0.366,1.18-0.319,1.619,0.106c3.881,3.765,8.879,5.975,14.455,6.387c0.941,0.07,1.949,0.105,2.994,0.105
			c3.754,0,10.842-0.432,16.141-3.321l0.924-0.508c1.055-0.582,2.369-1.308,3.494-1.813c0.449-0.202,0.967-0.124,1.336,0.196
			c1.156,1.003,2.535,2.157,4.279,3.147c3.027,1.719,6.477,2.591,10.252,2.591c2.934,0,6.1-0.53,9.682-1.621
			c2.346-0.712,6.855-2.381,10.729-5.548c0.455-0.371,1.107-0.374,1.566-0.014c5.592,4.401,13.268,6.633,22.816,6.633
			c3.613,0,7.584-0.283,12.143-0.863c16.355-2.08,23.615-9.059,26.826-14.546c0.256-0.438,0.756-0.684,1.254-0.607
			c0.504,0.069,0.914,0.435,1.041,0.927c1.398,5.423,4.174,9.119,8.48,11.304c2.848,1.445,5.77,2.179,8.682,2.179
			c7.688,0,14.34-5.002,18.248-13.722c0.232-0.518,0.502-1.146,0.799-1.844l0.223-0.526c0.172-0.398,0.537-0.681,0.969-0.746
			c0.428-0.059,0.861,0.1,1.143,0.433c2.668,3.161,5.564,6.504,9.031,9.539c5.305,4.647,12.805,7.207,21.115,7.207
			c7.811,0,14.762-2.248,19.072-6.169c0.473-0.427,1.188-0.435,1.666-0.018c1.549,1.351,3.309,2.542,5.229,3.537
			c0.377,0.195,0.629,0.569,0.67,0.991s-0.135,0.836-0.467,1.101c-1.076,0.855-2.168,1.787-3.246,2.768
			c-9.492,8.63-10.59,22.875-10.59,32.84c0,0.302,0.002,0.596,0.008,0.883c0.006,0.465-0.244,0.896-0.65,1.117
			c-1.705,0.938-3.188,2.22-4.41,3.812c-0.395,0.514-1.117,0.643-1.668,0.292c-6.17-3.944-13.885-7.594-28.445-7.594
			c-0.791,0-1.605,0.011-2.422,0.031c-2.211,0.051-21.889,0.795-32.561,10.931c-3.252,3.092-5.664,7.46-6.975,12.634
			c-0.164,0.646-0.809,1.057-1.459,0.921c-3.633-0.721-7.566-0.164-11.01,1.558c-0.672,0.335-1.203,0.491-1.674,0.491
			c-1.373,0-3.533-1.372-5.779-3.67c-1.508-1.539-2.914-3.024-4.25-4.434c-7.436-7.844-14.457-15.252-24.916-16.299
			c-0.605-0.06-1.215-0.09-1.813-0.09c-7.965,0-13.363,5.014-17.178,9.382c-0.24,0.277-0.631,0.436-0.959,0.43
			c-0.367-0.005-0.715-0.17-0.949-0.452c-1.512-1.824-2.91-3.269-4.402-4.55c-3.717-3.184-8.303-4.867-13.262-4.867
			c-7.264,0-14.822,3.523-21.861,10.19c-0.258,0.243-0.605,0.368-0.957,0.34c-0.355-0.027-0.68-0.204-0.896-0.483
			c-4.654-6.034-11.537-9.224-19.9-9.224c-2.967,0-6.135,0.4-9.412,1.193c-1.566,0.361-6.868,1.927-9.863,7.029
			c-1.994,3.396-2.405,7.5-1.158,11.556c0.295,0.96,0.67,1.885,1.113,2.747c0.191,0.367,0.188,0.805-0.01,1.168
			c-0.197,0.365-0.56,0.609-0.972,0.65c-1.026,0.11-2.007,0.296-2.917,0.557c-1.703,0.486-3.199,1.209-4.52,1.847
			c-0.42,0.203-0.948,0.458-1.42,0.668C509.561,588.186,509.389,588.221,509.217,588.221z M481.213,557.935
			c11.366,0,17.631,10.268,23.689,20.196c1.602,2.626,3.252,5.329,4.694,7.279c0.161-0.076,0.315-0.151,0.456-0.22
			c1.416-0.683,3.014-1.456,4.924-2.001c0.529-0.152,1.078-0.281,1.643-0.389c-0.209-0.52-0.398-1.05-0.564-1.59
			c-1.454-4.734-0.959-9.549,1.395-13.559c3.406-5.803,9.141-7.668,11.447-8.201c3.457-0.834,6.822-1.259,9.988-1.259
			c8.672,0,15.908,3.153,21.021,9.137c7.236-6.522,15.023-9.961,22.594-9.961c5.564,0,10.715,1.893,14.891,5.473
			c1.287,1.102,2.502,2.312,3.762,3.745c3.873-4.215,9.748-9.159,18.098-9.159c0.678,0,1.371,0.033,2.063,0.102
			c11.387,1.141,18.719,8.878,26.482,17.069c1.33,1.4,2.727,2.876,4.223,4.404c2.213,2.263,3.66,2.876,4.006,2.917
			c-0.006-0.006,0.162-0.039,0.537-0.228c3.576-1.786,7.609-2.485,11.463-1.967c1.48-5.149,4.02-9.528,7.377-12.719
			c11.352-10.785,31.918-11.568,34.225-11.622c0.834-0.021,1.67-0.031,2.482-0.031c14.477,0,22.514,3.481,28.854,7.396
			c1.113-1.271,2.391-2.348,3.807-3.213c0-0.063,0-0.124,0-0.187c0-10.439,1.184-25.396,11.41-34.693
			c0.643-0.583,1.289-1.151,1.936-1.697c-1.146-0.687-2.234-1.442-3.248-2.259c-4.789,3.892-11.975,6.105-19.922,6.105
			c-8.922,0-17.008-2.78-22.771-7.828c-3.029-2.653-5.611-5.5-7.982-8.266c-0.084,0.194-0.164,0.378-0.242,0.548
			c-4.332,9.664-11.814,15.204-20.535,15.204c-3.311,0-6.613-0.824-9.816-2.45c-4.191-2.125-7.199-5.596-8.967-10.337
			c-4.064,5.496-11.945,11.574-27.186,13.513c-4.662,0.594-8.736,0.882-12.455,0.882c-9.691,0-17.617-2.209-23.576-6.57
			c-3.795,2.882-7.926,4.516-10.807,5.391c-3.82,1.164-7.227,1.729-10.412,1.729c-4.215,0-8.08-0.981-11.49-2.917
			c-1.629-0.927-2.943-1.954-4.063-2.9c-0.865,0.429-1.809,0.948-2.602,1.385l-0.926,0.511c-5.793,3.157-13.354,3.629-17.346,3.629
			c-1.107,0-2.178-0.037-3.18-0.112c-5.811-0.43-11.061-2.629-15.25-6.374c-4.764,3.207-11.242,4.964-18.381,4.964
			c-8.92,0-17.006-2.78-22.769-7.827c-3.027-2.651-5.611-5.499-7.983-8.267c-0.085,0.194-0.166,0.378-0.243,0.551
			c-2.088,4.656-4.997,8.461-8.459,11.079c0.441,0.719,0.829,1.438,1.156,2.146c2.897,4.537,5.994,11.874,4.438,28.358
			c-0.232,2.458-0.491,5.023-0.756,7.612c0.833-0.479,1.666-0.892,2.496-1.236C476.882,558.368,479.028,557.935,481.213,557.935z"/>
	</g>
	<g>
		<path fill="#231F20" d="M264.672,573.789c-0.769,0-2.055,0-2.205-1.217c-0.149-1.215,1.126-1.532,1.811-1.704
			c0.135-0.048,22.892-7.56,47.812-9.429c5.838-0.438,9.776-0.651,12.04-0.651c1.747,0,3.396,0,3.569,1.404
			c0.189,1.528-0.793,1.828-9.797,4.088c-1.735,0.436-3.583,0.898-5.4,1.377C302.679,570.242,271.068,573.789,264.672,573.789z"/>
	</g>
</g>
</svg>
