<?xml version="1.0" encoding="utf-8"?>
<!-- Generator: Adobe Illustrator 16.0.0, SVG Export Plug-In . SVG Version: 6.00 Build 0)  -->
<!DOCTYPE svg PUBLIC "-//W3C//DTD SVG 1.1 Tiny//EN" "http://www.w3.org/Graphics/SVG/1.1/DTD/svg11-tiny.dtd">
<svg version="1.1" baseProfile="tiny" id="Layer_1" xmlns="http://www.w3.org/2000/svg" xmlns:xlink="http://www.w3.org/1999/xlink"
	 x="0px" y="0px" width="1000px" height="1000px" viewBox="0 0 1000 1000" xml:space="preserve">
<g>
	<path d="M115.427,540.996c-9.323-2.635-11.839-4.184-11.839-6.664c0-3.1,2.961-4.029,7.548-4.029
		c6.511,0,14.354,2.789,18.054,4.649l4.44-19.527c-4.737-2.325-13.764-4.649-23.678-4.649c-20.126,0-33.445,11.003-33.445,26.501
		c-0.147,9.765,6.511,19.062,23.53,23.712c8.435,2.325,9.916,3.41,9.916,6.044c0,2.636-2.22,3.875-8.287,3.875
		c-7.103,0-17.759-3.41-22.346-6.355l-4.735,20.458c6.511,3.254,15.982,5.733,27.377,5.733c24.417,0,35.221-11.623,35.221-25.726
		C137.033,552.929,130.67,545.335,115.427,540.996z"/>
	<path d="M215.638,545.556c0-19.948-10.454-32.795-34.991-32.795c-15.97,0-26.569,4.383-31.214,6.951l4.79,17.834
		c4.646-2.72,13.649-5.895,21.634-5.895c10.744,0,12.487,3.325,12.487,6.047v0.452c-27.005,0-44.137,9.221-44.137,29.169
		c0,12.09,9.292,23.424,24.971,23.424c8.131,0,15.682-2.115,20.908-8.16h0.58l1.452,6.349h24.682
		c-0.725-3.326-1.161-10.579-1.161-18.439V545.556z M189.214,559.46c0,1.36,0,2.871-0.291,4.08
		c-1.162,4.383-5.517,7.708-9.727,7.708c-5.082,0-7.84-2.418-7.84-6.649c0-6.046,5.808-9.22,17.858-9.22V559.46z"/>
	<rect x="229.261" y="476.318" width="29.936" height="112.525"/>
	<path d="M307.601,509.016c-26.26,0-40.849,17.74-40.849,41.498c0,25.659,17.924,40.229,39.182,40.229h0.139
		c21.954,0,39.876-15.205,39.876-41.813C345.949,525.488,330.249,509.016,307.601,509.016z M306.628,569.995h-0.139
		c-8.475,0-12.365-9.028-12.365-20.114c0-10.138,3.334-20.115,12.504-20.115c8.337,0,11.949,9.186,11.949,20.115
		C318.578,562.867,314.131,569.995,306.628,569.995z"/>
	<path d="M399.607,512.535c-12.378,0-18.768,8.479-20.764,11.658h-0.533l-1.064-9.842h-21.695
		c0.266,6.662,0.532,15.293,0.532,25.891v48.602h25.156V547.51c0-1.665,0-3.634,0.532-4.996c1.065-2.877,3.327-7.268,8.784-7.268
		c6.256,0,9.318,5.148,9.318,14.837v38.761h25.156v-42.999C425.03,524.042,415.313,512.535,399.607,512.535z"/>
	<polygon points="25.38,473.741 22.038,473.741 22.038,498.651 37.166,498.651 37.166,495.842 25.38,495.842 	"/>
	<path d="M42.603,473.519c-1.285,0-2.129,0.961-2.129,2.07c0,1.108,0.807,2.069,2.056,2.069h0.037c1.322,0,2.13-0.961,2.13-2.069
		C44.695,474.443,43.851,473.519,42.603,473.519z"/>
	<rect x="40.913" y="480.763" width="3.342" height="17.888"/>
	<path d="M54.096,476.438l-3.268,0.924v3.4h-2.938v2.55h2.938v9.572c0,1.996,0.368,3.696,1.322,4.73
		c0.771,0.924,2.092,1.479,3.708,1.479c1.358,0,2.46-0.222,3.158-0.517l-0.184-2.514c-0.514,0.148-1.102,0.259-2.093,0.259
		c-2.056,0-2.644-1.479-2.644-3.66v-9.351h5.031v-2.55h-5.031V476.438z"/>
	<path d="M77.046,495.472c-1.359,0.554-2.901,0.998-5.582,0.998c-3.672,0-6.646-2.033-6.719-6.061h13.842
		c0.11-0.333,0.147-0.813,0.147-1.478c0-3.068-1.542-8.611-8.041-8.611c-5.764,0-9.179,4.435-9.179,9.72
		c0,5.359,3.635,9.055,9.51,9.055c3.305,0,5.434-0.738,6.609-1.219L77.046,495.472z M70.437,482.685c4.406,0,5.104,3.77,5.067,5.322
		H64.783C65.076,485.789,66.655,482.685,70.437,482.685z"/>
	<path d="M83.108,498.651h3.341v-9.424c0-0.517,0.037-1.035,0.147-1.516c0.477-2.549,2.167-4.287,4.626-4.287
		c0.514,0,0.881,0.038,1.249,0.111v-3.104c-0.331-0.074-0.625-0.111-0.992-0.111c-2.313,0-4.442,1.552-5.36,4.176h-0.11l-0.11-3.732
		h-2.937c0.11,1.774,0.147,3.585,0.147,5.876V498.651z"/>
	<path d="M94.381,493.958c0,2.402,1.835,5.137,5.838,5.137c2.864,0,5.03-1.441,6.059-2.809h0.11l0.293,2.365h3.048
		c-0.22-1.257-0.294-2.771-0.294-4.361v-6.32c0-3.437-1.248-7.65-7.307-7.65c-2.423,0-4.736,0.591-6.462,1.7l0.808,2.218
		c1.358-0.924,3.341-1.479,5.177-1.479c4.112-0.037,4.443,3.03,4.443,4.14v0.333C98.273,487.157,94.381,489.67,94.381,493.958z
		 M106.167,489.559v2.92c0,0.333-0.037,0.703-0.184,1.035c-0.588,1.441-2.203,3.104-4.883,3.104c-1.836,0-3.305-1.035-3.305-3.104
		C97.795,490.188,101.981,489.448,106.167,489.559z"/>
	<path d="M115.092,498.651h3.341v-9.424c0-0.517,0.037-1.035,0.147-1.516c0.477-2.549,2.167-4.287,4.626-4.287
		c0.514,0,0.881,0.038,1.249,0.111v-3.104c-0.331-0.074-0.625-0.111-0.992-0.111c-2.313,0-4.442,1.552-5.36,4.176h-0.11l-0.11-3.732
		h-2.937c0.11,1.774,0.147,3.585,0.147,5.876V498.651z"/>
	<path d="M129.89,477.659h0.037c1.322,0,2.129-0.961,2.129-2.069c0-1.146-0.844-2.07-2.093-2.07c-1.285,0-2.129,0.961-2.129,2.07
		C127.833,476.698,128.641,477.659,129.89,477.659z"/>
	<rect x="128.273" y="480.763" width="3.342" height="17.888"/>
	<path d="M148.727,493.699c0-2.735-1.579-4.25-4.994-5.359c-2.497-0.813-3.745-1.479-3.745-3.03c0-1.404,1.101-2.513,3.158-2.513
		c1.873,0,3.378,0.702,4.075,1.146l0.809-2.439c-1.065-0.665-2.791-1.182-4.737-1.182c-4.186,0-6.573,2.476-6.573,5.358
		c0,2.181,1.579,3.992,5.104,5.063c2.534,0.776,3.635,1.552,3.635,3.179c0,1.479-1.102,2.698-3.708,2.698
		c-1.763,0-3.672-0.703-4.773-1.368l-0.808,2.514c1.395,0.776,3.341,1.33,5.471,1.33
		C146.267,499.094,148.727,496.729,148.727,493.699z"/>
	<path d="M161.506,499.094c2.753,0,4.883-0.738,5.801-1.146l-0.588-2.549c-1.028,0.443-2.46,0.998-4.589,0.998
		c-3.855,0-6.866-2.55-6.866-6.689c0-3.77,2.533-6.727,6.976-6.727c2.056,0,3.451,0.481,4.369,0.961l0.771-2.55
		c-0.992-0.517-2.938-1.071-5.141-1.071c-6.279,0-10.391,3.992-10.391,9.609C151.85,495.25,155.632,499.094,161.506,499.094z"/>
	<path d="M174.873,488.081c0-0.665,0.037-1.146,0.256-1.626c0.661-1.7,2.497-3.364,4.883-3.364c3.378,0,4.663,2.55,4.663,5.655
		v9.905h3.341v-10.237c0-6.727-4.406-8.094-6.866-8.094c-1.285,0-2.569,0.37-3.598,0.998c-1.138,0.591-2.019,1.516-2.606,2.513
		h-0.073v-11.642h-3.341v26.462h3.341V488.081z"/>
	<path d="M201.753,499.094c3.304,0,5.434-0.738,6.609-1.219l-0.587-2.403c-1.358,0.554-2.901,0.998-5.582,0.998
		c-3.671,0-6.646-2.033-6.719-6.061h13.842c0.11-0.333,0.147-0.813,0.147-1.478c0-3.068-1.542-8.611-8.041-8.611
		c-5.765,0-9.179,4.435-9.179,9.72C192.243,495.399,195.878,499.094,201.753,499.094z M201.165,482.685
		c4.406,0,5.104,3.77,5.067,5.322h-10.721C195.805,485.789,197.383,482.685,201.165,482.685z"/>
	<path d="M216.846,484.496h-0.11l-0.11-3.732h-2.937c0.11,1.774,0.146,3.585,0.146,5.876v12.012h3.342v-9.424
		c0-0.517,0.037-1.035,0.146-1.516c0.477-2.549,2.167-4.287,4.626-4.287c0.514,0,0.881,0.038,1.249,0.111v-3.104
		c-0.331-0.074-0.625-0.111-0.992-0.111C219.893,480.32,217.764,481.872,216.846,484.496z"/>
	<path d="M687.156,469.202v122.096h288.41V469.202H687.156z M836.091,520.241c1.214,0,2.199,0.984,2.199,2.198
		c0,1.216-0.985,2.201-2.199,2.201c-1.216,0-2.2-0.985-2.2-2.201C833.891,521.226,834.875,520.241,836.091,520.241z
		 M829.052,520.241c1.214,0,2.199,0.984,2.199,2.198c0,1.216-0.985,2.201-2.199,2.201c-1.216,0-2.2-0.985-2.2-2.201
		C826.852,521.226,827.836,520.241,829.052,520.241z M804.915,528.372l-1.151,3.069c-0.709-0.33-1.37-0.604-1.979-0.825
		c-0.611-0.22-1.231-0.33-1.862-0.33c-1.122,0-1.683,0.342-1.683,1.023c0,0.221,0.034,0.407,0.103,0.561
		c0.07,0.155,0.212,0.309,0.43,0.462c0.215,0.154,0.512,0.324,0.886,0.512c0.373,0.187,0.876,0.424,1.507,0.71
		c0.807,0.374,1.456,0.726,1.948,1.056c0.493,0.33,0.877,0.677,1.152,1.039c0.276,0.363,0.469,0.771,0.576,1.221
		c0.108,0.451,0.183,0.975,0.222,1.567c0,1.606-0.486,2.828-1.463,3.663c-0.975,0.837-2.476,1.255-4.504,1.255
		c-1.024,0-1.896-0.078-2.615-0.231c-0.718-0.154-1.394-0.373-2.022-0.659v-3.532c0.354,0.198,0.739,0.38,1.151,0.545
		c0.414,0.165,0.833,0.303,1.256,0.413c0.424,0.109,0.838,0.197,1.241,0.264c0.403,0.065,0.771,0.099,1.107,0.099
		c1.379,0,2.068-0.45,2.068-1.353c0-0.221-0.05-0.424-0.148-0.611c-0.099-0.187-0.266-0.367-0.503-0.544
		c-0.235-0.177-0.546-0.368-0.93-0.577s-0.861-0.456-1.433-0.742c-0.809-0.396-1.453-0.755-1.935-1.073
		c-0.483-0.318-0.862-0.659-1.137-1.023c-0.277-0.362-0.469-0.764-0.576-1.203c-0.108-0.44-0.173-0.979-0.192-1.618
		c0-1.407,0.477-2.49,1.432-3.25c0.955-0.759,2.329-1.138,4.121-1.138C801.616,527.119,803.261,527.537,804.915,528.372z
		 M787.806,504.503l6.648-9.899h-6.226v-3.267h10.697v2.771l-6.466,9.637h6.679v3.267h-11.333V504.503z M783.121,485.199
		c1.41,0,2.115,0.693,2.115,2.079c0,0.66-0.177,1.178-0.528,1.551c-0.352,0.375-0.882,0.561-1.587,0.561
		c-1.43,0-2.145-0.704-2.145-2.112C780.977,485.893,781.691,485.199,783.121,485.199z M785.086,491.337v15.675h-3.928v-15.675
		H785.086z M763.872,491.337h2.992l0.515,2.014h0.24c0.423-0.771,1.018-1.348,1.783-1.733s1.643-0.578,2.63-0.578
		c1.712,0,2.986,0.49,3.823,1.469c0.835,0.979,1.253,2.404,1.253,4.273v10.23h-3.898v-9.141c0-2.266-0.776-3.399-2.326-3.399
		c-1.088,0-1.873,0.396-2.358,1.188c-0.483,0.792-0.724,2.123-0.724,3.992v7.359h-3.93V491.337z M747.253,485.199h3.929v5.082
		c0,0.66-0.061,1.694-0.182,3.102h0.182c0.906-1.561,2.256-2.343,4.049-2.343c1.712,0,3.043,0.721,3.99,2.161
		c0.945,1.441,1.42,3.427,1.42,5.957c0,2.596-0.488,4.598-1.465,6.005c-0.979,1.409-2.323,2.112-4.035,2.112
		c-1.713,0-3.031-0.659-3.959-1.979h-0.271l-0.665,1.716h-2.992V485.199z M747.904,521.277c1.378,0,2.067,0.693,2.067,2.079
		c0,0.66-0.173,1.177-0.517,1.551c-0.345,0.375-0.862,0.562-1.551,0.562c-1.398,0-2.098-0.703-2.098-2.112
		C745.807,521.971,746.506,521.277,747.904,521.277z M749.823,527.415v15.675h-3.84v-15.675H749.823z M724.604,493.169
		c1.199-1.419,2.866-2.129,5.002-2.129c2.015,0,3.591,0.622,4.729,1.865c1.138,1.243,1.708,2.998,1.708,5.263v2.08h-9.278
		c0.041,1.21,0.372,2.156,0.997,2.838c0.624,0.683,1.49,1.022,2.599,1.022c0.866,0,1.683-0.1,2.448-0.297
		c0.766-0.198,1.571-0.506,2.418-0.924v3.3c-0.686,0.374-1.411,0.649-2.176,0.825c-0.766,0.175-1.724,0.264-2.871,0.264
		c-2.317,0-4.126-0.682-5.425-2.045c-1.3-1.364-1.949-3.344-1.949-5.94C722.806,496.628,723.405,494.588,724.604,493.169z
		 M709.117,486.52h3.988v16.896h7.616v3.597h-11.604V486.52z M709.826,522.597h3.87v12.54c0,1.584,0.285,2.745,0.857,3.481
		c0.57,0.737,1.516,1.106,2.836,1.106c1.259,0,2.176-0.369,2.746-1.106c0.571-0.736,0.856-1.907,0.856-3.514v-12.508h3.9v13.267
		c0,1.144-0.178,2.178-0.532,3.102c-0.354,0.925-0.857,1.711-1.507,2.359c-0.649,0.649-1.447,1.149-2.393,1.501
		c-0.945,0.353-2.008,0.529-3.19,0.529c-2.384,0-4.22-0.66-5.509-1.98c-1.291-1.319-1.936-3.179-1.936-5.577V522.597z
		 M724.985,577.849h-3.871v-8.845h-7.269v8.845h-3.899v-20.493h3.899v8.019h7.269v-8.019h3.871V577.849z M740.88,577.849h-2.659
		l-0.738-2.146h-0.118c-0.336,0.462-0.66,0.847-0.975,1.155c-0.316,0.308-0.656,0.556-1.02,0.742
		c-0.365,0.188-0.76,0.318-1.183,0.396c-0.424,0.078-0.911,0.116-1.463,0.116c-1.358,0-2.422-0.429-3.19-1.288
		c-0.769-0.856-1.152-2.077-1.152-3.661c0-1.672,0.507-2.899,1.522-3.681c1.013-0.779,2.595-1.214,4.741-1.303l2.423-0.1v-0.66
		c0-1.604-0.729-2.408-2.186-2.408c-1.063,0-2.375,0.385-3.931,1.155l-1.27-2.904c1.614-0.946,3.407-1.419,5.376-1.419
		c1.911,0,3.358,0.462,4.345,1.386c0.984,0.924,1.477,2.321,1.477,4.19V577.849z M742.025,543.09h-3.811v-9.141
		c0-2.266-0.76-3.398-2.275-3.398c-1.063,0-1.832,0.396-2.304,1.188c-0.473,0.792-0.709,2.123-0.709,3.992v7.359h-3.841v-15.675
		h2.925l0.503,2.014h0.235c0.414-0.771,0.994-1.349,1.743-1.732c0.749-0.386,1.604-0.577,2.57-0.577
		c1.673,0,2.919,0.489,3.736,1.468s1.227,2.404,1.227,4.273V543.09z M743.174,507.012h-3.928v-15.675h3.928V507.012z
		 M742.796,488.829c-0.353,0.375-0.882,0.561-1.587,0.561c-1.43,0-2.145-0.704-2.145-2.112c0-1.385,0.715-2.079,2.145-2.079
		c1.41,0,2.115,0.693,2.115,2.079C743.324,487.938,743.147,488.456,742.796,488.829z M757.751,577.849h-3.812v-9.141
		c0-2.267-0.758-3.399-2.275-3.399c-1.063,0-1.832,0.396-2.305,1.188c-0.472,0.792-0.709,2.123-0.709,3.992v7.359h-3.84v-15.675
		h2.925l0.501,2.014h0.237c0.414-0.771,0.994-1.349,1.743-1.732c0.749-0.386,1.604-0.578,2.57-0.578c1.674,0,2.921,0.49,3.738,1.469
		c0.816,0.979,1.226,2.404,1.226,4.272V577.849z M757.148,543.09l-5.347-15.675h4.019l2.688,8.943
		c0.314,1.056,0.502,2.123,0.562,3.201h0.088c0.02-0.439,0.079-0.93,0.178-1.469c0.099-0.538,0.226-1.116,0.384-1.732l2.688-8.943
		h4.018l-5.347,15.675H757.148z M774.62,577.849h-3.812v-9.141c0-2.267-0.758-3.399-2.275-3.399c-1.063,0-1.831,0.396-2.305,1.188
		c-0.472,0.792-0.709,2.123-0.709,3.992v7.359h-3.84v-15.675h2.925l0.502,2.014h0.236c0.414-0.771,0.994-1.349,1.743-1.732
		c0.749-0.386,1.604-0.578,2.57-0.578c1.675,0,2.921,0.49,3.738,1.469s1.226,2.404,1.226,4.272V577.849z M774.785,543.354
		c-2.266,0-4.033-0.683-5.303-2.046c-1.271-1.364-1.905-3.344-1.905-5.939c0-2.662,0.585-4.703,1.757-6.122s2.801-2.128,4.89-2.128
		c1.97,0,3.51,0.621,4.623,1.863c1.112,1.243,1.668,2.999,1.668,5.264v2.079h-9.068c0.039,1.21,0.364,2.156,0.975,2.838
		c0.611,0.683,1.458,1.022,2.541,1.022c0.847,0,1.644-0.099,2.393-0.296c0.749-0.199,1.536-0.507,2.364-0.925v3.3
		c-0.671,0.374-1.38,0.649-2.127,0.825C776.843,543.266,775.906,543.354,774.785,543.354z M789.497,576
		c-1.212,1.408-2.892,2.112-5.038,2.112c-1.024,0-1.95-0.187-2.777-0.561c-0.828-0.374-1.537-0.913-2.127-1.618
		c-0.591-0.703-1.049-1.556-1.374-2.557s-0.487-2.129-0.487-3.383c0-2.595,0.59-4.598,1.772-6.006
		c1.182-1.407,2.876-2.111,5.082-2.111c1.005,0,1.925,0.192,2.763,0.578c0.837,0.384,1.551,0.929,2.142,1.633
		s1.049,1.556,1.374,2.558c0.324,1.001,0.487,2.118,0.487,3.349C791.313,572.59,790.709,574.592,789.497,576z M791.327,531.111
		c-1.241,0-2.196,0.352-2.865,1.056c-0.671,0.705-1.004,1.684-1.004,2.938v7.985h-3.842v-15.675h2.896l0.562,2.641h0.206
		c0.434-0.88,1.015-1.59,1.743-2.129c0.729-0.538,1.536-0.808,2.422-0.808c0.571,0,1.006,0.044,1.301,0.131l-0.295,3.994
		C792.193,531.156,791.818,531.111,791.327,531.111z M801.742,577.849h-3.929l-5.348-15.675h4.018l2.688,8.943
		c0.314,1.056,0.503,2.123,0.563,3.2h0.088c0.019-0.439,0.078-0.929,0.178-1.468c0.098-0.539,0.226-1.116,0.384-1.732l2.688-8.943
		h4.019L801.742,577.849z M809.996,521.277c1.378,0,2.067,0.693,2.067,2.079c0,0.66-0.173,1.177-0.517,1.551
		c-0.345,0.375-0.862,0.562-1.551,0.562c-1.398,0-2.098-0.703-2.098-2.112C807.898,521.971,808.598,521.277,809.996,521.277z
		 M808.075,527.415h3.84v15.675h-3.84V527.415z M821.184,571.083h-9.069c0.038,1.211,0.363,2.157,0.974,2.839
		s1.458,1.022,2.541,1.022c0.847,0,1.645-0.1,2.394-0.297c0.748-0.198,1.537-0.507,2.363-0.924v3.3
		c-0.669,0.374-1.378,0.649-2.127,0.825c-0.749,0.175-1.684,0.264-2.807,0.264c-2.266,0-4.033-0.682-5.304-2.046
		c-1.27-1.363-1.905-3.344-1.905-5.939c0-2.662,0.585-4.702,1.758-6.121c1.172-1.42,2.802-2.129,4.89-2.129
		c1.97,0,3.511,0.622,4.623,1.864c1.113,1.242,1.67,2.998,1.67,5.263V571.083z M824.234,542.66
		c-0.984,0.463-2.156,0.694-3.515,0.694c-1.537,0-2.654-0.43-3.354-1.288c-0.699-0.857-1.049-2.155-1.049-3.893v-7.558h-1.832
		v-1.781l2.098-1.453l1.123-3.3h2.451v3.333h3.929v3.201h-3.929v7.558c0,0.616,0.153,1.067,0.459,1.352
		c0.305,0.286,0.704,0.43,1.196,0.43c0.669,0,1.478-0.165,2.422-0.495V542.66z M833.12,566.002
		c-0.257-0.088-0.631-0.133-1.123-0.133c-1.241,0-2.196,0.353-2.865,1.056c-0.671,0.705-1.006,1.684-1.006,2.938v7.986h-3.84
		v-15.675h2.896l0.561,2.64h0.207c0.434-0.879,1.015-1.589,1.743-2.128s1.536-0.809,2.423-0.809c0.571,0,1.005,0.044,1.3,0.132
		L833.12,566.002z M838.649,543.09h-2.659l-0.738-2.145h-0.117c-0.336,0.461-0.66,0.847-0.977,1.154
		c-0.314,0.309-0.654,0.556-1.018,0.743c-0.365,0.187-0.76,0.318-1.183,0.396c-0.424,0.077-0.911,0.116-1.462,0.116
		c-1.358,0-2.422-0.43-3.189-1.288c-0.769-0.857-1.152-2.078-1.152-3.662c0-1.672,0.506-2.899,1.521-3.68s2.595-1.215,4.741-1.304
		l2.423-0.1v-0.659c0-1.605-0.729-2.408-2.186-2.408c-1.063,0-2.375,0.384-3.929,1.155l-1.271-2.904
		c1.615-0.946,3.407-1.419,5.377-1.419c1.91,0,3.357,0.461,4.343,1.385c0.984,0.925,1.477,2.322,1.477,4.191V543.09z
		 M850.909,542.66c-0.984,0.463-2.156,0.694-3.515,0.694c-1.537,0-2.654-0.43-3.353-1.288c-0.7-0.857-1.05-2.155-1.05-3.893v-7.558
		h-1.832v-1.781l2.098-1.453l1.123-3.3h2.451v3.333h3.93v3.201h-3.93v7.558c0,0.616,0.153,1.067,0.459,1.352
		c0.305,0.286,0.704,0.43,1.196,0.43c0.669,0,1.478-0.165,2.422-0.495V542.66z"/>
	<path d="M776.188,531.028c-0.463-0.582-1.107-0.874-1.935-0.874s-1.467,0.292-1.921,0.874c-0.452,0.584-0.718,1.402-0.797,2.458
		h5.377C776.892,532.431,776.65,531.612,776.188,531.028z"/>
	<path d="M732.282,573.195c0,1.21,0.62,1.814,1.861,1.814c0.886,0,1.595-0.285,2.127-0.857s0.798-1.331,0.798-2.277v-1.286
		l-1.477,0.065C733.385,570.676,732.282,571.524,732.282,573.195z"/>
	<path d="M814.92,564.913c-0.827,0-1.467,0.291-1.921,0.874c-0.452,0.584-0.719,1.402-0.798,2.458h5.378
		c-0.02-1.056-0.262-1.874-0.725-2.458C816.393,565.204,815.748,564.913,814.92,564.913z"/>
	<path d="M731.615,494.95c-0.474-0.583-1.134-0.874-1.979-0.874c-0.847,0-1.501,0.292-1.964,0.874
		c-0.464,0.584-0.736,1.402-0.816,2.458h5.499C732.335,496.353,732.088,495.534,731.615,494.95z"/>
	<path d="M784.489,565.342c-1.025,0-1.764,0.379-2.216,1.139c-0.454,0.759-0.681,1.93-0.681,3.514c0,1.54,0.231,2.706,0.694,3.498
		s1.207,1.188,2.231,1.188c1.023,0,1.757-0.384,2.2-1.155c0.443-0.77,0.665-1.946,0.665-3.53s-0.227-2.755-0.679-3.514
		C786.251,565.721,785.513,565.342,784.489,565.342z"/>
	<path d="M754.023,503.843c0.804,0,1.444-0.405,1.918-1.221c0.473-0.813,0.71-1.99,0.71-3.53c0-1.539-0.232-2.694-0.694-3.465
		c-0.465-0.77-1.119-1.155-1.965-1.155c-0.967,0-1.677,0.319-2.131,0.957c-0.452,0.639-0.68,1.717-0.68,3.234v0.463
		c0,1.672,0.228,2.875,0.68,3.613C752.315,503.476,753.036,503.843,754.023,503.843z"/>
	<path d="M830.053,538.437c0,1.21,0.62,1.815,1.861,1.815c0.886,0,1.595-0.285,2.127-0.857c0.531-0.572,0.798-1.332,0.798-2.278
		v-1.286l-1.477,0.065C831.155,535.918,830.053,536.766,830.053,538.437z"/>
	<path d="M552.521,591.298h122.096V469.202H552.521V591.298z M630.729,580.408c-1.979,1.979,1.98-4.95-0.33-4.62
		c-2.31,0.33,0.33-3.96,0.33-3.96c0.33-2.64,1.98-1.649,1.98,1.98S632.709,578.429,630.729,580.408z M650.915,500.737
		c0.512-3.217,0.534-3.524,1.158-5.758c0.938-3.366,1.05-2.393,0.733-5.117c-0.316-2.727,2.26-3.42,2.26-3.42
		c2.003-1.813,1.588,2.231,1.588,2.231s-0.955,3.219-0.29,5.116c0.664,1.897-0.121,2.776-0.813,4.434
		c-0.693,1.66,0.243,3.524-0.347,5.123c-0.853,2.315,0.604,2.98,2.254,1.99c0.988-0.593,0.582,2.421-0.495,3.63
		c-2.853,3.206-4.785,2.31-5.796-2.731C650.697,503.889,650.401,503.954,650.915,500.737z M653.498,522
		c-2.2,0.439-1.76,5.72-1.76,5.72s0.881,2.2-1.76,2.2c-2.64,0-3.52-7.92,1.76-11.88c5.28-3.96,9.239-0.88,9.68,2.201
		c0.439,3.08,0,5.279-5.72,11.879s-2.2,7.479,3.96,6.159s8.8-1.32,6.6,0.881c-2.2,2.2-4.399,3.52-8.359,3.52s-7.041-0.44-10.12-0.88
		s0.881-3.96,6.16-10.999C659.219,523.761,655.698,521.561,653.498,522z M646.019,562.038c4.401-5.721,7.04-10.118,8.799-10.56
		c1.76-0.44,1.32,2.641,1.32,2.641c4.399-1.32,1.761,3.52,1.761,7.479s-1.761,5.72,0.439,5.72s4.399-2.199,4.399,0
		s-0.439,3.081-3.96,3.081c-3.52,0-4.399,0-4.399,1.319c0,1.32,0,7.92-2.64,7.92s-2.64-2.2-1.32-6.16
		c1.32-3.96,0.439-3.521,0.439-3.521s-3.959,0-7.039,0C640.739,569.958,641.618,567.759,646.019,562.038z M636.668,513.751
		c0,1.979-1.319,1.319-1.319,3.63c0,2.31-1.32,3.959-1.32,3.959s-1.649-5.609-0.66-6.6c0.99-0.989,0.33-1.319,0-4.289
		c-0.33-2.971,0-4.95,0-4.95c0.33-3.3,2.641,2.97,3.3,4.29C637.328,511.11,636.668,511.771,636.668,513.751z M634.028,485.372
		c0.33-2.97,2.31-0.33,2.31-0.33c0.66,1.98,0.99,4.29-0.659,4.62C634.028,489.991,633.698,488.341,634.028,485.372z
		 M634.028,496.261c0-2.31,1.98,0.66,2.64,2.31c0.66,1.65-1.649,1.32-1.649,2.97c0,1.65-1.98,1.979-1.98-1.98
		C633.038,495.601,634.028,496.261,634.028,496.261z M634.358,528.6c-0.99,3.301-1.649-4.289-1.649-4.289
		C632.709,522.66,635.349,525.3,634.358,528.6z M631.719,538.83c-0.33-2.641,1.649-6.93,1.649-6.93c2.311-1.32,0,6.27,0,10.56
		c0,4.289,0.99,7.919-1.319,8.909c-2.311,0.99-0.33-3.3-0.33-5.939C631.719,542.789,632.049,541.47,631.719,538.83z
		 M630.398,560.279c-0.99-3.63,0.99-2.971,0.99-2.971c1.979-2.97,1.32,4.29,0.33,6.271c-0.99,1.979,0.33,2.31-0.33,4.619
		c-0.66,2.311-1.65-0.989-1.98-2.64C629.079,563.909,631.389,563.909,630.398,560.279z M616.044,500.881
		c0.881-3.52,0.938-3.859,1.815-6.27c1.319-3.63,1.319-2.53,1.319-5.61s2.641-3.52,2.641-3.52c2.198-1.76,1.319,2.694,1.319,2.694
		s-1.319,3.465-0.879,5.666s-0.44,3.079-1.32,4.839c-0.879,1.76,0.385,4.455-0.936,5.665c-1.891,1.734,1.155,5.115-1.265,7.534
		c-3.203,3.203-2.64-2.198-3.079-4.839C615.221,504.401,615.164,504.401,616.044,500.881z M613.899,525.521
		c3.519-3.96,6.16,0.439,6.16,0.439c2.64,2.2-4.399,3.521-5.72,7.48c-1.319,3.96,2.641,6.159,6.159,3.079
		c3.519-3.079,4.4-7.039,3.521-8.359c-0.881-1.319-0.881-3.52,0-4.84c0.88-1.32,3.52,0.88,3.52,3.521
		c0,2.64-1.319,9.239-3.52,12.319c-2.2,3.079-7.039,6.16-11.88,2.2C607.3,537.4,610.38,529.48,613.899,525.521z M609.939,560.72
		c3.519-3.96,6.16,0.439,6.16,0.439c2.64,2.2-4.399,3.521-5.72,7.48c-1.319,3.96,2.641,6.159,6.159,3.079
		c3.52-3.079,4.4-7.039,3.521-8.359c-0.881-1.319-0.881-3.52,0-4.84c0.88-1.32,3.521,0.88,3.521,3.521
		c0,2.64-1.32,9.239-3.521,12.318c-2.2,3.08-7.039,6.161-11.88,2.201C603.34,572.6,606.42,564.68,609.939,560.72z M588.107,536.045
		c0.512-3.217,0.535-3.523,1.158-5.758c0.938-3.365,1.05-2.393,0.734-5.117c-0.317-2.727,2.259-3.42,2.259-3.42
		c2.004-1.813,1.589,2.231,1.589,2.231s-0.955,3.219-0.29,5.116c0.663,1.897-0.122,2.776-0.813,4.435
		c-0.693,1.66,0.839,3.898-0.347,5.122c-1.7,1.753,1.673,4.396-0.481,6.815c-2.853,3.205-2.849-1.642-3.556-3.927
		C587.651,539.258,587.594,539.263,588.107,536.045z M585.3,560.72c3.519-3.96,6.16,0.439,6.16,0.439
		c2.64,2.2-4.399,3.521-5.72,7.48c-1.319,3.96,2.641,6.159,6.159,3.079c3.52-3.079,4.4-7.039,3.521-8.359
		c-0.881-1.319-0.881-3.52,0-4.84c0.88-1.32,3.521,0.88,3.521,3.521c0,2.64-1.32,9.239-3.521,12.318
		c-2.2,3.08-7.039,6.161-11.88,2.201C578.7,572.6,581.781,564.68,585.3,560.72z M568.747,570.364
		c0.513-3.218,0.535-3.524,1.159-5.758c0.938-3.366,1.05-2.393,0.733-5.118c-0.317-2.726,2.26-3.419,2.26-3.419
		c2.003-1.813,1.588,2.231,1.588,2.231s-0.955,3.218-0.29,5.115c0.664,1.897-0.121,2.777-0.813,4.435
		c-0.693,1.66,0.243,3.524-0.347,5.122c-0.854,2.315,0.604,2.98,2.254,1.99c0.988-0.593,0.582,2.421-0.495,3.631
		c-2.853,3.205-4.785,2.31-5.796-2.732C568.529,573.516,568.234,573.582,568.747,570.364z"/>
	<path d="M651.738,565.559c2.64-0.439,2.199-0.879,1.76-3.079s0.879-9.241,0-5.721c0,0-3.08,5.719-4.399,7.92
		C647.778,566.879,649.099,565.998,651.738,565.559z"/>
</g>
</svg>
