<?xml version="1.0" encoding="utf-8"?>
<!-- Generator: Adobe Illustrator 16.0.0, SVG Export Plug-In . SVG Version: 6.00 Build 0)  -->
<!DOCTYPE svg PUBLIC "-//W3C//DTD SVG 1.1 Tiny//EN" "http://www.w3.org/Graphics/SVG/1.1/DTD/svg11-tiny.dtd">
<svg version="1.1" baseProfile="tiny" id="Layer_1" xmlns="http://www.w3.org/2000/svg" xmlns:xlink="http://www.w3.org/1999/xlink"
	 x="0px" y="0px" width="1000px" height="1000px" viewBox="0 0 1000 1000" xml:space="preserve">
<g>
	<path d="M606.461,76.083c0,0,5.31-8.495,14.866-21.237c0,0,7.434,15.928,7.434,22.299
		C628.761,77.146,619.202,69.713,606.461,76.083z"/>
	<path d="M669.11,264.037c-2.122,7.433-1.06,14.867-1.06,14.867s6.884-8.607,16.771-21.157c-3.469-2.041-6.963-4.032-10.501-5.963
		C671.438,256.241,670.269,259.985,669.11,264.037z M644.688,258.728c8.495,7.433,11.682,12.743,11.682,12.743s0,0-1.063-9.557
		c-1.063-9.557-5.31-10.619-13.806-19.114c-2.849-2.848-5.325-6.406-7.379-9.884c-2.467-0.986-4.952-1.939-7.449-2.87
		C627.897,242.907,637.948,252.829,644.688,258.728z M933.114,629.851c-2.929-2.962-7.115-4.444-12.547-4.444h-55.99
		c-0.49,3.8-1.055,7.579-1.664,11.346c0.07,0.021,0.13,0.065,0.199,0.087c2.037,0.605,4.115,0.906,6.242,0.906h57.326v45.188
		h-64.718v-23.229l-3.691,0.929c-1.858,8.077-3.998,16.047-6.371,23.913c0.701,3.078,1.867,5.588,3.63,7.371
		c2.933,2.966,7.113,4.446,12.547,4.446h52.49c5.432,0,9.618-1.48,12.547-4.446c2.933-2.963,4.396-7.711,4.396-14.243v-33.576
		C937.511,637.564,936.047,632.817,933.114,629.851z M867.575,585.842h57.831v21.779l10.83-2.724V594.01
		c0-4.233-0.359-7.714-1.081-10.434c-0.722-2.724-1.805-4.871-3.248-6.444c-1.447-1.571-3.231-2.66-5.352-3.267
		c-2.123-0.604-4.545-0.907-7.263-0.907h-49.938c-0.584,0-1.161,0.079-1.736,0.125c0.017,1.406,0.065,2.802,0.065,4.209
		C867.684,580.15,867.639,582.998,867.575,585.842z M128.454,660.974l-48.887-88.016H66.458v123.406h13.109v-97.636l46.265,84.205
		h4.472l7.583-14.132c-1.5-5.901-2.856-11.857-4.067-17.866L128.454,660.974z M174.274,359.606
		c-7.433-11.68-4.248-19.114,2.124-25.485c6.371-6.371,7.433-21.237-6.372-20.175c-13.804,1.063-24.423,19.114-21.237,37.166
		c1.972,11.171,10.924,27.565,29.765,36.697c3.34-5.602,6.813-11.11,10.433-16.515C181.916,368.535,177.232,364.254,174.274,359.606
		z M247.112,652.811h47.265l-23.567-63.34L247.112,652.811z M863.236,625.406h1.341c1.684-12.989,2.695-26.189,2.998-39.564h-4.339
		V625.406z M513.015,276.78c-15.928,22.299-24.423,39.29-24.423,48.847c0,0,10.619-18.053,18.052-23.362
		c7.434-5.31,7.434-5.31,7.434-5.31s0,26.547,7.432,41.414c0,0,0-30.795,2.125-47.785c2.123-16.99,6.372-27.609,9.557-39.289
		C533.19,251.295,528.943,254.48,513.015,276.78z M592.655,235.366c0,19.114,16.991,36.104,26.547,42.476
		c9.559,6.371,24.425,14.867,24.425,14.867s-14.866-15.929-26.548-29.733c-11.681-13.804-15.927-23.361-14.866-40.352
		c0.016-0.271,0.004-0.495,0.012-0.757c-3.268-0.966-6.562-1.885-9.872-2.763C592.528,223.287,592.655,228.659,592.655,235.366z
		 M591.593,207.757c0,0,11.287-2.016,10.632,14.11c8.28,2.445,16.428,5.183,24.449,8.178c-0.319-3.346-0.071-6.88,1.024-10.607
		c0,0,2.36,6.575,6.425,13.477c13.828,5.506,27.253,11.805,40.197,18.869c2.402-3.713,5.987-7.92,11.781-13.232
		c12.743-11.68,19.114-28.67,19.114-28.67c6.372,20.175-5.31,28.67-16.99,43.537c-1.174,1.493-2.303,2.929-3.404,4.328
		c7.78,4.584,15.392,9.426,22.796,14.55c7.972-11.084,9.308-17.016,11.402-33.752c2.834-22.655,7.08-29.733,7.08-38.228
		c0-8.496-2.828-36.811-9.909-42.475c0,0,4.249-16.992-16.99-36.813l-21.237-18.404c0,0,2.83,0.008,0.706-14.859
		c-2.124-14.866-2.124-14.866-2.124-14.866s-8.494-3.186-18.053,1.062c-9.557,4.248-14.865,11.681-14.865,11.681
		s-14.866-6.372-32.919-5.31c0,0,16.99,2.124,25.484,10.619c8.496,8.495,8.496,8.495,8.496,8.495s-10.618-7.434-20.177-10.619
		c-9.557-3.186-18.051-2.124-29.731,1.062c-11.682,3.186-14.866,7.434-21.237,11.681c-6.371,4.248-16.991,7.433-25.486,9.557
		c-8.494,2.124-5.311,12.743,3.187,10.619c8.494-2.125,9.557-6.372,14.866-4.248c0,0-2.125,4.248-6.372,7.433
		c-4.248,3.186-6.371,9.557-16.991,9.557c0,0-4.246,18.052,10.62,16.99c14.866-1.063,21.237-9.557,27.608-7.433
		c6.372,2.123,5.31,11.68,5.31,11.68s-3.186-2.124-13.804,0c-10.619,2.125-13.806,5.311-20.177,4.248
		c-6.37-1.062,0,11.681,4.248,18.052c4.248,6.371,14.866,5.31,19.114,3.186c4.248-2.124,13.805-4.247,22.3-1.062
		c8.495,3.186,11.681,11.681,31.855,3.186c20.177-8.496,20.177-14.866,19.114-19.114c-1.063-4.247,10.618-4.247,18.053-3.185
		c7.433,1.061,5.309-6.372,5.309-15.929c0-9.557-3.187-19.114-3.187-19.114s13.806,15.928,14.868,28.671
		c1.061,12.742,1.061,18.052,1.061,18.052s-5.309,0-20.175,2.123l-7.433-1.062c0,0-3.187,8.496-14.867,13.805
		c-11.681,5.31-18.053,18.052-29.732,14.866c-11.68-3.185-26.548-6.387-33.98-6.379c0,0-7.075,8.495-9.909,12.742
		c-0.626,0.94-1.767,2.452-3.382,4.223c9.056,1.693,17.982,3.734,26.792,6.071C592.037,211.364,591.593,207.757,591.593,207.757z
		 M590.532,127.055c0,0-6.371,2.123-7.434-7.434c-1.062-9.556-3.185-12.742-3.185-12.742c11.679,0,18.052-5.31,26.547-7.433
		c8.494-2.124,12.741,6.372,12.741,6.372c1.063,9.557-20.175,1.062-26.547,2.124C586.284,109.002,590.532,127.055,590.532,127.055z
		 M593.718,132.364l4.248,2.124c8.495,3.186,13.805-1.062,19.113-6.372c5.311-5.31,5.311-8.495,5.311-8.495
		c6.371,3.186,14.865,6.372,14.865,14.867s-11.681,12.742-11.681,12.742s0,0,3.187-3.185c3.185-3.186,1.061-10.619-3.187-14.867
		c-4.247-4.248-4.247-1.062-6.372,5.31c-2.123,6.372-4.247,8.495-11.681,5.309C600.09,136.611,593.718,132.364,593.718,132.364z
		 M639.379,157.849c-16.989,7.433-29.732,9.556-29.732,9.556s16.989-8.495,29.732-14.866c12.742-6.371,11.681-25.484,11.681-25.484
		C657.432,138.735,656.37,150.415,639.379,157.849z M668.051,99.445c0,0-6.372-4.248-16.991-6.371c0,0,6.372-10.619,16.991-11.682
		C668.051,81.393,672.297,89.888,668.051,99.445z M660.616,203.51c6.372,1.062,8.494-1.063,24.423-11.681
		c15.93-10.619,22.3-18.052,22.3-18.052c1.063,6.371-1.062,16.99-12.742,24.423c-11.681,7.434-28.671,22.3-35.043,15.928
		c-6.37-6.372-15.927-13.804-15.927-13.804S654.245,202.447,660.616,203.51z M620.174,652.811h47.266l-23.567-63.34L620.174,652.811
		z M851.138,662.426l7.134-1.792c1.81-7.867,3.344-15.835,4.642-23.882c-1.952-0.615-3.698-1.658-5.218-3.18
		c-1.572-1.572-2.847-3.722-3.82-6.444c-0.979-2.72-1.464-6.196-1.464-10.434V594.01c0-4.233,0.485-7.714,1.464-10.434
		c0.974-2.724,2.248-4.871,3.82-6.444c1.572-1.571,3.377-2.66,5.417-3.267c1.477-0.438,2.983-0.662,4.506-0.782
		c-1.391-124.73-64.377-234.656-160.001-300.787c-2.813,3.919-6.441,8.468-11.249,14.384
		c-18.405,22.652-32.566,38.229-35.394,50.971c-2.829,12.743-5.667,16.99-16.992,33.98c-11.323,16.99-16.988,21.238-16.988,21.238
		s1.413-56.632,0-65.127c-1.415-8.495-32.567-24.071-24.071-14.159c8.494,9.911,14.156,15.574,14.156,41.059
		c0,25.486-4.247,49.556-7.076,70.794c-2.829,21.237-7.08,41.058-1.419,60.879c5.663,19.822,8.495,35.396-4.248,36.814
		c-12.743,1.416-31.146,1.415-39.642-4.248c-8.495-5.662,1.415-24.07,4.248-42.476c2.834-18.405,2.834-55.218-2.833-75.041
		c-5.668-19.824-19.819-43.89-19.819-62.296c0-18.407,1.415-48.14,1.415-48.14s-4.249,14.159-8.496,29.732s-5.664,33.98-5.664,33.98
		c-21.238-14.159-86.367-12.743-86.367-12.743c-2.833-42.475,11.328-76.455,11.328-76.455
		c-28.316,43.889-22.654,84.951-22.654,84.951s-11.327,4.248-21.238,14.16c-9.912,9.911-18.406,18.406-18.406,18.406
		s-11.326,4.248-25.486,4.248c-14.159,0-33.98,2.831-25.485,4.248c8.495,1.417,29.733,12.742,29.733,12.742
		c-26.902,9.912-84.951,48.137-80.703,50.971c4.247,2.833,7.081,11.326,9.912,21.237c2.831,9.912,5.664,19.822-14.16,25.485
		c-19.823,5.664-24.069,1.416-32.564-8.495c-8.495-9.909-16.99-22.654-8.495-35.396c8.495-12.743,11.326-26.902,43.892-58.049
		c32.566-31.147,43.89-55.218,43.89-55.218s11.329,5.662,24.071,8.495c12.742,2.833,25.485-2.833,25.485-2.833
		s-18.407,2.833-28.317-7.079c-9.912-9.912-12.743-12.742-12.743-12.742c4.248-7.079,9.912-24.069,9.912-24.069
		s9.912,5.662,19.821,12.742c9.909,7.081,24.07,12.743,24.07,12.743c-16.99-16.991-29.733-36.814-28.318-48.14
		c1.415-11.326,9.912-26.902,22.654-31.149c12.743-4.248,26.902-9.91,26.902-9.91s-12.743,14.157-14.159,38.228
		c-1.417,24.071,12.743,39.643,12.743,39.643c-5.664-9.912,0-41.059,7.078-55.218c7.079-14.159,19.823-25.485,19.823-25.485
		s7.079-4.247,16.99-1.414c9.912,2.833,35.395,0,35.395,0s-8.495,7.079-18.404,31.147c-9.91,24.068-7.081,50.97-7.081,50.97
		c0-18.407,16.99-36.811,26.901-56.633c9.911-19.82,18.406-32.565,18.406-32.565l11.327-1.415
		c18.743-1.101,30.59-10.774,36.263-17.015c-22.195-4.146-45.076-6.337-68.474-6.337c-128.44,0-241.605,65.347-308.1,164.598
		c7.862,3.067,18.683,4.247,33.518,1.864l-0.641,20.769c-18.167,2.043-32.388-0.827-43.31-6.118
		c-33.055,55.448-52.065,120.242-52.065,189.483c0,25.216,2.53,49.84,7.33,73.644l41.668-77.978h13.107v123.406h-13.107v-97.636
		l-37.601,70.073c40.743,160.417,186.107,279.089,359.2,279.089c167.375,0,308.813-110.972,354.814-263.344
		c-0.465-2.034-0.763-4.271-0.763-6.872V662.426z M404.703,414.824c7.433-4.247,7.433-9.556,10.619-24.423
		c3.186-14.866,0-16.99,15.929-26.546c15.928-9.557,25.485-10.619,39.29-10.619c13.804,0,24.423,1.062,24.423,1.062
		c-2.124,29.732-26.547,44.599-43.537,55.218c-16.99,10.619-2.124,12.742,9.556,29.732c11.681,16.99,20.176,18.053,31.857,22.3
		c11.68,4.248,10.62,12.743,9.557,20.176c-1.063,7.433-23.362,7.433-35.043,7.433c-11.681,0-15.928-6.371-15.928-9.557
		c0-3.186-10.619-12.743-23.362-33.98C415.321,424.381,397.27,419.072,404.703,414.824z M333.556,301.203
		c16.99-25.485,32.918-31.856,32.918-31.856c-9.557,8.495-9.557,16.99-30.794,53.094c-4.049,6.881-8.683,13.448-13.88,19.63
		l-6.045-19.436C322.886,315.424,328.944,308.12,333.556,301.203z M301.91,335.329l6.421,20.64
		c-5.633,5.094-11.739,9.804-18.332,14.06l-4.65-22.407C291.175,343.743,296.731,339.622,301.91,335.329z M239.622,369.294
		c0.168-0.048,0.319-0.08,0.489-0.13c10.298-2.98,20.311-7.218,29.808-12.282l4.541,21.878
		c-10.806,5.253-22.648,9.405-35.507,12.267L239.622,369.294z M298.583,665.151h-55.801l-11.467,31.213h-11.083l46.627-123.406
		h8.281l46.883,123.406h-11.849L298.583,665.151z M348.207,823.907l-30.966-30.479h-0.353v30.479h-5.995v-63.971h5.995v28.505h0.282
		l28.287-28.505h9.312l-30.685,30.763l34.352,33.208H348.207z M376.743,823.907h-5.458v-63.971h5.458V823.907z M433.651,766.615
		h-19.979v57.292h-5.461v-57.292h-19.976v-6.679h45.416V766.615z M441.948,696.364h-8.918L364.49,596.006v100.358h-10.83V572.958
		h8.917l68.542,99.995v-99.995h10.829V696.364z M491.656,779.502l-5.46,1.129v-14.016h-31.989v50.332h31.989v-15.431l5.46,1.692
		v11.009c0,3.385-0.738,5.849-2.217,7.383c-1.477,1.538-3.585,2.307-6.327,2.307h-25.824c-2.74,0-4.849-0.769-6.328-2.307
		c-1.476-1.534-2.215-3.998-2.215-7.383V770.85c0-2.194,0.245-3.997,0.739-5.408c0.491-1.414,1.134-2.527,1.926-3.344
		c0.793-0.813,1.703-1.378,2.732-1.691c1.026-0.312,2.076-0.47,3.146-0.47h25.824c1.371,0,2.59,0.158,3.662,0.47
		c1.07,0.313,1.968,0.878,2.698,1.691c0.728,0.816,1.273,1.93,1.639,3.344c0.363,1.411,0.545,3.214,0.545,5.408V779.502z
		 M556.087,823.907h-5.98v-30.389h-36.802v30.389h-5.98v-63.971h5.98v27.186h36.802v-27.186h5.98V823.907z M567.814,610.704
		l-10.83,2.178v-27.04H493.54v97.092h63.445v-36.295h-30.447v-13.43h41.277v44.466c0,6.532-1.465,11.28-4.393,14.243
		c-2.933,2.966-7.119,4.446-12.554,4.446h-51.212c-5.436,0-9.619-1.48-12.55-4.446c-2.931-2.963-4.395-7.711-4.395-14.243V594.01
		c0-4.233,0.487-7.714,1.464-10.434c0.977-2.724,2.251-4.871,3.822-6.444c1.573-1.571,3.377-2.66,5.416-3.267
		c2.038-0.604,4.119-0.907,6.242-0.907h51.212c2.718,0,5.136,0.303,7.265,0.907c2.119,0.606,3.902,1.695,5.346,3.267
		c1.448,1.573,2.531,3.721,3.252,6.444c0.723,2.72,1.084,6.2,1.084,10.434V610.704z M617.756,823.907h-40.473v-63.971h40.147v6.679
		h-34.685v20.507h21.392v6.396h-21.392v23.429h35.01V823.907z M683.023,823.907h-4.708l-36.208-52.024v52.024h-5.723v-63.971h4.707
		l36.213,51.834v-51.834h5.719V823.907z M683.235,696.364l-11.594-31.213h-55.798l-11.465,31.213h-11.085l46.628-123.406h8.279
		l46.885,123.406H683.235z M707.339,437.124c0,11.681-3.186,11.681-11.681,21.238c-8.495,9.557-19.113,10.619-27.607,10.619
		c-8.497,0-18.053-3.186-22.3-16.99c-4.249-13.805,9.557-18.052,14.865-13.805c5.31,4.247,9.557,2.124,14.866-7.433
		c5.311-9.557,1.063-12.743,7.434-20.176c6.372-7.433-3.186-19.114-10.619-24.423c-7.433-5.309-14.865-13.804-14.865-13.804
		c9.557-8.495,11.679-20.176,15.928-36.104c4.248-15.928,27.609-36.104,27.609-36.104s1.062,27.609,5.309,50.97
		c4.248,23.362,6.371,38.228,10.619,53.094C721.145,419.072,707.339,425.444,707.339,437.124z M793.733,696.364h-67.012V572.958
		h10.827v109.976h56.185V696.364z M823.795,606.457c0,1.694-0.212,2.784-0.635,3.266c-0.424,0.483-1.361,0.727-2.805,0.727h-6.244
		c-1.443,0-2.376-0.243-2.803-0.727c-0.423-0.481-0.636-1.571-0.636-3.266v-11.613l7.136-26.133h3.696l-4.716,23.592h3.566
		c1.443,0,2.381,0.239,2.805,0.726c0.423,0.481,0.635,1.573,0.635,3.267V606.457z M558.675,296.956
		c1.063,21.237,1.063,38.228,6.372,49.909c5.309,11.681,9.557,31.856,9.557,31.856c0-21.237-9.557-44.599-5.309-67.96
		c4.248-23.36,8.494-29.732,8.494-29.732c7.434,0,22.301,9.556,22.301,9.556s-9.558-16.99-20.176-30.794
		c-10.619-13.804-10.619-31.856-10.619-31.856S557.614,275.718,558.675,296.956z"/>
</g>
</svg>
