<?xml version="1.0" encoding="utf-8"?>
<!-- Generator: Adobe Illustrator 16.0.0, SVG Export Plug-In . SVG Version: 6.00 Build 0)  -->
<!DOCTYPE svg PUBLIC "-//W3C//DTD SVG 1.1 Tiny//EN" "http://www.w3.org/Graphics/SVG/1.1/DTD/svg11-tiny.dtd">
<svg version="1.1" baseProfile="tiny" id="Layer_1" xmlns="http://www.w3.org/2000/svg" xmlns:xlink="http://www.w3.org/1999/xlink"
	 x="0px" y="0px" width="1000px" height="1000px" viewBox="0 0 1000 1000" xml:space="preserve">
<g>
	<path d="M846.471,456.028c-32.565-187.917-103.688-297.161-114.358-309.794c0,0-41.106,7.513-80.366,26.289
		c0,0-1.077,37.965,7.681,74.252c5.975,24.75,23.044,19.629,23.044,19.629c145.09,416.493-90.468,505.254-187.764,501.84
		c-88.721-3.113-189.031-59.141-221.901-209.953c-29.018-133.141,22.19-293.593,22.19-293.593
		c10.242,1.707,19.066,5.176,23.897-20.483c7.473-39.687,5.121-64.864,5.121-64.864c-39.259-22.19-80.063-31.41-80.063-31.41
		s-131.028,200.397-95.583,436.102c35.416,235.526,260.518,335.868,445.488,291.871C802.526,826.28,876.309,628.2,846.471,456.028z
		 M660.66,181.058c27.312-13.655,60.597-23.897,60.597-23.897c0.854,7.681,0,16.216,0,16.216c-20.483,6.828-61.45,22.19-61.45,22.19
		C658.1,186.178,660.66,181.058,660.66,181.058z M673.463,255.31c-5.121,0-2.561-10.242-2.561-10.242s15.362-4.268,26.457-6.828
		c0,0-22.189,0.854-28.164,0.854s-5.975-15.363-5.975-20.483c0-5.121,7.682-11.095,44.381-20.483c0,0,17.923-5.974,19.63,0.854
		c0,0,2.561,17.923,2.561,29.872c0,11.948-4.268,16.216-22.19,20.483C689.679,253.603,678.583,255.31,673.463,255.31z
		 M252.968,158.867c0,0,33.286,10.242,60.597,23.897c0,0,2.561,5.121,0.854,14.509c0,0-40.967-15.362-61.45-22.19
		C252.968,175.083,252.114,166.549,252.968,158.867z M245.287,200.688c1.707-6.828,19.63-0.854,19.63-0.854
		c36.699,9.388,44.38,15.362,44.38,20.483c0,5.121,0,20.483-5.974,20.483s-28.165-0.854-28.165-0.854
		c11.095,2.561,26.458,6.828,26.458,6.828s2.561,10.242-2.561,10.242c-5.121,0-16.216-1.707-34.139-5.975
		c-17.923-4.267-22.19-8.535-22.19-20.483C242.727,218.61,245.287,200.688,245.287,200.688z M752.455,768.244
		C638.09,887.73,482.759,867.247,482.759,867.247c-291.886-25.604-348.215-290.18-324.317-443.804
		c23.897-153.625,74.537-240.11,74.537-240.11s-1.138,34.14-1.138,47.795c0,13.656,2.276,19.345,23.897,25.035
		c21.621,5.69,29.587,6.828,29.587,6.828s-20.482,66.002-29.586,128.59c-9.104,62.587-22.758,213.938,72.83,317.492
		c101.452,109.907,233.824,71.016,284.489,44.948c78.519-40.397,140.342-126.81,126.313-279.368
		c-13.656-148.505-46.657-209.955-46.657-209.955c20.482-5.121,50.07-10.81,51.208-20.483c1.807-15.351,0-58.036,0-58.036
		C868.527,425.15,866.82,648.759,752.455,768.244z"/>
	<ellipse cx="452.397" cy="411.494" rx="5.121" ry="47.226"/>
	<ellipse cx="572.223" cy="411.494" rx="5.121" ry="47.226"/>
	<path d="M630.829,358.579c0,0,6.828-29.018,0-69.984c0,0-27.311-5.121-58.036,35.846c0,0-27.084-6.828-61.223-6.828
		s-59.743,6.828-59.743,6.828c-30.726-40.966-58.037-35.846-58.037-35.846c-6.828,40.967,0,69.984,0,69.984
		s-39.26,32.432-32.432,92.175c6.828,59.743,58.036,97.296,100.71,104.123c0,0-22.189,71.691-29.019,121.193
		c-6.828,49.501,3.414,56.328,23.898,56.328c20.483,0,25.604-11.948,25.604-27.311c0,0,8.535,3.414,34.14,3.414
		c25.604,0,35.618-3.414,35.618-3.414c0,15.362,5.121,27.311,25.604,27.311s30.725-6.827,23.897-56.328
		c-6.828-49.502-35.846-121.193-35.846-121.193c42.673-6.827,90.468-44.38,97.295-104.123
		C670.089,391.011,630.829,358.579,630.829,358.579z M569.379,360.286c26.708,0,48.361,22.417,48.361,50.07
		c0,27.654-21.653,50.071-48.361,50.071c-26.711,0-48.364-22.417-48.364-50.071C521.015,382.703,542.668,360.286,569.379,360.286z
		 M455.241,360.286c26.711,0,48.364,22.417,48.364,50.07c0,27.654-21.653,50.071-48.364,50.071
		c-26.71,0-48.364-22.417-48.364-50.071C406.877,382.703,428.531,360.286,455.241,360.286z M421.245,528.126
		c-0.339,0.384-0.809,0.579-1.28,0.579c-0.402,0-0.805-0.142-1.129-0.427c-0.707-0.624-0.775-1.702-0.151-2.409
		c0.798-0.905,18.327-20.41,51.228-27.354c-15.361-2.019-46.812-3.905-82.459,6.79c-0.163,0.048-0.328,0.071-0.491,0.071
		c-0.734,0-1.412-0.477-1.634-1.217c-0.271-0.901,0.242-1.854,1.145-2.125c35.552-10.665,67.062-9.023,83.067-7.007
		c-15.826-7.225-50.01-19.921-97.428-21.517c-0.942-0.031-1.68-0.82-1.648-1.762c0.031-0.943,0.793-1.712,1.764-1.648
		c67.375,2.265,108.525,26.741,108.931,26.987c0.033,0.019,0.051,0.05,0.08,0.07c0.085,0.059,0.153,0.127,0.227,0.2
		c0.08,0.08,0.154,0.16,0.217,0.253c0.051,0.077,0.091,0.155,0.127,0.24c0.054,0.116,0.09,0.233,0.117,0.358
		c0.01,0.05,0.04,0.09,0.046,0.142c0.004,0.038-0.013,0.073-0.01,0.111c0.007,0.127-0.01,0.25-0.031,0.377
		c-0.017,0.092-0.028,0.182-0.059,0.269c-0.01,0.03-0.007,0.062-0.021,0.09c-0.033,0.085-0.095,0.146-0.14,0.224
		c-0.05,0.078-0.087,0.16-0.148,0.229c-0.093,0.108-0.205,0.193-0.321,0.275c-0.054,0.037-0.097,0.085-0.153,0.117
		c-0.192,0.104-0.4,0.175-0.62,0.199C442.376,504.662,421.452,527.893,421.245,528.126z M568.419,520.657
		c-0.736,0.236-10.748,3.37-23.474,3.37c-9.945,0-21.54-1.929-31.668-8.637c-10.129,6.706-21.728,8.637-31.672,8.637
		c-12.726,0-22.734-3.134-23.474-3.37c-0.897-0.289-1.391-1.249-1.104-2.147c0.29-0.896,1.253-1.385,2.146-1.104
		c0.307,0.097,30.658,9.566,52.392-4.963v-20.152c0-0.944,0.764-1.707,1.707-1.707h0.004l0,0c-8.168,0-14.793-6.625-14.793-14.794
		c0-8.17,6.625-14.794,14.793-14.794c8.171,0,14.795,6.625,14.795,14.794c0,8.169-6.624,14.794-14.795,14.794
		c0.943,0,1.707,0.763,1.707,1.707v20.152c21.767,14.556,52.081,5.062,52.392,4.963c0.896-0.281,1.856,0.203,2.146,1.104
		C569.813,519.406,569.319,520.368,568.419,520.657z M652.506,473.511c-47.418,1.596-81.603,14.294-97.429,21.517
		c16.006-2.019,47.515-3.658,83.069,7.007c0.904,0.271,1.414,1.224,1.145,2.125c-0.221,0.74-0.9,1.217-1.634,1.217
		c-0.164,0-0.327-0.023-0.49-0.071c-35.646-10.695-67.098-8.809-82.46-6.79c32.898,6.944,50.428,26.449,51.229,27.354
		c0.623,0.707,0.553,1.785-0.153,2.409c-0.324,0.285-0.728,0.427-1.127,0.427c-0.474,0-0.943-0.195-1.28-0.579
		c-0.207-0.233-21.13-23.462-59.223-27.881c-0.221-0.024-0.431-0.097-0.62-0.201c-0.061-0.032-0.104-0.08-0.157-0.119
		c-0.115-0.08-0.227-0.163-0.32-0.273c-0.06-0.069-0.1-0.153-0.147-0.233c-0.046-0.074-0.107-0.137-0.143-0.22
		c-0.01-0.028-0.008-0.06-0.018-0.09c-0.032-0.087-0.042-0.177-0.059-0.269c-0.023-0.127-0.037-0.25-0.032-0.377
		c0.002-0.038-0.013-0.073-0.008-0.111c0.005-0.05,0.033-0.09,0.043-0.14c0.027-0.129,0.067-0.249,0.122-0.369
		c0.036-0.078,0.071-0.151,0.12-0.223c0.066-0.102,0.148-0.19,0.238-0.277c0.063-0.063,0.125-0.125,0.2-0.177
		c0.033-0.023,0.053-0.057,0.087-0.078c0.406-0.246,41.56-24.723,108.934-26.987c0.017-0.002,0.037-0.002,0.057-0.002
		c0.917,0,1.674,0.727,1.703,1.65C654.187,472.69,653.449,473.479,652.506,473.511z"/>
	<g>
		<path d="M474.69,118.103c-53.179,30.38-135.244,96.329-169.661,225.114c-55.472,207.573,56.329,336.267,133.142,358.457
			l30.725-56.329c-76.813,1.707-186.907-116.745-131.435-324.318C365.603,215.723,425.124,153.39,474.69,118.103z"/>
	</g>
	<g>
		<path d="M207.262,449.847c-1.192,4.764-3.078,8.595-5.659,11.496c-2.581,2.9-7.304,4.787-14.172,5.66
			c-6.428,0.851-10.73,2.011-12.908,3.491c-2.177,1.479-3.515,3.737-4.015,6.771c-0.284,1.677-0.912,2.464-1.881,2.364
			c-1.042-0.11-1.419-1.53-1.133-4.261l2.711-20.687c2.384-1.93,6.388-3,12.01-3.21c7.193-0.263,12.303-0.78,15.33-1.554
			c3.027-0.77,5.283-2.17,6.768-4.19c1.485-2.024,2.376-4.458,2.673-7.294c0.086-0.827,0.151-1.964,0.194-3.411
			c-12.645-1.324-20.435-2.094-23.371-2.311c-2.937-0.217-5.1,0.147-6.488,1.09c-1.388,0.943-2.312,2.917-2.771,5.921
			c-0.278,1.604-0.901,2.357-1.871,2.254c-0.97-0.1-1.382-0.854-1.235-2.254l2.164-16.496c0.233-2.228,0.442-5.092,0.627-8.595
			c0.156-3.216,0.278-5.254,0.369-6.117c0.154-1.473,0.751-2.154,1.794-2.045c1.005,0.105,1.44,0.805,1.305,2.098
			c-0.211,2.011,0.097,3.923,0.924,5.735c0.827,1.811,4.994,3.11,12.502,3.896l10.027,0.996l19.337,2.08
			c9.986,1.046,16.129,1.244,18.431,0.596c2.301-0.649,3.688-2.891,4.163-6.727c0.193-1.505,0.793-2.206,1.799-2.1
			c1.041,0.109,1.457,1.168,1.247,3.181c-1.061,10.13-1.745,18.738-2.051,25.822c-0.111,3.147-0.299,5.978-0.563,8.495
			c-0.854,8.151-3.149,14.375-6.885,18.669c-3.736,4.294-8.226,6.165-13.471,5.618c-3.521-0.37-6.567-1.797-9.139-4.281
			c-2.572-2.486-4.369-5.44-5.389-8.871C207.616,458.245,207.157,454.301,207.262,449.847z M211.06,435.428
			c-0.134,0.93-0.225,1.627-0.274,2.097c-0.327,3.124-0.074,6.337,0.761,9.638c0.833,3.3,2.467,5.741,4.898,7.321
			c2.43,1.581,5.101,2.524,8.01,2.827c4.49,0.47,8.131-0.49,10.924-2.887c2.792-2.394,4.409-5.691,4.849-9.895
			c0.185-1.76,0.07-3.788-0.343-6.081L211.06,435.428z"/>
		<path d="M193.437,504.131c-1.049,0.002-1.807,0.012-2.275,0.028c-5.126,0.188-9.421,1.601-12.883,4.239
			c-3.464,2.639-5.117,6.087-4.96,10.347c0.159,4.367,2.212,8.593,6.156,12.677c0.79,0.839,1.191,1.438,1.205,1.799
			c0.034,0.938-0.455,1.427-1.464,1.463c-0.794,0.028-2.26-1.001-4.396-3.092c-2.137-2.09-3.786-4.686-4.947-7.788
			c-1.161-3.101-1.804-6.331-1.927-9.687c-0.269-7.362,1.767-13.212,6.107-17.544c4.341-4.334,9.561-6.611,15.661-6.835
			c7.327-0.269,13.559,1.897,18.697,6.498c5.138,4.601,7.838,10.474,8.1,17.619c0.246,6.715-1.823,11.912-6.205,15.598
			c-4.384,3.684-8.614,5.601-12.692,5.749c-1.299,0.049-2.089-0.267-2.366-0.943c-0.278-0.677-0.485-2.891-0.623-6.645
			L193.437,504.131z M197.401,504.311c0.124,5.343,0.201,8.43,0.231,9.262c0.149,4.077,0.529,6.566,1.141,7.466
			c0.61,0.899,1.8,1.317,3.57,1.252c2.959-0.108,5.545-1.053,7.757-2.832c2.211-1.78,3.274-3.842,3.188-6.189
			C213.084,507.711,207.788,504.725,197.401,504.311z"/>
		<path d="M192.416,583.69c-2.565,0.423-5.171,0.166-7.814-0.771c-2.645-0.937-4.981-2.62-7.009-5.049
			c-2.029-2.431-3.341-5.444-3.933-9.043c-0.74-4.491-0.438-8.438,0.903-11.844c0.56-1.485,0.809-2.422,0.744-2.813
			c-0.077-0.464-0.433-0.771-1.069-0.922c-1.494-0.341-2.306-0.902-2.435-1.686c-0.076-0.464,0.046-0.822,0.37-1.077
			c0.322-0.255,1.885-0.677,4.689-1.267s6.143-1.203,10.015-1.842c1.492-0.247,2.31,0.058,2.45,0.913
			c0.141,0.855-0.814,1.947-2.865,3.272c-7.454,4.742-10.694,10.071-9.719,15.987c0.341,2.065,1.165,3.734,2.471,5.001
			c1.307,1.267,2.977,1.733,5.008,1.398c1.71-0.281,3.07-1.191,4.08-2.732c1.009-1.538,2.129-4.349,3.36-8.431
			c1.875-6.166,3.69-10.474,5.447-12.922c1.75-2.486,4.371-4.016,7.864-4.591c4.027-0.664,7.552,0.347,10.575,3.033
			c3.023,2.688,4.907,6.293,5.653,10.818c0.594,3.6,0.126,7.428-1.401,11.487c-0.204,0.545-0.278,0.979-0.225,1.3
			c0.076,0.462,0.527,0.754,1.352,0.875c1.056,0.192,1.641,0.626,1.752,1.304c0.076,0.462-0.032,0.811-0.322,1.042
			c-0.292,0.23-1.917,0.755-4.875,1.572c-2.959,0.816-5.436,1.389-7.431,1.718c-1.39,0.229-2.152-0.066-2.287-0.887
			c-0.141-0.854,0.712-1.894,2.561-3.111c6.129-4.123,8.724-9.033,7.785-14.734c-0.341-2.068-1.133-3.657-2.378-4.771
			c-1.246-1.112-2.455-1.572-3.631-1.377c-1.497,0.246-2.734,1.292-3.71,3.137c-1.014,1.851-2.216,5.324-3.609,10.422
			c-1.184,4.369-2.152,7.428-2.906,9.182c-0.754,1.753-1.995,3.339-3.718,4.759C196.432,582.462,194.518,583.345,192.416,583.69z"/>
		<path d="M231.479,606.641c0.74,2.077,1.769,5.294,3.084,9.651c0.596,1.971,0.913,3.647,0.954,5.031
			c-2.75,0.265-4.271,0.223-4.564-0.12c-0.294-0.347-1.95-4.646-4.971-12.902l-23.044,6.338c-3.25,0.98-5.586,1.865-7.008,2.653
			c-1.423,0.787-2.475,1.926-3.156,3.414c-0.683,1.488-0.742,3.167-0.178,5.034c0.48,1.59,2.011,3.599,4.593,6.026
			c0.377,0.376,0.614,0.722,0.708,1.031c0.198,0.657-0.048,1.091-0.739,1.299c-1.003,0.304-2.792-0.686-5.366-2.964
			c-2.574-2.277-4.431-5.303-5.569-9.07c-1.347-4.46-1.315-8.289,0.096-11.488c1.411-3.198,5.625-5.859,12.644-7.978
			c7.745-2.339,15.514-4.536,23.308-6.586c-1.034-3.424-1.679-5.871-1.934-7.34c-0.256-1.47,0.032-2.33,0.862-2.58
			c0.691-0.209,1.49,0.435,2.396,1.935c1.697,2.998,3.88,5.479,6.549,7.445c2.668,1.967,6.35,3.224,11.041,3.769
			c1.913,0.214,3.091,0.396,3.532,0.545c0.442,0.15,0.735,0.467,0.882,0.952c0.303,1.002-0.376,1.754-2.035,2.255L231.479,606.641z"
			/>
		<path d="M211.886,669.266c-2.894-1.09-5.315-2.426-7.265-4.011c-1.949-1.584-3.428-3.417-4.434-5.497
			c-1.604-3.317-1.839-6.363-0.709-9.135c1.13-2.774,3.129-4.853,5.996-6.24c2.215-1.07,4.456-1.483,6.725-1.24
			c2.268,0.244,4.271,0.938,6.008,2.079s4.169,3.239,7.294,6.293c2.613,2.578,4.492,4.242,5.638,4.99
			c1.145,0.747,2.5,1.183,4.064,1.308c1.564,0.123,3.316-0.284,5.258-1.223c2.135-1.031,3.584-2.392,4.346-4.079
			c0.761-1.685,0.688-3.467-0.219-5.344c-0.783-1.618-1.743-2.573-2.881-2.862c-1.17-0.271-2.764-0.14-4.781,0.396
			c-4.052,1.036-6.864-0.072-8.436-3.322c-0.645-1.334-0.805-2.661-0.48-3.98c0.324-1.32,1.219-2.334,2.682-3.041
			c3.121-1.51,6.276-0.938,9.463,1.712c3.188,2.65,5.921,6.333,8.201,11.049c1.966,4.063,2.947,7.671,2.947,10.821
			c-0.002,3.149-0.643,5.476-1.922,6.977c-1.281,1.502-3.644,3.085-7.09,4.752l-11.606,5.493c-6.08,2.94-9.884,5.029-11.41,6.269
			c-1.527,1.24-1.969,2.525-1.323,3.859c0.094,0.195,0.236,0.448,0.426,0.757c0.379,0.618,0.624,1.042,0.734,1.271
			c0.645,1.331,0.593,2.18-0.154,2.542c-0.488,0.234-1.036,0.16-1.646-0.229c-0.608-0.389-1.845-1.846-3.709-4.374
			c-1.864-2.529-3.339-4.914-4.424-7.158c-1.084-2.243-1.4-3.987-0.947-5.229C208.682,671.626,209.9,670.426,211.886,669.266z
			 M231.75,660.44c-1.324-0.321-3.483-1.585-6.477-3.787c-2.739-2.005-4.884-3.195-6.432-3.57c-1.581-0.358-3.447-0.017-5.599,1.023
			c-2.281,1.104-3.786,2.422-4.512,3.956c-0.727,1.535-0.751,3-0.074,4.398c0.911,1.886,2.632,3.221,5.163,4.004
			c2.529,0.782,5.995,0.108,10.396-2.019C225.583,663.785,228.096,662.449,231.75,660.44z"/>
		<path d="M271.658,689.257c-2.855,2.391-6.845,5.529-11.967,9.412c-7.771,5.893-12.689,9.732-14.751,11.524
			c-2.065,1.791-3.268,3.598-3.607,5.42c-0.342,1.821-0.032,3.365,0.928,4.632c1.134,1.497,2.847,2.589,5.137,3.279
			c2.29,0.688,4.619,0.712,6.989,0.071c2.37-0.64,5.612-2.521,9.728-5.641l9.607-7.146c2.532-1.92,4.098-3.323,4.696-4.207
			c0.599-0.885,0.326-2.141-0.816-3.768c-1.223-1.792-1.431-2.994-0.625-3.604c0.489-0.372,0.957-0.396,1.403-0.078
			c0.446,0.318,1.345,1.37,2.698,3.155c3.033,4.001,5.959,7.651,8.779,10.953c-1.035,0.966-7.136,5.681-18.303,14.147
			c-8.98,6.808-13.815,10.608-14.504,11.403c-0.689,0.794-0.463,2.096,0.682,3.902c0.647,1.095,0.612,1.915-0.107,2.46
			c-0.835,0.634-1.688,0.374-2.561-0.778c-0.175-0.229-0.434-0.6-0.775-1.111c-0.553-0.851-1.244-1.822-2.073-2.914
			c-2.902-3.829-4.521-5.933-4.854-6.314c-0.378-0.438-0.688-0.816-0.927-1.134c-0.415-0.546-0.578-0.955-0.488-1.227
			c0.088-0.271,0.593-0.755,1.515-1.453c1.496-1.136,3.083-2.181,4.762-3.136c-3.923-0.151-7.324-0.872-10.202-2.157
			s-5.233-3.137-7.066-5.554c-5.564-7.34-4.231-14.129,4-20.37l13.34-10.113c4.604-3.49,7.177-5.701,7.718-6.633
			c0.54-0.93,0.376-2.179-0.491-3.74c-0.788-1.398-0.894-2.314-0.317-2.751c0.777-0.59,1.591-0.323,2.442,0.8
			C267.494,684.301,270.832,688.523,271.658,689.257z"/>
		<path d="M305.352,742.025c3.782-1.504,7.149-2.141,10.104-1.912c2.953,0.23,5.502,1.311,7.65,3.244
			c2.04,1.835,3.139,3.894,3.297,6.174c0.157,2.282-0.561,4.308-2.156,6.08c-1.257,1.395-2.762,2.189-4.516,2.385
			c-1.755,0.193-3.263-0.276-4.524-1.412c-0.94-0.847-1.501-1.788-1.683-2.826c-0.184-1.041-0.068-2.491,0.347-4.354
			c0.628-2.641,0.58-4.287-0.145-4.94c-0.993-0.894-3.026-0.904-6.097-0.028c-3.072,0.873-7.214,4.205-12.425,9.996
			c-6.588,7.318-10.001,11.606-10.241,12.872c-0.24,1.266,0.487,2.657,2.178,4.181c1.476,1.329,1.852,2.396,1.127,3.2
			c-0.676,0.752-1.739,0.476-3.189-0.83c-0.805-0.723-1.907-1.849-3.306-3.372c-1.286-1.378-2.546-2.624-3.78-3.735
			c-2.657-2.393-5.373-4.668-8.146-6.822c-1.174-0.91-1.854-1.451-2.042-1.619c-1.127-1.016-1.31-1.945-0.549-2.792
			c0.663-0.737,1.677-0.54,3.042,0.59c1.336,1.105,2.507,1.614,3.512,1.523c1.003-0.09,2.339-1.06,4.004-2.91l9.211-9.906
			c1.834-2.037,4.033-4.643,6.6-7.816c2.566-3.176,4.042-5.111,4.426-5.808c0.384-0.698,0.506-1.522,0.367-2.473
			c-0.14-0.951-0.644-1.89-1.51-2.816c-0.87-0.977-1.366-1.654-1.488-2.03c-0.123-0.379,0.022-0.796,0.433-1.252
			c0.653-0.724,1.661-0.495,3.028,0.685c2.493,2.197,6.983,5.658,13.472,10.38L305.352,742.025z"/>
		<path d="M331.866,801.026c-3.027,0.63-5.788,0.799-8.282,0.504c-2.495-0.296-4.725-1.052-6.688-2.271
			c-3.131-1.943-4.96-4.389-5.49-7.336c-0.53-2.947,0.045-5.773,1.724-8.479c1.298-2.09,2.97-3.641,5.016-4.649
			c2.046-1.007,4.109-1.495,6.188-1.46c2.079,0.033,5.256,0.504,9.529,1.41c3.588,0.778,6.067,1.177,7.435,1.195
			c1.367,0.019,2.745-0.338,4.132-1.07c1.388-0.733,2.65-2.016,3.787-3.847c1.251-2.016,1.747-3.941,1.487-5.772
			c-0.26-1.832-1.274-3.298-3.047-4.397c-1.528-0.949-2.849-1.239-3.965-0.874c-1.134,0.396-2.41,1.36-3.827,2.894
			c-2.868,3.044-5.836,3.614-8.904,1.711c-1.258-0.782-2.104-1.817-2.537-3.105c-0.433-1.289-0.221-2.624,0.637-4.004
			c1.828-2.947,4.797-4.152,8.91-3.621c4.11,0.533,8.391,2.181,12.841,4.94c3.835,2.381,6.596,4.903,8.282,7.563
			c1.685,2.662,2.389,4.969,2.112,6.923c-0.278,1.953-1.425,4.556-3.444,7.808l-6.863,10.854c-3.562,5.737-5.656,9.54-6.281,11.403
			c-0.626,1.865-0.31,3.188,0.949,3.969c0.184,0.113,0.439,0.252,0.765,0.41c0.652,0.32,1.085,0.547,1.3,0.681
			c1.257,0.78,1.667,1.523,1.23,2.23c-0.286,0.46-0.79,0.688-1.511,0.687s-2.547-0.57-5.475-1.707
			c-2.928-1.139-5.452-2.363-7.568-3.678c-2.118-1.314-3.317-2.618-3.6-3.908C330.424,804.737,330.811,803.07,331.866,801.026z
			 M343.92,782.94c-1.291,0.435-3.791,0.523-7.499,0.267c-3.388-0.227-5.836-0.083-7.344,0.429c-1.528,0.543-2.921,1.83-4.182,3.862
			c-1.336,2.151-1.901,4.072-1.692,5.756c0.208,1.685,0.972,2.937,2.292,3.756c1.78,1.104,3.947,1.31,6.503,0.616
			c2.555-0.693,5.123-3.117,7.7-7.27C340.501,789.064,341.908,786.593,343.92,782.94z"/>
		<path d="M391.27,795.152c3.499-2.41,6.895-3.936,10.187-4.576c3.293-0.64,6.482-0.393,9.568,0.737
			c2.576,0.943,4.691,2.469,6.343,4.575c1.652,2.105,2.524,4.213,2.616,6.324s-0.478,4.845-1.708,8.202l-7.895,20.128
			c-1.02,2.78-1.442,4.723-1.269,5.824c0.172,1.102,1.023,2.087,2.552,2.955c1.269,0.734,1.749,1.525,1.438,2.372
			c-0.323,0.882-1.146,1.081-2.468,0.597c-1.119-0.41-3.529-1.446-7.227-3.11c-1.298-0.553-2.354-0.979-3.167-1.276
			c-0.781-0.285-3.081-0.938-6.901-1.95l-2.492-0.914c-1.391-0.51-1.918-1.224-1.583-2.139c0.273-0.745,1.081-1.007,2.423-0.785
			c1.239,0.186,2.298,0.13,3.176-0.165c0.876-0.295,2.303-2.795,4.278-7.503c1.975-4.707,3.828-9.421,5.558-14.141
			c1.917-5.23,2.814-8.964,2.692-11.205c-0.122-2.24-1.352-3.788-3.691-4.646c-2.883-1.057-6.327,0.075-10.333,3.396
			c-4.007,3.322-7.612,9.356-10.818,18.106c-1.243,3.391-1.975,5.911-2.195,7.562c-0.22,1.649-0.156,2.762,0.193,3.33
			c0.349,0.571,1.27,1.283,2.765,2.139c0.887,0.519,1.182,1.184,0.884,1.997c-0.348,0.95-1.217,1.17-2.607,0.66
			c-0.678-0.248-1.413-0.552-2.205-0.912c-3.154-1.472-4.866-2.255-5.137-2.355c-4.883-1.788-8.947-3.087-12.191-3.891
			c-0.534-0.118-0.953-0.233-1.258-0.345c-1.255-0.46-1.702-1.182-1.342-2.165c0.311-0.847,1.05-1.134,2.219-0.86
			c1.804,0.43,3.148,0.384,4.032-0.14s2.189-2.692,3.915-6.51c1.724-3.815,3.583-8.439,5.574-13.874
			c2.539-6.926,3.855-11.307,3.95-13.141c0.095-1.833-0.687-3.477-2.346-4.933c-1.193-1.052-1.694-1.832-1.508-2.342
			c0.298-0.813,1.447-0.854,3.449-0.12c5.628,2.063,10.271,3.515,13.926,4.353C392.874,787.834,392.409,791.415,391.27,795.152z"/>
		<path d="M454.771,802.797c2.187,0.285,5.519,0.83,9.999,1.637c2.026,0.365,3.664,0.844,4.916,1.436
			c-1.014,2.57-1.742,3.907-2.183,4.011c-0.44,0.104-5.024-0.372-13.752-1.431l-4.821,23.407c-0.6,3.342-0.874,5.824-0.817,7.449
			c0.055,1.626,0.59,3.079,1.607,4.362c1.017,1.285,2.485,2.099,4.404,2.445c1.636,0.294,4.121-0.156,7.457-1.354
			c0.505-0.165,0.92-0.221,1.24-0.162c0.676,0.122,0.949,0.538,0.822,1.249c-0.187,1.031-1.88,2.175-5.078,3.434
			c-3.201,1.259-6.738,1.54-10.612,0.842c-4.584-0.825-7.981-2.594-10.191-5.303c-2.209-2.71-2.664-7.673-1.364-14.889
			c1.434-7.961,3.006-15.881,4.718-23.756c-3.519-0.633-5.991-1.17-7.417-1.611c-1.426-0.44-2.061-1.087-1.908-1.939
			c0.128-0.711,1.065-1.13,2.814-1.255c3.439-0.151,6.642-0.969,9.607-2.454c2.964-1.483,5.754-4.191,8.371-8.126
			c1.06-1.605,1.757-2.572,2.09-2.898c0.333-0.325,0.75-0.442,1.247-0.354c1.03,0.187,1.394,1.132,1.086,2.839L454.771,802.797z"/>
		<path d="M620.494,838.4l-3.709,1.388l-23.318-23.616c-9.299-9.364-16.308-16.19-21.03-20.479
			c-4.724-4.289-7.978-6.765-9.769-7.427c-1.787-0.661-3.59-0.903-5.412-0.723c-1.148,0.12-1.862-0.191-2.141-0.936
			c-0.201-0.542-0.145-0.979,0.175-1.311c0.32-0.33,1.325-0.812,3.018-1.444l12.884-4.524c1.555-0.582,3.612-1.427,6.166-2.537
			c3.681-1.605,6.534-2.789,8.564-3.547c1.217-0.455,2.011-0.192,2.377,0.79c0.34,0.913-0.196,1.691-1.613,2.337
			c-1.403,0.68-2.514,1.684-3.331,3.009c-0.813,1.327-0.975,2.648-0.483,3.969c0.394,1.049,1.204,2.267,2.438,3.657
			s6.093,6.361,14.579,14.911l15.639,15.497l-0.12-33.622c-1.258-1.222-3.349-3.407-6.271-6.556
			c-2.924-3.149-4.973-4.909-6.147-5.281c-1.174-0.37-2.846-0.323-5.015,0.141c-1.173,0.246-1.912-0.037-2.215-0.851
			c-0.202-0.54-0.125-0.974,0.234-1.302c0.36-0.327,1.825-0.972,4.397-1.932l12.224-4.279l9.8-3.952
			c3.451-1.289,5.416-1.966,5.895-2.027c0.477-0.063,0.849,0.26,1.113,0.97c0.342,0.914-0.113,1.605-1.365,2.072
			c-2.198,0.822-3.62,1.971-4.266,3.445c-0.643,1.476-0.693,2.939-0.149,4.395c1.543,4.127,11.148,15.362,28.817,33.705
			c0.164-5.535,0.192-13.18,0.087-22.936c-0.104-9.753-0.225-15.377-0.356-16.869c-0.135-1.492-0.431-2.847-0.884-4.065
			c-0.708-1.894-1.818-3.061-3.33-3.497c-1.514-0.437-2.853-0.457-4.015-0.062c-1.73,0.53-2.754,0.373-3.07-0.474
			c-0.34-0.914,0.25-1.653,1.773-2.224l8.672-2.95c3.347-1.252,6.216-2.452,8.602-3.601c1.343-0.631,2.253-1.035,2.727-1.212
			c1.32-0.494,2.157-0.266,2.511,0.682c0.316,0.845-0.193,1.595-1.53,2.248c-1.337,0.655-2.41,1.502-3.217,2.541
			c-0.808,1.04-1.537,2.931-2.189,5.676c-0.651,2.745-1.005,8.271-1.057,16.581l-0.031,26.037l0.069,26.461l-3.591,1.342
			c-1.376-1.297-7.001-7.638-16.875-19.021c-5.142-5.858-10.728-11.968-16.76-18.329l0.184,26.077L620.494,838.4z"/>
		<path d="M715.083,779.734c-0.388,3.067-1.124,5.733-2.214,7.997c-1.087,2.264-2.527,4.127-4.317,5.589
			c-2.854,2.33-5.761,3.268-8.722,2.813c-2.957-0.455-5.444-1.917-7.459-4.385c-1.556-1.905-2.479-3.988-2.77-6.252
			c-0.288-2.263-0.08-4.371,0.627-6.326s2.184-4.808,4.428-8.557c1.901-3.141,3.084-5.354,3.544-6.643
			c0.463-1.287,0.571-2.705,0.33-4.258c-0.243-1.548-1.047-3.16-2.411-4.83c-1.5-1.837-3.158-2.931-4.976-3.279
			c-1.818-0.349-3.532,0.135-5.149,1.454c-1.393,1.138-2.097,2.293-2.113,3.467c0.007,1.202,0.505,2.722,1.494,4.56
			c1.95,3.7,1.524,6.692-1.272,8.976c-1.146,0.938-2.4,1.4-3.759,1.393c-1.36-0.009-2.554-0.644-3.582-1.902
			c-2.192-2.686-2.369-5.886-0.532-9.604c1.839-3.714,4.786-7.229,8.842-10.541c3.497-2.855,6.777-4.647,9.842-5.378
			c3.065-0.73,5.476-0.646,7.234,0.248c1.757,0.897,3.847,2.827,6.268,5.793l8.036,10.014c4.272,5.232,7.188,8.446,8.75,9.643
			c1.56,1.197,2.912,1.327,4.061,0.391c0.166-0.137,0.38-0.334,0.637-0.59c0.514-0.513,0.867-0.849,1.063-1.009
			c1.146-0.937,1.983-1.084,2.509-0.44c0.344,0.42,0.395,0.972,0.161,1.653c-0.236,0.683-1.366,2.224-3.394,4.624
			s-4.004,4.39-5.935,5.965c-1.93,1.577-3.554,2.289-4.867,2.137C718.123,782.302,716.673,781.395,715.083,779.734z
			 M701.887,762.462c-0.006,1.362-0.733,3.756-2.18,7.18c-1.313,3.13-1.974,5.492-1.978,7.084c0.017,1.622,0.784,3.357,2.294,5.208
			c1.604,1.964,3.234,3.12,4.896,3.471c1.662,0.35,3.094,0.033,4.296-0.949c1.624-1.324,2.521-3.309,2.695-5.95
			c0.174-2.643-1.285-5.858-4.377-9.646C706.571,767.683,704.691,765.549,701.887,762.462z"/>
		<path d="M698.313,696.875l36.264,27.402c11.573,8.767,18.111,13.268,19.611,13.501c1.502,0.235,2.952-0.477,4.351-2.136
			c1.617-1.945,2.787-2.646,3.504-2.099c0.891,0.679,0.867,1.636-0.074,2.87c-0.262,0.346-0.676,0.827-1.235,1.444
			c-2.353,2.612-4.524,5.228-6.515,7.841c-3.237,4.254-5.521,7.484-6.852,9.695c-0.373,0.623-0.734,1.165-1.085,1.625
			c-0.985,1.294-1.865,1.644-2.64,1.054c-0.747-0.568-0.605-1.619,0.423-3.15c1.117-1.646,1.71-3.021,1.778-4.126
			c0.07-1.105-0.274-2.07-1.029-2.897c-0.757-0.825-2.748-2.464-5.968-4.917l-17.087-12.734l-13.361-10.376
			c-5.581-4.249-9.168-6.562-10.767-6.938c-1.599-0.377-3.609,0.578-6.031,2.863c-1.432,1.407-2.495,1.847-3.184,1.322
			c-0.433-0.329-0.589-0.732-0.474-1.212c0.115-0.479,0.651-1.467,1.608-2.963C693.548,706.684,696.47,701.326,698.313,696.875z"/>
		<path d="M749.071,672.353c-9.335-4.667-15.586-7.732-18.753-9.194c-3.166-1.461-5.121-2.114-5.864-1.962
			c-0.742,0.154-1.743,1.087-3.004,2.798c-0.823,1.164-1.59,1.567-2.3,1.213c-0.551-0.275-0.787-0.667-0.716-1.176
			c0.072-0.508,0.698-1.941,1.877-4.301l6.396-12.792l34.355,17.296l21.25,10.927c3.294,1.647,5.519,2.405,6.674,2.277
			c1.154-0.13,2.371-1.146,3.646-3.054c0.728-1.13,1.479-1.502,2.253-1.115c0.842,0.422,0.946,1.26,0.316,2.521l-7.85,15.7
			l-6.64-3.318c1.794,2.632,2.804,5.258,3.03,7.873c0.226,2.617-0.323,5.251-1.646,7.899c-2.472,4.942-6.56,8.319-12.266,10.13
			c-5.704,1.813-11.592,1.202-17.657-1.832c-6.646-3.322-11.044-8.185-13.188-14.587c-2.144-6.401-1.907-12.219,0.71-17.453
			c0.983-1.97,2.257-3.605,3.814-4.905C745.07,673.996,746.924,673.015,749.071,672.353z M757.31,698.457
			c6.162,3.08,11.078,4.519,14.749,4.315c3.67-0.203,6.138-1.567,7.396-4.086c1.212-2.423,0.886-5.181-0.975-8.271
			c-1.864-3.091-6.359-6.42-13.489-9.983c-5.808-2.904-10.524-4.354-14.155-4.353c-3.631,0.003-6.181,1.474-7.651,4.412
			c-1.453,2.909-1.002,5.859,1.352,8.854C746.891,692.339,751.148,695.376,757.31,698.457z"/>
		<path d="M734.494,621.293l47.782,12.355c-0.863-2.862-2.646-6.678-5.351-11.449c-2.7-4.769-4.839-7.357-6.413-7.764
			c-1.328-0.344-2.592,1.083-3.792,4.278c-0.608,1.634-1.35,2.337-2.224,2.11c-0.84-0.217-1.078-1.023-0.717-2.424
			c0.217-0.838,0.492-1.755,0.823-2.752c0.863-2.76,1.589-5.277,2.178-7.551c0.388-1.502,0.76-3.086,1.115-4.748
			c0.458-2.344,0.779-3.882,0.97-4.617c0.325-1.259,0.96-1.766,1.905-1.521c0.873,0.227,1.157,1.438,0.85,3.634
			c-0.286,1.828-0.109,3.702,0.53,5.621c0.642,1.918,2.027,4.608,4.154,8.067c1.601,2.615,2.479,4.131,2.632,4.543
			c1.839-1.912,4.14-3.564,6.906-4.958c2.768-1.392,7.881-2.167,15.346-2.327c3.263-0.063,5.425-0.21,6.482-0.438
			c1.059-0.229,2.004-0.85,2.833-1.865c0.83-1.015,1.531-2.563,2.108-4.648c0.297-1.004,0.917-1.382,1.861-1.139
			c0.907,0.235,1.214,0.93,0.916,2.083c-0.063,0.246-0.169,0.572-0.315,0.982c-1.333,3.87-2.262,6.821-2.787,8.848
			c-0.452,1.749-0.87,4.308-1.257,7.677c-2.157,1.271-5.411,1.735-9.762,1.394c-5.374-0.424-9.074-0.146-11.099,0.835
			c-2.026,0.98-3.91,2.676-5.652,5.084c0.606,1.272,1.172,2.629,1.698,4.065c9.315,2.336,14.546,3.308,15.689,2.919
			c1.146-0.39,2.047-1.498,2.707-3.329c0.597-1.586,1.404-2.248,2.417-1.986c0.978,0.253,1.273,1.132,0.884,2.635
			c-0.117,0.455-0.311,1.059-0.578,1.809c-1.353,3.643-2.219,6.198-2.599,7.667c-0.587,2.273-1.218,5.355-1.888,9.248
			c-0.248,1.39-0.435,2.332-0.562,2.82c-0.435,1.679-1.158,2.387-2.172,2.124c-0.874-0.226-1.222-1.044-1.045-2.452
			c0.364-2.853-0.261-4.618-1.876-5.298c-1.615-0.679-6.897-2.176-15.849-4.49l-36.442-9.032c-3.463-0.895-5.783-1.085-6.961-0.568
			s-2.164,1.66-2.958,3.433c-0.677,1.465-1.399,2.099-2.17,1.9c-0.874-0.227-1.15-1.177-0.83-2.853
			C733.079,633.399,733.916,627.427,734.494,621.293z"/>
		<path d="M814.202,564.942c1.91,2.432,3.287,4.829,4.13,7.196c0.848,2.365,1.16,4.699,0.94,6.999
			c-0.349,3.667-1.726,6.395-4.131,8.18c-2.403,1.784-5.19,2.525-8.361,2.226c-2.446-0.233-4.579-1.042-6.393-2.428
			c-1.812-1.385-3.165-3.015-4.059-4.894c-0.894-1.877-1.886-4.931-2.974-9.161c-0.897-3.561-1.641-5.958-2.234-7.191
			c-0.59-1.233-1.523-2.308-2.797-3.226c-1.271-0.917-2.98-1.479-5.129-1.682c-2.362-0.226-4.306,0.187-5.829,1.233
			c-1.527,1.047-2.388,2.608-2.586,4.684c-0.17,1.791,0.157,3.104,0.98,3.941c0.858,0.84,2.288,1.553,4.292,2.142
			c4.003,1.215,5.831,3.62,5.491,7.214c-0.14,1.476-0.692,2.692-1.653,3.652c-0.964,0.962-2.252,1.365-3.871,1.211
			c-3.45-0.327-5.853-2.451-7.203-6.371c-1.35-3.919-1.778-8.486-1.283-13.699c0.429-4.494,1.459-8.088,3.092-10.781
			c1.638-2.692,3.391-4.348,5.263-4.97c1.872-0.618,4.716-0.748,8.526-0.387l12.772,1.324c6.723,0.638,11.059,0.825,13.007,0.557
			c1.949-0.269,2.992-1.141,3.132-2.614c0.021-0.217,0.03-0.505,0.028-0.868c-0.003-0.726,0.007-1.216,0.032-1.467
			c0.14-1.474,0.623-2.172,1.45-2.094c0.538,0.052,0.967,0.401,1.287,1.048c0.319,0.647,0.621,2.536,0.903,5.665
			c0.283,3.129,0.307,5.933,0.071,8.414c-0.234,2.48-0.87,4.134-1.901,4.961C818.166,564.584,816.5,564.98,814.202,564.942z
			 M792.642,562.186c0.964,0.963,2.153,3.162,3.572,6.598c1.302,3.135,2.519,5.266,3.649,6.388c1.166,1.126,2.937,1.804,5.317,2.03
			c2.523,0.238,4.492-0.108,5.909-1.046c1.417-0.933,2.198-2.175,2.345-3.722c0.197-2.084-0.581-4.117-2.339-6.1
			c-1.758-1.98-5.068-3.202-9.936-3.665C799.646,562.525,796.806,562.363,792.642,562.186z"/>
		<path d="M774.386,514.57c-0.134-2.2-0.226-5.577-0.277-10.128c-0.021-2.059,0.141-3.757,0.487-5.098
			c2.714,0.512,4.164,0.974,4.349,1.388c0.186,0.413,0.58,5.005,1.184,13.775l23.896,0.328c3.396-0.038,5.886-0.236,7.471-0.599
			c1.586-0.36,2.912-1.16,3.982-2.4c1.068-1.24,1.594-2.835,1.572-4.786c-0.02-1.66-0.93-4.016-2.733-7.065
			c-0.257-0.467-0.391-0.863-0.394-1.188c-0.007-0.686,0.35-1.034,1.073-1.04c1.047-0.012,2.49,1.434,4.327,4.339
			c1.839,2.905,2.781,6.327,2.824,10.263c0.052,4.659-1.044,8.328-3.291,11.007c-2.245,2.681-7.032,4.061-14.365,4.145
			c-8.088,0.09-16.162,0.036-24.219-0.164c0.04,3.576-0.021,6.104-0.187,7.587c-0.164,1.483-0.679,2.229-1.546,2.238
			c-0.723,0.009-1.31-0.833-1.764-2.525c-0.795-3.351-2.2-6.343-4.217-8.975c-2.014-2.632-5.201-4.862-9.555-6.692
			c-1.777-0.738-2.859-1.24-3.241-1.507c-0.383-0.267-0.576-0.653-0.583-1.159c-0.01-1.047,0.85-1.582,2.584-1.6L774.386,514.57z"/>
		<path d="M794.248,474.959c1.047-0.074,1.804-0.136,2.271-0.185c5.102-0.537,9.288-2.24,12.563-5.109
			c3.275-2.868,4.69-6.423,4.244-10.662c-0.459-4.346-2.794-8.421-7.008-12.227c-0.847-0.782-1.287-1.352-1.325-1.712
			c-0.099-0.933,0.354-1.453,1.361-1.56c0.79-0.083,2.322,0.845,4.596,2.786c2.275,1.938,4.098,4.416,5.468,7.431
			c1.372,3.015,2.232,6.192,2.585,9.533c0.771,7.328-0.859,13.301-4.896,17.922c-4.035,4.619-9.086,7.248-15.157,7.888
			c-7.291,0.769-13.657-0.967-19.097-5.208c-5.44-4.237-8.534-9.913-9.284-17.025c-0.704-6.68,1.005-12.009,5.126-15.983
			c4.122-3.976,8.211-6.176,12.27-6.604c1.294-0.135,2.101,0.125,2.424,0.78c0.323,0.657,0.682,2.852,1.075,6.588L794.248,474.959z
			 M790.281,475.05c-0.486-5.323-0.773-8.398-0.86-9.226c-0.429-4.057-0.977-6.514-1.65-7.371c-0.67-0.855-1.885-1.19-3.646-1.003
			c-2.945,0.31-5.461,1.428-7.546,3.354c-2.084,1.927-3.004,4.058-2.757,6.393C774.403,472.728,779.892,475.347,790.281,475.05z"/>
		<path d="M774.438,420.633c-3.922-1.085-6.991-2.609-9.208-4.575s-3.598-4.366-4.143-7.204c-0.518-2.696-0.151-5,1.099-6.914
			c1.252-1.914,3.048-3.096,5.388-3.545c1.846-0.354,3.525-0.079,5.041,0.824c1.517,0.904,2.434,2.19,2.754,3.856
			c0.24,1.243,0.116,2.332-0.363,3.27c-0.483,0.939-1.45,2.026-2.904,3.262c-2.097,1.726-3.054,3.069-2.869,4.026
			c0.252,1.312,1.867,2.547,4.843,3.703c2.978,1.158,8.292,1.001,15.941-0.469c9.669-1.856,14.98-3.217,15.934-4.081
			c0.955-0.864,1.217-2.412,0.789-4.646c-0.376-1.951-0.03-3.029,1.033-3.233c0.991-0.191,1.674,0.672,2.042,2.587
			c0.203,1.063,0.403,2.625,0.599,4.684c0.193,1.875,0.446,3.629,0.76,5.261c0.675,3.511,1.466,6.963,2.376,10.356
			c0.385,1.434,0.602,2.275,0.649,2.522c0.287,1.49-0.13,2.342-1.248,2.557c-0.972,0.187-1.662-0.582-2.069-2.305
			c-0.396-1.69-1.023-2.8-1.88-3.335c-0.855-0.534-2.506-0.567-4.949-0.099l-13.323,2.339c-2.692,0.517-6.019,1.267-9.98,2.249
			s-6.306,1.634-7.034,1.957c-0.729,0.325-1.322,0.907-1.785,1.75c-0.462,0.842-0.627,1.895-0.495,3.157
			c0.104,1.303,0.09,2.144-0.042,2.517c-0.13,0.375-0.497,0.62-1.101,0.735c-0.956,0.184-1.623-0.606-2-2.374
			c-0.66-3.255-2.153-8.725-4.474-16.408L774.438,420.633z"/>
	</g>
	<g>
		<path d="M523.044,841.776c-9.646,0-17.495-7.848-17.495-17.496c0-9.646,7.849-17.494,17.495-17.494s17.494,7.848,17.494,17.494
			C540.538,833.929,532.69,841.776,523.044,841.776z M523.044,813.613c-5.883,0-10.667,4.786-10.667,10.667
			c0,5.883,4.784,10.668,10.667,10.668c5.882,0,10.666-4.785,10.666-10.668C533.71,818.399,528.926,813.613,523.044,813.613z"/>
	</g>
	<g>
		<path d="M215.383,388.607c-9.646,0-17.495-7.848-17.495-17.496c0-9.646,7.849-17.495,17.495-17.495s17.495,7.848,17.495,17.495
			C232.878,380.759,225.029,388.607,215.383,388.607z M215.383,360.444c-5.882,0-10.667,4.786-10.667,10.667
			c0,5.882,4.786,10.668,10.667,10.668s10.667-4.786,10.667-10.668C226.05,365.23,221.265,360.444,215.383,360.444z"/>
	</g>
	<g>
		<path d="M234.158,316.919c-9.646,0-17.495-7.848-17.495-17.496c0-9.647,7.849-17.495,17.495-17.495s17.496,7.848,17.496,17.495
			C251.654,309.071,243.805,316.919,234.158,316.919z M234.158,288.756c-5.882,0-10.667,4.786-10.667,10.667
			c0,5.882,4.786,10.668,10.667,10.668s10.667-4.786,10.667-10.668C244.826,293.542,240.04,288.756,234.158,288.756z"/>
	</g>
	<g>
		<path d="M752.255,359.914c-1.257-9.565,5.505-18.368,15.069-19.623c9.564-1.256,18.368,5.503,19.623,15.068
			c1.257,9.566-5.504,18.369-15.069,19.625C762.313,376.239,753.511,369.479,752.255,359.914z M759.024,359.024
			c0.766,5.833,6.133,9.955,11.964,9.189c5.834-0.765,9.955-6.133,9.189-11.966c-0.765-5.83-6.133-9.952-11.967-9.187
			C762.38,347.826,758.26,353.193,759.024,359.024z"/>
	</g>
	<g>
		<path d="M724.308,291.278c-1.255-9.564,5.504-18.367,15.069-19.623c9.564-1.255,18.369,5.505,19.624,15.069
			c1.256,9.565-5.506,18.369-15.069,19.624C734.367,307.604,725.564,300.845,724.308,291.278z M731.078,290.39
			c0.766,5.832,6.133,9.954,11.966,9.189c5.831-0.766,9.953-6.134,9.188-11.966c-0.767-5.831-6.134-9.953-11.965-9.187
			C734.436,279.191,730.312,284.559,731.078,290.39z"/>
	</g>
</g>
</svg>
