<?xml version="1.0" encoding="utf-8"?>
<!-- Generator: Adobe Illustrator 16.0.0, SVG Export Plug-In . SVG Version: 6.00 Build 0)  -->
<!DOCTYPE svg PUBLIC "-//W3C//DTD SVG 1.1 Tiny//EN" "http://www.w3.org/Graphics/SVG/1.1/DTD/svg11-tiny.dtd">
<svg version="1.1" baseProfile="tiny" id="Layer_1" xmlns="http://www.w3.org/2000/svg" xmlns:xlink="http://www.w3.org/1999/xlink"
	 x="0px" y="0px" width="1000px" height="1000px" viewBox="0 0 1000 1000" xml:space="preserve">
<g>
	<path d="M411.179,281.58c2.653-1.849,5.328-3.594,8.021-5.248c-0.292-0.655-0.466-1.38-0.482-2.147
		c-0.063-3,2.246-5.481,5.158-5.542c1.888-0.04,3.554,0.957,4.518,2.474c2.859-1.496,5.735-2.902,8.633-4.182
		c-0.151-0.486-0.26-0.991-0.271-1.527c-0.063-3,2.247-5.48,5.159-5.542c2.165-0.046,4.05,1.263,4.902,3.17
		c2.837-1.004,5.694-1.883,8.561-2.685c-0.006-0.093-0.03-0.18-0.033-0.273c-0.063-3,2.247-5.481,5.158-5.542
		c2.256-0.048,4.197,1.379,4.994,3.416c4.094-0.796,8.211-1.389,12.35-1.78c0.177-2.781,2.367-5.015,5.123-5.072
		c2.644-0.056,4.856,1.912,5.29,4.52c4.047-0.049,8.111,0.094,12.187,0.43c0.443-2.48,2.527-4.382,5.07-4.436
		c2.911-0.061,5.325,2.321,5.389,5.321c0.003,0.134-0.023,0.259-0.03,0.391c4.199,0.681,8.407,1.562,12.622,2.649
		c0.258-2.697,2.415-4.836,5.109-4.894c2.913-0.061,5.325,2.321,5.387,5.321c0.02,0.905-0.198,1.75-0.563,2.509
		c3.527,1.175,7.057,2.485,10.588,3.945c0.659-2.16,2.578-3.754,4.896-3.803c2.91-0.061,5.324,2.321,5.387,5.32
		c0.021,1.016-0.247,1.961-0.701,2.784c2.092,1.019,4.183,2.076,6.272,3.195c0.883,0.473,1.794,0.992,2.73,1.551
		c0.898-0.808,2.05-1.326,3.337-1.352c2.91-0.061,5.323,2.321,5.387,5.321c0.014,0.593-0.091,1.157-0.252,1.695
		c1.768,1.284,3.544,2.651,5.313,4.043c0.402-4.351,0.752-8.872,1.039-13.555c-4.721-4.086-10.627-8.095-17.709-11.979
		c-57.469-31.525-117.301-22.139-153.723,4.591c-0.839,5.159-1.471,10.364-1.925,15.604c0.799-0.54,1.744-0.875,2.77-0.896
		C408.614,279.337,410.195,280.214,411.179,281.58z"/>
	<path d="M560.785,258.126c6.59,3.615,12.175,7.349,16.794,11.165c0.111-2.029,0.215-4.077,0.301-6.164
		c-0.138,0.014-0.275,0.033-0.417,0.037c-2.904,0.07-5.317-2.306-5.389-5.306c-0.037-1.556,0.572-2.965,1.564-3.979
		c-2.003-1.596-4.03-3.148-6.031-4.609c-0.936,1.107-2.289,1.832-3.824,1.868c-2.905,0.069-5.317-2.307-5.389-5.306
		c-0.021-0.856,0.169-1.66,0.493-2.388c-0.842-0.5-1.665-0.967-2.458-1.391c-2.24-1.194-4.481-2.31-6.723-3.387
		c-0.831,0.616-1.842,0.991-2.94,1.018c-2.707,0.064-4.963-2.003-5.319-4.71c-3.949-1.643-7.896-3.109-11.839-4.389
		c-0.864,0.706-1.938,1.153-3.124,1.181c-2.313,0.055-4.293-1.452-5.049-3.578c-4.494-1.175-8.979-2.106-13.451-2.811
		c-0.85,1.724-2.544,2.936-4.547,2.983c-2.519,0.06-4.663-1.723-5.234-4.153c-4.119-0.335-8.224-0.468-12.311-0.402
		c-0.564,2.305-2.537,4.043-4.952,4.101c-2.3,0.054-4.27-1.434-5.035-3.541c-4.11,0.397-8.198,0.998-12.261,1.803
		c-0.097,2.851-2.31,5.167-5.107,5.233c-2.045,0.048-3.825-1.126-4.738-2.865c-2.904,0.821-5.796,1.729-8.669,2.762
		c0.032,2.966-2.244,5.415-5.125,5.483c-1.592,0.038-3.021-0.675-4.013-1.807c-2.993,1.328-5.964,2.787-8.916,4.35
		c0.037,0.24,0.083,0.477,0.088,0.727c0.071,2.999-2.226,5.487-5.131,5.556c-1.369,0.033-2.619-0.492-3.575-1.356
		c-2.818,1.738-5.616,3.578-8.388,5.535c0.071,0.337,0.118,0.685,0.126,1.043c0.047,1.991-0.961,3.738-2.485,4.72
		c-0.43,1.996-0.828,3.998-1.189,6.009C443.721,235.408,503.442,226.669,560.785,258.126z"/>
	<path d="M416.647,240.299c-0.071-2.999,2.226-5.487,5.131-5.556c1.883-0.044,3.547,0.947,4.512,2.461
		c2.849-1.503,5.715-2.917,8.603-4.206c-0.151-0.486-0.262-0.989-0.274-1.524c-0.071-3,2.226-5.487,5.13-5.556
		c2.161-0.051,4.044,1.252,4.9,3.155c2.828-1.011,5.676-1.898,8.534-2.707c-0.007-0.092-0.031-0.178-0.033-0.271
		c-0.071-3,2.226-5.487,5.131-5.557c2.25-0.053,4.19,1.368,4.99,3.401c4.083-0.808,8.189-1.412,12.318-1.813
		c0.169-2.78,2.347-5.018,5.095-5.083c2.638-0.062,4.851,1.898,5.291,4.504c4.037-0.06,8.092,0.072,12.159,0.397
		c0.437-2.48,2.51-4.386,5.047-4.446c2.904-0.069,5.319,2.307,5.391,5.306c0.003,0.133-0.023,0.259-0.029,0.39
		c4.19,0.67,8.392,1.541,12.601,2.616c0.251-2.697,2.396-4.842,5.085-4.906c2.904-0.069,5.317,2.307,5.389,5.306
		c0.021,0.905-0.194,1.75-0.555,2.51c3.522,1.166,7.047,2.466,10.572,3.917c0.654-2.161,2.561-3.76,4.876-3.816
		c2.901-0.069,5.317,2.307,5.389,5.307c0.024,1.016-0.241,1.961-0.691,2.785c2.089,1.013,4.179,2.065,6.269,3.179
		c0.881,0.469,1.791,0.987,2.726,1.543c0.895-0.81,2.042-1.331,3.325-1.361c2.902-0.068,5.318,2.307,5.389,5.307
		c0.015,0.593-0.088,1.157-0.246,1.696c2.319,1.682,4.667,3.483,6.977,5.335c0.494-0.174,1.011-0.297,1.561-0.311
		c0.336-0.008,0.664,0.024,0.984,0.079c0.345-19.286-0.474-40.763-3.229-64.192c-5.927-50.378-0.988-96.311,10.865-109.153
		c11.854-12.842,33.091-18.275,25.189-26.177c-7.902-7.902-13.828-7.902-12.841-16.792c0.986-8.89-6.422,10.866-6.422,18.768
		c0,7.903-0.493,13.335-0.493,13.335s-16.299,16.299-69.64,56.305c-32.964,24.723-68.068,45.078-92.033,79.543
		c-9.504,13.668-15.819,28.221-19.894,43.323c2.463-1.715,4.943-3.351,7.441-4.896C416.84,241.79,416.665,241.066,416.647,240.299z"
		/>
	<path d="M409.146,247.713c-0.986-1.361-2.565-2.235-4.335-2.193c-2.906,0.069-5.202,2.557-5.131,5.557
		c0.027,1.125,0.384,2.163,0.972,3.017c-1.903,1.518-3.795,3.084-5.674,4.706c-0.914-0.711-2.042-1.141-3.274-1.111
		c-2.904,0.069-5.202,2.556-5.13,5.556c0.022,0.934,0.292,1.793,0.712,2.55c-1.247,1.195-2.493,2.393-3.728,3.636
		c-0.433,0.436-0.43,1.14,0.005,1.572c0.437,0.432,1.139,0.43,1.572-0.005c1.194-1.202,2.399-2.359,3.604-3.515
		c0.905,0.686,2.015,1.097,3.222,1.068c2.905-0.069,5.202-2.556,5.13-5.556c-0.021-0.91-0.279-1.75-0.68-2.494
		c1.95-1.682,3.913-3.306,5.889-4.874c0.814,0.492,1.757,0.779,2.769,0.755c0.977-0.023,1.873-0.338,2.645-0.836
		c0.593-2.75,1.247-5.488,1.979-8.207C409.511,247.467,409.327,247.586,409.146,247.713z"/>
	<path d="M581.756,260.682c1.369,1.205,2.684,2.395,3.925,3.551c-0.609,0.911-0.968,2.013-0.939,3.206
		c0.071,2.999,2.486,5.375,5.389,5.306c1.111-0.026,2.13-0.412,2.967-1.04c1.019,1.158,1.82,2.167,2.355,2.984
		c0.213,0.325,0.568,0.501,0.931,0.501c0.208,0,0.419-0.059,0.607-0.182c0.514-0.336,0.657-1.025,0.319-1.539
		c-0.617-0.942-1.563-2.121-2.756-3.462c0.461-0.831,0.731-1.789,0.707-2.818c-0.07-3-2.484-5.375-5.389-5.307
		c-0.949,0.022-1.821,0.324-2.58,0.798c-1.494-1.396-3.089-2.837-4.755-4.294c0.029-0.256,0.063-0.512,0.057-0.777
		c-0.063-2.652-1.959-4.81-4.404-5.227c-0.065,3.658-0.164,7.25-0.31,10.746C579.511,262.955,580.914,262.025,581.756,260.682z"/>
	<path d="M401.681,284.917c0.024,1.126,0.378,2.165,0.966,3.021c-1.912,1.512-3.812,3.074-5.7,4.69
		c-0.914-0.714-2.044-1.146-3.28-1.121c-2.912,0.062-5.221,2.542-5.158,5.542c0.02,0.935,0.288,1.795,0.708,2.555
		c-1.252,1.191-2.504,2.384-3.744,3.623c-0.435,0.434-0.435,1.137-0.001,1.571c0.434,0.436,1.139,0.434,1.571,0.001
		c1.2-1.199,2.412-2.354,3.625-3.507c0.905,0.689,2.016,1.104,3.228,1.079c2.911-0.062,5.221-2.543,5.158-5.542
		c-0.019-0.911-0.275-1.751-0.675-2.496c1.668-1.428,3.348-2.805,5.035-4.149c0.156-3.316,0.371-6.621,0.656-9.912
		C402.602,281.263,401.64,282.975,401.681,284.917z"/>
	<path d="M579.845,297.477c1.814-0.039,3.395-1.018,4.312-2.474c1.369,1.208,2.684,2.401,3.925,3.561
		c-0.615,0.909-0.979,2.012-0.952,3.206c0.063,3,2.476,5.381,5.387,5.321c1.114-0.023,2.138-0.407,2.977-1.033
		c1.019,1.16,1.82,2.173,2.354,2.991c0.213,0.327,0.568,0.503,0.932,0.503c0.209,0,0.419-0.059,0.606-0.181
		c0.514-0.335,0.658-1.024,0.322-1.538c-0.616-0.943-1.56-2.124-2.75-3.468c0.466-0.831,0.739-1.789,0.718-2.817
		c-0.063-3-2.476-5.381-5.388-5.32c-0.952,0.02-1.827,0.319-2.588,0.791c-1.494-1.4-3.088-2.846-4.754-4.308
		c0.03-0.256,0.065-0.511,0.06-0.776c-0.063-3-2.476-5.382-5.388-5.32c-0.551,0.011-1.069,0.134-1.565,0.306
		c-0.551-0.444-1.109-0.873-1.665-1.311c-0.303,3.276-0.64,6.429-0.994,9.51C576.367,296.574,578.004,297.515,579.845,297.477z"/>
	<path d="M585.145,280.162c0.219,0.292,0.553,0.446,0.892,0.446c0.23,0,0.465-0.071,0.664-0.221
		c0.491-0.367,0.592-1.063,0.225-1.555c-2.411-3.227-5.56-6.412-9.346-9.542c-0.053,0.922-0.098,1.854-0.153,2.763
		C580.514,274.728,583.104,277.433,585.145,280.162z"/>
	<path d="M391.136,274.657c-0.425,0.442-0.412,1.146,0.031,1.571c0.443,0.427,1.146,0.413,1.571-0.031
		c3.958-4.118,8.407-7.972,13.256-11.53c0.168-1.038,0.344-2.076,0.529-3.11C400.845,265.548,395.676,269.934,391.136,274.657z"/>
	<path d="M403.992,332.223c0.15,2.561,0.311,5.12,0.485,7.677c-22.629,2.563-40.416,0.905-40.416,0.905s10.922,4.362,32.746,5.185
		c-10.842,3.763-26.618,10.15-35.709,18.029c0,0,31.61-12.842,38.525-11.854s-18.769,29.635-50.378,51.367
		c0,0,44.481-21.876,56.382-48.086c4.509,58.167,10.039,118.807,13.281,176.945c1.272,22.805,2.873,45.066-1.01,67.717
		c0,0-7.409,16.79-10.372,32.598c-4.104,21.893,4.445-11.854,17.78-4.445c13.335,7.408,10.372-2.964,1.482-19.263
		s0-17.78-2.963-112.611c-0.769-24.581-1.554-49.227-1.757-73.856c9.696,1.775,32.279,5.229,61.225,5.279
		c4.193,6.292,10.172,12.272,10.172,12.272s1.972-5.26,4.843-12.561c16.305-0.65,34.072-2.487,52.356-6.256
		c-1.295,29.948-2.23,64.686-5.34,104.757c-3.569,46.008-10.372,78.53-10.372,78.53s-19.262,22.227-14.816,23.708
		c4.444,1.481,8.89,32.598,14.816,14.817c5.927-17.781,2.964-14.817,7.409-53.342c4.444-38.525,7.408-56.306,13.335-133.355
		c2.721-35.356,5.752-62.897,8.666-85.23c5.602,7.611,15.859,19.932,30.563,31.212c15.591,11.961,38.652,24.47,68.397,26.765
		c-0.167,2.602-0.937,5.265-2.424,7.991c-5.927,10.866-7.407,10.866-12.348,20.744c0,0,15.806-3.951,23.708,2.963
		s14.817,10.866,14.817,10.866s-1.977-11.854-6.915-20.744c-2.813-5.061-5.294-13.48-5.279-21.437
		c8.02-0.119,16.464-0.983,25.331-2.795c0.802-0.164,1.318-0.947,1.155-1.749c-0.164-0.802-0.951-1.318-1.748-1.155
		c-8.608,1.759-16.809,2.606-24.6,2.731c0.43-4.907,1.946-9.446,5.141-12.639c8.89-8.89,10.865-17.287,10.865-17.287
		c-9.879,4.938-37.537-2.469-37.537-2.469c-12.419-3.268-12.842-4.445-12.842-4.445s0.99,8.891,10.867,17.781
		c6.452,5.808,10.982,12.041,11.713,18.691c-28.868-2.305-51.249-14.482-66.413-26.098c-16.294-12.48-27.019-26.25-31.886-33.215
		c3.228-24.14,6.275-42.019,8.549-57.171c0.686-4.567,1.326-9.45,1.914-14.57c-0.566-0.845-0.912-1.861-0.935-2.964
		c-0.032-1.558,0.583-2.966,1.583-3.977c-2.005-1.601-4.031-3.159-6.033-4.625c-0.941,1.106-2.301,1.828-3.842,1.859
		c-2.909,0.062-5.323-2.321-5.387-5.32c-0.018-0.856,0.175-1.66,0.504-2.388c-0.844-0.501-1.666-0.97-2.459-1.395
		c-2.242-1.201-4.487-2.323-6.731-3.406c-0.835,0.614-1.849,0.987-2.95,1.01c-2.713,0.056-4.969-2.016-5.317-4.725
		c-3.953-1.653-7.907-3.13-11.855-4.42c-0.868,0.703-1.944,1.147-3.136,1.173c-2.316,0.048-4.298-1.463-5.05-3.591
		c-4.5-1.187-8.993-2.129-13.476-2.846c-0.854,1.721-2.556,2.927-4.564,2.97c-2.525,0.053-4.668-1.734-5.236-4.165
		c-4.127-0.346-8.241-0.49-12.338-0.435c-0.571,2.303-2.553,4.035-4.973,4.086c-2.305,0.048-4.276-1.444-5.038-3.552
		c-4.121,0.386-8.22,0.976-12.294,1.771c-0.106,2.849-2.33,5.158-5.135,5.217c-2.047,0.043-3.83-1.136-4.739-2.875
		c-2.914,0.813-5.815,1.713-8.698,2.738c0.022,2.965-2.265,5.407-5.151,5.468c-1.597,0.033-3.026-0.683-4.017-1.817
		c-3.004,1.321-5.985,2.771-8.949,4.327c0.036,0.239,0.081,0.477,0.086,0.726c0.064,3-2.246,5.48-5.158,5.542
		c-1.373,0.029-2.624-0.5-3.581-1.365c-2.829,1.73-5.639,3.563-8.423,5.512c0.071,0.337,0.117,0.685,0.124,1.042
		c0.063,3-2.246,5.481-5.158,5.543c-1.014,0.021-1.959-0.269-2.774-0.763c-0.294,0.231-0.586,0.473-0.88,0.708
		c-0.563,11.982-0.334,24.103,0.263,36.217c-26.825,8.215-57.395,1.563-57.395,1.563C366.86,335.68,386.652,335.701,403.992,332.223
		z M429.726,324.163c21.727-9.249,35.586-21.389,35.586-21.389c-5.789,12.157-16.493,22.611-24.366,29.188
		c-4.886,1.688-9.836,3.085-14.754,4.234C427.106,332.068,428.268,328.042,429.726,324.163z M518.617,287.269
		c-11.576,5.362-30.64,23.128-61.351,37.861c14.916-12.57,24.259-28.861,32.248-36.185c2.249-2.062,4.818-3.445,7.505-4.337
		C504.6,284.547,511.97,285.423,518.617,287.269z M552.734,329.938c0.988,24.202,0,55.319,0,55.319
		c-0.785,9.803-1.359,20.283-1.865,31.427c-17.687,3.719-34.906,5.596-50.77,6.32c0.094-0.236,0.186-0.467,0.28-0.704
		c3.951-9.878-2.964-11.854-9.878-1.976c0,0-7.903-10.866-10.866-3.951c-0.776,1.81-0.191,4.298,1.085,6.983
		c-28.261-0.247-49.988-3.721-58.682-5.352c-0.057-11.056-0.001-22.107,0.254-33.148c0.29-12.504,0.35-26.376,2.277-39.731
		c35.929-3.498,66.718-21.775,92.109-36.424c9.904-5.714,17.229-9.219,22.502-11.375
		C546.517,303.245,552.021,312.513,552.734,329.938z"/>
	<path d="M266.899,400.425c0.081-0.038,8.163-3.771,19.497-2.828c5.631,0.469,9.77,1.516,12.51,2.45
		c-1.633,3.321-5.051,5.988-9.917,8.421c-9.878,4.939-18.768,15.805-18.768,15.805s11.854-0.987,25.683,5.927
		c13.829,6.915,22.72,6.915,22.72,6.915c0.988-9.879-4.939-25.683-7.903-33.585c-2.963-7.903,0-8.891,9.879-15.805
		c9.878-6.915,16.792-9.879,16.792-9.879s-10.865-2.963-25.683-10.865c-14.817-7.902-29.634,2.963-29.634,2.963
		s6.915-1.482,15.805,17.287c1.85,3.905,2.452,7.175,1.958,9.996c-2.949-1.003-7.301-2.091-13.194-2.582
		c-12.108-1.013-20.647,2.931-21.004,3.099c-0.74,0.348-1.059,1.231-0.71,1.972C265.276,400.456,266.158,400.774,266.899,400.425z"
		/>
	<path d="M470.098,343.744l-17.364,18.875l-12.026-12.026c-0.868-0.868-2.275-0.868-3.143,0c-0.868,0.868-0.868,2.275,0,3.143
		l12.157,12.157l-13.703,14.895c-0.831,0.904-0.773,2.309,0.131,3.141c0.427,0.393,0.966,0.587,1.504,0.587
		c0.6,0,1.198-0.242,1.637-0.718l13.578-14.759l13.343,13.344c0.434,0.434,1.003,0.651,1.571,0.651c0.569,0,1.138-0.217,1.572-0.651
		c0.868-0.868,0.868-2.275,0-3.143l-13.474-13.474l17.49-19.011c0.831-0.904,0.772-2.31-0.131-3.141
		C472.335,342.781,470.928,342.841,470.098,343.744z"/>
	<path d="M540.522,338.095c-0.978-0.742-2.371-0.553-3.113,0.425l-12.808,16.857l-9.478-15.722c-0.634-1.053-2.001-1.39-3.051-0.756
		c-1.052,0.634-1.389,2-0.755,3.051l10.39,17.235l-13.493,17.759c-0.743,0.977-0.553,2.372,0.425,3.114
		c0.402,0.305,0.874,0.453,1.343,0.453c0.672,0,1.334-0.302,1.771-0.878l12.424-16.352l10.819,17.947
		c0.416,0.692,1.151,1.075,1.904,1.075c0.391,0,0.787-0.103,1.146-0.319c1.052-0.634,1.39-2,0.756-3.051l-11.731-19.461
		l13.877-18.265C541.69,340.232,541.501,338.838,540.522,338.095z"/>
	<path d="M882.011,422.622c-0.366-0.731-1.253-1.027-1.986-0.662c-0.739,0.37-18.312,9.337-36.102,34.045
		c-8.531,11.849-17.29,20.716-26.563,30.104c-10.041,10.166-20.423,20.678-31.709,36.067c-2.686,3.662-4.989,7.359-7.007,11.032
		c1.676-5.626,3.554-11.474,5.65-17.575c5.888-17.127,7.743-27.295,8.516-37.883c2.442-2.096,8.679-7.895,11.816-14.953
		c3.95-8.891-0.002-2.964-4.94-25.684c0,0-0.986,6.915-0.986,18.769c0,8.86-3.862,17.165-5.814,20.796
		c0.262-3.96,0.391-8.012,0.529-12.541c0.167-5.418,0.355-11.559,0.837-19.026c1.824-28.271,4.323-66.99,24.334-90.002
		c19.492-22.417,37.289-40.247,37.467-40.424c0.579-0.579,0.579-1.517,0-2.095c-0.579-0.579-1.517-0.579-2.095,0
		c-0.179,0.178-18.046,18.076-37.609,40.575c-20.666,23.768-23.202,63.063-25.055,91.756c-0.484,7.517-0.674,13.684-0.84,19.125
		c-0.516,16.812-0.827,26.959-8.96,50.623c-4.7,13.671-8.331,26.115-10.957,37.538c-0.155,0.49-0.325,0.992-0.472,1.478
		c0.277-8.873,0.481-19.268,0.481-30.632c0-40.22-5.183-81.368-15.846-125.797c-11.686-48.689-14.749-99.984-14.779-100.497
		c-0.046-0.817-0.751-1.428-1.564-1.394c-0.817,0.048-1.441,0.748-1.394,1.565c0.029,0.515,3.107,52.064,14.855,101.017
		c10.607,44.2,15.765,85.122,15.765,125.106c0,19.533-0.604,36.174-1.145,47.142c-8.435-8.115-9.228-13.556-9.228-13.556
		s-0.33,1.993-0.801,10.895c-24.496-10.18-72.948-33.709-90.477-42.284c5.371-9.785,7.184-19.498-6.516-21.455
		c-20.744-2.964-8.891-17.781-47.415-42.97c-23.036-15.063-38.123-16.345-49.703-12.727c-0.232,2.864-0.464,5.763-0.692,8.736
		c-0.381,4.952-0.749,9.633-1.106,14.116c1.173-0.778,2.574-1.235,4.087-1.235c4.092,0,7.408,3.316,7.408,7.409
		s-3.316,7.409-7.408,7.409c-1.946,0-3.704-0.767-5.025-1.994c-3.599,43.566-6.059,63.978-8.84,87.045
		c-0.79,6.549-1.604,13.292-2.473,20.829c-0.901,7.812-1.49,13.856-1.916,18.742c2.169-2.796,5.551-4.604,9.363-4.604
		c6.548,0,11.854,5.308,11.854,11.854c0,6.546-5.306,11.854-11.854,11.854c-4.467,0-8.352-2.472-10.372-6.119
		c-0.631,8.229-1.199,12.16-4.749,22.81c-0.868,2.605-3.175,9.524-9.352,9.524h-0.002c-6.383,0-8.892-6.839-11.796-14.758
		c-0.782-2.13-1.918-5.229-2.649-6.534c-1.44-0.904-2.51-2.322-2.972-4.006c-0.661-2.416-1.883-6.876,15.642-27.314
		c0.996-5.083,4.325-22.909,7.23-48.014c-5.233-1.231-9.133-5.92-9.133-11.528c0-6.418,5.102-11.631,11.47-11.835
		c0.138-1.625,0.272-3.262,0.401-4.923c1.874-24.142,2.956-46.442,3.804-66.821c-0.29,0.204-0.58,0.409-0.869,0.61
		c-15.319,10.717-36.506,16.082-57.76,16.312c-20.22,0.221-40.495-4.212-55.845-13.091c0.272,10.111,0.583,20.175,0.894,30.138
		l0.109,3.49c1.415,45.268,0.135,69.523-0.629,84.014c-0.853,16.174-0.888,19.053,2.872,25.945
		c7.982,14.633,9.904,21.835,7.093,26.57c-1.469,2.474-4.067,3.892-7.129,3.892c-2.593,0-5.621-1.012-9.527-3.181
		c-0.611-0.34-0.946-0.34-1.056-0.34c-2.555,0-6.506,5.983-7.805,7.949c-1.726,2.613-3.356,5.081-6.859,5.081h-2.783l-1.885-2.195
		c-1.248-1.504-1.607-3.027-1.434-5.404c-3.618-0.491-6.415-3.557-6.415-7.31c0-4.092,3.316-7.408,7.408-7.408
		c0.624,0,1.219,0.1,1.797,0.244c3.07-11.955,7.563-22.807,8.777-25.647c1.441-8.66,2.06-17.256,2.207-25.901
		c-2.306-1.254-3.891-3.671-3.891-6.482c0-2.775,1.544-5.166,3.803-6.435c-0.205-7.455-0.629-14.988-1.065-22.675l-0.237-4.197
		c-0.581-10.418-1.239-20.948-1.951-31.538c-2.103-1.307-3.513-3.62-3.513-6.277c0-2.286,1.056-4.304,2.683-5.662
		c-0.89-12.6-1.842-25.25-2.832-37.883c-14.959-6.175-28.208-6.353-45.784,5.02c-25.189,16.299-16.299,35.561-25.189,42.97
		c-8.459,7.05-19.582,8.743-6.603,22.929c-16.151,10.994-47.652,30.006-82.157,44.16c-29.294,12.018-42.694,20.049-47.606,23.346
		c-1.122-0.271-2.759-0.25-5.208-0.016c-7.928,0.76-5.74-6.591-12.229-4.308c-2.958,1.04-4,3.782-3.816,6.795
		c-11.289,3.612-36.044,14.89-44.886,45.954c-3.486,0.326-5.924,2.091-5.924,8.324c0,9.877-2.964,26.671-6.916,38.524
		c-0.128,0.385-0.238,0.766-0.333,1.144c2.009,1.299,4.372,2.398,7.095,2.923c0,0-3.154,2.122-7.466,1.313
		c0.784,9.152,12.207,16.724,31.327,29.194c22.719,14.817,43.463,10.865,58.281,10.865c14.817,0,14.817-4.938,17.78-13.829
		c2.963-8.89,12.842-28.646,22.72-38.524c8.917-8.918,8.976-8.981-2.726-11.816c-4.375-46.563-38.358-63.78-43.869-66.276
		c-0.383-0.829-0.688-1.851-0.847-3.128c-0.172-1.388-0.285-2.532-0.431-3.484c4.681-3.117,17.948-11.077,46.739-22.888
		c35.291-14.477,67.483-33.994,83.614-45.037c15.789,15.553,27.227,21.069,30.13,12.36c2.963-8.891,5.927-13.336,22.226-13.336
		s16.299,0,16.299,0s1.482-1.481-11.854,57.787s-40.006,177.807-26.671,287.453c0,0,14.438,2.721,40.062,3.581l2.788,81.775
		c-0.105-0.013-0.209-0.034-0.313-0.046c-1.311-0.174-2.625-0.31-3.951-0.378c-0.663-0.039-1.325-0.082-1.994-0.081
		c-0.668,0-1.333-0.04-2.007-0.004l-2.021,0.076l-2.036,0.192c-0.678,0.048-1.363,0.204-2.046,0.306
		c-0.683,0.099-1.367,0.234-2.051,0.424c-0.684,0.187-1.374,0.31-2.053,0.559l-2.042,0.729c-0.674,0.276-1.335,0.629-2.002,0.95
		c-0.677,0.298-1.308,0.726-1.942,1.149c-0.626,0.434-1.291,0.807-1.849,1.357l-1.729,1.568c-0.059,0.053-0.125,0.117-0.181,0.175
		c-1.537,1.581-1.5,4.11,0.081,5.647c1.583,1.537,4.11,1.501,5.647-0.081l0.388-0.399l0.981-1.01
		c0.292-0.373,0.724-0.622,1.098-0.931c0.382-0.3,0.753-0.618,1.214-0.844c0.443-0.244,0.862-0.524,1.324-0.755l1.442-0.63
		c0.476-0.223,1.018-0.346,1.523-0.528c0.507-0.185,1.037-0.329,1.583-0.443c0.545-0.116,1.069-0.288,1.633-0.362l1.675-0.279
		l1.71-0.182c0.569-0.074,1.153-0.074,1.73-0.116c0.578-0.043,1.161-0.043,1.745-0.049c1.166-0.023,2.342,0.019,3.512,0.091
		c0.588,0.026,1.167,0.091,1.751,0.139c0.564,0.062,1.184,0.132,1.666,0.204h0.002c0.177,0.041,0.375,0.069,0.564,0.075
		c1.596,0.056,2.934-1.195,2.988-2.791l0.006-0.187l2.9-85.08c23.222,0.184,53.421-1.271,88.967-6.786
		c78.638-12.203,163.466-67.825,196.615-114.651c3.157,2.378,6.946,5.229,11.234,8.456c6.339,4.761,13.734,10.314,21.66,16.266
		c7.923,5.95,16.479,12.167,25.011,18.424c4.28,3.11,8.567,6.212,12.838,9.208c4.275,2.99,8.472,5.953,12.634,8.711
		c4.164,2.763,8.22,5.382,12.343,7.66c0.518,0.282,1.033,0.563,1.545,0.843c0.541,0.262,1.079,0.522,1.613,0.781
		c0.511,0.263,1.085,0.507,1.693,0.729l0.883,0.338l0.22,0.083l0.055,0.021l0.317,0.091l0.099,0.021l0.391,0.09l0.775,0.178
		c0.139,0.027,0.234,0.062,0.408,0.086l0.605,0.05c0.789,0.035,1.681,0.134,2.336-0.027c1.421-0.168,2.729-0.645,3.859-1.235
		c2.29-1.199,3.889-2.778,5.213-4.293c1.345-1.529,2.394-3.027,3.363-4.445c1.868-2.858,3.287-5.37,4.461-7.434
		c1.157-2.053,2.066-3.665,2.688-4.765c0.633-1.085,0.972-1.664,0.972-1.664c0.144-0.249,0.275-0.537,0.368-0.822
		c0.704-2.188-0.497-4.533-2.685-5.239s-4.533,0.496-5.239,2.685l-0.006,0.018c0,0-0.201,0.623-0.578,1.792
		c-0.395,1.162-0.98,2.859-1.825,4.946c-0.855,2.075-1.91,4.6-3.424,7.209c-0.765,1.28-1.577,2.665-2.61,3.851
		c-1.002,1.209-2.142,2.376-3.391,2.984c-0.619,0.31-1.241,0.519-1.868,0.579c-0.353,0.108-0.511-0.023-0.765,0.027l-0.182,0.023
		c-0.085-0.004-0.243-0.055-0.363-0.08l-0.772-0.188l-0.301-0.074l-0.003-0.001l-0.153-0.068l-0.616-0.271
		c-0.405-0.162-0.832-0.355-1.289-0.618c-0.449-0.237-0.9-0.478-1.354-0.719c-0.459-0.273-0.922-0.549-1.388-0.826
		c-3.728-2.249-7.613-4.96-11.578-7.815c-7.945-5.723-16.194-12.243-24.391-18.818c-8.202-6.572-16.237-13.371-23.779-19.73
		c-7.527-6.382-14.542-12.351-20.449-17.596c-4.573-4.031-8.547-7.539-11.698-10.352c0.335-0.616,0.67-1.233,0.985-1.845
		c0,0-88.903-99.275-133.354-198.551c0,0,19.262,5.928,42.97-1.481c23.707-7.408,29.634,11.854,38.524,0
		c2.249-2.998,4.875-6.563,7.209-10.268c17.642,8.631,68.247,33.214,92.519,43.16c-0.292,6.434-0.62,15.395-0.947,27.855
		c-0.987,37.537-7.903,58.281-5.927,70.135c1.977,11.854,2.963,28.645,2.963,36.549c0,7.903,3.952-23.708,3.952-34.573
		s2.962-8.889,4.938-34.573c1.977-25.684,8.891-34.572,18.769-47.415c9.879-12.842,1.976-6.916-9.878-16.793
		c-0.129-0.107-0.237-0.209-0.363-0.315c0.854-6.422,2.115-13.226,3.78-20.443c2.883-8.989,7.419-18.99,14.571-28.743
		c11.158-15.217,21.462-25.649,31.428-35.738c9.357-9.473,18.194-18.42,26.86-30.456c17.328-24.066,34.848-33.039,35.022-33.126
		C882.082,424.243,882.377,423.354,882.011,422.622z M133.902,650.484c0,0,6.914,7.903,16.792,7.903c0,0-4.938,4.938-12.347,1.48
		C130.939,656.411,133.902,650.484,133.902,650.484z M164.525,675.179c0,0,6.914,7.903,16.792,7.903c0,0-4.939,4.938-12.347,1.48
		C161.562,681.105,164.525,675.179,164.525,675.179z M168.475,691.974c0,0-4.938,4.938-12.347,1.48s-4.445-9.384-4.445-9.384
		S158.597,691.974,168.475,691.974z M160.573,668.759c-7.409-3.457-4.445-9.384-4.445-9.384s6.914,7.903,16.792,7.903
		C172.92,667.278,167.981,672.215,160.573,668.759z M157.116,673.698c0,0-4.939,4.938-12.347,1.48
		c-7.409-3.457-4.445-9.384-4.445-9.384S147.237,673.698,157.116,673.698z M129.457,675.18c0,0,6.914,7.904,16.792,7.904
		c0,0-4.939,4.937-12.347,1.479C126.494,681.107,129.457,675.18,129.457,675.18z M135.878,690.49c0,0,6.914,7.904,16.792,7.904
		c0,0-4.938,4.937-12.347,1.479C132.915,696.418,135.878,690.49,135.878,690.49z M148.719,714.198
		c-7.409-3.457-4.445-9.384-4.445-9.384s6.914,7.903,16.792,7.903C161.066,712.718,156.128,717.655,148.719,714.198z
		 M164.525,709.258c-7.409-3.456-4.445-9.384-4.445-9.384s6.914,7.904,16.792,7.904
		C176.872,707.778,171.934,712.715,164.525,709.258z M179.835,703.826c-7.409-3.457-4.445-9.384-4.445-9.384
		s6.914,7.903,16.792,7.903C192.183,702.346,187.244,707.283,179.835,703.826z M184.281,679.131
		c-7.409-3.457-4.445-9.384-4.445-9.384s6.914,7.903,16.792,7.903C196.628,677.65,191.689,682.587,184.281,679.131z
		 M244.697,665.585c-0.375-0.093-0.753-0.185-1.147-0.283c-15.806-3.95-18.768-15.806-44.452-23.708
		c-25.667-7.896-46.4-2.969-55.3-2.963c-2.321,0.001-4.662-0.3-6.813-0.426c8.58-28.836,31.583-39.516,42.338-43.018
		c0.796,2.655,2.363,5.176,4.288,6.608c4.473,3.328,15.257,7.241,22.859,2.913C216.586,610.402,240.75,627.796,244.697,665.585z
		 M346.775,512.685c-4.092,0-7.409-3.316-7.409-7.408c0-4.093,3.316-7.409,7.409-7.409c4.092,0,7.409,3.316,7.409,7.409
		C354.184,509.368,350.867,512.685,346.775,512.685z M370.483,460.825c0-4.092,3.316-7.409,7.408-7.409
		c4.092,0,7.409,3.316,7.409,7.409c0,4.092-3.316,7.409-7.409,7.409C373.799,468.233,370.483,464.917,370.483,460.825z
		 M385.439,515.04c-4.092,0-7.409-3.316-7.409-7.408s3.317-7.409,7.409-7.409c4.092,0,7.409,3.317,7.409,7.409
		S389.532,515.04,385.439,515.04z M520.137,646.039c0,6.546-5.307,11.854-11.854,11.854s-11.854-5.308-11.854-11.854
		s5.306-11.854,11.854-11.854S520.137,639.493,520.137,646.039z M515.691,694.936c0,6.547-5.307,11.854-11.854,11.854
		c-6.549,0-11.854-5.308-11.854-11.854c0-6.546,5.306-11.854,11.854-11.854C510.385,683.082,515.691,688.39,515.691,694.936z
		 M520.137,474.16c6.547,0,11.854,5.308,11.854,11.854c0,6.546-5.307,11.854-11.854,11.854c-6.548,0-11.854-5.308-11.854-11.854
		C508.282,479.468,513.589,474.16,520.137,474.16z M497.91,551.209c8.185,0,14.817,6.635,14.817,14.817s-6.633,14.817-14.817,14.817
		c-8.184,0-14.817-6.635-14.817-14.817S489.726,551.209,497.91,551.209z M463.831,491.94c4.092,0,7.409,3.317,7.409,7.409
		c0,4.092-3.317,7.409-7.409,7.409c-4.092,0-7.409-3.316-7.409-7.409C456.422,495.257,459.739,491.94,463.831,491.94z
		 M462.349,524.538c6.548,0,11.854,5.308,11.854,11.854c0,6.546-5.306,11.854-11.854,11.854c-6.547,0-11.854-5.308-11.854-11.854
		C450.496,529.846,455.802,524.538,462.349,524.538z M376.41,822.363c-8.184,0-14.817-6.634-14.817-14.816
		c0-8.184,6.634-14.817,14.817-14.817s14.817,6.634,14.817,14.817C391.227,815.729,384.593,822.363,376.41,822.363z M385.3,675.674
		c-6.547,0-11.854-5.308-11.854-11.854c0-6.547,5.306-11.854,11.854-11.854c6.548,0,11.854,5.308,11.854,11.854
		C397.154,670.366,391.848,675.674,385.3,675.674z M413.741,856.558c-1.204-1.381-2.975-2.247-4.948-2.181
		c-2.815,0.096-5.107,2.035-5.826,4.611c-5.053-1.357-8.776-5.956-8.776-11.436c0-6.546,5.306-11.854,11.854-11.854
		c6.548,0,11.854,5.308,11.854,11.854C417.898,851.158,416.281,854.384,413.741,856.558z M406.044,798.656
		c-6.547,0-11.854-5.308-11.854-11.854c0-6.547,5.306-11.854,11.854-11.854c6.548,0,11.854,5.308,11.854,11.854
		C417.898,793.349,412.592,798.656,406.044,798.656z M416.416,745.314c-6.548,0-11.854-5.308-11.854-11.854
		c0-6.547,5.306-11.854,11.854-11.854c6.547,0,11.854,5.308,11.854,11.854C428.27,740.007,422.963,745.314,416.416,745.314z
		 M441.605,654.93c6.548,0,11.854,5.308,11.854,11.854s-5.306,11.854-11.854,11.854c-6.547,0-11.854-5.308-11.854-11.854
		S435.058,654.93,441.605,654.93z M444.569,828.29c-6.548,0-11.854-5.308-11.854-11.854s5.306-11.854,11.854-11.854
		c6.547,0,11.854,5.308,11.854,11.854S451.116,828.29,444.569,828.29z M459.386,764.576c-4.092,0-7.409-3.316-7.409-7.408
		s3.316-7.408,7.409-7.408s7.409,3.316,7.409,7.408S463.478,764.576,459.386,764.576z M480.13,640.112
		c-6.548,0-11.854-5.308-11.854-11.854s5.306-11.854,11.854-11.854c6.547,0,11.854,5.308,11.854,11.854
		S486.677,640.112,480.13,640.112z M499.393,794.211c-4.092,0-7.409-3.316-7.409-7.408c0-4.093,3.317-7.409,7.409-7.409
		s7.408,3.316,7.408,7.409C506.801,790.895,503.484,794.211,499.393,794.211z M517.173,843.107c-6.548,0-11.854-5.308-11.854-11.854
		s5.306-11.854,11.854-11.854s11.854,5.308,11.854,11.854S523.721,843.107,517.173,843.107z M534.953,770.504
		c-4.092,0-7.408-3.317-7.408-7.409s3.316-7.408,7.408-7.408s7.409,3.316,7.409,7.408S539.045,770.504,534.953,770.504z
		 M545.325,686.046c-4.092,0-7.408-3.316-7.408-7.409c0-4.092,3.316-7.408,7.408-7.408c4.093,0,7.409,3.316,7.409,7.408
		C552.734,682.729,549.418,686.046,545.325,686.046z M551.252,727.533c0-4.092,3.316-7.408,7.409-7.408
		c4.092,0,7.408,3.316,7.408,7.408c0,4.093-3.316,7.409-7.408,7.409C554.568,734.942,551.252,731.626,551.252,727.533z
		 M571.996,807.547c-6.548,0-11.854-5.309-11.854-11.854s5.306-11.854,11.854-11.854s11.854,5.308,11.854,11.854
		S578.544,807.547,571.996,807.547z M626.82,797.174c-4.093,0-7.409-3.316-7.409-7.408s3.316-7.408,7.409-7.408
		c4.092,0,7.408,3.316,7.408,7.408S630.912,797.174,626.82,797.174z M656.454,742.351c0,4.093-3.316,7.409-7.408,7.409
		c-4.093,0-7.409-3.316-7.409-7.409c0-4.092,3.316-7.408,7.409-7.408C653.138,734.942,656.454,738.259,656.454,742.351z
		 M631.265,665.302c8.185,0,14.817,6.634,14.817,14.817c0,8.183-6.633,14.816-14.817,14.816c-8.184,0-14.817-6.634-14.817-14.816
		C616.447,671.936,623.081,665.302,631.265,665.302z M601.631,616.405c4.092,0,7.408,3.316,7.408,7.408s-3.316,7.408-7.408,7.408
		s-7.409-3.316-7.409-7.408S597.539,616.405,601.631,616.405z M594.222,718.644c6.548,0,11.854,5.308,11.854,11.854
		s-5.307,11.854-11.854,11.854c-6.547,0-11.854-5.308-11.854-11.854S587.675,718.644,594.222,718.644z M576.441,678.637
		c-4.092,0-7.408-3.316-7.408-7.408s3.316-7.408,7.408-7.408s7.408,3.316,7.408,7.408S580.533,678.637,576.441,678.637z
		 M582.368,563.063c0,4.092-3.316,7.408-7.408,7.408c-4.093,0-7.409-3.316-7.409-7.408c0-4.093,3.316-7.409,7.409-7.409
		C579.052,555.654,582.368,558.971,582.368,563.063z M597.186,534.91c-8.185,0-14.817-6.634-14.817-14.816
		c0-8.184,6.633-14.817,14.817-14.817c8.184,0,14.817,6.634,14.817,14.817C612.003,528.276,605.369,534.91,597.186,534.91z
		 M612.003,483.05c-4.093,0-7.409-3.316-7.409-7.409c0-4.092,3.316-7.408,7.409-7.408c4.092,0,7.408,3.316,7.408,7.408
		C619.411,479.734,616.095,483.05,612.003,483.05z"/>
	<path d="M811.539,291.906c10.867,1.976,8.891-6.914,3.952-16.792s0.001-29.634-7.902-26.671c0,0-4.939-0.988-7.903,12.841
		c-2.963,13.83-1.977,23.708-5.927,29.634S800.673,289.93,811.539,291.906z"/>
	<path d="M759.186,308.699c0,5.927,6.916,0,5.928-11.854c-0.988-11.854,1.977-7.902-4.939-15.805
		c-6.915-7.903-11.854-20.744-13.83-11.854c0,0,2.964,6.915,5.927,14.817C755.234,291.906,759.186,302.772,759.186,308.699z"/>
	<path d="M752.271,373.895c0,0,5.927-3.951,11.854-3.951c5.927,0,15.805-6.915,15.805-6.915s-8.89,0-8.89-5.927
		s-0.988-14.817-0.988-14.817s0.001,2.964-6.914,6.916C756.223,353.15,751.282,361.053,752.271,373.895z"/>
	<path d="M808.576,330.431c0,0-1.977,2.964-8.891,9.878c-6.913,6.915-4.938,13.829-4.938,13.829s3.952-1.975,8.891-1.975
		s12.841,1.975,13.829-6.915C818.455,336.357,808.576,330.431,808.576,330.431z"/>
	<path d="M872.785,287.955c-0.987,7.903-7.904,5.927-15.806,8.89c-7.902,2.963-4.938,10.866-4.938,10.866
		C882.663,302.773,873.771,280.052,872.785,287.955z"/>
	<path d="M732.516,368.955c1.975,10.866,0.988,18.769,11.854,21.732c0,0,1.975-4.939-2.964-13.83s-4.94-15.805-18.769-21.731
		C708.808,349.2,730.54,358.089,732.516,368.955z"/>
	<path d="M742.394,487.493c0,0,10.865-12.842,19.756-8.89c0,0,3.952-3.952-1.976-11.854c-5.927-7.902-5.927-14.817-5.927-18.768
		s-0.988,0.987-6.915,12.841C741.405,472.675,738.443,474.65,742.394,487.493z"/>
	<path d="M842.162,415.383c-5.927-6.915-9.879-14.817-9.879-14.817s-9.878,11.854-5.927,23.708
		c3.952,11.854,3.952,16.793,3.952,16.793s0-8.891,11.854-12.842c11.854-3.951,20.744-7.902,20.744-7.902
		S848.089,422.297,842.162,415.383z"/>
	<path d="M844.138,522.067c-0.987-6.916-4.938-7.904-4.938-7.904s-4.939,12.844-4.939,22.721c0,9.878-0.986-2.965,11.854-4.939
		c12.84-1.976,12.84-1.976,12.84-1.976S845.124,528.982,844.138,522.067z"/>
</g>
</svg>
