<svg width="108" height="108" viewBox="0 0 108 108" fill="none" xmlns="http://www.w3.org/2000/svg">
<path d="M39.7048 65.537C34.4701 58.3058 35.1115 48.1396 41.6256 41.6254C48.1398 35.1113 58.306 34.4699 65.5372 39.7046C65.9441 39.9992 66.151 40.1515 66.293 40.2808C66.393 40.3718 66.4069 40.404 66.413 40.4181L66.4141 40.4206C66.4141 40.4206 66.42 40.4349 66.4274 40.466C66.4354 40.4997 66.4424 40.5417 66.4461 40.5882C66.4498 40.6346 66.4495 40.6772 66.4469 40.7117C66.4443 40.7466 66.4401 40.762 66.4409 40.7589C66.4409 40.7589 66.4401 40.7616 66.4393 40.7636C66.4383 40.7659 66.4355 40.7724 66.4288 40.7842C66.4146 40.8093 66.3833 40.8582 66.315 40.9415C66.1619 41.1284 65.9337 41.359 65.5259 41.7669L41.7671 65.5256C41.3592 65.9335 41.1286 66.1617 40.9417 66.3148C40.8585 66.3831 40.8095 66.4144 40.7845 66.4286C40.7726 66.4352 40.7661 66.4381 40.7638 66.4391L40.7615 66.44L40.7588 66.4408C40.7588 66.4408 40.7438 66.4443 40.7119 66.4467C40.6774 66.4493 40.6348 66.4495 40.5884 66.4458C40.5419 66.4421 40.4999 66.4352 40.4662 66.4272C40.4314 66.4189 40.417 66.4121 40.4208 66.4139L40.4183 66.4128C40.4042 66.4067 40.372 66.3928 40.281 66.2928C40.1517 66.1508 39.9994 65.9439 39.7048 65.537Z" stroke="black" stroke-width="3" stroke-linecap="round" stroke-linejoin="round"/>
<path d="M47.6562 59.6363C44.441 56.1636 42.2087 52.4688 41.13 49.2326C39.9067 45.5629 40.291 42.9599 41.6255 41.6255C42.9599 40.291 45.5629 39.9067 49.2326 41.13C52.4689 42.2087 56.1636 44.4409 59.6364 47.6562L47.6562 59.6363Z" stroke="black" stroke-width="3"/>
<path fill-rule="evenodd" clip-rule="evenodd" d="M40.5304 40.5993C36.678 44.5257 39.8481 53.9904 47.6357 61.778L61.7778 47.6359C53.9902 39.8482 44.5254 36.6781 40.599 40.5307C47.6437 33.5192 58.6107 32.8388 66.4166 38.4895C67.1798 39.042 67.5613 39.3182 67.7804 39.8017C67.9546 40.1865 67.9992 40.7463 67.8879 41.1537C67.7481 41.6658 67.3609 42.0531 66.5864 42.8275L42.8276 66.5863C42.0531 67.3608 41.6659 67.7481 41.1538 67.8879C40.7463 67.9991 40.1865 67.9546 39.8018 67.7803C39.3183 67.5612 39.0421 67.1797 38.4896 66.4166C32.839 58.6107 33.5192 47.6441 40.5304 40.5993Z" fill="black" fill-opacity="0.12"/>
<path d="M57.5356 57.5354L68.1422 68.142" stroke="black" stroke-width="3" stroke-linecap="round"/>
</svg>
