<svg id="Layer_1" data-name="Layer 1" xmlns="http://www.w3.org/2000/svg" xmlns:xlink="http://www.w3.org/1999/xlink" viewBox="0 0 1000 1000"><defs><style>.cls-1{fill:none;}.cls-2{clip-path:url(#clip-path);}.cls-3{fill:#01e576;}.cls-4{fill:#fec400;}.cls-5{fill:#7c4dff;}.cls-6{fill:#f44236;}.cls-7{fill:#00e5ff;}</style><clipPath id="clip-path"><path class="cls-1" d="M501,824q-32.25,0-55.55-22.44Q423,778.24,423,745.92t22.4-54.75q23.3-22.44,55.55-22.44t54.65,22.44Q578,713.61,578,745.92t-22.4,55.64Q533.2,824,501,824ZM440,360.89V176H561V360.89L548.43,597.83H452.57Z"/></clipPath></defs><title>Artboard 1</title><path d="M501,824q-32.25,0-55.55-22.44Q423,778.24,423,745.92t22.4-54.75q23.3-22.44,55.55-22.44t54.65,22.44Q578,713.61,578,745.92t-22.4,55.64Q533.2,824,501,824ZM440,360.89V176H561V360.89L548.43,597.83H452.57Z"/><g class="cls-2"><circle class="cls-3" cx="474" cy="432" r="174"/><circle class="cls-4" cx="553.5" cy="807.5" r="192.5"/><circle class="cls-5" cx="362" cy="602" r="186"/><circle class="cls-6" cx="571" cy="288" r="132"/><circle class="cls-7" cx="429" cy="176" r="132"/></g></svg>