<svg width="108" height="108" viewBox="0 0 108 108" fill="none" xmlns="http://www.w3.org/2000/svg">
<rect width="108" height="108" fill="url(#paint0_linear)"/>
<g clip-path="url(#clip0)">
<g filter="url(#filter0_d)">
<g filter="url(#filter1_ii)">
<path d="M24 54C24 51.7909 25.7909 50 28 50H64V108H24V54Z" fill="#F5F5F5"/>
<path d="M24 54C24 51.7909 25.7909 50 28 50H64V108H24V54Z" fill="#212121" fill-opacity="0.05"/>
</g>
<g filter="url(#filter2_ii)">
<path d="M24 54C24 51.7909 22.2091 50 20 50H-20V108H24V54Z" fill="#F5F5F5"/>
</g>
<g opacity="0.6">
<circle cx="51" cy="74" r="2" fill="#9E9E9E"/>
<rect x="36" y="56" width="20" height="4" rx="2" fill="#9E9E9E"/>
<rect x="47" y="76" width="17" height="4" rx="2" transform="rotate(-180 47 76)" fill="#9E9E9E"/>
<rect width="20" height="4" rx="2" transform="matrix(1 0 0 -1 30 68)" fill="#9E9E9E"/>
<circle cx="32" cy="58" r="2" fill="#9E9E9E"/>
<circle cx="54" cy="66" r="2" fill="#9E9E9E"/>
</g>
<mask id="mask0" mask-type="alpha" maskUnits="userSpaceOnUse" x="24" y="30" width="53" height="78">
<path fill-rule="evenodd" clip-rule="evenodd" d="M58 30C68.4934 30 77 38.5066 77 49C77 57.3968 71.5532 64.5213 64 67.0332V108H24V54C24 51.7909 25.7909 50 28 50H39V49C39 38.5066 47.5066 30 58 30Z" fill="#F5F5F5"/>
</mask>
<g mask="url(#mask0)">
<g filter="url(#filter3_ddi)">
<path d="M77 49C77 38.5066 68.4934 30 58 30V30C47.5066 30 39 38.5066 39 49V66C39 67.1046 39.8954 68 41 68H58C68.4934 68 77 59.4934 77 49V49Z" fill="url(#paint1_linear)"/>
</g>
<g filter="url(#filter4_di)">
<path d="M63.7008 51.1009C62.0991 49.1013 60.0746 48 58 48C55.9254 48 53.9008 49.1013 52.2992 51.1009C50.8595 52.8982 50 55.1634 50 57.1603C50 58.1303 50.2868 58.8691 50.8524 59.3564C51.4106 59.8374 52.1476 60 52.9699 60C53.8448 60 54.8163 59.8158 55.7708 59.6347C56.6049 59.4765 57.3928 59.3271 58 59.3271C58.5241 59.3271 59.2631 59.4689 60.0453 59.619C61.8734 59.97 63.9455 60.3677 65.1425 59.3387C65.7115 58.8495 66 58.1165 66 57.1603C66 55.1634 65.1406 52.8982 63.7008 51.1009Z" fill="#F5F5F5"/>
<path d="M56.2017 39.2663C55.6413 38.4615 54.8388 38 54 38C53.1612 38 52.3587 38.4616 51.7983 39.2663C51.2835 40.0056 51 40.9764 51 42C51 43.0236 51.2835 43.9944 51.7983 44.7337C52.3587 45.5384 53.1612 46 54 46C54.8388 46 55.6413 45.5384 56.2017 44.7337C56.7165 43.9944 57 43.0236 57 42C57 40.9764 56.7165 40.0055 56.2017 39.2663Z" fill="#F5F5F5"/>
<path d="M59.7983 39.2663C60.3587 38.4615 61.1612 38 62 38C62.8388 38 63.6413 38.4616 64.2017 39.2663C64.7165 40.0056 65 40.9764 65 42C65 43.0236 64.7165 43.9944 64.2017 44.7337C63.6413 45.5384 62.8388 46 62 46C61.1612 46 60.3587 45.5384 59.7983 44.7337C59.2835 43.9944 59 43.0236 59 42C59 40.9764 59.2835 40.0055 59.7983 39.2663Z" fill="#F5F5F5"/>
<path d="M50.7791 47.1696C50.462 46.2723 49.8523 45.5598 49.1064 45.2147C48.5651 44.9642 47.9829 44.9318 47.4673 45.1232C46.8265 45.3612 46.3516 45.9027 46.13 46.6478C45.9295 47.322 45.9618 48.0971 46.2209 48.8303C46.538 49.7276 47.1477 50.4402 47.8936 50.7853C48.2022 50.928 48.524 51 48.8392 51C49.077 51 49.311 50.959 49.5327 50.8767C50.1736 50.6388 50.6485 50.0973 50.8701 49.3522C51.0705 48.678 51.0382 47.9029 50.7791 47.1696Z" fill="#F5F5F5"/>
<path d="M65.2209 47.1696C65.538 46.2723 66.1477 45.5598 66.8936 45.2147C67.4349 44.9642 68.0171 44.9318 68.5327 45.1232C69.1735 45.3612 69.6484 45.9027 69.87 46.6478C70.0705 47.322 70.0382 48.0971 69.7791 48.8303C69.462 49.7276 68.8523 50.4402 68.1064 50.7853C67.7978 50.928 67.476 51 67.1608 51C66.923 51 66.689 50.959 66.4673 50.8767C65.8264 50.6388 65.3515 50.0973 65.1299 49.3522C64.9295 48.678 64.9618 47.9029 65.2209 47.1696Z" fill="#F5F5F5"/>
</g>
</g>
</g>
<g style="mix-blend-mode:overlay" opacity="0.3">
<rect width="108" height="108" fill="url(#paint2_linear)"/>
</g>
</g>
<defs>
<filter id="filter0_d" x="-23" y="28" width="103" height="84" filterUnits="userSpaceOnUse" color-interpolation-filters="sRGB">
<feFlood flood-opacity="0" result="BackgroundImageFix"/>
<feColorMatrix in="SourceAlpha" type="matrix" values="0 0 0 0 0 0 0 0 0 0 0 0 0 0 0 0 0 0 127 0"/>
<feOffset dy="1"/>
<feGaussianBlur stdDeviation="1.5"/>
<feColorMatrix type="matrix" values="0 0 0 0 0.101961 0 0 0 0 0.137255 0 0 0 0 0.494118 0 0 0 0.35 0"/>
<feBlend mode="multiply" in2="BackgroundImageFix" result="effect1_dropShadow"/>
<feBlend mode="normal" in="SourceGraphic" in2="effect1_dropShadow" result="shape"/>
</filter>
<filter id="filter1_ii" x="24" y="50" width="40" height="58" filterUnits="userSpaceOnUse" color-interpolation-filters="sRGB">
<feFlood flood-opacity="0" result="BackgroundImageFix"/>
<feBlend mode="normal" in="SourceGraphic" in2="BackgroundImageFix" result="shape"/>
<feColorMatrix in="SourceAlpha" type="matrix" values="0 0 0 0 0 0 0 0 0 0 0 0 0 0 0 0 0 0 127 0" result="hardAlpha"/>
<feOffset dy="1.5"/>
<feComposite in2="hardAlpha" operator="arithmetic" k2="-1" k3="1"/>
<feColorMatrix type="matrix" values="0 0 0 0 1 0 0 0 0 1 0 0 0 0 1 0 0 0 0.6 0"/>
<feBlend mode="normal" in2="shape" result="effect1_innerShadow"/>
<feColorMatrix in="SourceAlpha" type="matrix" values="0 0 0 0 0 0 0 0 0 0 0 0 0 0 0 0 0 0 127 0" result="hardAlpha"/>
<feOffset dx="1"/>
<feComposite in2="hardAlpha" operator="arithmetic" k2="-1" k3="1"/>
<feColorMatrix type="matrix" values="0 0 0 0 0.129412 0 0 0 0 0.129412 0 0 0 0 0.129412 0 0 0 0.05 0"/>
<feBlend mode="normal" in2="effect1_innerShadow" result="effect2_innerShadow"/>
</filter>
<filter id="filter2_ii" x="-20" y="50" width="44" height="58" filterUnits="userSpaceOnUse" color-interpolation-filters="sRGB">
<feFlood flood-opacity="0" result="BackgroundImageFix"/>
<feBlend mode="normal" in="SourceGraphic" in2="BackgroundImageFix" result="shape"/>
<feColorMatrix in="SourceAlpha" type="matrix" values="0 0 0 0 0 0 0 0 0 0 0 0 0 0 0 0 0 0 127 0" result="hardAlpha"/>
<feOffset dy="1.5"/>
<feComposite in2="hardAlpha" operator="arithmetic" k2="-1" k3="1"/>
<feColorMatrix type="matrix" values="0 0 0 0 1 0 0 0 0 1 0 0 0 0 1 0 0 0 0.6 0"/>
<feBlend mode="normal" in2="shape" result="effect1_innerShadow"/>
<feColorMatrix in="SourceAlpha" type="matrix" values="0 0 0 0 0 0 0 0 0 0 0 0 0 0 0 0 0 0 127 0" result="hardAlpha"/>
<feOffset dx="-1"/>
<feComposite in2="hardAlpha" operator="arithmetic" k2="-1" k3="1"/>
<feColorMatrix type="matrix" values="0 0 0 0 1 0 0 0 0 1 0 0 0 0 1 0 0 0 0.8 0"/>
<feBlend mode="normal" in2="effect1_innerShadow" result="effect2_innerShadow"/>
</filter>
<filter id="filter3_ddi" x="35" y="28" width="46" height="46" filterUnits="userSpaceOnUse" color-interpolation-filters="sRGB">
<feFlood flood-opacity="0" result="BackgroundImageFix"/>
<feColorMatrix in="SourceAlpha" type="matrix" values="0 0 0 0 0 0 0 0 0 0 0 0 0 0 0 0 0 0 127 0"/>
<feOffset dy="2"/>
<feGaussianBlur stdDeviation="2"/>
<feColorMatrix type="matrix" values="0 0 0 0 0 0 0 0 0 0 0 0 0 0 0 0 0 0 0.2 0"/>
<feBlend mode="multiply" in2="BackgroundImageFix" result="effect1_dropShadow"/>
<feColorMatrix in="SourceAlpha" type="matrix" values="0 0 0 0 0 0 0 0 0 0 0 0 0 0 0 0 0 0 127 0"/>
<feOffset dy="1"/>
<feColorMatrix type="matrix" values="0 0 0 0 0.129412 0 0 0 0 0.129412 0 0 0 0 0.129412 0 0 0 0.15 0"/>
<feBlend mode="multiply" in2="effect1_dropShadow" result="effect2_dropShadow"/>
<feBlend mode="normal" in="SourceGraphic" in2="effect2_dropShadow" result="shape"/>
<feColorMatrix in="SourceAlpha" type="matrix" values="0 0 0 0 0 0 0 0 0 0 0 0 0 0 0 0 0 0 127 0" result="hardAlpha"/>
<feOffset dy="1"/>
<feComposite in2="hardAlpha" operator="arithmetic" k2="-1" k3="1"/>
<feColorMatrix type="matrix" values="0 0 0 0 1 0 0 0 0 1 0 0 0 0 1 0 0 0 0.25 0"/>
<feBlend mode="normal" in2="shape" result="effect3_innerShadow"/>
</filter>
<filter id="filter4_di" x="46" y="38" width="24" height="23" filterUnits="userSpaceOnUse" color-interpolation-filters="sRGB">
<feFlood flood-opacity="0" result="BackgroundImageFix"/>
<feColorMatrix in="SourceAlpha" type="matrix" values="0 0 0 0 0 0 0 0 0 0 0 0 0 0 0 0 0 0 127 0"/>
<feOffset dy="1"/>
<feColorMatrix type="matrix" values="0 0 0 0 0.901961 0 0 0 0 0.317647 0 0 0 0 0 0 0 0 0.25 0"/>
<feBlend mode="multiply" in2="BackgroundImageFix" result="effect1_dropShadow"/>
<feBlend mode="normal" in="SourceGraphic" in2="effect1_dropShadow" result="shape"/>
<feColorMatrix in="SourceAlpha" type="matrix" values="0 0 0 0 0 0 0 0 0 0 0 0 0 0 0 0 0 0 127 0" result="hardAlpha"/>
<feOffset dy="1"/>
<feComposite in2="hardAlpha" operator="arithmetic" k2="-1" k3="1"/>
<feColorMatrix type="matrix" values="0 0 0 0 1 0 0 0 0 1 0 0 0 0 1 0 0 0 0.6 0"/>
<feBlend mode="normal" in2="shape" result="effect2_innerShadow"/>
</filter>
<linearGradient id="paint0_linear" x1="54" y1="0" x2="54" y2="108" gradientUnits="userSpaceOnUse">
<stop stop-color="#00C6FB"/>
<stop offset="0.541667" stop-color="#0063FF"/>
</linearGradient>
<linearGradient id="paint1_linear" x1="58" y1="30" x2="58" y2="68" gradientUnits="userSpaceOnUse">
<stop stop-color="#FBB151"/>
<stop offset="1" stop-color="#F99006"/>
</linearGradient>
<linearGradient id="paint2_linear" x1="54" y1="24" x2="54" y2="91.5" gradientUnits="userSpaceOnUse">
<stop stop-color="white"/>
<stop offset="0.307292" stop-color="white"/>
<stop offset="1" stop-color="white" stop-opacity="0"/>
</linearGradient>
<clipPath id="clip0">
<rect width="108" height="108" fill="white"/>
</clipPath>
</defs>
</svg>
