<svg width="24" height="24" viewBox="0 0 24 24" fill="none" xmlns="http://www.w3.org/2000/svg">
<path d="M19 4H18V2H16V4H8V2H6V4H5C3.89 4 3.01 4.9 3.01 6L3 20C3 21.1 3.89 22 5 22H19C20.1 22 21 21.1 21 20V6C21 4.9 20.1 4 19 4ZM19 20H5V9H19V20Z" fill="black"/>
<path d="M15 11H17V13H15V11Z" fill="black"/>
<g opacity="0.57">
<path d="M7 15H9V17H7V15Z" fill="black"/>
<path d="M11 15H13V17H11V15Z" fill="black"/>
<path d="M7 11H9V13H7V11Z" fill="black"/>
<path d="M11 11H13V13H11V11Z" fill="black"/>
</g>
</svg>
