<svg width="24" height="24" viewBox="0 0 24 24" fill="none" xmlns="http://www.w3.org/2000/svg">
<path d="M12 4.5C7.55982 4.5 3.69532 6.95258 1.67407 10.5762C1.18061 11.4608 1.18061 12.5392 1.67407 13.4238C3.69532 17.0474 7.55982 19.5 12 19.5C16.4402 19.5 20.3047 17.0474 22.3259 13.4238C22.8194 12.5392 22.8194 11.4608 22.3259 10.5762C20.3047 6.95258 16.4402 4.5 12 4.5ZM12 17C9.24 17 7 14.76 7 12C7 9.24 9.24 7 12 7C14.76 7 17 9.24 17 12C17 14.76 14.76 17 12 17ZM12 9C10.34 9 9 10.34 9 12C9 13.66 10.34 15 12 15C13.66 15 15 13.66 15 12C15 10.34 13.66 9 12 9Z" fill="black"/>
</svg>
