<svg width="24" height="24" viewBox="0 0 24 24" fill="none" xmlns="http://www.w3.org/2000/svg">
<mask id="mask0" style="mask-type:alpha" maskUnits="userSpaceOnUse" x="9" y="2" width="14" height="16">
<path fill-rule="evenodd" clip-rule="evenodd" d="M16 2H9V5H16V18H23V2H16Z" fill="#C4C4C4"/>
</mask>
<g mask="url(#mask0)">
<path fill-rule="evenodd" clip-rule="evenodd" d="M9 3V11C9 14.866 12.134 18 16 18C19.866 18 23 14.866 23 11V3C23 2.44772 22.5523 2 22 2H10C9.44772 2 9 2.44772 9 3ZM11 11V4H21V11C21 13.7614 18.7614 16 16 16C13.2386 16 11 13.7614 11 11Z" fill="black"/>
<path d="M16 11C17.313 11 18.4289 11.8435 18.8356 13.0181C19.0163 13.54 18.5523 14 18 14H14C13.4477 14 12.9837 13.54 13.1644 13.0181C13.5711 11.8435 14.687 11 16 11Z" fill="black"/>
<path d="M15 7C15 7.55228 14.5523 8 14 8C13.4477 8 13 7.55228 13 7C13 6.44772 13.4477 6 14 6C14.5523 6 15 6.44772 15 7Z" fill="black"/>
<path d="M19 7C19 7.55228 18.5523 8 18 8C17.4477 8 17 7.55228 17 7C17 6.44772 17.4477 6 18 6C18.5523 6 19 6.44772 19 7Z" fill="black"/>
</g>
<path fill-rule="evenodd" clip-rule="evenodd" d="M1 7V15C1 18.866 4.13401 22 8 22C11.866 22 15 18.866 15 15V7C15 6.44772 14.5523 6 14 6H2C1.44772 6 1 6.44772 1 7ZM3 15V8H13V15C13 17.7614 10.7614 20 8 20C5.23858 20 3 17.7614 3 15Z" fill="black"/>
<path d="M8 18C9.31297 18 10.4289 17.1565 10.8356 15.9819C11.0163 15.46 10.5523 15 10 15H6C5.44772 15 4.98368 15.46 5.16437 15.9819C5.57105 17.1565 6.68703 18 8 18Z" fill="black"/>
<path d="M7 11C7 11.5523 6.55228 12 6 12C5.44772 12 5 11.5523 5 11C5 10.4477 5.44772 10 6 10C6.55228 10 7 10.4477 7 11Z" fill="black"/>
<path d="M11 11C11 11.5523 10.5523 12 10 12C9.44771 12 9 11.5523 9 11C9 10.4477 9.44771 10 10 10C10.5523 10 11 10.4477 11 11Z" fill="black"/>
</svg>
