<svg width="24" height="24" viewBox="0 0 24 24" fill="none" xmlns="http://www.w3.org/2000/svg">
<circle opacity="0.1" cx="12" cy="12" r="10" fill="#F7BB9A"/>
<mask id="mask0" style="mask-type:alpha" maskUnits="userSpaceOnUse" x="2" y="2" width="20" height="20">
<circle cx="12" cy="12" r="10" fill="#F7BB9A"/>
</mask>
<g mask="url(#mask0)">
<path d="M16.9369 6.02255C16.9369 6.02255 16.1454 5.76038 14.3499 7.02556C13.5978 6.80937 12.799 6.70151 12 6.69546C11.2009 6.70151 10.4022 6.80933 9.65007 7.02552C7.8546 5.76034 7.06313 6.02251 7.06313 6.02251C6.55521 7.36985 6.87412 8.3646 6.96865 8.6118C6.3662 9.29628 6 10.169 6 11.2368C6 14.9951 8.20897 15.8222 10.3116 16.0628C9.98086 16.3565 9.67372 16.9563 9.67372 17.8731C9.67372 18.6172 9.67758 22.1865 9.68087 22.6768C10.4181 22.8873 11.196 23 12 23C12.804 23 13.5819 22.8873 14.3191 22.6769C14.3224 22.1865 14.3263 18.6173 14.3263 17.8731C14.3263 16.9563 14.0191 16.3565 13.6884 16.0628C15.791 15.8222 18 14.9951 18 11.2368C18 10.1691 17.6338 9.29632 17.0313 8.61184C17.1259 8.36464 17.4448 7.3699 16.9369 6.02255Z" fill="#F7BB9A"/>
</g>
</svg>
