<svg width="24" height="24" viewBox="0 0 24 24" fill="none" xmlns="http://www.w3.org/2000/svg">
<circle opacity="0.1" cx="12" cy="12" r="10" fill="#F7BB9A"/>
<path d="M13.886 8.97261L15.8298 7.38131C14.7906 6.51859 13.4558 6 12 6C9.68108 6 7.66945 7.31539 6.67086 9.24067C6.24196 10.0668 6 11.0051 6 12C6 13.0289 6.2588 13.9971 6.71506 14.8434C7.72848 16.7229 9.71506 18 12 18C13.4219 18 14.728 17.5055 15.7563 16.679C16.8135 15.8291 17.5767 14.6281 17.8688 13.2527C17.9548 12.8486 18 12.4296 18 12C18 11.6169 17.964 11.2421 17.8952 10.8791H12.1319V13.2527H15.3402C15.0515 14.0235 14.5032 14.6674 13.8017 15.0788C13.2732 15.389 12.6573 15.5667 12 15.5667C10.4707 15.5667 9.16615 14.6041 8.65946 13.2517C8.51309 12.8624 8.43329 12.4404 8.43325 12C8.43325 11.5942 8.50118 11.2042 8.62581 10.8409C9.10712 9.44008 10.436 8.43329 12 8.43329C12.6926 8.43329 13.3391 8.63075 13.886 8.97261Z" fill="#F7BB9A"/>
</svg>
