<svg width="24" height="24" viewBox="0 0 24 24" fill="none" xmlns="http://www.w3.org/2000/svg">
<path opacity="0.2" d="M12.0009 21.9998C17.5237 21.9998 22.0008 17.5227 22.0008 11.9999C22.0008 6.47711 17.5237 2 12.0009 2C6.47809 2 2.00098 6.47711 2.00098 11.9999C2.00098 17.5227 6.47809 21.9998 12.0009 21.9998Z" fill="#F7BB9A"/>
<path d="M9.55002 6.16669H14.45C16.3167 6.16669 17.8334 7.68335 17.8334 9.55002V14.45C17.8334 15.3473 17.4769 16.2079 16.8424 16.8424C16.2079 17.4769 15.3473 17.8334 14.45 17.8334H9.55002C7.68335 17.8334 6.16669 16.3167 6.16669 14.45V9.55002C6.16669 8.6527 6.52314 7.79214 7.15764 7.15764C7.79214 6.52314 8.6527 6.16669 9.55002 6.16669ZM9.43335 7.33335C8.8764 7.33335 8.34226 7.5546 7.94843 7.94843C7.5546 8.34226 7.33335 8.8764 7.33335 9.43335V14.5667C7.33335 15.7275 8.27252 16.6667 9.43335 16.6667H14.5667C15.1236 16.6667 15.6578 16.4454 16.0516 16.0516C16.4454 15.6578 16.6667 15.1236 16.6667 14.5667V9.43335C16.6667 8.27252 15.7275 7.33335 14.5667 7.33335H9.43335ZM15.0625 8.20835C15.2559 8.20835 15.4414 8.28518 15.5781 8.42192C15.7149 8.55867 15.7917 8.74413 15.7917 8.93752C15.7917 9.13091 15.7149 9.31637 15.5781 9.45312C15.4414 9.58986 15.2559 9.66669 15.0625 9.66669C14.8691 9.66669 14.6837 9.58986 14.5469 9.45312C14.4102 9.31637 14.3334 9.13091 14.3334 8.93752C14.3334 8.74413 14.4102 8.55867 14.5469 8.42192C14.6837 8.28518 14.8691 8.20835 15.0625 8.20835ZM12 9.08335C12.7736 9.08335 13.5154 9.39064 14.0624 9.93763C14.6094 10.4846 14.9167 11.2265 14.9167 12C14.9167 12.7736 14.6094 13.5154 14.0624 14.0624C13.5154 14.6094 12.7736 14.9167 12 14.9167C11.2265 14.9167 10.4846 14.6094 9.93763 14.0624C9.39064 13.5154 9.08335 12.7736 9.08335 12C9.08335 11.2265 9.39064 10.4846 9.93763 9.93763C10.4846 9.39064 11.2265 9.08335 12 9.08335ZM12 10.25C11.5359 10.25 11.0908 10.4344 10.7626 10.7626C10.4344 11.0908 10.25 11.5359 10.25 12C10.25 12.4641 10.4344 12.9093 10.7626 13.2375C11.0908 13.5656 11.5359 13.75 12 13.75C12.4641 13.75 12.9093 13.5656 13.2375 13.2375C13.5656 12.9093 13.75 12.4641 13.75 12C13.75 11.5359 13.5656 11.0908 13.2375 10.7626C12.9093 10.4344 12.4641 10.25 12 10.25Z" fill="#F7BB9A"/>
</svg>
