<svg width="24" height="24" viewBox="0 0 24 24" fill="none" xmlns="http://www.w3.org/2000/svg">
<path opacity="0.2" d="M12.0009 21.9998C17.5237 21.9998 22.0008 17.5227 22.0008 11.9999C22.0008 6.47711 17.5237 2 12.0009 2C6.47809 2 2.00098 6.47711 2.00098 11.9999C2.00098 17.5227 6.47809 21.9998 12.0009 21.9998Z" fill="#F7BB9A"/>
<path d="M18.1253 9.18662C17.6968 9.37664 17.2358 9.50517 16.7524 9.56257C17.246 9.26684 17.6248 8.79891 17.8036 8.24043C17.3417 8.51441 16.8299 8.71317 16.2857 8.8203C15.8497 8.35594 15.2284 8.06573 14.5405 8.06573C13.2207 8.06573 12.1503 9.13617 12.1503 10.456C12.1503 10.6433 12.1715 10.8257 12.2125 11.0008C10.226 10.9011 8.46462 9.94956 7.28563 8.503C7.07992 8.85595 6.96191 9.26684 6.96191 9.70482C6.96191 10.5339 7.3842 11.2658 8.02522 11.6944C7.63359 11.6821 7.26477 11.5746 6.94266 11.3951C6.94248 11.4052 6.94248 11.4154 6.94248 11.4254C6.94248 12.5835 7.76674 13.5495 8.86 13.7689C8.65964 13.8238 8.44805 13.8529 8.23039 13.8529C8.07602 13.8529 7.92646 13.8381 7.78065 13.8103C8.08476 14.7597 8.96731 15.4508 10.0135 15.4702C9.1953 16.1114 8.16479 16.4934 7.04462 16.4934C6.8521 16.4934 6.66137 16.4822 6.47473 16.4599C7.53198 17.1383 8.7887 17.5339 10.1385 17.5339C14.535 17.5339 16.9394 13.8917 16.9394 10.7328C16.9394 10.6293 16.937 10.5261 16.9324 10.4237C17.3998 10.0868 17.805 9.66596 18.1253 9.18662Z" fill="#F7BB9A"/>
</svg>
