<svg width="108" height="108" viewBox="0 0 108 108" fill="none" xmlns="http://www.w3.org/2000/svg">
<path fill-rule="evenodd" clip-rule="evenodd" d="M68.3518 0L39.4132 108H0V0H68.3518ZM32.4655 50.8327C32.4655 52.7687 30.9255 54.3527 29.0775 54.3527C27.0535 54.3527 25.5575 52.7687 25.5575 50.8327C25.5575 49.0287 27.0535 47.4448 29.0775 47.4448C30.9255 47.4448 32.4655 49.0287 32.4655 50.8327ZM36.3677 43.9087H48.7417V38.9868H36.3677V43.9087Z" fill="black"/>
<path d="M76.2757 68.964H80.5537L71.6568 47.667H67.3477L58.4507 68.964H62.7598L64.3717 65.12H74.6637L76.2757 68.964ZM65.7667 61.772L69.5178 52.813L73.2688 61.772H65.7667Z" fill="black"/>
</svg>
