<svg width="108" height="108" viewBox="0 0 108 108" fill="none" xmlns="http://www.w3.org/2000/svg">
<rect width="108" height="108" fill="url(#paint0_linear)"/>
<g clip-path="url(#clip0)">
<g filter="url(#filter0_d)">
<g filter="url(#filter1_ii)">
<path d="M54 52C54 49.7909 55.7909 48 58 48H108V108H54V52Z" fill="#F5F5F5"/>
<path d="M54 52C54 49.7909 55.7909 48 58 48H108V108H54V52Z" fill="#212121" fill-opacity="0.1"/>
</g>
<g filter="url(#filter2_ii)">
<path d="M54 52C54 49.7909 52.2091 48 50 48H0V108H54V52Z" fill="#F5F5F5"/>
</g>
</g>
<g filter="url(#filter3_di)">
<path d="M42.2683 65.5899C40.7881 63.7002 38.9172 62.6595 37 62.6595C35.0828 62.6595 33.2118 63.7002 31.7317 65.5899C30.4013 67.2885 29.607 69.4292 29.607 71.3163C29.607 72.233 29.872 72.9313 30.3947 73.3918C30.9106 73.8463 31.5917 74 32.3515 74C33.1601 74 34.0579 73.8259 34.94 73.6548C35.7108 73.5053 36.4389 73.364 37 73.364C37.4844 73.364 38.1673 73.4981 38.8901 73.64C40.5795 73.9716 42.4944 74.3475 43.6005 73.375C44.1264 72.9127 44.393 72.22 44.393 71.3163C44.3931 69.4292 43.5988 67.2885 42.2683 65.5899Z" fill="url(#paint1_linear)"/>
<path d="M42.4196 55.3286C41.8781 54.4842 41.1026 54 40.2919 54C39.4813 54 38.7058 54.4843 38.1643 55.3286C37.6668 56.1042 37.3928 57.1227 37.3928 58.1966C37.3928 59.2705 37.6667 60.2891 38.1643 61.0647C38.7058 61.909 39.4813 62.3932 40.2919 62.3932C41.1026 62.3932 41.8781 61.909 42.4196 61.0647C42.9171 60.2891 43.1911 59.2705 43.1911 58.1966C43.1911 57.1227 42.9172 56.1041 42.4196 55.3286Z" fill="url(#paint2_linear)"/>
<path d="M35.8357 55.3285C35.2942 54.4842 34.5187 54 33.7081 54C32.8974 54 32.1219 54.4842 31.5804 55.3285C31.0829 56.1041 30.8089 57.1227 30.8089 58.1966C30.8089 59.2705 31.0828 60.2891 31.5804 61.0647C32.1219 61.909 32.8974 62.3932 33.7081 62.3932C34.5187 62.3932 35.2942 61.909 35.8357 61.0647C36.3332 60.2891 36.6072 59.2705 36.6072 58.1966C36.6072 57.1227 36.3332 56.1041 35.8357 55.3285Z" fill="url(#paint3_linear)"/>
<path d="M47.8719 61.916C47.6536 61.1307 47.1856 60.5601 46.5543 60.3094C46.0462 60.1076 45.4727 60.1418 44.9394 60.4057C44.2044 60.7694 43.6036 61.5203 43.2913 62.466C43.036 63.2387 43.0041 64.0555 43.2017 64.766C43.42 65.5513 43.888 66.1219 44.5193 66.3727C44.7378 66.4594 44.9684 66.5026 45.2026 66.5026C45.5132 66.5026 45.8303 66.4267 46.1343 66.2763C46.8693 65.9126 47.47 65.1617 47.7824 64.2161V64.216C48.0376 63.4433 48.0695 62.6265 47.8719 61.916Z" fill="url(#paint4_linear)"/>
<path d="M30.7088 62.4659C30.3964 61.5203 29.7956 60.7693 29.0607 60.4057C28.5273 60.1418 27.9538 60.1076 27.4457 60.3093C26.8144 60.5601 26.3464 61.1307 26.1281 61.916C25.9305 62.6265 25.9624 63.4433 26.2176 64.216V64.216C26.5301 65.1617 27.1308 65.9126 27.8658 66.2762C28.1698 66.4267 28.4869 66.5025 28.7974 66.5025C29.0317 66.5025 29.2622 66.4593 29.4807 66.3726C30.1122 66.1218 30.5801 65.5512 30.7984 64.7659C30.9959 64.0555 30.964 63.2387 30.7088 62.4659Z" fill="url(#paint5_linear)"/>
</g>
<g opacity="0.8">
<circle cx="62" cy="56" r="2" fill="#9E9E9E"/>
<circle cx="72" cy="72" r="2" fill="#9E9E9E"/>
<rect x="66" y="54" width="20" height="4" rx="2" fill="#9E9E9E"/>
<rect x="68" y="74" width="8" height="4" rx="2" transform="rotate(-180 68 74)" fill="#9E9E9E"/>
<rect x="80" y="66" width="20" height="4" rx="2" transform="rotate(-180 80 66)" fill="#9E9E9E"/>
</g>
<g style="mix-blend-mode:overlay" opacity="0.5">
<rect width="108" height="108" fill="url(#paint6_linear)"/>
</g>
</g>
<defs>
<filter id="filter0_d" x="-3" y="46" width="114" height="66" filterUnits="userSpaceOnUse" color-interpolation-filters="sRGB">
<feFlood flood-opacity="0" result="BackgroundImageFix"/>
<feColorMatrix in="SourceAlpha" type="matrix" values="0 0 0 0 0 0 0 0 0 0 0 0 0 0 0 0 0 0 127 0"/>
<feOffset dy="1"/>
<feGaussianBlur stdDeviation="1.5"/>
<feColorMatrix type="matrix" values="0 0 0 0 0.101961 0 0 0 0 0.137255 0 0 0 0 0.494118 0 0 0 0.35 0"/>
<feBlend mode="multiply" in2="BackgroundImageFix" result="effect1_dropShadow"/>
<feBlend mode="normal" in="SourceGraphic" in2="effect1_dropShadow" result="shape"/>
</filter>
<filter id="filter1_ii" x="54" y="48" width="54" height="60" filterUnits="userSpaceOnUse" color-interpolation-filters="sRGB">
<feFlood flood-opacity="0" result="BackgroundImageFix"/>
<feBlend mode="normal" in="SourceGraphic" in2="BackgroundImageFix" result="shape"/>
<feColorMatrix in="SourceAlpha" type="matrix" values="0 0 0 0 0 0 0 0 0 0 0 0 0 0 0 0 0 0 127 0" result="hardAlpha"/>
<feOffset dy="1.5"/>
<feComposite in2="hardAlpha" operator="arithmetic" k2="-1" k3="1"/>
<feColorMatrix type="matrix" values="0 0 0 0 1 0 0 0 0 1 0 0 0 0 1 0 0 0 0.6 0"/>
<feBlend mode="normal" in2="shape" result="effect1_innerShadow"/>
<feColorMatrix in="SourceAlpha" type="matrix" values="0 0 0 0 0 0 0 0 0 0 0 0 0 0 0 0 0 0 127 0" result="hardAlpha"/>
<feOffset dx="1"/>
<feComposite in2="hardAlpha" operator="arithmetic" k2="-1" k3="1"/>
<feColorMatrix type="matrix" values="0 0 0 0 0.129412 0 0 0 0 0.129412 0 0 0 0 0.129412 0 0 0 0.05 0"/>
<feBlend mode="normal" in2="effect1_innerShadow" result="effect2_innerShadow"/>
</filter>
<filter id="filter2_ii" x="0" y="48" width="54" height="60" filterUnits="userSpaceOnUse" color-interpolation-filters="sRGB">
<feFlood flood-opacity="0" result="BackgroundImageFix"/>
<feBlend mode="normal" in="SourceGraphic" in2="BackgroundImageFix" result="shape"/>
<feColorMatrix in="SourceAlpha" type="matrix" values="0 0 0 0 0 0 0 0 0 0 0 0 0 0 0 0 0 0 127 0" result="hardAlpha"/>
<feOffset dy="1.5"/>
<feComposite in2="hardAlpha" operator="arithmetic" k2="-1" k3="1"/>
<feColorMatrix type="matrix" values="0 0 0 0 1 0 0 0 0 1 0 0 0 0 1 0 0 0 0.6 0"/>
<feBlend mode="normal" in2="shape" result="effect1_innerShadow"/>
<feColorMatrix in="SourceAlpha" type="matrix" values="0 0 0 0 0 0 0 0 0 0 0 0 0 0 0 0 0 0 127 0" result="hardAlpha"/>
<feOffset dx="-1"/>
<feComposite in2="hardAlpha" operator="arithmetic" k2="-1" k3="1"/>
<feColorMatrix type="matrix" values="0 0 0 0 1 0 0 0 0 1 0 0 0 0 1 0 0 0 0.6 0"/>
<feBlend mode="normal" in2="effect1_innerShadow" result="effect2_innerShadow"/>
</filter>
<filter id="filter3_di" x="26" y="54" width="22" height="21" filterUnits="userSpaceOnUse" color-interpolation-filters="sRGB">
<feFlood flood-opacity="0" result="BackgroundImageFix"/>
<feColorMatrix in="SourceAlpha" type="matrix" values="0 0 0 0 0 0 0 0 0 0 0 0 0 0 0 0 0 0 127 0"/>
<feOffset dy="1"/>
<feColorMatrix type="matrix" values="0 0 0 0 0.129412 0 0 0 0 0.129412 0 0 0 0 0.129412 0 0 0 0.05 0"/>
<feBlend mode="multiply" in2="BackgroundImageFix" result="effect1_dropShadow"/>
<feBlend mode="normal" in="SourceGraphic" in2="effect1_dropShadow" result="shape"/>
<feColorMatrix in="SourceAlpha" type="matrix" values="0 0 0 0 0 0 0 0 0 0 0 0 0 0 0 0 0 0 127 0" result="hardAlpha"/>
<feOffset dy="1"/>
<feComposite in2="hardAlpha" operator="arithmetic" k2="-1" k3="1"/>
<feColorMatrix type="matrix" values="0 0 0 0 1 0 0 0 0 1 0 0 0 0 1 0 0 0 0.15 0"/>
<feBlend mode="normal" in2="shape" result="effect2_innerShadow"/>
</filter>
<linearGradient id="paint0_linear" x1="54" y1="0" x2="54" y2="108" gradientUnits="userSpaceOnUse">
<stop stop-color="#019EF6"/>
<stop offset="0.454717" stop-color="#0063FF"/>
</linearGradient>
<linearGradient id="paint1_linear" x1="37" y1="54" x2="37" y2="74" gradientUnits="userSpaceOnUse">
<stop stop-color="#FFBC64"/>
<stop offset="1" stop-color="#FFAD42"/>
</linearGradient>
<linearGradient id="paint2_linear" x1="37" y1="54" x2="37" y2="74" gradientUnits="userSpaceOnUse">
<stop stop-color="#FFBC64"/>
<stop offset="1" stop-color="#FFAD42"/>
</linearGradient>
<linearGradient id="paint3_linear" x1="37" y1="54" x2="37" y2="74" gradientUnits="userSpaceOnUse">
<stop stop-color="#FFBC64"/>
<stop offset="1" stop-color="#FFAD42"/>
</linearGradient>
<linearGradient id="paint4_linear" x1="37" y1="54" x2="37" y2="74" gradientUnits="userSpaceOnUse">
<stop stop-color="#FFBC64"/>
<stop offset="1" stop-color="#FFAD42"/>
</linearGradient>
<linearGradient id="paint5_linear" x1="37" y1="54" x2="37" y2="74" gradientUnits="userSpaceOnUse">
<stop stop-color="#FFBC64"/>
<stop offset="1" stop-color="#FFAD42"/>
</linearGradient>
<linearGradient id="paint6_linear" x1="54" y1="24" x2="54" y2="91.5" gradientUnits="userSpaceOnUse">
<stop stop-color="white"/>
<stop offset="1" stop-color="white" stop-opacity="0"/>
</linearGradient>
<clipPath id="clip0">
<rect width="108" height="108" fill="white"/>
</clipPath>
</defs>
</svg>
