<svg xmlns="http://www.w3.org/2000/svg" viewBox="0 0 1000 1000"><defs><style>.cls-1{isolation:isolate;}.cls-2{fill:#639f1b;mix-blend-mode:multiply;}</style></defs><title>green icon</title><g class="cls-1"><g id="Layer_3" data-name="Layer 3"><path class="cls-2" d="M702.88,955c-29.43,0-58-6.12-86.49-12.38-24.57-5.39-49.18-10.64-73.78-15.91-29.81-6.38-59.62-5.7-89.31.57-30.71,6.48-61.31,13.49-92,20-24.71,5.21-49.64,8.75-75,7.48-23.57-1.17-45.81-6.74-66.88-17.76-25-13.1-45-31.3-59-55.74-15.86-27.73-21.48-57.9-18.41-89.46,5.78-59.26,33.41-106.8,79.84-143.35,22-17.32,39-38.46,52.86-62.41,14.36-24.86,27.87-50.21,42.45-74.94,34.69-58.82,88.34-88.8,154.32-97.62,61.55-8.22,117.31,7.91,166.75,45.48,18.19,13.82,31.9,31.75,43.41,51.19,14.53,24.56,28.08,49.71,42.26,74.48,14.33,25,32.07,46.95,55.05,64.89,38.52,30.1,63.71,69.26,74.64,117.07,7.72,33.78,6.46,67.21-7.14,99.51-12.22,29-32.36,51-59.52,67.07C760.85,948.59,732.77,955,702.88,955Z"/><path class="cls-2" d="M470.76,238.12c-.59,35.71-9.38,71.64-32.18,103.14-15.13,20.91-34.57,36.32-60.22,42.13-28.9,6.56-55-.59-78.45-18.08-27.05-20.2-44.06-47.53-54.32-79.2C230.1,238.3,230.5,190.76,249.76,144c9.08-22,22.4-41.2,41.74-55.59,36.16-26.9,80.76-25.54,117.12,3.47,24.84,19.83,40.62,45.83,50.89,75.52C467.15,189.44,470.53,212.2,470.76,238.12Z"/><path class="cls-2" d="M528.5,243.1c.87-50.15,11.22-89.19,36-123.64,14.17-19.68,31.86-35.38,54.84-44,34.33-12.87,65.54-6.22,93.45,16.84,20.4,16.87,33.56,38.87,41.43,63.73,18.77,59.26,13,116.23-19,169.75-13.68,22.86-32.57,40.93-57.21,52-34.7,15.62-73.08,8.17-102.44-19.71-21.63-20.54-34.32-46.3-40.94-74.89C531,267.48,529.69,251.19,528.5,243.1Z"/><path class="cls-2" d="M13.14,429c.26-27.86,6.45-57,23-83.35S75.58,302.41,107,298.7c19.21-2.27,37.5,1.84,54.65,10.59,33.46,17.06,55.86,44.48,71.4,77.9,15.37,33.05,21.82,67.9,18.44,104.29-2.41,25.94-9.85,50.35-24.73,72C194.85,610,140.13,620.46,91.79,589,63.2,570.46,43.68,544.2,30.28,513.2,19.06,487.27,13.3,460.14,13.14,429Z"/><path class="cls-2" d="M986.65,430.11c-2.13,56.28-19,104.82-59.32,143.43-18,17.25-39.07,29.2-64.23,32.45-33.21,4.28-60.56-7.21-82.32-32.11C762.13,552.54,752.45,527,749,499.25c-6.74-54.39,6.25-104,39.09-147.85,18.2-24.32,41.3-42.74,71.5-50.1,37-9,68.12,1.69,93,30C970.9,352.05,980.21,377,984.13,404,985.45,413.15,985.93,422.41,986.65,430.11Z"/></g></g></svg>