<svg width="88" height="88" viewBox="0 0 88 88" fill="none" xmlns="http://www.w3.org/2000/svg">
<path d="M0 0H88V88H0V0Z" fill="white"/>
<g clip-path="url(#clip0)">
<rect x="-10" y="-10" width="108" height="108" fill="#17B4D3"/>
<g filter="url(#filter0_d)">
<g filter="url(#filter1_i)">
<path d="M51 110V64.0174C51 63.2681 51 62.8934 51.0669 62.5321C51.1264 62.2114 51.2248 61.8992 51.36 61.6025C51.5123 61.2681 51.7272 60.9611 52.1569 60.3473L55.7061 55.2769C57.1992 53.144 58 50.6035 58 48H30C30 50.6035 30.8008 53.144 32.2939 55.2769L35.8431 60.3473L35.8431 60.3473C36.2728 60.9611 36.4877 61.2681 36.64 61.6025C36.7752 61.8992 36.8736 62.2114 36.9331 62.5321C37 62.8934 37 63.2681 37 64.0174V110H51Z" fill="url(#paint0_linear)"/>
<g filter="url(#filter2_ii)">
<rect x="30" y="42" width="28" height="6" fill="url(#paint1_linear)"/>
</g>
<path d="M52 36H36C34.1362 36 33.2044 36 32.4693 36.3045C31.4892 36.7105 30.7105 37.4892 30.3045 38.4693C30 39.2044 30 40.1362 30 42H58C58 40.1362 58 39.2044 57.6955 38.4693C57.2895 37.4892 56.5108 36.7105 55.5307 36.3045C54.7956 36 53.8638 36 52 36Z" fill="url(#paint2_linear)"/>
</g>
<rect x="41" y="66" width="6" height="12" rx="3" fill="#1283A5"/>
<g filter="url(#filter3_i)">
<circle cx="44" cy="69" r="2" fill="#EDFAFD"/>
</g>
</g>
<g filter="url(#filter4_d)">
<path d="M12 -10L34 36H54L76 -10H12Z" fill="url(#paint3_linear)"/>
</g>
<g filter="url(#filter5_i)">
<path d="M51 110V64.0174C51 63.2681 51 62.8934 51.0669 62.5321C51.1264 62.2114 51.2248 61.8992 51.36 61.6025C51.5123 61.2681 51.7272 60.9611 52.1569 60.3473L55.7061 55.2769C57.1992 53.144 58 50.6035 58 48H30C30 50.6035 30.8008 53.144 32.2939 55.2769L35.8431 60.3473L35.8431 60.3473C36.2728 60.9611 36.4877 61.2681 36.64 61.6025C36.7752 61.8992 36.8736 62.2114 36.9331 62.5321C37 62.8934 37 63.2681 37 64.0174V110H51Z" fill="url(#paint4_linear)"/>
<g filter="url(#filter6_ii)">
<rect x="30" y="42" width="28" height="6" fill="url(#paint5_linear)"/>
</g>
<path d="M52 36H36C34.1362 36 33.2044 36 32.4693 36.3045C31.4892 36.7105 30.7105 37.4892 30.3045 38.4693C30 39.2044 30 40.1362 30 42H58C58 40.1362 58 39.2044 57.6955 38.4693C57.2895 37.4892 56.5108 36.7105 55.5307 36.3045C54.7956 36 53.8638 36 52 36Z" fill="url(#paint6_linear)"/>
</g>
<g filter="url(#filter7_i)">
<rect x="41" y="66" width="6" height="12" rx="3" fill="#1283A5"/>
</g>
<g filter="url(#filter8_i)">
<circle cx="44" cy="69" r="2" fill="#EDFAFD"/>
</g>
<rect x="-10" y="-10" width="108" height="108" fill="url(#paint7_linear)" style="mix-blend-mode:overlay"/>
</g>
<circle cx="44" cy="44" r="36.25" stroke="black" stroke-opacity="0.24" stroke-width="0.5"/>
<defs>
<filter id="filter0_d" x="24" y="32" width="40" height="86" filterUnits="userSpaceOnUse" color-interpolation-filters="sRGB">
<feFlood flood-opacity="0" result="BackgroundImageFix"/>
<feColorMatrix in="SourceAlpha" type="matrix" values="0 0 0 0 0 0 0 0 0 0 0 0 0 0 0 0 0 0 127 0"/>
<feOffset dy="2"/>
<feGaussianBlur stdDeviation="3"/>
<feColorMatrix type="matrix" values="0 0 0 0 0 0 0 0 0 0 0 0 0 0 0 0 0 0 0.2 0"/>
<feBlend mode="overlay" in2="BackgroundImageFix" result="effect1_dropShadow"/>
<feBlend mode="normal" in="SourceGraphic" in2="effect1_dropShadow" result="shape"/>
</filter>
<filter id="filter1_i" x="30" y="36" width="28" height="74" filterUnits="userSpaceOnUse" color-interpolation-filters="sRGB">
<feFlood flood-opacity="0" result="BackgroundImageFix"/>
<feBlend mode="normal" in="SourceGraphic" in2="BackgroundImageFix" result="shape"/>
<feColorMatrix in="SourceAlpha" type="matrix" values="0 0 0 0 0 0 0 0 0 0 0 0 0 0 0 0 0 0 127 0" result="hardAlpha"/>
<feOffset dy="1"/>
<feComposite in2="hardAlpha" operator="arithmetic" k2="-1" k3="1"/>
<feColorMatrix type="matrix" values="0 0 0 0 1 0 0 0 0 1 0 0 0 0 1 0 0 0 0.64 0"/>
<feBlend mode="overlay" in2="shape" result="effect1_innerShadow"/>
</filter>
<filter id="filter2_ii" x="30" y="42" width="28" height="6" filterUnits="userSpaceOnUse" color-interpolation-filters="sRGB">
<feFlood flood-opacity="0" result="BackgroundImageFix"/>
<feBlend mode="normal" in="SourceGraphic" in2="BackgroundImageFix" result="shape"/>
<feColorMatrix in="SourceAlpha" type="matrix" values="0 0 0 0 0 0 0 0 0 0 0 0 0 0 0 0 0 0 127 0" result="hardAlpha"/>
<feOffset dy="-1"/>
<feComposite in2="hardAlpha" operator="arithmetic" k2="-1" k3="1"/>
<feColorMatrix type="matrix" values="0 0 0 0 0 0 0 0 0 0 0 0 0 0 0 0 0 0 0.12 0"/>
<feBlend mode="overlay" in2="shape" result="effect1_innerShadow"/>
<feColorMatrix in="SourceAlpha" type="matrix" values="0 0 0 0 0 0 0 0 0 0 0 0 0 0 0 0 0 0 127 0" result="hardAlpha"/>
<feOffset dy="1"/>
<feComposite in2="hardAlpha" operator="arithmetic" k2="-1" k3="1"/>
<feColorMatrix type="matrix" values="0 0 0 0 1 0 0 0 0 1 0 0 0 0 1 0 0 0 0.16 0"/>
<feBlend mode="overlay" in2="effect1_innerShadow" result="effect2_innerShadow"/>
</filter>
<filter id="filter3_i" x="42" y="67" width="4" height="4" filterUnits="userSpaceOnUse" color-interpolation-filters="sRGB">
<feFlood flood-opacity="0" result="BackgroundImageFix"/>
<feBlend mode="normal" in="SourceGraphic" in2="BackgroundImageFix" result="shape"/>
<feColorMatrix in="SourceAlpha" type="matrix" values="0 0 0 0 0 0 0 0 0 0 0 0 0 0 0 0 0 0 127 0" result="hardAlpha"/>
<feOffset dy="1"/>
<feComposite in2="hardAlpha" operator="arithmetic" k2="-1" k3="1"/>
<feColorMatrix type="matrix" values="0 0 0 0 1 0 0 0 0 1 0 0 0 0 1 0 0 0 0.64 0"/>
<feBlend mode="overlay" in2="shape" result="effect1_innerShadow"/>
</filter>
<filter id="filter4_d" x="-12" y="-32" width="112" height="94" filterUnits="userSpaceOnUse" color-interpolation-filters="sRGB">
<feFlood flood-opacity="0" result="BackgroundImageFix"/>
<feColorMatrix in="SourceAlpha" type="matrix" values="0 0 0 0 0 0 0 0 0 0 0 0 0 0 0 0 0 0 127 0"/>
<feOffset dy="2"/>
<feGaussianBlur stdDeviation="12"/>
<feColorMatrix type="matrix" values="0 0 0 0 1 0 0 0 0 1 0 0 0 0 1 0 0 0 0.36 0"/>
<feBlend mode="overlay" in2="BackgroundImageFix" result="effect1_dropShadow"/>
<feBlend mode="normal" in="SourceGraphic" in2="effect1_dropShadow" result="shape"/>
</filter>
<filter id="filter5_i" x="30" y="36" width="28" height="74" filterUnits="userSpaceOnUse" color-interpolation-filters="sRGB">
<feFlood flood-opacity="0" result="BackgroundImageFix"/>
<feBlend mode="normal" in="SourceGraphic" in2="BackgroundImageFix" result="shape"/>
<feColorMatrix in="SourceAlpha" type="matrix" values="0 0 0 0 0 0 0 0 0 0 0 0 0 0 0 0 0 0 127 0" result="hardAlpha"/>
<feOffset dy="1"/>
<feComposite in2="hardAlpha" operator="arithmetic" k2="-1" k3="1"/>
<feColorMatrix type="matrix" values="0 0 0 0 1 0 0 0 0 1 0 0 0 0 1 0 0 0 0.64 0"/>
<feBlend mode="overlay" in2="shape" result="effect1_innerShadow"/>
</filter>
<filter id="filter6_ii" x="30" y="42" width="28" height="6" filterUnits="userSpaceOnUse" color-interpolation-filters="sRGB">
<feFlood flood-opacity="0" result="BackgroundImageFix"/>
<feBlend mode="normal" in="SourceGraphic" in2="BackgroundImageFix" result="shape"/>
<feColorMatrix in="SourceAlpha" type="matrix" values="0 0 0 0 0 0 0 0 0 0 0 0 0 0 0 0 0 0 127 0" result="hardAlpha"/>
<feOffset dy="-1"/>
<feComposite in2="hardAlpha" operator="arithmetic" k2="-1" k3="1"/>
<feColorMatrix type="matrix" values="0 0 0 0 0 0 0 0 0 0 0 0 0 0 0 0 0 0 0.12 0"/>
<feBlend mode="overlay" in2="shape" result="effect1_innerShadow"/>
<feColorMatrix in="SourceAlpha" type="matrix" values="0 0 0 0 0 0 0 0 0 0 0 0 0 0 0 0 0 0 127 0" result="hardAlpha"/>
<feOffset dy="1"/>
<feComposite in2="hardAlpha" operator="arithmetic" k2="-1" k3="1"/>
<feColorMatrix type="matrix" values="0 0 0 0 1 0 0 0 0 1 0 0 0 0 1 0 0 0 0.16 0"/>
<feBlend mode="overlay" in2="effect1_innerShadow" result="effect2_innerShadow"/>
</filter>
<filter id="filter7_i" x="41" y="66" width="6" height="12" filterUnits="userSpaceOnUse" color-interpolation-filters="sRGB">
<feFlood flood-opacity="0" result="BackgroundImageFix"/>
<feBlend mode="normal" in="SourceGraphic" in2="BackgroundImageFix" result="shape"/>
<feColorMatrix in="SourceAlpha" type="matrix" values="0 0 0 0 0 0 0 0 0 0 0 0 0 0 0 0 0 0 127 0" result="hardAlpha"/>
<feOffset dy="1"/>
<feComposite in2="hardAlpha" operator="arithmetic" k2="-1" k3="1"/>
<feColorMatrix type="matrix" values="0 0 0 0 0 0 0 0 0 0 0 0 0 0 0 0 0 0 0.16 0"/>
<feBlend mode="overlay" in2="shape" result="effect1_innerShadow"/>
</filter>
<filter id="filter8_i" x="42" y="67" width="4" height="4" filterUnits="userSpaceOnUse" color-interpolation-filters="sRGB">
<feFlood flood-opacity="0" result="BackgroundImageFix"/>
<feBlend mode="normal" in="SourceGraphic" in2="BackgroundImageFix" result="shape"/>
<feColorMatrix in="SourceAlpha" type="matrix" values="0 0 0 0 0 0 0 0 0 0 0 0 0 0 0 0 0 0 127 0" result="hardAlpha"/>
<feOffset dy="1"/>
<feComposite in2="hardAlpha" operator="arithmetic" k2="-1" k3="1"/>
<feColorMatrix type="matrix" values="0 0 0 0 1 0 0 0 0 1 0 0 0 0 1 0 0 0 0.64 0"/>
<feBlend mode="overlay" in2="shape" result="effect1_innerShadow"/>
</filter>
<linearGradient id="paint0_linear" x1="30" y1="48" x2="58" y2="48" gradientUnits="userSpaceOnUse">
<stop stop-color="#DAF5FB"/>
<stop offset="0.499347" stop-color="#F6FDFE"/>
<stop offset="1" stop-color="#DAF5FB"/>
</linearGradient>
<linearGradient id="paint1_linear" x1="30" y1="42" x2="58" y2="42" gradientUnits="userSpaceOnUse">
<stop stop-color="#9AE5F4"/>
<stop offset="0.496752" stop-color="#B6ECF7"/>
<stop offset="1" stop-color="#9AE5F4"/>
</linearGradient>
<linearGradient id="paint2_linear" x1="30" y1="36" x2="58" y2="36" gradientUnits="userSpaceOnUse">
<stop stop-color="#DBF5FA"/>
<stop offset="0.499347" stop-color="#F6FDFE"/>
<stop offset="1" stop-color="#DBF5FA"/>
</linearGradient>
<linearGradient id="paint3_linear" x1="44" y1="36" x2="44" y2="8" gradientUnits="userSpaceOnUse">
<stop stop-color="#FFBB00"/>
<stop offset="1" stop-color="#FFD500"/>
</linearGradient>
<linearGradient id="paint4_linear" x1="30" y1="48" x2="58" y2="48" gradientUnits="userSpaceOnUse">
<stop stop-color="#DAF5FB"/>
<stop offset="0.499347" stop-color="#F6FDFE"/>
<stop offset="1" stop-color="#DAF5FB"/>
</linearGradient>
<linearGradient id="paint5_linear" x1="30" y1="42" x2="58" y2="42" gradientUnits="userSpaceOnUse">
<stop stop-color="#9AE5F4"/>
<stop offset="0.496752" stop-color="#B6ECF7"/>
<stop offset="1" stop-color="#9AE5F4"/>
</linearGradient>
<linearGradient id="paint6_linear" x1="30" y1="36" x2="58" y2="36" gradientUnits="userSpaceOnUse">
<stop stop-color="#DBF5FA"/>
<stop offset="0.499347" stop-color="#F6FDFE"/>
<stop offset="1" stop-color="#DBF5FA"/>
</linearGradient>
<linearGradient id="paint7_linear" x1="44" y1="-10" x2="44" y2="98" gradientUnits="userSpaceOnUse">
<stop stop-color="white" stop-opacity="0.12"/>
<stop offset="1" stop-color="white" stop-opacity="0"/>
</linearGradient>
<clipPath id="clip0">
<rect x="4" y="4" width="80" height="80" rx="40" fill="white"/>
</clipPath>
</defs>
</svg>
