<svg width="330" height="104" viewBox="0 0 330 104" fill="none" xmlns="http://www.w3.org/2000/svg">
<g clip-path="url(#clip0)">
<path d="M108.869 32.4545H106.497L111.732 47H114.267L119.501 32.4545H117.129L113.081 44.3011H112.918L108.869 32.4545ZM123.312 47.2415C125.116 47.2415 126.132 46.3253 126.537 45.5085H126.622V47H128.696V39.7557C128.696 36.581 126.196 35.9489 124.463 35.9489C122.489 35.9489 120.67 36.7443 119.96 38.733L121.956 39.1875C122.268 38.4134 123.064 37.6676 124.491 37.6676C125.862 37.6676 126.565 38.3849 126.565 39.6207V39.6705C126.565 40.4446 125.77 40.4304 123.81 40.6577C121.743 40.8991 119.626 41.4389 119.626 43.9176C119.626 46.0625 121.239 47.2415 123.312 47.2415ZM123.774 45.5369C122.574 45.5369 121.707 44.9972 121.707 43.946C121.707 42.8097 122.716 42.4048 123.945 42.2415C124.633 42.1491 126.267 41.9645 126.572 41.6591V43.0653C126.572 44.358 125.543 45.5369 123.774 45.5369ZM135.92 47.2202C138.498 47.2202 140.167 45.6719 140.401 43.5483H138.334C138.064 44.7273 137.148 45.4233 135.934 45.4233C134.137 45.4233 132.979 43.9247 132.979 41.5455C132.979 39.2088 134.158 37.7386 135.934 37.7386C137.283 37.7386 138.107 38.5909 138.334 39.6136H140.401C140.174 37.4119 138.377 35.9489 135.898 35.9489C132.823 35.9489 130.834 38.2642 130.834 41.5952C130.834 44.8835 132.752 47.2202 135.92 47.2202ZM145.647 47.2415C147.451 47.2415 148.466 46.3253 148.871 45.5085H148.956V47H151.03V39.7557C151.03 36.581 148.53 35.9489 146.797 35.9489C144.823 35.9489 143.005 36.7443 142.295 38.733L144.29 39.1875C144.603 38.4134 145.398 37.6676 146.826 37.6676C148.197 37.6676 148.9 38.3849 148.9 39.6207V39.6705C148.9 40.4446 148.104 40.4304 146.144 40.6577C144.077 40.8991 141.961 41.4389 141.961 43.9176C141.961 46.0625 143.573 47.2415 145.647 47.2415ZM146.108 45.5369C144.908 45.5369 144.042 44.9972 144.042 43.946C144.042 42.8097 145.05 42.4048 146.279 42.2415C146.968 42.1491 148.601 41.9645 148.907 41.6591V43.0653C148.907 44.358 147.877 45.5369 146.108 45.5369ZM158.751 36.0909H156.514V33.4773H154.39V36.0909H152.792V37.7955H154.39V44.2372C154.383 46.2188 155.896 47.1776 157.572 47.142C158.247 47.1349 158.701 47.0071 158.95 46.9148L158.566 45.1605C158.424 45.1889 158.162 45.2528 157.821 45.2528C157.132 45.2528 156.514 45.0256 156.514 43.7969V37.7955H158.751V36.0909ZM160.9 47H163.024V36.0909H160.9V47ZM161.973 34.4077C162.704 34.4077 163.315 33.8395 163.315 33.1435C163.315 32.4474 162.704 31.8722 161.973 31.8722C161.234 31.8722 160.63 32.4474 160.63 33.1435C160.63 33.8395 161.234 34.4077 161.973 34.4077ZM170.276 47.2202C173.351 47.2202 175.361 44.9688 175.361 41.5952C175.361 38.2003 173.351 35.9489 170.276 35.9489C167.201 35.9489 165.191 38.2003 165.191 41.5952C165.191 44.9688 167.201 47.2202 170.276 47.2202ZM170.283 45.4375C168.273 45.4375 167.336 43.6832 167.336 41.5881C167.336 39.5 168.273 37.7244 170.283 37.7244C172.279 37.7244 173.216 39.5 173.216 41.5881C173.216 43.6832 172.279 45.4375 170.283 45.4375ZM179.655 40.5227C179.655 38.7827 180.72 37.7884 182.198 37.7884C183.639 37.7884 184.513 38.733 184.513 40.3168V47H186.637V40.0611C186.637 37.3622 185.152 35.9489 182.922 35.9489C181.281 35.9489 180.209 36.7088 179.705 37.8665H179.57V36.0909H177.531V47H179.655V40.5227ZM112.307 71C116.739 71 119.303 68.2514 119.303 63.706C119.303 59.1818 116.739 56.4545 112.456 56.4545H107.598V71H112.307ZM109.793 69.0824V58.3722H112.321C115.503 58.3722 117.143 60.2756 117.143 63.706C117.143 67.1506 115.503 69.0824 112.186 69.0824H109.793ZM124.836 71.2415C126.64 71.2415 127.655 70.3253 128.06 69.5085H128.146V71H130.219V63.7557C130.219 60.581 127.719 59.9489 125.986 59.9489C124.012 59.9489 122.194 60.7443 121.484 62.733L123.479 63.1875C123.792 62.4134 124.587 61.6676 126.015 61.6676C127.386 61.6676 128.089 62.3849 128.089 63.6207V63.6705C128.089 64.4446 127.293 64.4304 125.333 64.6577C123.266 64.8991 121.15 65.4389 121.15 67.9176C121.15 70.0625 122.762 71.2415 124.836 71.2415ZM125.298 69.5369C124.097 69.5369 123.231 68.9972 123.231 67.946C123.231 66.8097 124.239 66.4048 125.468 66.2415C126.157 66.1491 127.79 65.9645 128.096 65.6591V67.0653C128.096 68.358 127.066 69.5369 125.298 69.5369ZM133.8 75.0909C135.554 75.0909 136.662 74.1747 137.294 72.456L141.804 60.1122L139.51 60.0909L136.747 68.5568H136.633L133.871 60.0909H131.598L135.589 71.142L135.327 71.8665C134.787 73.3153 134.027 73.4361 132.862 73.1165L132.351 74.8565C132.606 74.9702 133.16 75.0909 133.8 75.0909ZM151.78 62.7543C151.339 61.0568 150.011 59.9489 147.653 59.9489C145.189 59.9489 143.442 61.2486 143.442 63.1804C143.442 64.7287 144.379 65.7585 146.425 66.2131L148.271 66.6179C149.322 66.8523 149.812 67.321 149.812 68.0028C149.812 68.848 148.91 69.5085 147.518 69.5085C146.247 69.5085 145.43 68.9616 145.175 67.8892L143.122 68.2017C143.477 70.1335 145.082 71.2202 147.532 71.2202C150.167 71.2202 151.993 69.821 151.993 67.8466C151.993 66.3054 151.013 65.3537 149.01 64.892L147.277 64.4943C146.076 64.2102 145.558 63.8054 145.565 63.0668C145.558 62.2287 146.467 61.6321 147.675 61.6321C148.996 61.6321 149.606 62.3636 149.855 63.0952L151.78 62.7543Z" fill="#111318"/>
<path d="M248.207 20H246V22.2069H248.207V20Z" fill="black"/>
<path d="M248.207 22.2069H246V24.4138H248.207V22.2069Z" fill="black"/>
<path d="M248.207 24.4138H246V26.6207H248.207V24.4138Z" fill="black"/>
<path d="M248.207 26.6207H246V28.8276H248.207V26.6207Z" fill="black"/>
<path d="M248.207 28.8276H246V31.0345H248.207V28.8276Z" fill="black"/>
<path d="M248.207 31.0345H246V33.2414H248.207V31.0345Z" fill="black"/>
<path d="M248.207 33.2414H246V35.4483H248.207V33.2414Z" fill="black"/>
<path d="M248.207 37.6552H246V39.8621H248.207V37.6552Z" fill="black"/>
<path d="M248.207 39.8621H246V42.069H248.207V39.8621Z" fill="black"/>
<path d="M248.207 42.069H246V44.2759H248.207V42.069Z" fill="black"/>
<path d="M248.207 44.2759H246V46.4828H248.207V44.2759Z" fill="black"/>
<path d="M248.207 48.6897H246V50.8966H248.207V48.6897Z" fill="black"/>
<path d="M248.207 57.5172H246V59.7241H248.207V57.5172Z" fill="black"/>
<path d="M248.207 61.931H246V64.1379H248.207V61.931Z" fill="black"/>
<path d="M248.207 68.5517H246V70.7586H248.207V68.5517Z" fill="black"/>
<path d="M248.207 70.7586H246V72.9655H248.207V70.7586Z" fill="black"/>
<path d="M248.207 72.9655H246V75.1724H248.207V72.9655Z" fill="black"/>
<path d="M248.207 75.1724H246V77.3793H248.207V75.1724Z" fill="black"/>
<path d="M248.207 77.3793H246V79.5862H248.207V77.3793Z" fill="black"/>
<path d="M248.207 79.5862H246V81.7931H248.207V79.5862Z" fill="black"/>
<path d="M248.207 81.7931H246V84H248.207V81.7931Z" fill="black"/>
<path d="M250.414 20H248.207V22.2069H250.414V20Z" fill="black"/>
<path d="M250.414 33.2414H248.207V35.4483H250.414V33.2414Z" fill="black"/>
<path d="M250.414 37.6552H248.207V39.8621H250.414V37.6552Z" fill="black"/>
<path d="M250.414 44.2759H248.207V46.4828H250.414V44.2759Z" fill="black"/>
<path d="M250.414 48.6897H248.207V50.8966H250.414V48.6897Z" fill="black"/>
<path d="M250.414 50.8966H248.207V53.1035H250.414V50.8966Z" fill="black"/>
<path d="M250.414 53.1034H248.207V55.3103H250.414V53.1034Z" fill="black"/>
<path d="M250.414 55.3103H248.207V57.5172H250.414V55.3103Z" fill="black"/>
<path d="M250.414 57.5172H248.207V59.7241H250.414V57.5172Z" fill="black"/>
<path d="M250.414 59.7241H248.207V61.931H250.414V59.7241Z" fill="black"/>
<path d="M250.414 64.1379H248.207V66.3448H250.414V64.1379Z" fill="black"/>
<path d="M250.414 68.5517H248.207V70.7586H250.414V68.5517Z" fill="black"/>
<path d="M250.414 81.7931H248.207V84H250.414V81.7931Z" fill="black"/>
<path d="M252.62 20H250.414V22.2069H252.62V20Z" fill="black"/>
<path d="M252.62 24.4138H250.414V26.6207H252.62V24.4138Z" fill="black"/>
<path d="M252.62 26.6207H250.414V28.8276H252.62V26.6207Z" fill="black"/>
<path d="M252.62 28.8276H250.414V31.0345H252.62V28.8276Z" fill="black"/>
<path d="M252.62 33.2414H250.414V35.4483H252.62V33.2414Z" fill="black"/>
<path d="M252.62 37.6552H250.414V39.8621H252.62V37.6552Z" fill="black"/>
<path d="M252.62 39.8621H250.414V42.069H252.62V39.8621Z" fill="black"/>
<path d="M252.62 42.069H250.414V44.2759H252.62V42.069Z" fill="black"/>
<path d="M252.62 57.5172H250.414V59.7241H252.62V57.5172Z" fill="black"/>
<path d="M252.62 61.931H250.414V64.1379H252.62V61.931Z" fill="black"/>
<path d="M252.62 64.1379H250.414V66.3448H252.62V64.1379Z" fill="black"/>
<path d="M252.62 68.5517H250.414V70.7586H252.62V68.5517Z" fill="black"/>
<path d="M252.62 72.9655H250.414V75.1724H252.62V72.9655Z" fill="black"/>
<path d="M252.62 75.1724H250.414V77.3793H252.62V75.1724Z" fill="black"/>
<path d="M252.62 77.3793H250.414V79.5862H252.62V77.3793Z" fill="black"/>
<path d="M252.62 81.7931H250.414V84H252.62V81.7931Z" fill="black"/>
<path d="M254.828 20H252.621V22.2069H254.828V20Z" fill="black"/>
<path d="M254.828 24.4138H252.621V26.6207H254.828V24.4138Z" fill="black"/>
<path d="M254.828 26.6207H252.621V28.8276H254.828V26.6207Z" fill="black"/>
<path d="M254.828 28.8276H252.621V31.0345H254.828V28.8276Z" fill="black"/>
<path d="M254.828 33.2414H252.621V35.4483H254.828V33.2414Z" fill="black"/>
<path d="M254.828 39.8621H252.621V42.069H254.828V39.8621Z" fill="black"/>
<path d="M254.828 42.069H252.621V44.2759H254.828V42.069Z" fill="black"/>
<path d="M254.828 44.2759H252.621V46.4828H254.828V44.2759Z" fill="black"/>
<path d="M254.828 46.4828H252.621V48.6897H254.828V46.4828Z" fill="black"/>
<path d="M254.828 48.6897H252.621V50.8966H254.828V48.6897Z" fill="black"/>
<path d="M254.828 55.3103H252.621V57.5172H254.828V55.3103Z" fill="black"/>
<path d="M254.828 57.5172H252.621V59.7241H254.828V57.5172Z" fill="black"/>
<path d="M254.828 64.1379H252.621V66.3448H254.828V64.1379Z" fill="black"/>
<path d="M254.828 68.5517H252.621V70.7586H254.828V68.5517Z" fill="black"/>
<path d="M254.828 72.9655H252.621V75.1724H254.828V72.9655Z" fill="black"/>
<path d="M254.828 75.1724H252.621V77.3793H254.828V75.1724Z" fill="black"/>
<path d="M254.828 77.3793H252.621V79.5862H254.828V77.3793Z" fill="black"/>
<path d="M254.828 81.7931H252.621V84H254.828V81.7931Z" fill="black"/>
<path d="M257.035 20H254.828V22.2069H257.035V20Z" fill="black"/>
<path d="M257.035 24.4138H254.828V26.6207H257.035V24.4138Z" fill="black"/>
<path d="M257.035 26.6207H254.828V28.8276H257.035V26.6207Z" fill="black"/>
<path d="M257.035 28.8276H254.828V31.0345H257.035V28.8276Z" fill="black"/>
<path d="M257.035 33.2414H254.828V35.4483H257.035V33.2414Z" fill="black"/>
<path d="M257.035 37.6552H254.828V39.8621H257.035V37.6552Z" fill="black"/>
<path d="M257.035 42.069H254.828V44.2759H257.035V42.069Z" fill="black"/>
<path d="M257.035 46.4828H254.828V48.6897H257.035V46.4828Z" fill="black"/>
<path d="M257.035 50.8966H254.828V53.1035H257.035V50.8966Z" fill="black"/>
<path d="M257.035 53.1034H254.828V55.3103H257.035V53.1034Z" fill="black"/>
<path d="M257.035 57.5172H254.828V59.7241H257.035V57.5172Z" fill="black"/>
<path d="M257.035 59.7241H254.828V61.931H257.035V59.7241Z" fill="black"/>
<path d="M257.035 68.5517H254.828V70.7586H257.035V68.5517Z" fill="black"/>
<path d="M257.035 72.9655H254.828V75.1724H257.035V72.9655Z" fill="black"/>
<path d="M257.035 75.1724H254.828V77.3793H257.035V75.1724Z" fill="black"/>
<path d="M257.035 77.3793H254.828V79.5862H257.035V77.3793Z" fill="black"/>
<path d="M257.035 81.7931H254.828V84H257.035V81.7931Z" fill="black"/>
<path d="M259.241 20H257.034V22.2069H259.241V20Z" fill="black"/>
<path d="M259.241 33.2414H257.034V35.4483H259.241V33.2414Z" fill="black"/>
<path d="M259.241 37.6552H257.034V39.8621H259.241V37.6552Z" fill="black"/>
<path d="M259.241 42.069H257.034V44.2759H259.241V42.069Z" fill="black"/>
<path d="M259.241 44.2759H257.034V46.4828H259.241V44.2759Z" fill="black"/>
<path d="M259.241 48.6897H257.034V50.8966H259.241V48.6897Z" fill="black"/>
<path d="M259.241 57.5172H257.034V59.7241H259.241V57.5172Z" fill="black"/>
<path d="M259.241 61.931H257.034V64.1379H259.241V61.931Z" fill="black"/>
<path d="M259.241 64.1379H257.034V66.3448H259.241V64.1379Z" fill="black"/>
<path d="M259.241 68.5517H257.034V70.7586H259.241V68.5517Z" fill="black"/>
<path d="M259.241 81.7931H257.034V84H259.241V81.7931Z" fill="black"/>
<path d="M261.448 20H259.241V22.2069H261.448V20Z" fill="black"/>
<path d="M261.448 22.2069H259.241V24.4138H261.448V22.2069Z" fill="black"/>
<path d="M261.448 24.4138H259.241V26.6207H261.448V24.4138Z" fill="black"/>
<path d="M261.448 26.6207H259.241V28.8276H261.448V26.6207Z" fill="black"/>
<path d="M261.448 28.8276H259.241V31.0345H261.448V28.8276Z" fill="black"/>
<path d="M261.448 31.0345H259.241V33.2414H261.448V31.0345Z" fill="black"/>
<path d="M261.448 33.2414H259.241V35.4483H261.448V33.2414Z" fill="black"/>
<path d="M261.448 37.6552H259.241V39.8621H261.448V37.6552Z" fill="black"/>
<path d="M261.448 42.069H259.241V44.2759H261.448V42.069Z" fill="black"/>
<path d="M261.448 46.4828H259.241V48.6897H261.448V46.4828Z" fill="black"/>
<path d="M261.448 50.8966H259.241V53.1035H261.448V50.8966Z" fill="black"/>
<path d="M261.448 55.3103H259.241V57.5172H261.448V55.3103Z" fill="black"/>
<path d="M261.448 59.7241H259.241V61.931H261.448V59.7241Z" fill="black"/>
<path d="M261.448 64.1379H259.241V66.3448H261.448V64.1379Z" fill="black"/>
<path d="M261.448 68.5517H259.241V70.7586H261.448V68.5517Z" fill="black"/>
<path d="M261.448 70.7586H259.241V72.9655H261.448V70.7586Z" fill="black"/>
<path d="M261.448 72.9655H259.241V75.1724H261.448V72.9655Z" fill="black"/>
<path d="M261.448 75.1724H259.241V77.3793H261.448V75.1724Z" fill="black"/>
<path d="M261.448 77.3793H259.241V79.5862H261.448V77.3793Z" fill="black"/>
<path d="M261.448 79.5862H259.241V81.7931H261.448V79.5862Z" fill="black"/>
<path d="M261.448 81.7931H259.241V84H261.448V81.7931Z" fill="black"/>
<path d="M263.655 37.6552H261.448V39.8621H263.655V37.6552Z" fill="black"/>
<path d="M263.655 42.069H261.448V44.2759H263.655V42.069Z" fill="black"/>
<path d="M263.655 44.2759H261.448V46.4828H263.655V44.2759Z" fill="black"/>
<path d="M263.655 46.4828H261.448V48.6897H263.655V46.4828Z" fill="black"/>
<path d="M263.655 48.6897H261.448V50.8966H263.655V48.6897Z" fill="black"/>
<path d="M263.655 55.3103H261.448V57.5172H263.655V55.3103Z" fill="black"/>
<path d="M263.655 64.1379H261.448V66.3448H263.655V64.1379Z" fill="black"/>
<path d="M265.862 24.4138H263.655V26.6207H265.862V24.4138Z" fill="black"/>
<path d="M265.862 33.2414H263.655V35.4483H265.862V33.2414Z" fill="black"/>
<path d="M265.862 35.4483H263.655V37.6552H265.862V35.4483Z" fill="black"/>
<path d="M265.862 37.6552H263.655V39.8621H265.862V37.6552Z" fill="black"/>
<path d="M265.862 39.8621H263.655V42.069H265.862V39.8621Z" fill="black"/>
<path d="M265.862 42.069H263.655V44.2759H265.862V42.069Z" fill="black"/>
<path d="M265.862 44.2759H263.655V46.4828H265.862V44.2759Z" fill="black"/>
<path d="M265.862 48.6897H263.655V50.8966H265.862V48.6897Z" fill="black"/>
<path d="M265.862 50.8966H263.655V53.1035H265.862V50.8966Z" fill="black"/>
<path d="M265.862 53.1034H263.655V55.3103H265.862V53.1034Z" fill="black"/>
<path d="M265.862 55.3103H263.655V57.5172H265.862V55.3103Z" fill="black"/>
<path d="M265.862 59.7241H263.655V61.931H265.862V59.7241Z" fill="black"/>
<path d="M265.862 66.3448H263.655V68.5517H265.862V66.3448Z" fill="black"/>
<path d="M265.862 68.5517H263.655V70.7586H265.862V68.5517Z" fill="black"/>
<path d="M265.862 70.7586H263.655V72.9655H265.862V70.7586Z" fill="black"/>
<path d="M265.862 72.9655H263.655V75.1724H265.862V72.9655Z" fill="black"/>
<path d="M265.862 77.3793H263.655V79.5862H265.862V77.3793Z" fill="black"/>
<path d="M265.862 79.5862H263.655V81.7931H265.862V79.5862Z" fill="black"/>
<path d="M265.862 81.7931H263.655V84H265.862V81.7931Z" fill="black"/>
<path d="M268.069 20H265.862V22.2069H268.069V20Z" fill="black"/>
<path d="M268.069 24.4138H265.862V26.6207H268.069V24.4138Z" fill="black"/>
<path d="M268.069 26.6207H265.862V28.8276H268.069V26.6207Z" fill="black"/>
<path d="M268.069 31.0345H265.862V33.2414H268.069V31.0345Z" fill="black"/>
<path d="M268.069 35.4483H265.862V37.6552H268.069V35.4483Z" fill="black"/>
<path d="M268.069 42.069H265.862V44.2759H268.069V42.069Z" fill="black"/>
<path d="M268.069 53.1034H265.862V55.3103H268.069V53.1034Z" fill="black"/>
<path d="M268.069 55.3103H265.862V57.5172H268.069V55.3103Z" fill="black"/>
<path d="M268.069 59.7241H265.862V61.931H268.069V59.7241Z" fill="black"/>
<path d="M268.069 61.931H265.862V64.1379H268.069V61.931Z" fill="black"/>
<path d="M268.069 68.5517H265.862V70.7586H268.069V68.5517Z" fill="black"/>
<path d="M268.069 72.9655H265.862V75.1724H268.069V72.9655Z" fill="black"/>
<path d="M268.069 75.1724H265.862V77.3793H268.069V75.1724Z" fill="black"/>
<path d="M268.069 77.3793H265.862V79.5862H268.069V77.3793Z" fill="black"/>
<path d="M268.069 79.5862H265.862V81.7931H268.069V79.5862Z" fill="black"/>
<path d="M268.069 81.7931H265.862V84H268.069V81.7931Z" fill="black"/>
<path d="M270.276 22.2069H268.069V24.4138H270.276V22.2069Z" fill="black"/>
<path d="M270.276 24.4138H268.069V26.6207H270.276V24.4138Z" fill="black"/>
<path d="M270.276 26.6207H268.069V28.8276H270.276V26.6207Z" fill="black"/>
<path d="M270.276 28.8276H268.069V31.0345H270.276V28.8276Z" fill="black"/>
<path d="M270.276 33.2414H268.069V35.4483H270.276V33.2414Z" fill="black"/>
<path d="M270.276 35.4483H268.069V37.6552H270.276V35.4483Z" fill="black"/>
<path d="M270.276 37.6552H268.069V39.8621H270.276V37.6552Z" fill="black"/>
<path d="M270.276 39.8621H268.069V42.069H270.276V39.8621Z" fill="black"/>
<path d="M270.276 50.8966H268.069V53.1035H270.276V50.8966Z" fill="black"/>
<path d="M270.276 53.1034H268.069V55.3103H270.276V53.1034Z" fill="black"/>
<path d="M270.276 57.5172H268.069V59.7241H270.276V57.5172Z" fill="black"/>
<path d="M270.276 59.7241H268.069V61.931H270.276V59.7241Z" fill="black"/>
<path d="M270.276 61.931H268.069V64.1379H270.276V61.931Z" fill="black"/>
<path d="M270.276 64.1379H268.069V66.3448H270.276V64.1379Z" fill="black"/>
<path d="M270.276 68.5517H268.069V70.7586H270.276V68.5517Z" fill="black"/>
<path d="M270.276 75.1724H268.069V77.3793H270.276V75.1724Z" fill="black"/>
<path d="M270.276 77.3793H268.069V79.5862H270.276V77.3793Z" fill="black"/>
<path d="M272.483 22.2069H270.276V24.4138H272.483V22.2069Z" fill="black"/>
<path d="M272.483 26.6207H270.276V28.8276H272.483V26.6207Z" fill="black"/>
<path d="M272.483 37.6552H270.276V39.8621H272.483V37.6552Z" fill="black"/>
<path d="M272.483 39.8621H270.276V42.069H272.483V39.8621Z" fill="black"/>
<path d="M272.483 44.2759H270.276V46.4828H272.483V44.2759Z" fill="black"/>
<path d="M272.483 48.6897H270.276V50.8966H272.483V48.6897Z" fill="black"/>
<path d="M272.483 50.8966H270.276V53.1035H272.483V50.8966Z" fill="black"/>
<path d="M272.483 55.3103H270.276V57.5172H272.483V55.3103Z" fill="black"/>
<path d="M272.483 57.5172H270.276V59.7241H272.483V57.5172Z" fill="black"/>
<path d="M272.483 61.931H270.276V64.1379H272.483V61.931Z" fill="black"/>
<path d="M272.483 66.3448H270.276V68.5517H272.483V66.3448Z" fill="black"/>
<path d="M272.483 68.5517H270.276V70.7586H272.483V68.5517Z" fill="black"/>
<path d="M272.483 72.9655H270.276V75.1724H272.483V72.9655Z" fill="black"/>
<path d="M272.483 75.1724H270.276V77.3793H272.483V75.1724Z" fill="black"/>
<path d="M272.483 79.5862H270.276V81.7931H272.483V79.5862Z" fill="black"/>
<path d="M274.69 20H272.483V22.2069H274.69V20Z" fill="black"/>
<path d="M274.69 22.2069H272.483V24.4138H274.69V22.2069Z" fill="black"/>
<path d="M274.69 24.4138H272.483V26.6207H274.69V24.4138Z" fill="black"/>
<path d="M274.69 33.2414H272.483V35.4483H274.69V33.2414Z" fill="black"/>
<path d="M274.69 35.4483H272.483V37.6552H274.69V35.4483Z" fill="black"/>
<path d="M274.69 46.4828H272.483V48.6897H274.69V46.4828Z" fill="black"/>
<path d="M274.69 48.6897H272.483V50.8966H274.69V48.6897Z" fill="black"/>
<path d="M274.69 50.8966H272.483V53.1035H274.69V50.8966Z" fill="black"/>
<path d="M274.69 53.1034H272.483V55.3103H274.69V53.1034Z" fill="black"/>
<path d="M274.69 64.1379H272.483V66.3448H274.69V64.1379Z" fill="black"/>
<path d="M274.69 66.3448H272.483V68.5517H274.69V66.3448Z" fill="black"/>
<path d="M274.69 68.5517H272.483V70.7586H274.69V68.5517Z" fill="black"/>
<path d="M274.69 70.7586H272.483V72.9655H274.69V70.7586Z" fill="black"/>
<path d="M274.69 81.7931H272.483V84H274.69V81.7931Z" fill="black"/>
<path d="M276.896 28.8276H274.689V31.0345H276.896V28.8276Z" fill="black"/>
<path d="M276.896 35.4483H274.689V37.6552H276.896V35.4483Z" fill="black"/>
<path d="M276.896 42.069H274.689V44.2759H276.896V42.069Z" fill="black"/>
<path d="M276.896 48.6897H274.689V50.8966H276.896V48.6897Z" fill="black"/>
<path d="M276.896 53.1034H274.689V55.3103H276.896V53.1034Z" fill="black"/>
<path d="M276.896 59.7241H274.689V61.931H276.896V59.7241Z" fill="black"/>
<path d="M276.896 66.3448H274.689V68.5517H276.896V66.3448Z" fill="black"/>
<path d="M276.896 70.7586H274.689V72.9655H276.896V70.7586Z" fill="black"/>
<path d="M276.896 77.3793H274.689V79.5862H276.896V77.3793Z" fill="black"/>
<path d="M279.103 28.8276H276.896V31.0345H279.103V28.8276Z" fill="black"/>
<path d="M279.103 31.0345H276.896V33.2414H279.103V31.0345Z" fill="black"/>
<path d="M279.103 33.2414H276.896V35.4483H279.103V33.2414Z" fill="black"/>
<path d="M279.103 35.4483H276.896V37.6552H279.103V35.4483Z" fill="black"/>
<path d="M279.103 37.6552H276.896V39.8621H279.103V37.6552Z" fill="black"/>
<path d="M279.103 50.8966H276.896V53.1035H279.103V50.8966Z" fill="black"/>
<path d="M279.103 53.1034H276.896V55.3103H279.103V53.1034Z" fill="black"/>
<path d="M279.103 55.3103H276.896V57.5172H279.103V55.3103Z" fill="black"/>
<path d="M279.103 57.5172H276.896V59.7241H279.103V57.5172Z" fill="black"/>
<path d="M279.103 68.5517H276.896V70.7586H279.103V68.5517Z" fill="black"/>
<path d="M279.103 70.7586H276.896V72.9655H279.103V70.7586Z" fill="black"/>
<path d="M279.103 72.9655H276.896V75.1724H279.103V72.9655Z" fill="black"/>
<path d="M279.103 75.1724H276.896V77.3793H279.103V75.1724Z" fill="black"/>
<path d="M281.31 20H279.104V22.2069H281.31V20Z" fill="black"/>
<path d="M281.31 22.2069H279.104V24.4138H281.31V22.2069Z" fill="black"/>
<path d="M281.31 28.8276H279.104V31.0345H281.31V28.8276Z" fill="black"/>
<path d="M281.31 31.0345H279.104V33.2414H281.31V31.0345Z" fill="black"/>
<path d="M281.31 35.4483H279.104V37.6552H281.31V35.4483Z" fill="black"/>
<path d="M281.31 44.2759H279.104V46.4828H281.31V44.2759Z" fill="black"/>
<path d="M281.31 53.1034H279.104V55.3103H281.31V53.1034Z" fill="black"/>
<path d="M281.31 55.3103H279.104V57.5172H281.31V55.3103Z" fill="black"/>
<path d="M281.31 64.1379H279.104V66.3448H281.31V64.1379Z" fill="black"/>
<path d="M281.31 72.9655H279.104V75.1724H281.31V72.9655Z" fill="black"/>
<path d="M281.31 79.5862H279.104V81.7931H281.31V79.5862Z" fill="black"/>
<path d="M281.31 81.7931H279.104V84H281.31V81.7931Z" fill="black"/>
<path d="M283.517 22.2069H281.311V24.4138H283.517V22.2069Z" fill="black"/>
<path d="M283.517 24.4138H281.311V26.6207H283.517V24.4138Z" fill="black"/>
<path d="M283.517 26.6207H281.311V28.8276H283.517V26.6207Z" fill="black"/>
<path d="M283.517 31.0345H281.311V33.2414H283.517V31.0345Z" fill="black"/>
<path d="M283.517 33.2414H281.311V35.4483H283.517V33.2414Z" fill="black"/>
<path d="M283.517 37.6552H281.311V39.8621H283.517V37.6552Z" fill="black"/>
<path d="M283.517 39.8621H281.311V42.069H283.517V39.8621Z" fill="black"/>
<path d="M283.517 42.069H281.311V44.2759H283.517V42.069Z" fill="black"/>
<path d="M283.517 44.2759H281.311V46.4828H283.517V44.2759Z" fill="black"/>
<path d="M283.517 46.4828H281.311V48.6897H283.517V46.4828Z" fill="black"/>
<path d="M283.517 48.6897H281.311V50.8966H283.517V48.6897Z" fill="black"/>
<path d="M283.517 53.1034H281.311V55.3103H283.517V53.1034Z" fill="black"/>
<path d="M283.517 55.3103H281.311V57.5172H283.517V55.3103Z" fill="black"/>
<path d="M283.517 59.7241H281.311V61.931H283.517V59.7241Z" fill="black"/>
<path d="M283.517 61.931H281.311V64.1379H283.517V61.931Z" fill="black"/>
<path d="M283.517 64.1379H281.311V66.3448H283.517V64.1379Z" fill="black"/>
<path d="M283.517 66.3448H281.311V68.5517H283.517V66.3448Z" fill="black"/>
<path d="M283.517 70.7586H281.311V72.9655H283.517V70.7586Z" fill="black"/>
<path d="M283.517 72.9655H281.311V75.1724H283.517V72.9655Z" fill="black"/>
<path d="M283.517 75.1724H281.311V77.3793H283.517V75.1724Z" fill="black"/>
<path d="M283.517 81.7931H281.311V84H283.517V81.7931Z" fill="black"/>
<path d="M285.724 20H283.517V22.2069H285.724V20Z" fill="black"/>
<path d="M285.724 22.2069H283.517V24.4138H285.724V22.2069Z" fill="black"/>
<path d="M285.724 28.8276H283.517V31.0345H285.724V28.8276Z" fill="black"/>
<path d="M285.724 35.4483H283.517V37.6552H285.724V35.4483Z" fill="black"/>
<path d="M285.724 37.6552H283.517V39.8621H285.724V37.6552Z" fill="black"/>
<path d="M285.724 39.8621H283.517V42.069H285.724V39.8621Z" fill="black"/>
<path d="M285.724 42.069H283.517V44.2759H285.724V42.069Z" fill="black"/>
<path d="M285.724 44.2759H283.517V46.4828H285.724V44.2759Z" fill="black"/>
<path d="M285.724 46.4828H283.517V48.6897H285.724V46.4828Z" fill="black"/>
<path d="M285.724 48.6897H283.517V50.8966H285.724V48.6897Z" fill="black"/>
<path d="M285.724 53.1034H283.517V55.3103H285.724V53.1034Z" fill="black"/>
<path d="M285.724 55.3103H283.517V57.5172H285.724V55.3103Z" fill="black"/>
<path d="M285.724 57.5172H283.517V59.7241H285.724V57.5172Z" fill="black"/>
<path d="M285.724 59.7241H283.517V61.931H285.724V59.7241Z" fill="black"/>
<path d="M285.724 61.931H283.517V64.1379H285.724V61.931Z" fill="black"/>
<path d="M285.724 64.1379H283.517V66.3448H285.724V64.1379Z" fill="black"/>
<path d="M285.724 66.3448H283.517V68.5517H285.724V66.3448Z" fill="black"/>
<path d="M285.724 70.7586H283.517V72.9655H285.724V70.7586Z" fill="black"/>
<path d="M285.724 72.9655H283.517V75.1724H285.724V72.9655Z" fill="black"/>
<path d="M285.724 75.1724H283.517V77.3793H285.724V75.1724Z" fill="black"/>
<path d="M285.724 79.5862H283.517V81.7931H285.724V79.5862Z" fill="black"/>
<path d="M285.724 81.7931H283.517V84H285.724V81.7931Z" fill="black"/>
<path d="M287.931 20H285.724V22.2069H287.931V20Z" fill="black"/>
<path d="M287.931 22.2069H285.724V24.4138H287.931V22.2069Z" fill="black"/>
<path d="M287.931 28.8276H285.724V31.0345H287.931V28.8276Z" fill="black"/>
<path d="M287.931 31.0345H285.724V33.2414H287.931V31.0345Z" fill="black"/>
<path d="M287.931 33.2414H285.724V35.4483H287.931V33.2414Z" fill="black"/>
<path d="M287.931 35.4483H285.724V37.6552H287.931V35.4483Z" fill="black"/>
<path d="M287.931 39.8621H285.724V42.069H287.931V39.8621Z" fill="black"/>
<path d="M287.931 50.8966H285.724V53.1035H287.931V50.8966Z" fill="black"/>
<path d="M287.931 53.1034H285.724V55.3103H287.931V53.1034Z" fill="black"/>
<path d="M287.931 59.7241H285.724V61.931H287.931V59.7241Z" fill="black"/>
<path d="M287.931 61.931H285.724V64.1379H287.931V61.931Z" fill="black"/>
<path d="M287.931 68.5517H285.724V70.7586H287.931V68.5517Z" fill="black"/>
<path d="M287.931 70.7586H285.724V72.9655H287.931V70.7586Z" fill="black"/>
<path d="M287.931 75.1724H285.724V77.3793H287.931V75.1724Z" fill="black"/>
<path d="M290.138 20H287.931V22.2069H290.138V20Z" fill="black"/>
<path d="M290.138 22.2069H287.931V24.4138H290.138V22.2069Z" fill="black"/>
<path d="M290.138 24.4138H287.931V26.6207H290.138V24.4138Z" fill="black"/>
<path d="M290.138 28.8276H287.931V31.0345H290.138V28.8276Z" fill="black"/>
<path d="M290.138 31.0345H287.931V33.2414H290.138V31.0345Z" fill="black"/>
<path d="M290.138 46.4828H287.931V48.6897H290.138V46.4828Z" fill="black"/>
<path d="M290.138 55.3103H287.931V57.5172H290.138V55.3103Z" fill="black"/>
<path d="M290.138 61.931H287.931V64.1379H290.138V61.931Z" fill="black"/>
<path d="M290.138 64.1379H287.931V66.3448H290.138V64.1379Z" fill="black"/>
<path d="M290.138 66.3448H287.931V68.5517H290.138V66.3448Z" fill="black"/>
<path d="M290.138 68.5517H287.931V70.7586H290.138V68.5517Z" fill="black"/>
<path d="M290.138 75.1724H287.931V77.3793H290.138V75.1724Z" fill="black"/>
<path d="M290.138 77.3793H287.931V79.5862H290.138V77.3793Z" fill="black"/>
<path d="M290.138 81.7931H287.931V84H290.138V81.7931Z" fill="black"/>
<path d="M292.345 22.2069H290.138V24.4138H292.345V22.2069Z" fill="black"/>
<path d="M292.345 31.0345H290.138V33.2414H292.345V31.0345Z" fill="black"/>
<path d="M292.345 33.2414H290.138V35.4483H292.345V33.2414Z" fill="black"/>
<path d="M292.345 37.6552H290.138V39.8621H292.345V37.6552Z" fill="black"/>
<path d="M292.345 39.8621H290.138V42.069H292.345V39.8621Z" fill="black"/>
<path d="M292.345 42.069H290.138V44.2759H292.345V42.069Z" fill="black"/>
<path d="M292.345 44.2759H290.138V46.4828H292.345V44.2759Z" fill="black"/>
<path d="M292.345 46.4828H290.138V48.6897H292.345V46.4828Z" fill="black"/>
<path d="M292.345 50.8966H290.138V53.1035H292.345V50.8966Z" fill="black"/>
<path d="M292.345 53.1034H290.138V55.3103H292.345V53.1034Z" fill="black"/>
<path d="M292.345 55.3103H290.138V57.5172H292.345V55.3103Z" fill="black"/>
<path d="M292.345 57.5172H290.138V59.7241H292.345V57.5172Z" fill="black"/>
<path d="M292.345 64.1379H290.138V66.3448H292.345V64.1379Z" fill="black"/>
<path d="M292.345 66.3448H290.138V68.5517H292.345V66.3448Z" fill="black"/>
<path d="M292.345 68.5517H290.138V70.7586H292.345V68.5517Z" fill="black"/>
<path d="M292.345 70.7586H290.138V72.9655H292.345V70.7586Z" fill="black"/>
<path d="M292.345 72.9655H290.138V75.1724H292.345V72.9655Z" fill="black"/>
<path d="M292.345 75.1724H290.138V77.3793H292.345V75.1724Z" fill="black"/>
<path d="M292.345 77.3793H290.138V79.5862H292.345V77.3793Z" fill="black"/>
<path d="M292.345 79.5862H290.138V81.7931H292.345V79.5862Z" fill="black"/>
<path d="M292.345 81.7931H290.138V84H292.345V81.7931Z" fill="black"/>
<path d="M294.552 37.6552H292.345V39.8621H294.552V37.6552Z" fill="black"/>
<path d="M294.552 46.4828H292.345V48.6897H294.552V46.4828Z" fill="black"/>
<path d="M294.552 48.6897H292.345V50.8966H294.552V48.6897Z" fill="black"/>
<path d="M294.552 50.8966H292.345V53.1035H294.552V50.8966Z" fill="black"/>
<path d="M294.552 55.3103H292.345V57.5172H294.552V55.3103Z" fill="black"/>
<path d="M294.552 57.5172H292.345V59.7241H294.552V57.5172Z" fill="black"/>
<path d="M294.552 64.1379H292.345V66.3448H294.552V64.1379Z" fill="black"/>
<path d="M294.552 72.9655H292.345V75.1724H294.552V72.9655Z" fill="black"/>
<path d="M294.552 77.3793H292.345V79.5862H294.552V77.3793Z" fill="black"/>
<path d="M294.552 79.5862H292.345V81.7931H294.552V79.5862Z" fill="black"/>
<path d="M296.759 20H294.552V22.2069H296.759V20Z" fill="black"/>
<path d="M296.759 22.2069H294.552V24.4138H296.759V22.2069Z" fill="black"/>
<path d="M296.759 24.4138H294.552V26.6207H296.759V24.4138Z" fill="black"/>
<path d="M296.759 26.6207H294.552V28.8276H296.759V26.6207Z" fill="black"/>
<path d="M296.759 28.8276H294.552V31.0345H296.759V28.8276Z" fill="black"/>
<path d="M296.759 31.0345H294.552V33.2414H296.759V31.0345Z" fill="black"/>
<path d="M296.759 33.2414H294.552V35.4483H296.759V33.2414Z" fill="black"/>
<path d="M296.759 37.6552H294.552V39.8621H296.759V37.6552Z" fill="black"/>
<path d="M296.759 39.8621H294.552V42.069H296.759V39.8621Z" fill="black"/>
<path d="M296.759 46.4828H294.552V48.6897H296.759V46.4828Z" fill="black"/>
<path d="M296.759 48.6897H294.552V50.8966H296.759V48.6897Z" fill="black"/>
<path d="M296.759 55.3103H294.552V57.5172H296.759V55.3103Z" fill="black"/>
<path d="M296.759 57.5172H294.552V59.7241H296.759V57.5172Z" fill="black"/>
<path d="M296.759 59.7241H294.552V61.931H296.759V59.7241Z" fill="black"/>
<path d="M296.759 64.1379H294.552V66.3448H296.759V64.1379Z" fill="black"/>
<path d="M296.759 68.5517H294.552V70.7586H296.759V68.5517Z" fill="black"/>
<path d="M296.759 72.9655H294.552V75.1724H296.759V72.9655Z" fill="black"/>
<path d="M298.966 20H296.759V22.2069H298.966V20Z" fill="black"/>
<path d="M298.966 33.2414H296.759V35.4483H298.966V33.2414Z" fill="black"/>
<path d="M298.966 44.2759H296.759V46.4828H298.966V44.2759Z" fill="black"/>
<path d="M298.966 46.4828H296.759V48.6897H298.966V46.4828Z" fill="black"/>
<path d="M298.966 50.8966H296.759V53.1035H298.966V50.8966Z" fill="black"/>
<path d="M298.966 53.1034H296.759V55.3103H298.966V53.1034Z" fill="black"/>
<path d="M298.966 61.931H296.759V64.1379H298.966V61.931Z" fill="black"/>
<path d="M298.966 64.1379H296.759V66.3448H298.966V64.1379Z" fill="black"/>
<path d="M298.966 72.9655H296.759V75.1724H298.966V72.9655Z" fill="black"/>
<path d="M298.966 77.3793H296.759V79.5862H298.966V77.3793Z" fill="black"/>
<path d="M301.173 20H298.966V22.2069H301.173V20Z" fill="black"/>
<path d="M301.173 24.4138H298.966V26.6207H301.173V24.4138Z" fill="black"/>
<path d="M301.173 26.6207H298.966V28.8276H301.173V26.6207Z" fill="black"/>
<path d="M301.173 28.8276H298.966V31.0345H301.173V28.8276Z" fill="black"/>
<path d="M301.173 33.2414H298.966V35.4483H301.173V33.2414Z" fill="black"/>
<path d="M301.173 44.2759H298.966V46.4828H301.173V44.2759Z" fill="black"/>
<path d="M301.173 50.8966H298.966V53.1035H301.173V50.8966Z" fill="black"/>
<path d="M301.173 64.1379H298.966V66.3448H301.173V64.1379Z" fill="black"/>
<path d="M301.173 66.3448H298.966V68.5517H301.173V66.3448Z" fill="black"/>
<path d="M301.173 68.5517H298.966V70.7586H301.173V68.5517Z" fill="black"/>
<path d="M301.173 70.7586H298.966V72.9655H301.173V70.7586Z" fill="black"/>
<path d="M301.173 72.9655H298.966V75.1724H301.173V72.9655Z" fill="black"/>
<path d="M301.173 75.1724H298.966V77.3793H301.173V75.1724Z" fill="black"/>
<path d="M301.173 77.3793H298.966V79.5862H301.173V77.3793Z" fill="black"/>
<path d="M301.173 79.5862H298.966V81.7931H301.173V79.5862Z" fill="black"/>
<path d="M301.173 81.7931H298.966V84H301.173V81.7931Z" fill="black"/>
<path d="M303.379 20H301.172V22.2069H303.379V20Z" fill="black"/>
<path d="M303.379 24.4138H301.172V26.6207H303.379V24.4138Z" fill="black"/>
<path d="M303.379 26.6207H301.172V28.8276H303.379V26.6207Z" fill="black"/>
<path d="M303.379 28.8276H301.172V31.0345H303.379V28.8276Z" fill="black"/>
<path d="M303.379 33.2414H301.172V35.4483H303.379V33.2414Z" fill="black"/>
<path d="M303.379 39.8621H301.172V42.069H303.379V39.8621Z" fill="black"/>
<path d="M303.379 46.4828H301.172V48.6897H303.379V46.4828Z" fill="black"/>
<path d="M303.379 48.6897H301.172V50.8966H303.379V48.6897Z" fill="black"/>
<path d="M303.379 50.8966H301.172V53.1035H303.379V50.8966Z" fill="black"/>
<path d="M303.379 53.1034H301.172V55.3103H303.379V53.1034Z" fill="black"/>
<path d="M303.379 55.3103H301.172V57.5172H303.379V55.3103Z" fill="black"/>
<path d="M303.379 57.5172H301.172V59.7241H303.379V57.5172Z" fill="black"/>
<path d="M303.379 61.931H301.172V64.1379H303.379V61.931Z" fill="black"/>
<path d="M303.379 68.5517H301.172V70.7586H303.379V68.5517Z" fill="black"/>
<path d="M303.379 70.7586H301.172V72.9655H303.379V70.7586Z" fill="black"/>
<path d="M303.379 77.3793H301.172V79.5862H303.379V77.3793Z" fill="black"/>
<path d="M305.586 20H303.379V22.2069H305.586V20Z" fill="black"/>
<path d="M305.586 24.4138H303.379V26.6207H305.586V24.4138Z" fill="black"/>
<path d="M305.586 26.6207H303.379V28.8276H305.586V26.6207Z" fill="black"/>
<path d="M305.586 28.8276H303.379V31.0345H305.586V28.8276Z" fill="black"/>
<path d="M305.586 33.2414H303.379V35.4483H305.586V33.2414Z" fill="black"/>
<path d="M305.586 37.6552H303.379V39.8621H305.586V37.6552Z" fill="black"/>
<path d="M305.586 42.069H303.379V44.2759H305.586V42.069Z" fill="black"/>
<path d="M305.586 57.5172H303.379V59.7241H305.586V57.5172Z" fill="black"/>
<path d="M305.586 66.3448H303.379V68.5517H305.586V66.3448Z" fill="black"/>
<path d="M305.586 75.1724H303.379V77.3793H305.586V75.1724Z" fill="black"/>
<path d="M307.793 20H305.586V22.2069H307.793V20Z" fill="black"/>
<path d="M307.793 33.2414H305.586V35.4483H307.793V33.2414Z" fill="black"/>
<path d="M307.793 42.069H305.586V44.2759H307.793V42.069Z" fill="black"/>
<path d="M307.793 44.2759H305.586V46.4828H307.793V44.2759Z" fill="black"/>
<path d="M307.793 46.4828H305.586V48.6897H307.793V46.4828Z" fill="black"/>
<path d="M307.793 50.8966H305.586V53.1035H307.793V50.8966Z" fill="black"/>
<path d="M307.793 53.1034H305.586V55.3103H307.793V53.1034Z" fill="black"/>
<path d="M307.793 55.3103H305.586V57.5172H307.793V55.3103Z" fill="black"/>
<path d="M307.793 59.7241H305.586V61.931H307.793V59.7241Z" fill="black"/>
<path d="M307.793 61.931H305.586V64.1379H307.793V61.931Z" fill="black"/>
<path d="M307.793 66.3448H305.586V68.5517H307.793V66.3448Z" fill="black"/>
<path d="M307.793 68.5517H305.586V70.7586H307.793V68.5517Z" fill="black"/>
<path d="M307.793 70.7586H305.586V72.9655H307.793V70.7586Z" fill="black"/>
<path d="M307.793 72.9655H305.586V75.1724H307.793V72.9655Z" fill="black"/>
<path d="M307.793 75.1724H305.586V77.3793H307.793V75.1724Z" fill="black"/>
<path d="M307.793 79.5862H305.586V81.7931H307.793V79.5862Z" fill="black"/>
<path d="M307.793 81.7931H305.586V84H307.793V81.7931Z" fill="black"/>
<path d="M310 20H307.793V22.2069H310V20Z" fill="black"/>
<path d="M310 22.2069H307.793V24.4138H310V22.2069Z" fill="black"/>
<path d="M310 24.4138H307.793V26.6207H310V24.4138Z" fill="black"/>
<path d="M310 26.6207H307.793V28.8276H310V26.6207Z" fill="black"/>
<path d="M310 28.8276H307.793V31.0345H310V28.8276Z" fill="black"/>
<path d="M310 31.0345H307.793V33.2414H310V31.0345Z" fill="black"/>
<path d="M310 33.2414H307.793V35.4483H310V33.2414Z" fill="black"/>
<path d="M310 39.8621H307.793V42.069H310V39.8621Z" fill="black"/>
<path d="M310 42.069H307.793V44.2759H310V42.069Z" fill="black"/>
<path d="M310 46.4828H307.793V48.6897H310V46.4828Z" fill="black"/>
<path d="M310 48.6897H307.793V50.8966H310V48.6897Z" fill="black"/>
<path d="M310 50.8966H307.793V53.1035H310V50.8966Z" fill="black"/>
<path d="M310 55.3103H307.793V57.5172H310V55.3103Z" fill="black"/>
<path d="M310 57.5172H307.793V59.7241H310V57.5172Z" fill="black"/>
<path d="M310 59.7241H307.793V61.931H310V59.7241Z" fill="black"/>
<path d="M310 66.3448H307.793V68.5517H310V66.3448Z" fill="black"/>
<path d="M310 68.5517H307.793V70.7586H310V68.5517Z" fill="black"/>
<path d="M310 70.7586H307.793V72.9655H310V70.7586Z" fill="black"/>
<path d="M310 72.9655H307.793V75.1724H310V72.9655Z" fill="black"/>
<path d="M310 75.1724H307.793V77.3793H310V75.1724Z" fill="black"/>
<path d="M310 77.3793H307.793V79.5862H310V77.3793Z" fill="black"/>
<path d="M310 81.7931H307.793V84H310V81.7931Z" fill="black"/>
<g clip-path="url(#clip1)">
<mask id="path-451-inside-1" fill="white">
<path d="M32.5935 32.5935C22.4198 42.7673 21.4206 58.6415 29.5959 69.935C30.3939 71.0373 30.7929 71.5884 31.4913 71.9048C32.0471 72.1565 32.8557 72.2209 33.4442 72.0602C34.1839 71.8582 34.7433 71.2989 35.8619 70.1802L70.1802 35.8619C71.2989 34.7432 71.8582 34.1839 72.0602 33.4442C72.2209 32.8556 72.1565 32.047 71.9048 31.4913C71.5884 30.7929 71.0373 30.3939 69.935 29.5959C58.6415 21.4205 42.7673 22.4197 32.5935 32.5935Z"/>
</mask>
<path d="M29.5959 69.935L26.0858 72.476L29.5959 69.935ZM69.935 29.5959L72.476 26.0858L72.476 26.0858L69.935 29.5959ZM31.4913 71.9048L33.2793 67.9575L33.2793 67.9575L31.4913 71.9048ZM33.4442 72.0602L32.3029 67.8798L32.3029 67.8798L33.4442 72.0602ZM71.9048 31.4913L67.9575 33.2793L67.9575 33.2793L71.9048 31.4913ZM72.0602 33.4442L67.8799 32.3029L67.8798 32.3029L72.0602 33.4442ZM33.1061 67.394C26.1591 57.7974 27.0129 44.3025 35.6577 35.6577L29.5294 29.5294C17.8266 41.2322 16.682 59.4855 26.0858 72.476L33.1061 67.394ZM35.6577 35.6577C44.3025 27.0129 57.7974 26.1591 67.394 33.1061L72.476 26.0858C59.4855 16.682 41.2322 17.8266 29.5294 29.5294L35.6577 35.6577ZM38.9261 73.2443L73.2443 38.9261L67.1161 32.7978L32.7978 67.1161L38.9261 73.2443ZM26.0858 72.476C26.6663 73.2779 27.7404 74.9629 29.7033 75.852L33.2793 67.9575C33.4065 68.0151 33.5344 68.0916 33.647 68.1779C33.7512 68.2576 33.7998 68.3133 33.7857 68.2979C33.7654 68.2755 33.7064 68.2072 33.5829 68.0444C33.4576 67.8792 33.3137 67.6807 33.1061 67.394L26.0858 72.476ZM32.7978 67.1161C32.5096 67.4043 32.2969 67.6167 32.112 67.7946C31.9277 67.9719 31.8232 68.064 31.7645 68.1121C31.71 68.1568 31.7429 68.1235 31.8444 68.0661C31.9591 68.0013 32.1168 67.9307 32.3029 67.8798L34.5855 76.2405C35.7398 75.9254 36.6033 75.3517 37.2574 74.8158C37.8339 74.3434 38.4264 73.744 38.9261 73.2443L32.7978 67.1161ZM29.7033 75.852C31.1785 76.5203 33.0232 76.667 34.5855 76.2405L32.3029 67.8798C32.4619 67.8364 32.5785 67.8229 32.6426 67.8181C32.7101 67.813 32.7608 67.8144 32.7992 67.8175C32.8376 67.8205 32.8878 67.8271 32.9537 67.8428C33.0162 67.8577 33.1292 67.8895 33.2793 67.9575L29.7033 75.852ZM67.394 33.1061C67.6807 33.3136 67.8792 33.4576 68.0444 33.5829C68.2072 33.7064 68.2755 33.7653 68.2979 33.7857C68.3133 33.7997 68.2576 33.7511 68.1779 33.647C68.0916 33.5344 68.0151 33.4065 67.9575 33.2793L75.8521 29.7033C74.9629 27.7404 73.2779 26.6663 72.476 26.0858L67.394 33.1061ZM73.2443 38.9261C73.744 38.4263 74.3435 37.8339 74.8158 37.2573C75.3517 36.6033 75.9254 35.7398 76.2405 34.5855L67.8798 32.3029C67.9307 32.1167 68.0013 31.9591 68.0662 31.8444C68.1235 31.7429 68.1568 31.71 68.1121 31.7645C68.064 31.8232 67.9719 31.9277 67.7947 32.112C67.6167 32.2969 67.4043 32.5096 67.1161 32.7978L73.2443 38.9261ZM67.9575 33.2793C67.8895 33.1292 67.8577 33.0162 67.8428 32.9537C67.8271 32.8878 67.8205 32.8375 67.8175 32.7992C67.8144 32.7608 67.813 32.7101 67.8181 32.6426C67.8229 32.5785 67.8364 32.4619 67.8799 32.3029L76.2405 34.5855C76.6671 33.0231 76.5203 31.1785 75.852 29.7033L67.9575 33.2793Z" fill="black" mask="url(#path-451-inside-1)"/>
<path d="M60.1414 42.8367L42.8368 60.1414C38.1925 55.1252 34.9682 49.7883 33.41 45.1138C31.6431 39.8131 32.1982 36.0532 34.1257 34.1257C36.0532 32.1981 39.8131 31.6431 45.1138 33.41C49.7884 34.9681 55.1252 38.1925 60.1414 42.8367Z" stroke="black" stroke-width="4.33333"/>
<path d="M57.1069 57.1066L72.4276 72.4273" stroke="black" stroke-width="4.33333" stroke-linecap="round"/>
</g>
</g>
<defs>
<clipPath id="clip0">
<rect width="330" height="104" fill="white"/>
</clipPath>
<clipPath id="clip1">
<rect width="69.3333" height="69.3333" fill="white" transform="translate(2.97363 52) rotate(-45)"/>
</clipPath>
</defs>
</svg>
