<svg width="108" height="108" viewBox="0 0 108 108" fill="none" xmlns="http://www.w3.org/2000/svg">
<g clip-path="url(#clip0_1797_13071)">
<g clip-path="url(#clip1_1797_13071)">
<rect width="108" height="108" fill="url(#paint0_linear_1797_13071)"/>
<path d="M108 99C95.9271 99 87.5143 91.9154 81.6922 82.0408C75.8431 72.1202 72.9839 59.9089 72.1234 51.2374L71.9554 48.7258L71.9549 48.7184C71.2954 39.3734 63.5105 32 54 32C44.4895 32 36.7046 39.3734 36.0451 48.7184L36.0446 48.7258L35.8766 51.2374C35.0161 59.9088 32.1569 72.1202 26.3078 82.0408C20.4857 91.9154 12.0729 99 0 99V108H108V99Z" fill="url(#paint1_linear_1797_13071)"/>
<ellipse cx="54" cy="49" rx="10" ry="7" fill="#B3E5FC"/>
<ellipse cx="49" cy="49" rx="3" ry="4" fill="#0288D1"/>
<ellipse cx="59" cy="49" rx="3" ry="4" fill="#0288D1"/>
</g>
<g clip-path="url(#clip2_1797_13071)">
<g filter="url(#filter0_ddi_1797_13071)">
<path fill-rule="evenodd" clip-rule="evenodd" d="M108 108V103C80.0286 103 69.9167 69.6705 68.1365 51.5674L67.9648 49C67.4521 41.7347 61.3958 36 54 36C46.6042 36 40.5479 41.7347 40.0352 49L39.8635 51.5674C38.0833 69.6705 27.9714 103 0 103V108H108ZM52 49C52 51.2091 50.6569 53 49 53C47.3431 53 46 51.2091 46 49C46 46.7909 47.3431 45 49 45C50.6569 45 52 46.7909 52 49ZM59 53C60.6569 53 62 51.2091 62 49C62 46.7909 60.6569 45 59 45C57.3431 45 56 46.7909 56 49C56 51.2091 57.3431 53 59 53Z" fill="url(#paint2_linear_1797_13071)"/>
</g>
</g>
</g>
<defs>
<filter id="filter0_ddi_1797_13071" x="-4" y="34" width="118" height="80" filterUnits="userSpaceOnUse" color-interpolation-filters="sRGB">
<feFlood flood-opacity="0" result="BackgroundImageFix"/>
<feColorMatrix in="SourceAlpha" type="matrix" values="0 0 0 0 0 0 0 0 0 0 0 0 0 0 0 0 0 0 127 0" result="hardAlpha"/>
<feOffset dx="2" dy="2"/>
<feGaussianBlur stdDeviation="2"/>
<feColorMatrix type="matrix" values="0 0 0 0 0.00392157 0 0 0 0 0.341176 0 0 0 0 0.607843 0 0 0 0.25 0"/>
<feBlend mode="multiply" in2="BackgroundImageFix" result="effect1_dropShadow_1797_13071"/>
<feColorMatrix in="SourceAlpha" type="matrix" values="0 0 0 0 0 0 0 0 0 0 0 0 0 0 0 0 0 0 127 0" result="hardAlpha"/>
<feOffset dy="2"/>
<feGaussianBlur stdDeviation="2"/>
<feColorMatrix type="matrix" values="0 0 0 0 0.00392157 0 0 0 0 0.341176 0 0 0 0 0.607843 0 0 0 0.25 0"/>
<feBlend mode="multiply" in2="effect1_dropShadow_1797_13071" result="effect2_dropShadow_1797_13071"/>
<feBlend mode="normal" in="SourceGraphic" in2="effect2_dropShadow_1797_13071" result="shape"/>
<feColorMatrix in="SourceAlpha" type="matrix" values="0 0 0 0 0 0 0 0 0 0 0 0 0 0 0 0 0 0 127 0" result="hardAlpha"/>
<feOffset dy="2"/>
<feComposite in2="hardAlpha" operator="arithmetic" k2="-1" k3="1"/>
<feColorMatrix type="matrix" values="0 0 0 0 1 0 0 0 0 1 0 0 0 0 1 0 0 0 0.2 0"/>
<feBlend mode="normal" in2="shape" result="effect3_innerShadow_1797_13071"/>
</filter>
<linearGradient id="paint0_linear_1797_13071" x1="54" y1="0" x2="54" y2="108" gradientUnits="userSpaceOnUse">
<stop stop-color="#90CAF9"/>
<stop offset="1" stop-color="#64B5F6"/>
</linearGradient>
<linearGradient id="paint1_linear_1797_13071" x1="54" y1="-3.38805e-07" x2="54" y2="108" gradientUnits="userSpaceOnUse">
<stop stop-color="#90CAF9"/>
<stop offset="1" stop-color="#64B5F6"/>
</linearGradient>
<linearGradient id="paint2_linear_1797_13071" x1="54" y1="36" x2="54" y2="108" gradientUnits="userSpaceOnUse">
<stop stop-color="#E3F2FD"/>
<stop offset="0.770833" stop-color="#90CAF9"/>
<stop offset="1" stop-color="#64B5F6"/>
</linearGradient>
<clipPath id="clip0_1797_13071">
<rect width="108" height="108" fill="white"/>
</clipPath>
<clipPath id="clip1_1797_13071">
<rect width="108" height="108" fill="white"/>
</clipPath>
<clipPath id="clip2_1797_13071">
<rect width="108" height="108" fill="white"/>
</clipPath>
</defs>
</svg>
