<svg width="366" height="727" viewBox="0 0 366 727" fill="none" xmlns="http://www.w3.org/2000/svg">
<g filter="url(#filter0_dd)">
<rect x="3" y="3" width="360" height="720" fill="#E6F1FA"/>
<rect x="147" y="715" width="72" height="2" rx="1" fill="black" fill-opacity="0.6"/>
<path d="M3 3H363V35H3V3Z" fill="#B5D6F1"/>
<mask id="mask0" mask-type="alpha" maskUnits="userSpaceOnUse" x="20" y="12" width="325" height="14">
<path fill-rule="evenodd" clip-rule="evenodd" d="M344.333 15.1666C344.333 14.3382 343.662 13.6666 342.833 13.6666H342.333V12.3333H338.333V13.6666H337.833C337.005 13.6666 336.333 14.3382 336.333 15.1666V24.1666C336.333 24.9951 337.005 25.6666 337.833 25.6666H342.833C343.662 25.6666 344.333 24.9951 344.333 24.1666V15.1666ZM309.522 16.1447C309.752 15.8568 309.705 15.4297 309.401 15.2204C308.325 14.4782 305.779 13 302.333 13C298.883 13 296.341 14.4777 295.265 15.2201C294.962 15.4296 294.914 15.8568 295.145 16.1447L301.314 23.8423C301.837 24.497 302.83 24.497 303.353 23.8423L309.522 16.1447ZM22.5889 24H24.2432V14.0127H24.0312L20.1484 15.4414V16.8428L22.5889 16.0088V24ZM27.7021 24H34.3945V22.6738H29.7734L32.207 20.0693C32.8451 19.3766 33.3031 18.7591 33.5811 18.2168C33.8636 17.6699 34.0049 17.1481 34.0049 16.6513C34.0049 15.7946 33.7246 15.1247 33.1641 14.6416C32.6081 14.154 31.847 13.9101 30.8809 13.9101C30.2109 13.9101 29.6185 14.0446 29.1035 14.3135C28.5931 14.5823 28.1989 14.9606 27.9209 15.4482C27.6475 15.9313 27.5107 16.4759 27.5107 17.082H29.1719C29.1719 16.5123 29.32 16.0635 29.6162 15.7353C29.9124 15.4072 30.3294 15.2431 30.8672 15.2431C31.3184 15.2431 31.6761 15.389 31.9404 15.6806C32.2093 15.9723 32.3438 16.3551 32.3438 16.8291C32.3438 17.1891 32.2412 17.5491 32.0361 17.9092C31.8356 18.2646 31.4961 18.709 31.0176 19.2422L27.7021 22.8584V24ZM37.4844 22.5166C37.3158 22.3388 37.0765 22.25 36.7666 22.25C36.4613 22.25 36.2243 22.3388 36.0557 22.5166C35.887 22.6898 35.8027 22.9085 35.8027 23.1728C35.8027 23.4372 35.8893 23.6536 36.0625 23.8222C36.2357 23.9909 36.4704 24.0752 36.7666 24.0752C37.0765 24.0752 37.3158 23.9909 37.4844 23.8222C37.653 23.6491 37.7373 23.4326 37.7373 23.1728C37.7373 22.9085 37.653 22.6898 37.4844 22.5166ZM37.4844 16.7129C37.3158 16.5351 37.0765 16.4463 36.7666 16.4463C36.4613 16.4463 36.2243 16.5351 36.0557 16.7129C35.887 16.886 35.8027 17.1048 35.8027 17.3691C35.8027 17.6334 35.8893 17.8499 36.0625 18.0185C36.2357 18.1872 36.4704 18.2715 36.7666 18.2715C37.0765 18.2715 37.3158 18.1872 37.4844 18.0185C37.653 17.8454 37.7373 17.6289 37.7373 17.3691C37.7373 17.1048 37.653 16.886 37.4844 16.7129ZM42.3105 18.2646H41.2988V19.5771H42.2764C42.887 19.5771 43.3473 19.7184 43.6572 20.001C43.9671 20.2835 44.1221 20.6868 44.1221 21.2109C44.1221 21.7304 43.974 22.1269 43.6777 22.4004C43.3815 22.6738 42.9759 22.8105 42.4609 22.8105C41.9642 22.8105 41.5677 22.6738 41.2715 22.4004C40.9798 22.1269 40.834 21.7715 40.834 21.334H39.1729C39.1729 22.1816 39.4782 22.8607 40.0889 23.3711C40.6995 23.8815 41.4834 24.1367 42.4404 24.1367C43.4385 24.1367 44.2428 23.8724 44.8535 23.3437C45.4688 22.8151 45.7764 22.1041 45.7764 21.2109C45.7764 20.6549 45.6328 20.1764 45.3457 19.7754C45.0632 19.3743 44.6484 19.0804 44.1016 18.8935C44.5527 18.693 44.9196 18.3968 45.2021 18.0049C45.4893 17.6084 45.6328 17.1868 45.6328 16.7402C45.6328 15.8515 45.348 15.1588 44.7783 14.6621C44.2132 14.1608 43.4339 13.9101 42.4404 13.9101C41.8389 13.9101 41.2943 14.0286 40.8066 14.2656C40.3236 14.498 39.9453 14.8239 39.6719 15.2431C39.403 15.6624 39.2686 16.1273 39.2686 16.6377H40.9297C40.9297 16.223 41.0732 15.888 41.3604 15.6328C41.6475 15.373 42.0143 15.2431 42.4609 15.2431C42.9714 15.2431 43.3496 15.3753 43.5957 15.6396C43.8464 15.8994 43.9717 16.2663 43.9717 16.7402C43.9717 17.2324 43.8213 17.6084 43.5205 17.8681C43.2243 18.1279 42.821 18.2601 42.3105 18.2646ZM53.0156 23.0498C53.5534 22.3206 53.8223 21.2405 53.8223 19.8095V18.0869C53.8086 16.6969 53.5329 15.6533 52.9951 14.956C52.4619 14.2588 51.6507 13.9101 50.5615 13.9101C49.4632 13.9101 48.6452 14.2679 48.1074 14.9834C47.5742 15.6989 47.3076 16.7721 47.3076 18.2031V19.9258C47.3213 21.3157 47.5993 22.3662 48.1416 23.0771C48.6885 23.7835 49.4997 24.1367 50.5752 24.1367C51.6689 24.1367 52.4824 23.7744 53.0156 23.0498ZM51.7783 15.8994C52.0335 16.3323 52.1611 17.0159 52.1611 17.9502V20.1992C52.1475 21.097 52.013 21.7578 51.7578 22.1816C51.5026 22.6009 51.1084 22.8105 50.5752 22.8105C50.0192 22.8105 49.6113 22.5827 49.3516 22.1269C49.0918 21.6712 48.9619 20.9785 48.9619 20.0488V17.7929C48.9756 16.9179 49.11 16.2754 49.3652 15.8652C49.6204 15.4505 50.0192 15.2431 50.5615 15.2431C51.1175 15.2431 51.5231 15.4619 51.7783 15.8994ZM326.333 14.7475C326.333 13.8566 325.256 13.4105 324.626 14.0404L314.707 23.9595C314.077 24.5895 314.523 25.6666 315.414 25.6666H324.333C325.438 25.6666 326.333 24.7712 326.333 23.6666V14.7475Z" fill="black"/>
</mask>
<g mask="url(#mask0)">
<path d="M267 3H363V35H267V3Z" fill="black" fill-opacity="0.6"/>
<path d="M3 3H99V35H3V3Z" fill="black" fill-opacity="0.6"/>
</g>
<g clip-path="url(#clip0)">
<g filter="url(#filter1_dd)">
<rect x="7" y="431" width="352" height="288" rx="8" fill="white"/>
<path d="M47.6064 692.76C47.5062 693.822 47.1143 694.651 46.4307 695.248C45.7471 695.84 44.8379 696.137 43.7031 696.137C42.9102 696.137 42.2106 695.95 41.6045 695.576C41.0029 695.198 40.5381 694.662 40.21 693.97C39.8818 693.277 39.7109 692.473 39.6973 691.557V690.627C39.6973 689.688 39.8636 688.861 40.1963 688.146C40.529 687.43 41.0052 686.879 41.625 686.491C42.2493 686.104 42.9694 685.91 43.7852 685.91C44.8835 685.91 45.7676 686.209 46.4375 686.806C47.1074 687.403 47.4971 688.246 47.6064 689.335H45.8838C45.8018 688.619 45.5921 688.104 45.2549 687.79C44.9222 687.471 44.4323 687.312 43.7852 687.312C43.0332 687.312 42.4544 687.587 42.0488 688.139C41.6478 688.686 41.4427 689.49 41.4336 690.552V691.434C41.4336 692.509 41.625 693.329 42.0078 693.895C42.3952 694.46 42.9603 694.742 43.7031 694.742C44.3822 694.742 44.8926 694.59 45.2344 694.284C45.5762 693.979 45.7926 693.471 45.8838 692.76H47.6064ZM56.2295 693.683H52.374L51.5674 696H49.7695L53.5293 686.047H55.0811L58.8477 696H57.043L56.2295 693.683ZM52.8594 692.288H55.7441L54.3018 688.159L52.8594 692.288ZM69.3779 696H67.6484L63.2119 688.938V696H61.4824V686.047H63.2119L67.6621 693.136V686.047H69.3779V696ZM80.5166 692.76C80.4163 693.822 80.0244 694.651 79.3408 695.248C78.6572 695.84 77.748 696.137 76.6133 696.137C75.8203 696.137 75.1208 695.95 74.5146 695.576C73.9131 695.198 73.4482 694.662 73.1201 693.97C72.792 693.277 72.6211 692.473 72.6074 691.557V690.627C72.6074 689.688 72.7738 688.861 73.1064 688.146C73.4391 687.43 73.9154 686.879 74.5352 686.491C75.1595 686.104 75.8796 685.91 76.6953 685.91C77.7936 685.91 78.6777 686.209 79.3477 686.806C80.0176 687.403 80.4072 688.246 80.5166 689.335H78.7939C78.7119 688.619 78.5023 688.104 78.165 687.79C77.8324 687.471 77.3424 687.312 76.6953 687.312C75.9434 687.312 75.3646 687.587 74.959 688.139C74.5579 688.686 74.3529 689.49 74.3438 690.552V691.434C74.3438 692.509 74.5352 693.329 74.918 693.895C75.3053 694.46 75.8704 694.742 76.6133 694.742C77.2923 694.742 77.8027 694.59 78.1445 694.284C78.4863 693.979 78.7028 693.471 78.7939 692.76H80.5166ZM89.3857 691.557H85.2979V694.619H90.0762V696H83.5684V686.047H90.0283V687.441H85.2979V690.189H89.3857V691.557ZM94.7139 694.619H99.2324V696H92.9844V686.047H94.7139V694.619Z" fill="#0757B0"/>
<circle cx="183" cy="559" r="32" fill="#0757B0"/>
<path fill-rule="evenodd" clip-rule="evenodd" d="M191.715 547.705C191.595 547.705 191.475 547.675 191.37 547.615C188.49 546.13 186 545.5 183.015 545.5C180.045 545.5 177.225 546.205 174.66 547.615C174.3 547.81 173.85 547.675 173.64 547.315C173.445 546.955 173.58 546.49 173.94 546.295C176.73 544.78 179.79 544 183.015 544C186.21 544 189 544.705 192.06 546.28C192.435 546.475 192.57 546.925 192.375 547.285C192.24 547.555 191.985 547.705 191.715 547.705ZM170.25 555.58C170.1 555.58 169.95 555.535 169.815 555.445C169.47 555.205 169.395 554.74 169.635 554.395C171.12 552.295 173.01 550.645 175.26 549.49C179.97 547.06 186 547.045 190.725 549.475C192.975 550.63 194.865 552.265 196.35 554.35C196.59 554.68 196.515 555.16 196.17 555.4C195.825 555.64 195.36 555.565 195.12 555.22C193.77 553.33 192.06 551.845 190.035 550.81C185.73 548.605 180.225 548.605 175.935 550.825C173.895 551.875 172.185 553.375 170.835 555.265C170.715 555.475 170.49 555.58 170.25 555.58ZM179.1 573.46C179.235 573.61 179.43 573.685 179.625 573.685C179.82 573.685 180.015 573.61 180.18 573.46C180.465 573.16 180.465 572.695 180.18 572.395C179.025 571.225 178.365 570.49 177.405 568.765C176.49 567.145 176.01 565.15 176.01 562.99C176.01 559.36 179.145 556.405 183 556.405C186.855 556.405 189.99 559.36 189.99 562.99C189.99 563.41 190.32 563.74 190.74 563.74C191.16 563.74 191.49 563.41 191.49 562.99C191.49 558.535 187.68 554.905 183 554.905C178.32 554.905 174.51 558.535 174.51 562.99C174.51 565.405 175.05 567.655 176.085 569.5C177.09 571.315 177.795 572.155 179.1 573.46ZM190.38 570.91C188.595 570.91 187.02 570.46 185.73 569.575C183.495 568.06 182.16 565.6 182.16 562.99C182.16 562.57 182.49 562.24 182.91 562.24C183.33 562.24 183.66 562.57 183.66 562.99C183.66 565.105 184.74 567.1 186.57 568.33C187.635 569.05 188.88 569.395 190.38 569.395C190.74 569.395 191.34 569.35 191.94 569.245C192.345 569.17 192.735 569.44 192.81 569.86C192.885 570.265 192.615 570.655 192.195 570.73C191.34 570.895 190.59 570.91 190.38 570.91ZM187.17 573.97C187.23 573.985 187.305 574 187.365 574C187.68 574 187.995 573.775 188.07 573.43C188.175 573.04 187.95 572.62 187.545 572.515C185.43 571.93 184.065 571.15 182.64 569.74C180.825 567.94 179.835 565.54 179.835 562.975C179.835 561.37 181.23 560.065 182.955 560.065C184.68 560.065 186.075 561.37 186.075 562.975C186.075 565.405 188.145 567.385 190.695 567.385C193.245 567.385 195.315 565.405 195.315 562.975C195.315 556.495 189.765 551.23 182.94 551.23C178.095 551.23 173.67 553.945 171.675 558.13C171 559.555 170.655 561.19 170.655 562.99C170.655 565.015 171.015 566.965 171.75 568.93C171.885 569.305 172.32 569.515 172.71 569.365C173.1 569.23 173.295 568.795 173.145 568.405C172.245 566.005 172.14 564.16 172.14 562.99C172.14 561.43 172.44 560.005 173.025 558.79C174.78 555.115 178.68 552.745 182.94 552.745C188.94 552.745 193.815 557.335 193.815 562.99C193.815 564.595 192.42 565.9 190.695 565.9C188.97 565.9 187.575 564.595 187.575 562.99C187.575 560.56 185.505 558.58 182.955 558.58C180.405 558.58 178.335 560.56 178.335 562.99C178.335 565.96 179.49 568.735 181.59 570.82C183.225 572.425 184.785 573.31 187.17 573.97Z" fill="#E6F1FA"/>
<path d="M51.4959 611.524H53.7879V619H54.8799V611.524H57.1599V610.636H51.4959V611.524ZM64.7441 615.7C64.7441 613.624 63.2921 612.316 61.4201 612.316C59.5601 612.316 58.0961 613.624 58.0961 615.7C58.0961 617.788 59.5121 619.108 61.3721 619.108C63.2441 619.108 64.7441 617.788 64.7441 615.7ZM59.2121 615.7C59.2121 614.044 60.2561 613.264 61.4081 613.264C62.5361 613.264 63.6281 614.044 63.6281 615.7C63.6281 617.368 62.5121 618.148 61.3721 618.148C60.2321 618.148 59.2121 617.368 59.2121 615.7ZM72.0119 612.424H70.9199V616.036C70.9199 617.452 70.1639 618.148 69.0359 618.148C67.9319 618.148 67.1999 617.464 67.1999 616.132V612.424H66.1199V616.276C66.1199 618.16 67.3079 619.096 68.8199 619.096C69.6959 619.096 70.4999 618.712 70.9199 618.028V619H72.0119V612.424ZM73.4476 615.7C73.4476 617.788 74.7796 619.108 76.6516 619.108C78.2836 619.108 79.3516 618.196 79.6876 616.888H78.5116C78.2716 617.716 77.6236 618.184 76.6516 618.184C75.4516 618.184 74.5636 617.332 74.5636 615.7C74.5636 614.092 75.4516 613.24 76.6516 613.24C77.6236 613.24 78.2836 613.744 78.5116 614.536H79.6876C79.3516 613.156 78.2836 612.316 76.6516 612.316C74.7796 612.316 73.4476 613.636 73.4476 615.7ZM81.1447 619H82.2367V615.364C82.2367 613.948 83.0047 613.252 84.1207 613.252C85.2247 613.252 85.9567 613.936 85.9567 615.28V619H87.0367V615.124C87.0367 613.24 85.8727 612.304 84.4087 612.304C83.4847 612.304 82.6687 612.676 82.2367 613.372V610.12H81.1447V619ZM92.2597 617.2C92.2597 618.52 92.9197 619 94.0837 619H95.0677V618.076H94.2637C93.5917 618.076 93.3517 617.848 93.3517 617.2V613.324H95.0677V612.424H93.3517V610.768H92.2597V612.424H91.4077V613.324H92.2597V617.2ZM96.3908 619H97.4828V615.364C97.4828 613.948 98.2508 613.252 99.3668 613.252C100.471 613.252 101.203 613.936 101.203 615.28V619H102.283V615.124C102.283 613.24 101.119 612.304 99.6548 612.304C98.7308 612.304 97.9148 612.676 97.4828 613.372V610.12H96.3908V619ZM106.863 613.24C107.991 613.24 108.951 613.948 108.939 615.232H104.787C104.907 613.948 105.795 613.24 106.863 613.24ZM109.935 616.972H108.759C108.519 617.68 107.895 618.184 106.911 618.184C105.795 618.184 104.859 617.452 104.775 616.12H110.031C110.055 615.892 110.067 615.7 110.067 615.46C110.067 613.66 108.819 612.316 106.911 612.316C104.991 612.316 103.659 613.624 103.659 615.7C103.659 617.788 105.039 619.108 106.911 619.108C108.543 619.108 109.599 618.172 109.935 616.972ZM114.911 619H116.003V613.324H117.383V612.424H116.003V611.956C116.003 611.104 116.327 610.744 117.311 610.744V609.832C115.631 609.832 114.911 610.492 114.911 611.956V612.424H114.059V613.324H114.911V619ZM118.656 619H119.748V612.424H118.656V619ZM119.22 611.356C119.616 611.356 119.94 611.032 119.94 610.612C119.94 610.192 119.616 609.868 119.22 609.868C118.8 609.868 118.476 610.192 118.476 610.612C118.476 611.032 118.8 611.356 119.22 611.356ZM126.422 619H127.502V615.124C127.502 613.24 126.338 612.304 124.814 612.304C123.926 612.304 123.134 612.676 122.702 613.36V612.424H121.61V619H122.702V615.364C122.702 613.948 123.47 613.252 124.586 613.252C125.69 613.252 126.422 613.936 126.422 615.28V619ZM128.877 615.688C128.877 617.728 130.233 619.108 131.997 619.108C133.197 619.108 134.049 618.472 134.445 617.764V619.144C134.445 620.548 133.569 621.292 132.405 621.292C131.325 621.292 130.545 620.752 130.305 619.96H129.225C129.441 621.364 130.677 622.24 132.405 622.24C134.337 622.24 135.549 620.956 135.549 619.144V612.424H134.445V613.624C134.061 612.916 133.197 612.316 131.997 612.316C130.233 612.316 128.877 613.636 128.877 615.688ZM134.445 615.7C134.445 617.248 133.413 618.148 132.213 618.148C131.013 618.148 129.993 617.236 129.993 615.688C129.993 614.14 131.013 613.264 132.213 613.264C133.413 613.264 134.445 614.176 134.445 615.7ZM140.191 613.24C141.319 613.24 142.279 613.948 142.267 615.232H138.115C138.235 613.948 139.123 613.24 140.191 613.24ZM143.263 616.972H142.087C141.847 617.68 141.223 618.184 140.239 618.184C139.123 618.184 138.187 617.452 138.103 616.12H143.359C143.383 615.892 143.395 615.7 143.395 615.46C143.395 613.66 142.147 612.316 140.239 612.316C138.319 612.316 136.987 613.624 136.987 615.7C136.987 617.788 138.367 619.108 140.239 619.108C141.871 619.108 142.927 618.172 143.263 616.972ZM145.928 615.424C145.928 613.9 146.72 613.432 147.764 613.432H148.052V612.304C147.008 612.304 146.3 612.76 145.928 613.492V612.424H144.836V619H145.928V615.424ZM150.405 613.636V612.424H149.313V622.12H150.405V617.788C150.813 618.46 151.665 619.108 152.865 619.108C154.629 619.108 155.985 617.728 155.985 615.688C155.985 613.636 154.629 612.316 152.865 612.316C151.665 612.316 150.801 612.94 150.405 613.636ZM154.869 615.688C154.869 617.236 153.849 618.148 152.637 618.148C151.449 618.148 150.405 617.248 150.405 615.7C150.405 614.176 151.449 613.264 152.637 613.264C153.849 613.264 154.869 614.14 154.869 615.688ZM158.514 615.424C158.514 613.9 159.306 613.432 160.35 613.432H160.638V612.304C159.594 612.304 158.886 612.76 158.514 613.492V612.424H157.422V619H158.514V615.424ZM161.899 619H162.991V612.424H161.899V619ZM162.463 611.356C162.859 611.356 163.183 611.032 163.183 610.612C163.183 610.192 162.859 609.868 162.463 609.868C162.043 609.868 161.719 610.192 161.719 610.612C161.719 611.032 162.043 611.356 162.463 611.356ZM169.664 619H170.744V615.124C170.744 613.24 169.58 612.304 168.056 612.304C167.168 612.304 166.376 612.676 165.944 613.36V612.424H164.852V619H165.944V615.364C165.944 613.948 166.712 613.252 167.828 613.252C168.932 613.252 169.664 613.936 169.664 615.28V619ZM172.768 617.2C172.768 618.52 173.428 619 174.592 619H175.576V618.076H174.772C174.1 618.076 173.86 617.848 173.86 617.2V613.324H175.576V612.424H173.86V610.768H172.768V612.424H171.916V613.324H172.768V617.2ZM184.826 617.212C184.778 614.86 180.962 615.712 180.962 614.152C180.962 613.624 181.442 613.24 182.246 613.24C183.122 613.24 183.626 613.72 183.674 614.38H184.766C184.694 613.096 183.734 612.316 182.282 612.316C180.818 612.316 179.87 613.144 179.87 614.152C179.87 616.6 183.758 615.748 183.758 617.212C183.758 617.752 183.278 618.184 182.414 618.184C181.49 618.184 180.926 617.704 180.866 617.068H179.738C179.81 618.268 180.89 619.108 182.426 619.108C183.878 619.108 184.826 618.292 184.826 617.212ZM189.163 613.24C190.291 613.24 191.251 613.948 191.239 615.232H187.087C187.207 613.948 188.095 613.24 189.163 613.24ZM192.235 616.972H191.059C190.819 617.68 190.195 618.184 189.211 618.184C188.095 618.184 187.159 617.452 187.075 616.12H192.331C192.355 615.892 192.367 615.7 192.367 615.46C192.367 613.66 191.119 612.316 189.211 612.316C187.291 612.316 185.959 613.624 185.959 615.7C185.959 617.788 187.339 619.108 189.211 619.108C190.843 619.108 191.899 618.172 192.235 616.972ZM198.621 619H199.701V615.124C199.701 613.24 198.537 612.304 197.013 612.304C196.125 612.304 195.333 612.676 194.901 613.36V612.424H193.809V619H194.901V615.364C194.901 613.948 195.669 613.252 196.785 613.252C197.889 613.252 198.621 613.936 198.621 615.28V619ZM206.213 617.212C206.165 614.86 202.349 615.712 202.349 614.152C202.349 613.624 202.829 613.24 203.633 613.24C204.509 613.24 205.013 613.72 205.061 614.38H206.153C206.081 613.096 205.121 612.316 203.669 612.316C202.205 612.316 201.257 613.144 201.257 614.152C201.257 616.6 205.145 615.748 205.145 617.212C205.145 617.752 204.665 618.184 203.801 618.184C202.877 618.184 202.313 617.704 202.253 617.068H201.125C201.197 618.268 202.277 619.108 203.813 619.108C205.265 619.108 206.213 618.292 206.213 617.212ZM213.994 615.7C213.994 613.624 212.542 612.316 210.67 612.316C208.81 612.316 207.346 613.624 207.346 615.7C207.346 617.788 208.762 619.108 210.622 619.108C212.494 619.108 213.994 617.788 213.994 615.7ZM208.462 615.7C208.462 614.044 209.506 613.264 210.658 613.264C211.786 613.264 212.878 614.044 212.878 615.7C212.878 617.368 211.762 618.148 210.622 618.148C209.482 618.148 208.462 617.368 208.462 615.7ZM216.522 615.424C216.522 613.9 217.314 613.432 218.358 613.432H218.646V612.304C217.602 612.304 216.894 612.76 216.522 613.492V612.424H215.43V619H216.522V615.424ZM223.346 617.2C223.346 618.52 224.006 619 225.17 619H226.154V618.076H225.35C224.678 618.076 224.438 617.848 224.438 617.2V613.324H226.154V612.424H224.438V610.768H223.346V612.424H222.494V613.324H223.346V617.2ZM233.717 615.7C233.717 613.624 232.265 612.316 230.393 612.316C228.533 612.316 227.069 613.624 227.069 615.7C227.069 617.788 228.485 619.108 230.345 619.108C232.217 619.108 233.717 617.788 233.717 615.7ZM228.185 615.7C228.185 614.044 229.229 613.264 230.381 613.264C231.509 613.264 232.601 614.044 232.601 615.7C232.601 617.368 231.485 618.148 230.345 618.148C229.205 618.148 228.185 617.368 228.185 615.7ZM237.944 615.688C237.944 617.728 239.3 619.108 241.052 619.108C242.264 619.108 243.116 618.484 243.512 617.776V619H244.616V612.424H243.512V613.624C243.128 612.94 242.288 612.316 241.064 612.316C239.3 612.316 237.944 613.636 237.944 615.688ZM243.512 615.7C243.512 617.248 242.48 618.148 241.28 618.148C240.08 618.148 239.06 617.236 239.06 615.688C239.06 614.14 240.08 613.264 241.28 613.264C242.48 613.264 243.512 614.176 243.512 615.7ZM252.293 612.424H251.201V616.036C251.201 617.452 250.445 618.148 249.317 618.148C248.213 618.148 247.481 617.464 247.481 616.132V612.424H246.401V616.276C246.401 618.16 247.589 619.096 249.101 619.096C249.977 619.096 250.781 618.712 251.201 618.028V619H252.293V612.424ZM254.377 617.2C254.377 618.52 255.037 619 256.201 619H257.185V618.076H256.381C255.709 618.076 255.469 617.848 255.469 617.2V613.324H257.185V612.424H255.469V610.768H254.377V612.424H253.525V613.324H254.377V617.2ZM258.508 619H259.6V615.364C259.6 613.948 260.368 613.252 261.484 613.252C262.588 613.252 263.32 613.936 263.32 615.28V619H264.4V615.124C264.4 613.24 263.236 612.304 261.772 612.304C260.848 612.304 260.032 612.676 259.6 613.372V610.12H258.508V619ZM268.98 613.24C270.108 613.24 271.068 613.948 271.056 615.232H266.904C267.024 613.948 267.912 613.24 268.98 613.24ZM272.052 616.972H270.876C270.636 617.68 270.012 618.184 269.028 618.184C267.912 618.184 266.976 617.452 266.892 616.12H272.148C272.172 615.892 272.184 615.7 272.184 615.46C272.184 613.66 270.936 612.316 269.028 612.316C267.108 612.316 265.776 613.624 265.776 615.7C265.776 617.788 267.156 619.108 269.028 619.108C270.66 619.108 271.716 618.172 272.052 616.972ZM278.437 619H279.517V615.124C279.517 613.24 278.353 612.304 276.829 612.304C275.941 612.304 275.149 612.676 274.717 613.36V612.424H273.625V619H274.717V615.364C274.717 613.948 275.485 613.252 276.601 613.252C277.705 613.252 278.437 613.936 278.437 615.28V619ZM281.541 617.2C281.541 618.52 282.201 619 283.365 619H284.349V618.076H283.545C282.873 618.076 282.633 617.848 282.633 617.2V613.324H284.349V612.424H282.633V610.768H281.541V612.424H280.689V613.324H281.541V617.2ZM285.672 619H286.764V612.424H285.672V619ZM286.236 611.356C286.632 611.356 286.956 611.032 286.956 610.612C286.956 610.192 286.632 609.868 286.236 609.868C285.816 609.868 285.492 610.192 285.492 610.612C285.492 611.032 285.816 611.356 286.236 611.356ZM288.217 615.7C288.217 617.788 289.549 619.108 291.421 619.108C293.053 619.108 294.121 618.196 294.457 616.888H293.281C293.041 617.716 292.393 618.184 291.421 618.184C290.221 618.184 289.333 617.332 289.333 615.7C289.333 614.092 290.221 613.24 291.421 613.24C292.393 613.24 293.053 613.744 293.281 614.536H294.457C294.121 613.156 293.053 612.316 291.421 612.316C289.549 612.316 288.217 613.636 288.217 615.7ZM295.506 615.688C295.506 617.728 296.862 619.108 298.614 619.108C299.826 619.108 300.678 618.484 301.074 617.776V619H302.178V612.424H301.074V613.624C300.69 612.94 299.85 612.316 298.626 612.316C296.862 612.316 295.506 613.636 295.506 615.688ZM301.074 615.7C301.074 617.248 300.042 618.148 298.842 618.148C297.642 618.148 296.622 617.236 296.622 615.688C296.622 614.14 297.642 613.264 298.842 613.264C300.042 613.264 301.074 614.176 301.074 615.7ZM304.264 617.2C304.264 618.52 304.924 619 306.088 619H307.072V618.076H306.268C305.596 618.076 305.356 617.848 305.356 617.2V613.324H307.072V612.424H305.356V610.768H304.264V612.424H303.412V613.324H304.264V617.2ZM311.191 613.24C312.319 613.24 313.279 613.948 313.267 615.232H309.115C309.235 613.948 310.123 613.24 311.191 613.24ZM314.263 616.972H313.087C312.847 617.68 312.223 618.184 311.239 618.184C310.123 618.184 309.187 617.452 309.103 616.12H314.359C314.383 615.892 314.395 615.7 314.395 615.46C314.395 613.66 313.147 612.316 311.239 612.316C309.319 612.316 307.987 613.624 307.987 615.7C307.987 617.788 309.367 619.108 311.239 619.108C312.871 619.108 313.927 618.172 314.263 616.972Z" fill="#0757B0"/>
<path d="M137.554 490.02L140.114 490L143.214 479.48L146.134 490H148.714L152.834 476.1H150.394L147.494 487.36L144.594 476.1H142.034L138.914 487.42L136.034 476.1H133.614L137.554 490.02ZM162.544 476.08H154.864V490H162.544V488.14H157.144V483.88H161.944V482.02H157.144V477.94H162.544V476.08ZM165.502 476.1V490H172.482V488.16H167.782V476.1H165.502ZM173.779 483.02C173.779 487.2 176.959 490.12 180.879 490.12C183.779 490.12 186.279 488.68 187.339 485.96H184.599C183.859 487.44 182.539 488.14 180.879 488.14C178.119 488.14 176.119 486.16 176.119 483.02C176.119 479.88 178.119 477.92 180.879 477.92C182.539 477.92 183.859 478.62 184.599 480.1H187.339C186.279 477.38 183.779 475.92 180.879 475.92C176.959 475.92 173.779 478.86 173.779 483.02ZM203.598 483.02C203.598 478.86 200.458 475.92 196.498 475.92C192.578 475.92 189.398 478.86 189.398 483.02C189.398 487.2 192.578 490.14 196.498 490.14C200.458 490.14 203.598 487.2 203.598 483.02ZM191.738 483.02C191.738 479.88 193.738 477.92 196.498 477.92C199.258 477.92 201.258 479.88 201.258 483.02C201.258 486.16 199.258 488.16 196.498 488.16C193.738 488.16 191.738 486.16 191.738 483.02ZM205.991 490H208.271V480.48L212.531 490H214.111L218.351 480.48V490H220.631V476.1H218.191L213.331 487L208.451 476.1H205.991V490ZM231.458 476.08H223.778V490H231.458V488.14H226.058V483.88H230.858V482.02H226.058V477.94H231.458V476.08Z" fill="#0757B0"/>
</g>
</g>
</g>
<defs>
<filter id="filter0_dd" x="0" y="0.85" width="366" height="726" filterUnits="userSpaceOnUse" color-interpolation-filters="sRGB">
<feFlood flood-opacity="0" result="BackgroundImageFix"/>
<feColorMatrix in="SourceAlpha" type="matrix" values="0 0 0 0 0 0 0 0 0 0 0 0 0 0 0 0 0 0 127 0"/>
<feOffset dy="0.85"/>
<feGaussianBlur stdDeviation="1.5"/>
<feColorMatrix type="matrix" values="0 0 0 0 0.00784314 0 0 0 0 0.533333 0 0 0 0 0.819608 0 0 0 0.19 0"/>
<feBlend mode="normal" in2="BackgroundImageFix" result="effect1_dropShadow"/>
<feColorMatrix in="SourceAlpha" type="matrix" values="0 0 0 0 0 0 0 0 0 0 0 0 0 0 0 0 0 0 127 0"/>
<feOffset dy="0.25"/>
<feGaussianBlur stdDeviation="0.5"/>
<feColorMatrix type="matrix" values="0 0 0 0 0.00784314 0 0 0 0 0.533333 0 0 0 0 0.819608 0 0 0 0.039 0"/>
<feBlend mode="normal" in2="effect1_dropShadow" result="effect2_dropShadow"/>
<feBlend mode="normal" in="SourceGraphic" in2="effect2_dropShadow" result="shape"/>
</filter>
<filter id="filter1_dd" x="-29" y="405.5" width="424" height="360" filterUnits="userSpaceOnUse" color-interpolation-filters="sRGB">
<feFlood flood-opacity="0" result="BackgroundImageFix"/>
<feColorMatrix in="SourceAlpha" type="matrix" values="0 0 0 0 0 0 0 0 0 0 0 0 0 0 0 0 0 0 127 0"/>
<feOffset dy="10.5"/>
<feGaussianBlur stdDeviation="18"/>
<feColorMatrix type="matrix" values="0 0 0 0 0.00784314 0 0 0 0 0.533333 0 0 0 0 0.819608 0 0 0 0.19 0"/>
<feBlend mode="normal" in2="BackgroundImageFix" result="effect1_dropShadow"/>
<feColorMatrix in="SourceAlpha" type="matrix" values="0 0 0 0 0 0 0 0 0 0 0 0 0 0 0 0 0 0 127 0"/>
<feOffset dy="3"/>
<feGaussianBlur stdDeviation="6.5"/>
<feColorMatrix type="matrix" values="0 0 0 0 0.00784314 0 0 0 0 0.533333 0 0 0 0 0.819608 0 0 0 0.039 0"/>
<feBlend mode="normal" in2="effect1_dropShadow" result="effect2_dropShadow"/>
<feBlend mode="normal" in="SourceGraphic" in2="effect2_dropShadow" result="shape"/>
</filter>
<clipPath id="clip0">
<path d="M3 3H363V723H3V3Z" fill="white"/>
</clipPath>
</defs>
</svg>
