<svg width="24" height="24" viewBox="0 0 24 24" fill="none" xmlns="http://www.w3.org/2000/svg">
<path fill-rule="evenodd" clip-rule="evenodd" d="M5 23H6H18H19V22V20V17H17V19H7V17H5V20V22V23ZM19 1H18H6H5V2V4V7H7V5H17V7H19V4V2V1ZM8.70711 9.70711L6.41421 12L8.70711 14.2929L7.29289 15.7071L4.29289 12.7071L3.58578 12L4.29289 11.2929L7.29289 8.29289L8.70711 9.70711ZM19.7071 11.2929L16.7071 8.29289L15.2929 9.70711L17.5858 12L15.2929 14.2929L16.7071 15.7071L19.7071 12.7071L20.4142 12L19.7071 11.2929Z" fill="black"/>
</svg>
