<svg width="640" height="360" viewBox="0 0 640 360" fill="none" xmlns="http://www.w3.org/2000/svg">
<g id="Selfoss" clip-path="url(#clip0)">
<rect width="640" height="360" fill="white"/>
<rect id="Rectangle" width="640" height="360" fill="#333333"/>
<g id="Group" filter="url(#filter0_dii)">
<path id="Mirror" d="M265.438 253.875L275.281 280.031L285.102 253.875H292.766V288H286.859V276.75L287.445 261.703L277.367 288H273.125L263.07 261.727L263.656 276.75V288H257.75V253.875H265.438ZM305.305 288H299.609V262.641H305.305V288ZM299.258 256.055C299.258 255.18 299.531 254.453 300.078 253.875C300.641 253.297 301.438 253.008 302.469 253.008C303.5 253.008 304.297 253.297 304.859 253.875C305.422 254.453 305.703 255.18 305.703 256.055C305.703 256.914 305.422 257.633 304.859 258.211C304.297 258.773 303.5 259.055 302.469 259.055C301.438 259.055 300.641 258.773 300.078 258.211C299.531 257.633 299.258 256.914 299.258 256.055ZM324.805 267.844C324.055 267.719 323.281 267.656 322.484 267.656C319.875 267.656 318.117 268.656 317.211 270.656V288H311.516V262.641H316.953L317.094 265.477C318.469 263.273 320.375 262.172 322.812 262.172C323.625 262.172 324.297 262.281 324.828 262.5L324.805 267.844ZM341.68 267.844C340.93 267.719 340.156 267.656 339.359 267.656C336.75 267.656 334.992 268.656 334.086 270.656V288H328.391V262.641H333.828L333.969 265.477C335.344 263.273 337.25 262.172 339.688 262.172C340.5 262.172 341.172 262.281 341.703 262.5L341.68 267.844ZM343.367 275.086C343.367 272.602 343.859 270.367 344.844 268.383C345.828 266.383 347.211 264.852 348.992 263.789C350.773 262.711 352.82 262.172 355.133 262.172C358.555 262.172 361.328 263.273 363.453 265.477C365.594 267.68 366.75 270.602 366.922 274.242L366.945 275.578C366.945 278.078 366.461 280.312 365.492 282.281C364.539 284.25 363.164 285.773 361.367 286.852C359.586 287.93 357.523 288.469 355.18 288.469C351.602 288.469 348.734 287.281 346.578 284.906C344.438 282.516 343.367 279.336 343.367 275.367V275.086ZM349.062 275.578C349.062 278.188 349.602 280.234 350.68 281.719C351.758 283.188 353.258 283.922 355.18 283.922C357.102 283.922 358.594 283.172 359.656 281.672C360.734 280.172 361.273 277.977 361.273 275.086C361.273 272.523 360.719 270.492 359.609 268.992C358.516 267.492 357.023 266.742 355.133 266.742C353.273 266.742 351.797 267.484 350.703 268.969C349.609 270.438 349.062 272.641 349.062 275.578ZM385.039 267.844C384.289 267.719 383.516 267.656 382.719 267.656C380.109 267.656 378.352 268.656 377.445 270.656V288H371.75V262.641H377.188L377.328 265.477C378.703 263.273 380.609 262.172 383.047 262.172C383.859 262.172 384.531 262.281 385.062 262.5L385.039 267.844Z" fill="#F2F2F2"/>
<g id="huawei_mirror">
<g id="Long Shadow">
<g id="Group_2">
<path id="Vector" d="M372.288 200.909H330.818V178.302C359.512 173.189 381.302 148.132 381.302 117.97C381.303 84.1133 353.857 56.6667 320 56.6667C286.143 56.6667 258.697 84.1133 258.697 117.97C258.697 148.134 280.488 173.19 309.182 178.302V200.909H267.712C264.725 200.909 262.303 204.138 262.303 208.121C262.303 212.105 264.725 215.333 267.712 215.333H372.288C375.276 215.333 377.697 212.105 377.697 208.121C377.697 204.138 375.276 200.909 372.288 200.909Z" fill="#BDBDBD"/>
</g>
</g>
<g id="Material Foreground">
<path id="Vector_2" d="M330.818 172.721C330.818 169.228 325.974 166.396 320 166.396C314.026 166.396 309.182 169.228 309.182 172.721V202.997C309.182 206.49 314.026 209.322 320 209.322C325.974 209.322 330.818 206.49 330.818 202.997V172.721Z" fill="#9E9E9E"/>
<path id="Vector_3" d="M377.697 208.121C377.697 204.138 375.276 200.909 372.288 200.909H267.712C264.725 200.909 262.303 204.138 262.303 208.121C262.303 212.105 264.725 215.333 267.712 215.333H372.288C375.276 215.333 377.697 212.105 377.697 208.121Z" fill="#E0E0E0"/>
<g id="Group_3">
<path id="Vector_4" d="M320 170.774C290.885 170.774 267.197 147.086 267.197 117.97C267.197 88.8534 290.885 65.1667 320 65.1667C349.115 65.1667 372.802 88.8534 372.802 117.969C372.802 147.086 349.115 170.774 320 170.774Z" fill="#9E9E9E"/>
<path id="Vector_5" d="M320 73.6667C344.429 73.6667 364.303 93.5412 364.303 117.97C364.303 142.399 344.429 162.272 320 162.272C295.571 162.272 275.697 142.398 275.697 117.969C275.697 93.5398 295.571 73.6667 320 73.6667ZM320 56.6667C286.143 56.6667 258.697 84.1133 258.697 117.97C258.697 151.827 286.143 179.272 320 179.272C353.857 179.272 381.303 151.826 381.303 117.969C381.303 84.1118 353.857 56.6667 320 56.6667Z" fill="#EEEEEE"/>
</g>
</g>
</g>
</g>
</g>
<defs>
<filter id="filter0_dii" x="180" y="-2" width="280" height="296.469" filterUnits="userSpaceOnUse" color-interpolation-filters="sRGB">
<feFlood flood-opacity="0" result="BackgroundImageFix"/>
<feColorMatrix in="SourceAlpha" type="matrix" values="0 0 0 0 0 0 0 0 0 0 0 0 0 0 0 0 0 0 127 0"/>
<feOffset dy="2"/>
<feGaussianBlur stdDeviation="2"/>
<feColorMatrix type="matrix" values="0 0 0 0 0 0 0 0 0 0 0 0 0 0 0 0 0 0 0.12 0"/>
<feBlend mode="normal" in2="BackgroundImageFix" result="effect1_dropShadow"/>
<feBlend mode="normal" in="SourceGraphic" in2="effect1_dropShadow" result="shape"/>
<feColorMatrix in="SourceAlpha" type="matrix" values="0 0 0 0 0 0 0 0 0 0 0 0 0 0 0 0 0 0 127 0" result="hardAlpha"/>
<feOffset dy="1"/>
<feComposite in2="hardAlpha" operator="arithmetic" k2="-1" k3="1"/>
<feColorMatrix type="matrix" values="0 0 0 0 1 0 0 0 0 1 0 0 0 0 1 0 0 0 0.2 0"/>
<feBlend mode="normal" in2="shape" result="effect2_innerShadow"/>
<feColorMatrix in="SourceAlpha" type="matrix" values="0 0 0 0 0 0 0 0 0 0 0 0 0 0 0 0 0 0 127 0" result="hardAlpha"/>
<feOffset dy="-1"/>
<feComposite in2="hardAlpha" operator="arithmetic" k2="-1" k3="1"/>
<feColorMatrix type="matrix" values="0 0 0 0 0 0 0 0 0 0 0 0 0 0 0 0 0 0 0.15 0"/>
<feBlend mode="normal" in2="effect2_innerShadow" result="effect3_innerShadow"/>
</filter>
<clipPath id="clip0">
<rect width="640" height="360" fill="white"/>
</clipPath>
</defs>
</svg>
