<svg width="640" height="360" viewBox="0 0 640 360" fill="none" xmlns="http://www.w3.org/2000/svg">
<g id="ntp_pool">
<rect width="640" height="360" fill="white"/>
<rect id="Rectangle" width="640" height="360" fill="#FAFAFA"/>
<g id="Group">
<path id="NTP Pool" d="M249.289 289H243.359L228.148 264.789V289H222.219V254.875H228.148L243.406 279.18V254.875H249.289V289ZM280.25 259.656H269.609V289H263.727V259.656H253.18V254.875H280.25V259.656ZM290.68 276.32V289H284.75V254.875H297.805C301.617 254.875 304.641 255.867 306.875 257.852C309.125 259.836 310.25 262.461 310.25 265.727C310.25 269.07 309.148 271.672 306.945 273.531C304.758 275.391 301.688 276.32 297.734 276.32H290.68ZM290.68 271.562H297.805C299.914 271.562 301.523 271.07 302.633 270.086C303.742 269.086 304.297 267.648 304.297 265.773C304.297 263.93 303.734 262.461 302.609 261.367C301.484 260.258 299.938 259.688 297.969 259.656H290.68V271.562ZM333.336 276.32V289H327.406V254.875H340.461C344.273 254.875 347.297 255.867 349.531 257.852C351.781 259.836 352.906 262.461 352.906 265.727C352.906 269.07 351.805 271.672 349.602 273.531C347.414 275.391 344.344 276.32 340.391 276.32H333.336ZM333.336 271.562H340.461C342.57 271.562 344.18 271.07 345.289 270.086C346.398 269.086 346.953 267.648 346.953 265.773C346.953 263.93 346.391 262.461 345.266 261.367C344.141 260.258 342.594 259.688 340.625 259.656H333.336V271.562ZM356.164 276.086C356.164 273.602 356.656 271.367 357.641 269.383C358.625 267.383 360.008 265.852 361.789 264.789C363.57 263.711 365.617 263.172 367.93 263.172C371.352 263.172 374.125 264.273 376.25 266.477C378.391 268.68 379.547 271.602 379.719 275.242L379.742 276.578C379.742 279.078 379.258 281.312 378.289 283.281C377.336 285.25 375.961 286.773 374.164 287.852C372.383 288.93 370.32 289.469 367.977 289.469C364.398 289.469 361.531 288.281 359.375 285.906C357.234 283.516 356.164 280.336 356.164 276.367V276.086ZM361.859 276.578C361.859 279.188 362.398 281.234 363.477 282.719C364.555 284.188 366.055 284.922 367.977 284.922C369.898 284.922 371.391 284.172 372.453 282.672C373.531 281.172 374.07 278.977 374.07 276.086C374.07 273.523 373.516 271.492 372.406 269.992C371.312 268.492 369.82 267.742 367.93 267.742C366.07 267.742 364.594 268.484 363.5 269.969C362.406 271.438 361.859 273.641 361.859 276.578ZM383.492 276.086C383.492 273.602 383.984 271.367 384.969 269.383C385.953 267.383 387.336 265.852 389.117 264.789C390.898 263.711 392.945 263.172 395.258 263.172C398.68 263.172 401.453 264.273 403.578 266.477C405.719 268.68 406.875 271.602 407.047 275.242L407.07 276.578C407.07 279.078 406.586 281.312 405.617 283.281C404.664 285.25 403.289 286.773 401.492 287.852C399.711 288.93 397.648 289.469 395.305 289.469C391.727 289.469 388.859 288.281 386.703 285.906C384.562 283.516 383.492 280.336 383.492 276.367V276.086ZM389.188 276.578C389.188 279.188 389.727 281.234 390.805 282.719C391.883 284.188 393.383 284.922 395.305 284.922C397.227 284.922 398.719 284.172 399.781 282.672C400.859 281.172 401.398 278.977 401.398 276.086C401.398 273.523 400.844 271.492 399.734 269.992C398.641 268.492 397.148 267.742 395.258 267.742C393.398 267.742 391.922 268.484 390.828 269.969C389.734 271.438 389.188 273.641 389.188 276.578ZM417.945 289H412.25V253H417.945V289Z" fill="#7EC6EC"/>
<g id="Group 2">
<circle id="Ellipse" cx="320" cy="138" r="73.6" stroke="#7A7A7D" stroke-width="12.8"/>
<path id="Subtract" fill-rule="evenodd" clip-rule="evenodd" d="M376 138C376 168.928 350.928 194 320 194C289.072 194 264 168.928 264 138C264 107.072 289.072 82 320 82C350.928 82 376 107.072 376 138ZM282 138C282 141.535 279.135 144.4 275.6 144.4C272.065 144.4 269.2 141.535 269.2 138C269.2 134.465 272.065 131.6 275.6 131.6C279.135 131.6 282 134.465 282 138ZM364.4 144.4C367.935 144.4 370.8 141.535 370.8 138C370.8 134.465 367.935 131.6 364.4 131.6C360.865 131.6 358 134.465 358 138C358 141.535 360.865 144.4 364.4 144.4ZM326.4 182.4C326.4 185.935 323.535 188.8 320 188.8C316.465 188.8 313.6 185.935 313.6 182.4C313.6 178.865 316.465 176 320 176C323.535 176 326.4 178.865 326.4 182.4ZM326.4 95.6C326.4 92.0654 323.535 89.2 320 89.2C316.465 89.2 313.6 92.0654 313.6 95.6V138C313.6 139.697 314.274 141.325 315.475 142.525L334.675 161.725C337.174 164.225 341.226 164.225 343.725 161.725C346.225 159.226 346.225 155.174 343.725 152.675L326.4 135.349V95.6Z" fill="#7EC6EC"/>
</g>
</g>
</g>
</svg>
