<?xml version="1.0" standalone="no"?>
<!DOCTYPE svg PUBLIC "-//W3C//DTD SVG 20010904//EN"
 "http://www.w3.org/TR/2001/REC-SVG-20010904/DTD/svg10.dtd">
<svg version="1.0" xmlns="http://www.w3.org/2000/svg"
 width="512.000000pt" height="512.000000pt" viewBox="0 0 512.000000 512.000000"
 preserveAspectRatio="xMidYMid meet">
<metadata>
Created by potrace 1.11, written by Peter Selinger 2001-2013
</metadata>
<g transform="translate(0.000000,512.000000) scale(0.100000,-0.100000)"
fill="#000000" stroke="none">
<path d="M2320 5114 c-467 -53 -843 -188 -1215 -437 -238 -160 -489 -405 -661
-647 -202 -284 -351 -625 -423 -965 -20 -92 -21 -130 -21 -540 0 -359 3 -454
16 -515 81 -393 236 -736 482 -1065 95 -127 366 -397 498 -496 234 -176 491
-309 784 -406 l115 -38 665 0 665 0 95 31 c159 53 298 112 437 184 252 132
420 256 634 470 328 327 542 691 663 1122 66 237 66 242 66 719 0 478 0 470
-71 724 -128 452 -401 884 -764 1209 -129 114 -145 127 -285 221 -257 172
-534 295 -821 364 -210 51 -314 63 -574 66 -137 2 -266 1 -285 -1z m455 -14
c488 -45 931 -215 1313 -501 567 -426 934 -1076 1003 -1776 14 -147 6 -459
-16 -603 -41 -264 -116 -503 -234 -745 -372 -759 -1064 -1266 -1913 -1402
-161 -25 -575 -25 -738 0 -844 134 -1540 645 -1911 1402 -118 242 -193 481
-234 745 -22 144 -30 456 -16 603 95 966 748 1802 1668 2136 334 121 730 173
1078 141z"/>
<path d="M3553 3933 c-25 -3 -35 -11 -39 -29 -4 -14 -20 -32 -38 -41 -63 -32
-115 -76 -156 -134 -24 -32 -48 -56 -53 -52 -6 3 -7 1 -3 -6 10 -15 -53 -113
-67 -104 -6 3 -7 1 -3 -5 12 -19 -140 -276 -157 -265 -6 3 -7 1 -3 -5 8 -13
-47 -117 -62 -117 -6 0 -14 -4 -19 -9 -5 -5 -3 -6 5 -2 19 11 15 -1 -29 -75
-23 -39 -46 -66 -52 -62 -6 3 -7 1 -3 -6 9 -13 -143 -273 -156 -265 -4 3 -6
-1 -3 -8 3 -7 -22 -54 -55 -105 -59 -92 -87 -114 -125 -99 -21 8 -136 188
-130 204 3 7 1 11 -4 8 -12 -8 -164 251 -155 265 4 7 3 9 -3 6 -16 -10 -169
246 -158 263 4 6 2 9 -4 8 -14 -4 -163 242 -157 259 3 8 2 12 -3 9 -13 -8 -74
91 -65 105 4 7 3 9 -3 6 -5 -4 -30 21 -54 54 -40 55 -143 139 -173 139 -8 0
-8 2 1 8 14 9 -77 17 -180 15 -56 0 -83 -5 -96 -17 -10 -9 -22 -16 -28 -16
-36 0 -193 -157 -193 -195 0 -5 -4 -4 -8 2 -12 19 -12 20 -18 -1074 l-5 -1013
-21 0 c-21 0 -21 -3 -14 -137 11 -204 44 -302 126 -377 159 -143 412 -115 536
60 59 83 84 226 84 488 0 139 -1 144 -20 139 -20 -5 -20 0 -20 315 0 300 1
321 19 343 l19 24 26 -24 c40 -37 87 -116 81 -134 -4 -8 -2 -18 4 -22 7 -3 8
0 5 9 -13 34 6 13 35 -39 18 -31 29 -60 26 -66 -4 -5 -1 -8 7 -7 7 2 12 -5 12
-14 -1 -10 1 -16 5 -14 4 3 35 -41 69 -97 56 -92 60 -102 46 -118 -14 -16 -11
-24 36 -100 59 -93 56 -89 107 -148 57 -66 130 -109 218 -127 68 -14 82 -14
150 0 112 23 183 74 271 193 22 30 134 211 134 216 0 8 193 323 207 340 21 22
40 22 53 -2 6 -13 10 -162 10 -416 0 -524 13 -640 84 -739 80 -113 220 -171
349 -146 157 30 239 105 290 265 l22 70 0 1135 c0 948 -2 1143 -14 1185 -39
139 -101 217 -210 267 -53 25 -80 30 -155 33 -50 2 -106 1 -123 -2z"/>
</g>
</svg>
