<svg width="108" height="108" viewBox="0 0 108 108" fill="none" xmlns="http://www.w3.org/2000/svg">
<path d="M28.5199 61V47.14H37.7999V49.76H31.6399V52.66H37.1199V55.28H31.6399V61H28.5199ZM48.3937 60.64C47.887 60.7867 47.2337 60.92 46.4337 61.04C45.6337 61.1733 44.7937 61.24 43.9137 61.24C43.0203 61.24 42.2737 61.12 41.6737 60.88C41.087 60.64 40.6203 60.3067 40.2737 59.88C39.927 59.44 39.6803 58.92 39.5337 58.32C39.387 57.72 39.3137 57.06 39.3137 56.34V50.48H42.2937V55.98C42.2937 56.94 42.4203 57.6333 42.6737 58.06C42.927 58.4867 43.4003 58.7 44.0937 58.7C44.307 58.7 44.5337 58.6933 44.7737 58.68C45.0137 58.6533 45.227 58.6267 45.4137 58.6V50.48H48.3937V60.64ZM50.691 55.74C50.691 54.98 50.811 54.2667 51.051 53.6C51.3043 52.92 51.6643 52.3333 52.131 51.84C52.5977 51.3333 53.1643 50.9333 53.831 50.64C54.4977 50.3467 55.2577 50.2 56.111 50.2C56.671 50.2 57.1843 50.2533 57.651 50.36C58.1177 50.4533 58.571 50.5933 59.011 50.78L58.391 53.16C58.111 53.0533 57.8043 52.96 57.471 52.88C57.1377 52.8 56.7643 52.76 56.351 52.76C55.471 52.76 54.811 53.0333 54.371 53.58C53.9443 54.1267 53.731 54.8467 53.731 55.74C53.731 56.6867 53.931 57.42 54.331 57.94C54.7443 58.46 55.4577 58.72 56.471 58.72C56.831 58.72 57.2177 58.6867 57.631 58.62C58.0443 58.5533 58.4243 58.4467 58.771 58.3L59.191 60.74C58.8443 60.8867 58.411 61.0133 57.891 61.12C57.371 61.2267 56.7977 61.28 56.171 61.28C55.211 61.28 54.3843 61.14 53.691 60.86C52.9977 60.5667 52.4243 60.1733 51.971 59.68C51.531 59.1867 51.2043 58.6067 50.991 57.94C50.791 57.26 50.691 56.5267 50.691 55.74ZM64.171 54.28C64.4643 53.96 64.7643 53.6267 65.071 53.28C65.391 52.9333 65.6977 52.5933 65.991 52.26C66.2843 51.9133 66.5577 51.5867 66.811 51.28C67.0777 50.9733 67.3043 50.7067 67.491 50.48H71.031C70.3243 51.2933 69.631 52.0733 68.951 52.82C68.2843 53.5533 67.551 54.3133 66.751 55.1C67.151 55.46 67.5643 55.8933 67.991 56.4C68.4177 56.8933 68.831 57.4067 69.231 57.94C69.631 58.4733 69.9977 59.0067 70.331 59.54C70.6643 60.0733 70.9443 60.56 71.171 61H67.751C67.5377 60.6533 67.291 60.2733 67.011 59.86C66.7443 59.4333 66.4577 59.0133 66.151 58.6C65.8443 58.1733 65.5177 57.7667 65.171 57.38C64.8377 56.9933 64.5043 56.6667 64.171 56.4V61H61.191V45.96L64.171 45.48V54.28ZM75.793 58.86C76.3397 58.86 76.7264 58.8067 76.953 58.7C77.1797 58.5933 77.293 58.3867 77.293 58.08C77.293 57.84 77.1464 57.6333 76.853 57.46C76.5597 57.2733 76.113 57.0667 75.513 56.84C75.0464 56.6667 74.6197 56.4867 74.233 56.3C73.8597 56.1133 73.5397 55.8933 73.273 55.64C73.0064 55.3733 72.7997 55.06 72.653 54.7C72.5064 54.34 72.433 53.9067 72.433 53.4C72.433 52.4133 72.7997 51.6333 73.533 51.06C74.2664 50.4867 75.273 50.2 76.553 50.2C77.193 50.2 77.8064 50.26 78.393 50.38C78.9797 50.4867 79.4464 50.6067 79.793 50.74L79.273 53.06C78.9264 52.94 78.5464 52.8333 78.133 52.74C77.733 52.6467 77.2797 52.6 76.773 52.6C75.8397 52.6 75.373 52.86 75.373 53.38C75.373 53.5 75.393 53.6067 75.433 53.7C75.473 53.7933 75.553 53.8867 75.673 53.98C75.793 54.06 75.953 54.1533 76.153 54.26C76.3664 54.3533 76.633 54.46 76.953 54.58C77.6064 54.82 78.1464 55.06 78.573 55.3C78.9997 55.5267 79.333 55.78 79.573 56.06C79.8264 56.3267 79.9997 56.6267 80.093 56.96C80.1997 57.2933 80.253 57.68 80.253 58.12C80.253 59.16 79.8597 59.9467 79.073 60.48C78.2997 61.0133 77.1997 61.28 75.773 61.28C74.8397 61.28 74.0597 61.2 73.433 61.04C72.8197 60.88 72.393 60.7467 72.153 60.64L72.653 58.22C73.1597 58.42 73.6797 58.58 74.213 58.7C74.7464 58.8067 75.273 58.86 75.793 58.86Z" fill="black"/>
</svg>
