<svg xmlns="http://www.w3.org/2000/svg" viewBox="446 40 24 24">
  <defs>
    <style>
      .cls-1 {
        fill: none;
      }

      .cls-1, .cls-2 {
        fill-rule: evenodd;
      }

      .cls-2 {
        fill: #fff;
      }
    </style>
  </defs>
  <g id="ic_search_white" transform="translate(210)">
    <path id="path" class="cls-1" d="M24,0H0V-24H24Z" transform="translate(236 64)"/>
    <path id="path-2" data-name="path" class="cls-2" d="M15.509-9.485h-.794l-.276-.274a6.472,6.472,0,0,0,1.569-4.228,6.5,6.5,0,0,0-6.5-6.5,6.5,6.5,0,0,0-6.5,6.5,6.5,6.5,0,0,0,6.5,6.5,6.474,6.474,0,0,0,4.227-1.567l.276.274v.792l5,4.994L20.5-4.483l-4.991-5Zm-6.005,0a4.5,4.5,0,0,1-4.5-4.5,4.5,4.5,0,0,1,4.5-4.5,4.5,4.5,0,0,1,4.5,4.5,4.5,4.5,0,0,1-4.5,4.5Z" transform="translate(236 63.491)"/>
  </g>
</svg>
