<svg xmlns="http://www.w3.org/2000/svg" viewBox="766 44 4 16">
  <defs>
    <style>
      .cls-1 {
        fill: #fff;
        fill-rule: evenodd;
        opacity: 0.54;
      }
    </style>
  </defs>
  <path id="path" class="cls-1" d="M6-16a2.006,2.006,0,0,0,2-2,2.006,2.006,0,0,0-2-2,2.006,2.006,0,0,0-2,2,2.006,2.006,0,0,0,2,2Zm0,2a2.006,2.006,0,0,0-2,2,2.006,2.006,0,0,0,2,2,2.006,2.006,0,0,0,2-2,2.006,2.006,0,0,0-2-2ZM6-8A2.006,2.006,0,0,0,4-6,2.006,2.006,0,0,0,6-4,2.006,2.006,0,0,0,8-6,2.006,2.006,0,0,0,6-8Z" transform="translate(762 64)"/>
</svg>
