<svg width="108" height="108" viewBox="0 0 108 108" fill="none" xmlns="http://www.w3.org/2000/svg">
<g clip-path="url(#clip0_1797_13161)">
<path d="M44.3787 45.1694C44.7014 40.6038 49.3459 37 54 37C58.6541 37 63.2986 40.6038 63.6213 45.1694L63.7293 46.7828C64.2508 52.0785 65.0751 59.4477 68.4737 65.8123C69.4176 67.7924 69.0216 69.1304 67.8444 70.306C66.5858 71.5629 65.2224 70.8297 64.698 70.306C63.8059 69.416 63.4087 69.0492 62.1808 69.0492C60.9528 69.0492 60.5556 69.416 59.6636 70.306C58.405 71.5629 57.0416 70.8297 56.5172 70.306C55.6252 69.416 55.228 69.0492 54 69.0492C52.772 69.0492 52.3749 69.416 51.4828 70.306C50.9584 70.8297 49.595 71.5629 48.3364 70.306C47.4444 69.416 47.0472 69.0492 45.8192 69.0492C44.5913 69.0492 44.1941 69.416 43.3021 70.306C42.7776 70.8297 41.4142 71.5629 40.1556 70.306C38.9784 69.1304 38.5824 67.7924 39.5263 65.8123C42.9249 59.4477 43.7492 52.0785 44.2707 46.7828L44.3787 45.1694Z" stroke="#01579B" stroke-width="3"/>
<path d="M52 51C52.6667 51.6667 54.4 52.6 56 51" stroke="#0164A9" stroke-width="1.5" stroke-linecap="round"/>
<circle cx="57.5" cy="47.5" r="1.5" fill="#01579B"/>
<circle cx="50.5" cy="47.5" r="1.5" fill="#01579B"/>
<g style="mix-blend-mode:soft-light" opacity="0.7">
<rect width="108" height="108" fill="url(#paint0_radial_1797_13161)"/>
</g>
</g>
<defs>
<radialGradient id="paint0_radial_1797_13161" cx="0" cy="0" r="1" gradientUnits="userSpaceOnUse" gradientTransform="rotate(45) scale(139.3)">
<stop stop-color="#D9D9D9"/>
<stop offset="1" stop-color="#D9D9D9" stop-opacity="0"/>
</radialGradient>
<clipPath id="clip0_1797_13161">
<rect width="108" height="108" fill="white"/>
</clipPath>
</defs>
</svg>
