<svg width="364" height="364" viewBox="0 0 364 364" fill="none" xmlns="http://www.w3.org/2000/svg">
<g id="ic_launcher_squircle" clip-path="url(#clip0)">
<g id="Squircle Preview">
<g id="Clipped Preview Icon" filter="url(#filter0_dd)">
<mask id="mask0" mask-type="alpha" maskUnits="userSpaceOnUse" x="38" y="38" width="288" height="288">
<path id="Squircle" d="M285 58C258 40.7371 218 38 182 38C146 38 106 40.7371 79 58C70.3643 63.5214 63.5214 70.3643 58 79C40.7371 106 38 146 38 182C38 218 40.7371 258 58 285C63.5214 293.636 70.3643 300.479 79 306C106 323.263 146 326 182 326C218 326 258 323.263 285 306C293.636 300.479 300.479 293.636 306 285C323.263 258 326 218 326 182C326 146 323.263 106 306 79C300.479 70.3643 293.636 63.5214 285 58Z" fill="#FF9800"/>
</mask>
<g mask="url(#mask0)">
<g id="Combined Foreground/Background">
<g id="Composite">
<g id="ic_launcher_background">
<g id="Frame">
<path id="Vector" d="M398 -34H-34V398H398V-34Z" fill="#FAA300"/>
<path id="Vector_2" opacity="0.3" d="M97.4 191.44H-34V172.52H97.4C101.64 133.08 133.12 101.6 172.56 97.36V-34H191.48V97.4C230.92 101.64 262.4 133.12 266.64 172.56H398V191.48H266.6C262.36 230.92 230.88 262.4 191.44 266.64V398H172.52V266.6C133.12 262.36 101.64 230.88 97.4 191.44ZM182 115.8C145.44 115.8 115.8 145.44 115.8 182C115.8 218.56 145.44 248.2 182 248.2C218.56 248.2 248.2 218.56 248.2 182C248.2 145.44 218.56 115.8 182 115.8Z" fill="#BF360C"/>
</g>
</g>
<g id="ic_launcher_foreground" clip-path="url(#clip1)">
<g id="Plate">
<path id="Vector_3" d="M398.004 337L213.004 152C192.671 172.5 151.804 213.5 151.004 213.5C150.204 213.5 273.337 336.167 335.004 397.5H398.004V337Z" fill="url(#paint0_linear)"/>
<g id="Vector_4" filter="url(#filter1_ddii)">
<path d="M226 182C226 206.309 206.318 226 182.02 226C169.871 226 158.896 221.057 150.919 213.116C142.941 205.175 138 194.155 138 182C138 169.845 142.941 158.866 150.878 150.884C158.815 142.902 169.831 138 181.98 138C194.129 138 205.104 142.943 213.081 150.884C221.059 158.866 226 169.845 226 182Z" fill="#FAFAFA"/>
</g>
<g id="Frame_2" clip-path="url(#clip2)">
<path id="Vector_5" d="M173.602 160V177.341H189.93V160H199.532V204H189.93V185.89H173.602V204.041H164V160H173.602Z" fill="#212121" fill-opacity="0.4"/>
</g>
</g>
<rect id="Finish Layer" x="-34" y="-34" width="432" height="432" fill="url(#paint1_radial)" fill-opacity="0.1"/>
</g>
</g>
</g>
</g>
</g>
</g>
</g>
<defs>
<filter id="filter0_dd" x="34" y="38" width="296" height="300" filterUnits="userSpaceOnUse" color-interpolation-filters="sRGB">
<feFlood flood-opacity="0" result="BackgroundImageFix"/>
<feColorMatrix in="SourceAlpha" type="matrix" values="0 0 0 0 0 0 0 0 0 0 0 0 0 0 0 0 0 0 127 0"/>
<feOffset dy="4"/>
<feGaussianBlur stdDeviation="2"/>
<feColorMatrix type="matrix" values="0 0 0 0 0 0 0 0 0 0 0 0 0 0 0 0 0 0 0.12 0"/>
<feBlend mode="normal" in2="BackgroundImageFix" result="effect1_dropShadow"/>
<feColorMatrix in="SourceAlpha" type="matrix" values="0 0 0 0 0 0 0 0 0 0 0 0 0 0 0 0 0 0 127 0"/>
<feOffset dy="8"/>
<feGaussianBlur stdDeviation="2"/>
<feColorMatrix type="matrix" values="0 0 0 0 0 0 0 0 0 0 0 0 0 0 0 0 0 0 0.12 0"/>
<feBlend mode="normal" in2="effect1_dropShadow" result="effect2_dropShadow"/>
<feBlend mode="normal" in="SourceGraphic" in2="effect2_dropShadow" result="shape"/>
</filter>
<filter id="filter1_ddii" x="134" y="138" width="96" height="96" filterUnits="userSpaceOnUse" color-interpolation-filters="sRGB">
<feFlood flood-opacity="0" result="BackgroundImageFix"/>
<feColorMatrix in="SourceAlpha" type="matrix" values="0 0 0 0 0 0 0 0 0 0 0 0 0 0 0 0 0 0 127 0"/>
<feOffset dy="4"/>
<feGaussianBlur stdDeviation="2"/>
<feColorMatrix type="matrix" values="0 0 0 0 0.74902 0 0 0 0 0.211765 0 0 0 0 0.0470588 0 0 0 0.2 0"/>
<feBlend mode="normal" in2="BackgroundImageFix" result="effect1_dropShadow"/>
<feColorMatrix in="SourceAlpha" type="matrix" values="0 0 0 0 0 0 0 0 0 0 0 0 0 0 0 0 0 0 127 0"/>
<feOffset dy="1"/>
<feColorMatrix type="matrix" values="0 0 0 0 0.74902 0 0 0 0 0.211765 0 0 0 0 0.0470588 0 0 0 0.2 0"/>
<feBlend mode="normal" in2="effect1_dropShadow" result="effect2_dropShadow"/>
<feBlend mode="normal" in="SourceGraphic" in2="effect2_dropShadow" result="shape"/>
<feColorMatrix in="SourceAlpha" type="matrix" values="0 0 0 0 0 0 0 0 0 0 0 0 0 0 0 0 0 0 127 0" result="hardAlpha"/>
<feOffset dy="1"/>
<feComposite in2="hardAlpha" operator="arithmetic" k2="-1" k3="1"/>
<feColorMatrix type="matrix" values="0 0 0 0 1 0 0 0 0 1 0 0 0 0 1 0 0 0 1 0"/>
<feBlend mode="normal" in2="shape" result="effect3_innerShadow"/>
<feColorMatrix in="SourceAlpha" type="matrix" values="0 0 0 0 0 0 0 0 0 0 0 0 0 0 0 0 0 0 127 0" result="hardAlpha"/>
<feOffset dy="-1"/>
<feComposite in2="hardAlpha" operator="arithmetic" k2="-1" k3="1"/>
<feColorMatrix type="matrix" values="0 0 0 0 0.129412 0 0 0 0 0.129412 0 0 0 0 0.129412 0 0 0 0.1 0"/>
<feBlend mode="normal" in2="effect3_innerShadow" result="effect4_innerShadow"/>
</filter>
<linearGradient id="paint0_linear" x1="154" y1="152" x2="360" y2="358" gradientUnits="userSpaceOnUse">
<stop stop-color="#BF360C" stop-opacity="0.2"/>
<stop offset="1" stop-color="#BF360C" stop-opacity="0"/>
</linearGradient>
<radialGradient id="paint1_radial" cx="0" cy="0" r="1" gradientUnits="userSpaceOnUse" gradientTransform="translate(78 77.9999) rotate(45) scale(294.156)">
<stop stop-color="white"/>
<stop offset="0.375691" stop-color="white" stop-opacity="0.502762"/>
<stop offset="1" stop-color="white" stop-opacity="0"/>
</radialGradient>
<clipPath id="clip0">
<rect width="364" height="364" fill="white"/>
</clipPath>
<clipPath id="clip1">
<rect width="432" height="432" fill="white" transform="translate(-34 -34)"/>
</clipPath>
<clipPath id="clip2">
<rect width="35.5322" height="44" fill="white" transform="translate(164 160)"/>
</clipPath>
</defs>
</svg>
