<svg width="432" height="432" viewBox="0 0 432 432" fill="none" xmlns="http://www.w3.org/2000/svg">
<g id="ic_launcher_foreground" clip-path="url(#clip0)">
<g id="Plate">
<path id="Vector" d="M432.004 371L247.004 186C226.671 206.5 185.804 247.5 185.004 247.5C184.204 247.5 307.337 370.167 369.004 431.5H432.004V371Z" fill="url(#paint0_linear)"/>
<g id="Vector_2" filter="url(#filter0_ddii)">
<path d="M260 216C260 240.309 240.318 260 216.02 260C203.871 260 192.896 255.057 184.919 247.116C176.941 239.175 172 228.155 172 216C172 203.845 176.941 192.866 184.878 184.884C192.815 176.902 203.831 172 215.98 172C228.129 172 239.104 176.943 247.081 184.884C255.059 192.866 260 203.845 260 216Z" fill="#FAFAFA"/>
</g>
<g id="Frame" clip-path="url(#clip1)">
<path id="Vector_3" d="M207.602 194V211.341H223.93V194H233.532V238H223.93V219.89H207.602V238.041H198V194H207.602Z" fill="#212121" fill-opacity="0.4"/>
</g>
</g>
<rect id="Finish Layer" width="432" height="432" fill="url(#paint1_radial)" fill-opacity="0.1"/>
</g>
<defs>
<filter id="filter0_ddii" x="168" y="172" width="96" height="96" filterUnits="userSpaceOnUse" color-interpolation-filters="sRGB">
<feFlood flood-opacity="0" result="BackgroundImageFix"/>
<feColorMatrix in="SourceAlpha" type="matrix" values="0 0 0 0 0 0 0 0 0 0 0 0 0 0 0 0 0 0 127 0"/>
<feOffset dy="4"/>
<feGaussianBlur stdDeviation="2"/>
<feColorMatrix type="matrix" values="0 0 0 0 0.74902 0 0 0 0 0.211765 0 0 0 0 0.0470588 0 0 0 0.2 0"/>
<feBlend mode="normal" in2="BackgroundImageFix" result="effect1_dropShadow"/>
<feColorMatrix in="SourceAlpha" type="matrix" values="0 0 0 0 0 0 0 0 0 0 0 0 0 0 0 0 0 0 127 0"/>
<feOffset dy="1"/>
<feColorMatrix type="matrix" values="0 0 0 0 0.74902 0 0 0 0 0.211765 0 0 0 0 0.0470588 0 0 0 0.2 0"/>
<feBlend mode="normal" in2="effect1_dropShadow" result="effect2_dropShadow"/>
<feBlend mode="normal" in="SourceGraphic" in2="effect2_dropShadow" result="shape"/>
<feColorMatrix in="SourceAlpha" type="matrix" values="0 0 0 0 0 0 0 0 0 0 0 0 0 0 0 0 0 0 127 0" result="hardAlpha"/>
<feOffset dy="1"/>
<feComposite in2="hardAlpha" operator="arithmetic" k2="-1" k3="1"/>
<feColorMatrix type="matrix" values="0 0 0 0 1 0 0 0 0 1 0 0 0 0 1 0 0 0 1 0"/>
<feBlend mode="normal" in2="shape" result="effect3_innerShadow"/>
<feColorMatrix in="SourceAlpha" type="matrix" values="0 0 0 0 0 0 0 0 0 0 0 0 0 0 0 0 0 0 127 0" result="hardAlpha"/>
<feOffset dy="-1"/>
<feComposite in2="hardAlpha" operator="arithmetic" k2="-1" k3="1"/>
<feColorMatrix type="matrix" values="0 0 0 0 0.129412 0 0 0 0 0.129412 0 0 0 0 0.129412 0 0 0 0.1 0"/>
<feBlend mode="normal" in2="effect3_innerShadow" result="effect4_innerShadow"/>
</filter>
<linearGradient id="paint0_linear" x1="188" y1="186" x2="394" y2="392" gradientUnits="userSpaceOnUse">
<stop stop-color="#BF360C" stop-opacity="0.2"/>
<stop offset="1" stop-color="#BF360C" stop-opacity="0"/>
</linearGradient>
<radialGradient id="paint1_radial" cx="0" cy="0" r="1" gradientUnits="userSpaceOnUse" gradientTransform="translate(112 112) rotate(45) scale(294.156)">
<stop stop-color="white"/>
<stop offset="0.375691" stop-color="white" stop-opacity="0.502762"/>
<stop offset="1" stop-color="white" stop-opacity="0"/>
</radialGradient>
<clipPath id="clip0">
<rect width="432" height="432" fill="white"/>
</clipPath>
<clipPath id="clip1">
<rect width="35.5322" height="44" fill="white" transform="translate(198 194)"/>
</clipPath>
</defs>
</svg>
