<svg width="432" height="432" viewBox="0 0 432 432" fill="none" xmlns="http://www.w3.org/2000/svg">
<g id="ic_launcher_background">
<g id="Frame">
<path id="Vector" d="M432 0H0V432H432V0Z" fill="#FAA300"/>
<path id="Vector_2" opacity="0.3" d="M131.4 225.44H0V206.52H131.4C135.64 167.08 167.12 135.6 206.56 131.36V0H225.48V131.4C264.92 135.64 296.4 167.12 300.64 206.56H432V225.48H300.6C296.36 264.92 264.88 296.4 225.44 300.64V432H206.52V300.6C167.12 296.36 135.64 264.88 131.4 225.44ZM216 149.8C179.44 149.8 149.8 179.44 149.8 216C149.8 252.56 179.44 282.2 216 282.2C252.56 282.2 282.2 252.56 282.2 216C282.2 179.44 252.56 149.8 216 149.8Z" fill="#BF360C"/>
</g>
</g>
</svg>
