<svg xmlns="http://www.w3.org/2000/svg" viewBox="0 0 1000 1000"><defs><style>.cls-1{isolation:isolate;}.cls-2{fill:#333;stroke:#000;stroke-miterlimit:10;stroke-width:34.02px;}.cls-3{fill:#1a1a1a;}.cls-3,.cls-4{opacity:0.88;mix-blend-mode:multiply;}.cls-5{opacity:0.72;}.cls-6{fill:#fff;}</style></defs><title>outlined black icon</title><g class="cls-1"><g id="Layer_6" data-name="Layer 6"><path class="cls-2" d="M834.71,842.08c-11.81,28-31.27,49.25-57.51,64.8C752,921.81,724.88,928,696,928c-28.43,0-56-5.91-83.56-12-23.74-5.21-47.52-10.28-71.29-15.37-28.8-6.17-57.59-5.51-86.28.54-29.67,6.27-59.23,13-88.91,19.3-23.87,5-48,8.46-72.48,7.23-22.77-1.13-44.27-6.51-64.62-17.16-24.18-12.65-43.45-30.24-57-53.86-15.33-26.79-20.76-55.93-17.79-86.43C159.7,713,186.4,667.12,231.26,631.8a191.41,191.41,0,0,0,29-28.37,229.79,229.79,0,0,0,22.07-31.93c13.87-24,26.92-48.51,41-72.39,33.51-56.83,85.34-85.8,149.09-94.32,59.47-7.94,113.35,7.64,161.1,43.93,17.59,13.36,30.83,30.68,42,49.47,14,23.73,27.12,48,40.83,71.95a237.86,237.86,0,0,0,18.5,27.76,198.33,198.33,0,0,0,34.68,34.94c37.22,29.07,61.55,66.91,72.11,113.1C849.06,778.58,847.85,810.88,834.71,842.08Z"/><path class="cls-2" d="M471.75,235.4c-.57,34.5-9.06,69.21-31.09,99.64-14.63,20.2-33.4,35.09-58.18,40.71-27.92,6.33-53.17-.58-75.8-17.48-26.14-19.51-42.56-45.91-52.48-76.51-15-46.19-14.58-92.12,4-137.33,8.77-21.3,21.64-39.81,40.32-53.7,34.94-26,78-24.68,113.16,3.35,24,19.16,39.24,44.28,49.17,73C468.26,188.36,471.52,210.35,471.75,235.4Z"/><path class="cls-2" d="M727.26,320.11c-13.21,22.08-31.47,39.54-55.27,50.26-33.52,15.08-70.61,7.89-99-19.05-20.9-19.84-33.16-44.73-39.56-72.35-3.52-15.21-4.78-31-5.93-38.76.84-48.46,10.84-86.18,34.8-119.46,13.68-19,30.78-34.18,53-42.49,33.18-12.43,63.33-6,90.29,16.27,19.71,16.3,32.42,37.55,40,61.58C763.75,213.36,758.2,268.4,727.26,320.11Z"/><path class="cls-2" d="M259.85,480.18c-2.33,25.06-9.52,48.64-23.89,69.61-30.78,44.89-83.65,55-130.36,24.64C78,556.48,59.13,531.11,46.18,501.16c-10.84-25.05-16.4-51.26-16.56-81.35.25-26.92,6.23-55.11,22.22-80.53S90,297.51,120.26,293.92c18.55-2.19,36.23,1.78,52.8,10.23,32.32,16.49,54,43,69,75.26C256.89,411.35,263.11,445,259.85,480.18Z"/><path class="cls-2" d="M970.17,420.88c-2.06,54.38-18.39,101.27-57.32,138.58-17.38,16.67-37.74,28.21-62.05,31.34-32.09,4.14-58.51-7-79.53-31-18-20.61-27.37-45.29-30.69-72.1-6.52-52.55,6-100.46,37.76-142.84,17.58-23.49,39.91-41.29,69.08-48.4,35.72-8.72,65.81,1.63,89.9,29,17.63,20,26.62,44.11,30.41,70.23C969,404.5,969.47,413.44,970.17,420.88Z"/><path class="cls-3" d="M259.85,480.18c-2.33,25.06-9.52,48.64-23.89,69.61-30.78,44.89-83.65,55-130.36,24.64C78,556.48,59.13,531.11,46.18,501.16c-10.84-25.05-16.4-51.26-16.56-81.35.25-26.92,6.23-55.11,22.22-80.53S90,297.51,120.26,293.92c18.55-2.19,36.23,1.78,52.8,10.23,32.32,16.49,54,43,69,75.26C256.89,411.35,263.11,445,259.85,480.18Z"/><path class="cls-3" d="M254.2,281.76c-15-46.19-14.58-92.12,4-137.33,8.77-21.3,21.64-39.81,40.32-53.7,34.94-26,78-24.68,113.16,3.35,24,19.16,39.24,44.28,49.17,73,7.38,21.32,10.64,43.31,10.87,68.36-.57,34.5-9.06,69.21-31.09,99.64-14.63,20.2-33.4,35.09-58.18,40.71-27.92,6.33-53.17-.58-75.8-17.48C280.54,338.76,264.12,312.36,254.2,281.76Z"/><path class="cls-4" d="M716.31,570.14a237.86,237.86,0,0,0,18.5,27.76c-28.84,2.3-52.75,22.13-77,38-51.53,33.69-100.8,25.86-150.27-1.66-63.78-35.49-89.43,37.33-147.61,37.75-41.11.3-65.57-46.18-99.68-68.54a229.79,229.79,0,0,0,22.07-31.93c13.87-24,26.92-48.51,41-72.39,33.51-56.83,85.34-85.8,149.09-94.32,59.47-7.94,113.35,7.64,161.1,43.93,17.59,13.36,30.83,30.68,42,49.47C689.52,521.92,702.6,546.21,716.31,570.14Z"/><path class="cls-3" d="M533.46,279c-3.52-15.21-4.78-31-5.93-38.76.84-48.46,10.84-86.18,34.8-119.46,13.68-19,30.78-34.18,53-42.49,33.18-12.43,63.33-6,90.29,16.27,19.71,16.3,32.42,37.55,40,61.58,18.13,57.25,12.58,112.29-18.36,164-13.21,22.08-31.47,39.54-55.27,50.26-33.52,15.08-70.61,7.89-99-19.05C552.12,331.48,539.86,306.59,533.46,279Z"/><path class="cls-3" d="M970.17,420.88c-2.06,54.38-18.39,101.27-57.32,138.58-17.38,16.67-37.74,28.21-62.05,31.34-32.09,4.14-58.51-7-79.53-31-18-20.61-27.37-45.29-30.69-72.1-6.52-52.55,6-100.46,37.76-142.84,17.58-23.49,39.91-41.29,69.08-48.4,35.72-8.72,65.81,1.63,89.9,29,17.63,20,26.62,44.11,30.41,70.23C969,404.5,969.47,413.44,970.17,420.88Z"/><g class="cls-5"><path class="cls-6" d="M349.6,821a83.7,83.7,0,0,1-13.28,2.92l6.7-.9a89.6,89.6,0,0,1-23.65-.06l6.7.9a93.51,93.51,0,0,1-23.22-6.35l6,2.54a90.15,90.15,0,0,1-19.79-11.5l5.1,3.94a83.39,83.39,0,0,1-14.88-14.86l3.94,5.1A86.22,86.22,0,0,1,272.36,784l2.54,6a92.24,92.24,0,0,1-6.41-23.59l.9,6.7a92.56,92.56,0,0,1,0-24l-.9,6.7a86.07,86.07,0,0,1,5.9-21.66l-2.54,6a101.41,101.41,0,0,1,13-21.84l-3.94,5.1C293.65,707,310,693.86,325.47,680.14a477.12,477.12,0,0,0,48.26-49.42c9.66-11.44,18.86-23.32,27.56-35.51a18.79,18.79,0,0,0,3-9.37,25.89,25.89,0,0,0-12-25.12c-5.85-3.09-12.94-4.64-19.42-2.54l-6,2.54a25.29,25.29,0,0,0-9,9q-5.25,7.35-10.78,14.5l3.94-5.1a475.8,475.8,0,0,1-57.43,62c-9.48,8.57-19.33,16.72-28.65,25.47a188,188,0,0,0-28.39,33,124.34,124.34,0,0,0-11.13,22.14,83.86,83.86,0,0,0-4.83,16.66,123.93,123.93,0,0,0-2.3,24,129.13,129.13,0,0,0,2.73,23.59,91.78,91.78,0,0,0,5.21,17c3,7.29,6.15,14.38,10.57,20.94a112.45,112.45,0,0,0,15.06,18.3A117.85,117.85,0,0,0,270,856.55a124.41,124.41,0,0,0,21.25,10.31,92,92,0,0,0,16.43,4.79,126.88,126.88,0,0,0,23.72,2.55,120.82,120.82,0,0,0,23.3-2.49,81.25,81.25,0,0,0,8.3-2.09A26.39,26.39,0,0,0,378.07,858a18.76,18.76,0,0,0,3-9.37,19.1,19.1,0,0,0-.45-10l-2.54-6a25.29,25.29,0,0,0-9.05-9c-5.9-3.12-12.86-4.55-19.42-2.55Z"/></g><path class="cls-6" d="M78,369.94a201.49,201.49,0,0,0-7.44,34c-1.55,11.52-2.33,23-1.25,34.61,1.06,11.42,2.9,22.81,6.78,33.64,3.64,10.16,8.17,20.21,14.36,29.1a126.24,126.24,0,0,0,13.09,16.17,116.25,116.25,0,0,0,16,13.27,18.79,18.79,0,0,0,9.38,3,19.1,19.1,0,0,0,10-.45,19,19,0,0,0,8.57-4.51,19.12,19.12,0,0,0,6.49-7.07l2.54-6a25.39,25.39,0,0,0,0-13.4l-2.54-6a25.34,25.34,0,0,0-9-9c-1-.68-1.9-1.38-2.82-2.09l5.1,3.94a83.49,83.49,0,0,1-14.72-14.86l3.94,5.1a97.11,97.11,0,0,1-12.29-21.23l2.54,6a108.62,108.62,0,0,1-7.43-27.6l.91,6.7a137,137,0,0,1,.28-35.9l-.9,6.7a184,184,0,0,1,7-30.64,19.1,19.1,0,0,0,.45-10,18.72,18.72,0,0,0-3-9.37,19,19,0,0,0-6.49-7.07,19,19,0,0,0-8.57-4.51l-6.7-.9a25,25,0,0,0-12.72,3.44l-5.1,3.94A25.13,25.13,0,0,0,78,369.94Z"/><path class="cls-6" d="M290.7,153.3c-3.57,10.07-5.2,20.45-6.6,31a161.62,161.62,0,0,0-1.27,26.75,200.78,200.78,0,0,0,3.86,32.43c.82,4.06,1.82,8.09,3,12.05a157,157,0,0,0,6.43,16.69,71.57,71.57,0,0,0,5.7,10.73,77,77,0,0,0,10.66,13.35,28,28,0,0,0,17.82,7.38,28,28,0,0,0,17.82-7.38c4.41-4.8,7.69-11.11,7.39-17.82l-.9-6.7a25.13,25.13,0,0,0-6.49-11.12,45.41,45.41,0,0,1-4.23-4.75l3.94,5.1a67.6,67.6,0,0,1-8.54-15.08l2.54,6a124.75,124.75,0,0,1-8.17-31.52l.9,6.7a162.48,162.48,0,0,1-.06-43l-.9,6.7a121.81,121.81,0,0,1,5.67-24.13,19.1,19.1,0,0,0,.45-10,18.76,18.76,0,0,0-3-9.37,19,19,0,0,0-6.49-7.07,18.93,18.93,0,0,0-8.57-4.51l-6.7-.9a25,25,0,0,0-12.72,3.44l-5.1,3.94a25,25,0,0,0-6.48,11.12Z"/><path class="cls-6" d="M618.1,115a119,119,0,0,0-15,12.57,135.22,135.22,0,0,0-12.23,15c-6.66,9.21-11.32,19.43-15.56,29.93a146.71,146.71,0,0,0-7.91,27.24,208.94,208.94,0,0,0-3.85,34.73,194.11,194.11,0,0,0,3.1,37.27,28.19,28.19,0,0,0,11.58,15.06,18.76,18.76,0,0,0,9.37,3,19.1,19.1,0,0,0,10.05-.45l6-2.54a25.27,25.27,0,0,0,9-9l2.54-6a25.39,25.39,0,0,0,0-13.4c-.31-1.85-.6-3.7-.85-5.56l.9,6.7a167.58,167.58,0,0,1,.14-44.07l-.9,6.7a150.92,150.92,0,0,1,10.18-38.14l-2.54,6a110.2,110.2,0,0,1,14-24.38l-3.94,5.1a84.8,84.8,0,0,1,15-15.14l-5.1,3.94,1.31-1a19.12,19.12,0,0,0,7.07-6.49,18.93,18.93,0,0,0,4.51-8.57,19.1,19.1,0,0,0,.45-10,18.76,18.76,0,0,0-3-9.37l-3.94-5.1a25.07,25.07,0,0,0-11.12-6.48l-6.7-.9A25,25,0,0,0,618.1,115Z"/><path class="cls-6" d="M849.15,331a124.88,124.88,0,0,0-26,17.79c-8,6.9-14.73,15.06-20.92,23.62a112.78,112.78,0,0,0-6.84,10.7,164.89,164.89,0,0,0-8,17.1,109.75,109.75,0,0,0-7.16,24.66c-1.9,11.59-2.94,23.15-1.52,34.84a24.32,24.32,0,0,0,15.49,23A19,19,0,0,0,803.9,485l6.7-.9a25.2,25.2,0,0,0,11.12-6.48l3.94-5.1a25.1,25.1,0,0,0,3.44-12.73,100,100,0,0,1,.2-25.28l-.9,6.7A109.07,109.07,0,0,1,836,413.64l-2.54,6A111.82,111.82,0,0,1,847.89,395l-3.94,5.1a106.61,106.61,0,0,1,18.86-18.93l-5.1,3.94a100.2,100.2,0,0,1,16.88-10.54,28.19,28.19,0,0,0,11.58-15.06,19.1,19.1,0,0,0,.45-10.05,18.76,18.76,0,0,0-3-9.37l-3.94-5.1a25,25,0,0,0-11.12-6.48l-6.7-.9A25,25,0,0,0,849.15,331Z"/></g></g></svg>